<?xml version="1.0" encoding="UTF-8"?><svg id="Layer_2" xmlns="http://www.w3.org/2000/svg" viewBox="0 0 428 299"><defs><style>.cls-1{fill:#43ba9a;}.cls-2{fill:none;stroke:#43ba9a;stroke-miterlimit:10;}</style></defs><g id="page_4"><g><path class="cls-1" d="m310.77,237.07c-7.68-.66-12.68-6-12.82-13.74-.04-2.35,0-4.71-.01-7.07,0-3.72.01-3.67-3.36-2.36-2.64,1.03-5.21,2.78-8.2,1.85-2.27-.7-2.31.36-2.33,2.07-.07,6.45-.21,12.9,3.26,19.04-1.18.09-1.96.2-2.74.2-30.11,0-60.22.02-90.32,0-7.4,0-11.47-2.97-14.06-10.01.35-.47.24-.87-.2-1.21-.02-37.78,0-75.55-.08-113.33-.02-11.77.38-23.54-.25-35.3.3-.5.22-.94-.19-1.33-.17.14-.28.27-.33.39.06-.12.16-.25.33-.39-.06-.38-.12-.76-.18-1.15.36-.95-.22-1.53-.83-2.09-.12-.69-.14-1.42-.37-2.08-1.18-3.43-1.2-3.43,2.35-3.43,29.65,0,59.3,0,88.95,0,9.41,0,14.66,5.23,14.68,14.57.03,9.51.04,19.01.06,28.52-.24.69-.11,1.35.18,2,.72-.04,1.44-.08,2.15-.12-.2-.61-.4-1.22-.59-1.83h0c.26-.05.51-.1.77-.14-.26.05-.51.1-.77.14.2.61.4,1.22.59,1.83h0c-.72.04-1.44.08-2.15.12-.08,4.89-.17,9.78-.23,14.67-.01.88-.15,2.19,1.28,1.8,3.82-1.03,6.97.81,10.24,2.16,1.44.6,2.31.63,2.29-1.33-.1-9.07-.14-18.15-.21-27.22.61-1.03.69-2.06-.03-3.08.48-7.05.47-14.13.07-21.17-.78-13.71-12.38-24.77-26.18-24.82-39.74-.13-79.48-.1-119.21-.01-12.3.03-22.92,8.75-25.77,20.74-1.37,5.76-.72,11.63-.76,17.45-.04,5.32,2.65,7.86,7.98,7.87,8.3,0,16.59-.03,24.89-.05,1.23,0,2.45,0,3.68,0,1,.02,2.01.03,3.01.05.62,1.26.37,2.62.37,3.93.01,39.69,0,79.38.04,119.07,0,1.69-.51,3.48.58,5.06.07.52.14,1.03.21,1.55-.37.63-.17,1.13.37,1.54,2.85,10.82,9.81,17.58,20.66,19.93,7.04,1.52,14.27.53,21.42.55.85,0,1.71,0,2.56,0,.58,0,1.16.02,1.75.03.85,0,1.69.01,2.54.02,1.61,0,3.22-.01,4.83-.02.66-.03,1.31-.06,1.97-.08.58.03,1.15.06,1.73.09-.04-.23-.09-.46-.14-.68-.1-.44-.23-.84-.38-1.22-.22-.56-.49-1.06-.82-1.48.32.43.59.92.82,1.48.15.37.27.78.38,1.22.05.22.1.45.14.68.65,0,1.29-.02,1.94-.03.3.04.61.1.91.1,27.75,0,55.5.02,83.25,0,4.48,0,7.5-2.83,7.54-6.79.05-4.05-2.68-6.75-7.23-7.14Zm-21.19-127.95s0,0,0,0c.07.26.14.52.21.77-.07-.26-.14-.52-.21-.77Zm4.93-7.02c.11.42.52.73,1.18.8h0c-.66-.07-1.07-.37-1.18-.8Zm-4.98,6.92h0c-.62-.34-1.13-.73-1.06-1.4-.07.68.43,1.06,1.06,1.4Zm-129.18-23.55c-2.55,0-5.1,0-7.65,0-3.67,0-7.35-.05-11.02.03-1.58.03-2.24-.48-2.09-2.11.16-1.72-.03-3.49.24-5.19,1.1-6.83,6.89-11.35,13.98-11.03,6.16.28,11.53,5.65,12.13,12.13q.56,6.15-5.59,6.17Zm61.55,161c.29.2.55.42.79.68-.24-.25-.5-.48-.79-.68Zm79.34-7.73h-.01s.01,0,.01,0h0Zm-6.52,5.53c-.19-.27-.52-.43-.84-.6h0c.32.16.65.32.84.6Zm-.88-.64h0c-.09-.18-.21-.31-.35-.4.14.09.26.21.35.4Zm-2.41,3.11h0c.26.12.46.06.65-.08-.19.14-.39.2-.65.08Zm0-1.88c.07-.02.14-.04.19-.09-.05.04-.13.06-.19.09,0,0,0,0,0,0Zm-.03.02h0c0,.61,0,1.22,0,1.83h0c0-.61,0-1.22,0-1.83Zm.86,1.62s0,0,0,0c0,0,0,0,0,0Zm.48-.5s-.08.07-.12.11c.04-.04.08-.08.12-.11Zm6.53-7.24c.12.14.24.26.37.35-.13-.1-.25-.22-.37-.35Zm.79.56c-.05-.01-.11-.03-.16-.05.05.02.11.04.16.05Z"/><path class="cls-1" d="m284.12,135.47c-.99,1.91-1.9,3.86-2.94,5.74-1.26,2.29-3.63,2.29-4.88.02-1.03-1.88-1.95-3.83-2.94-5.74-1.23-2.4-3.17-3.11-5.64-2.15-2.86,1.11-5.68,2.31-8.52,3.49-2.49,1.03-3.35,2.9-2.63,5.45.56,1.97,1.21,3.91,1.91,5.84.45,1.24.57,2.21-.53,3.3-1.12,1.1-2.15.87-3.35.47-2.42-.8-4.85-1.57-6.89-2.23-2.24.21-3.51,1.09-4.21,2.76-1.18,2.84-2.34,5.68-3.52,8.51-1.1,2.64-.29,4.58,2.19,5.88,1.81.95,3.63,1.9,5.48,2.76,1.16.53,1.7,1.24,1.69,2.58,0,1.33-.52,2.05-1.68,2.59-1.86.86-3.66,1.82-5.48,2.76-2.5,1.29-3.29,3.24-2.21,5.87,1.12,2.75,2.28,5.48,3.41,8.23,1.08,2.64,3.03,3.47,5.7,2.68,1.96-.58,3.91-1.21,5.82-1.93,1.18-.44,2.07-.39,3.03.57.94.93,1.12,1.78.66,3-.75,2.01-1.42,4.06-2.01,6.13-.69,2.39,0,4.28,2.36,5.31,2.9,1.27,5.83,2.5,8.78,3.66,2.49.99,4.41.2,5.64-2.16.86-1.63,1.65-3.29,2.48-4.94.59-1.18,1.04-2.33,2.81-2.35,1.72-.02,2.3.95,2.9,2.19.8,1.66,1.66,3.29,2.5,4.93,1.28,2.5,3.24,3.32,5.86,2.28,2.85-1.13,5.68-2.31,8.49-3.54,2.44-1.07,3.28-2.94,2.44-5.51-.67-2.04-1.37-4.07-1.96-6.14-.7-2.44,1.07-4.19,3.52-3.48,2.06.6,4.06,1.39,6.12,1.99,2.51.73,4.45,0,5.51-2.51,1.19-2.83,2.37-5.66,3.5-8.52,1.03-2.63.2-4.57-2.32-5.83-1.74-.87-3.44-1.81-5.2-2.63-1.21-.56-1.92-1.19-1.94-2.72-.02-1.62.93-2.09,2.05-2.64,1.74-.86,3.48-1.73,5.21-2.63,2.52-1.3,3.22-3.29,2.16-5.89-1.12-2.75-2.23-5.5-3.39-8.23-1.09-2.54-2.92-3.58-5.67-2.63-1.83.64-3.69,1.21-5.54,1.82-1.19.39-2.23.62-3.35-.48-1.11-1.09-.98-2.07-.55-3.3.68-1.93,1.28-3.89,1.91-5.84.78-2.44-.03-4.27-2.32-5.3-2.89-1.3-5.83-2.5-8.78-3.65-2.47-.96-4.41-.25-5.66,2.14Zm10.22,38.77c-.13,1.01-.2,2.02-.3,3.03.95.86,1.58,1.83,1.89,2.86-.31-1.02-.94-2-1.89-2.86-.81.39-1.07,1.13-1.23,1.94-.19.48-.39.95-.58,1.43h0c-.65.52-1.18,1.12-1.22,2.01-2.04,1.48-4.09,2.97-6.13,4.45-.81-.16-1.56-.13-2.11.61-3.06.01-6.11.41-9.12-.65-7.8-2.74-12.28-11.11-10.07-18.99,2.22-7.91,10.16-12.95,17.95-11.37,8.37,1.69,13.9,9.27,12.81,17.56Z"/><path class="cls-1" d="m267,84.43c-8.18-.01-16.36,0-24.54,0-14.83,0-29.66-.01-44.49,0-3.31,0-5.12,1.72-4.48,4.23.6,2.38,2.44,2.68,4.54,2.67,11.56-.03,23.11-.02,34.67-.02,11.45,0,22.91-.03,34.36.02,2.45.01,4.32-.64,4.58-3.35.22-2.23-1.57-3.55-4.65-3.56Z"/><path class="cls-1" d="m266.4,98.67c-22.4-.02-44.79-.02-67.19-.02-.82,0-1.65-.07-2.45.04-2.11.27-3.42,1.44-3.34,3.64.08,2.05,1.36,3.24,3.37,3.24,5.1,0,10.22.38,15.31-.22,3.89.86,7.79.6,11.69.11,14.72.05,29.44.11,44.16.16.3,0,.61-.05.91-.11,1.74-.36,2.67-1.49,2.77-3.2.1-1.6-.73-2.81-2.23-3.3-.94-.31-2-.33-3.01-.34Z"/><path class="cls-1" d="m197.19,120.01c.51.03,1.02.01,1.53.01,22.52,0,45.03,0,67.55-.01,1.01,0,2.07-.01,3.02-.29,1.54-.44,2.34-1.64,2.35-3.23,0-1.59-.81-2.79-2.36-3.2-1.07-.28-2.22-.32-3.34-.32-12.38-.02-24.77-.02-37.15,0-1.01,0-2.02.18-3.03.27-.49-.27-.99-.34-1.51-.13-.32,0-.65,0-.97,0-.8-.31-1.59-.29-2.38.04-.71-.26-1.38-.07-2.05.16-1.44-.79-2.87-.74-4.31,0-.76-.28-1.53-.47-2.34-.22-.92-.26-1.83-.25-2.72.12-4.18-.57-8.37-.23-12.55-.19-2.08.02-3.54,1.22-3.54,3.45,0,2.39,1.55,3.41,3.79,3.54Z"/><path class="cls-1" d="m250.8,130.99c.11-2.34-1.3-3.6-3.63-3.6-16.69-.02-33.37,0-50.06,0-2.18,0-3.59,1.07-3.68,3.26-.1,2.36,1.36,3.5,3.64,3.64.71.04,1.43.01,2.15.01,7.68,0,15.35,0,23.03,0,8.19,0,16.38,0,24.57,0,2.26,0,3.87-.95,3.98-3.31Z"/><path class="cls-1" d="m197.57,141.63c-2.36,0-4.11.91-4.15,3.44-.03,2.54,1.65,3.52,4.05,3.51,3.57-.02,7.14,0,10.71,0,3.57,0,7.14-.02,10.71,0,2.41.02,4.46-.64,4.47-3.41.01-2.71-1.91-3.55-4.37-3.55-7.14.02-14.29.02-21.43,0Z"/><path class="cls-1" d="m269.86,172.12c-.03,5.15,3.9,8.89,9.19,8.75.87.17,1.7.13,2.44-.44,2.66-.71,4.44-2.36,5.31-4.98.48-.78.86-1.59.73-2.55.17-5.53-3.51-9.62-8.69-9.67-4.89-.05-8.95,3.97-8.98,8.89Z"/></g><rect class="cls-2" x=".5" y=".5" width="427" height="298" rx="12" ry="12"/></g></svg>