<?xml version="1.0" encoding="UTF-8"?><svg id="Layer_2" xmlns="http://www.w3.org/2000/svg" viewBox="0 0 95.13 32.5"><defs><style>.cls-1{fill:#221f1f;}.cls-2{fill:#43ba9a;}</style></defs><g id="page_4"><g><path class="cls-1" d="m12.62,14.38v10.76c0,.47-.11.87-.52,1.14-.5.33-1.17.2-1.51-.3-.12-.18-.18-.39-.18-.6-.03-1.16-.01-2.32-.01-3.48v-.56c-.13,0-.21-.02-.27.01-2.14,1.25-4.24,2.55-5.86,4.46-.35.41-.64.88-.85,1.37-.52,1.15-.23,2.17.77,2.96.82.64,1.78,1,2.77,1.27,1.91.54,3.87.72,5.85.85.19.01.39.04.58.07.04,0,.07.05.15.1-.09.04-.18.07-.27.08-3.19-.03-6.36-.2-9.44-1.09-.95-.24-1.85-.66-2.64-1.24-1.24-.95-1.51-2.19-.78-3.58.75-1.42,1.93-2.45,3.18-3.41,1.96-1.52,4.1-2.74,6.3-3.87.36-.13.58-.49.54-.86-.01-5.6-.01-11.2,0-16.8v-.59c0-.57.46-1.02,1.03-1.03.58-.03,1.09.4,1.15.98.02.18.02.36.01.54v9.98c0,.18.02.36.03.58.18,0,.35.02.51.02,4.15,0,8.29,0,12.44.01.43,0,.56-.12.56-.56-.02-3.37-.01-6.75,0-10.12-.01-.25.01-.51.08-.76.19-.48.69-.77,1.2-.68.49.09.86.49.92.98,0,.11,0,.21,0,.32v23.81c0,.25-.04.5-.14.74-.28.53-.94.73-1.47.45-.33-.18-.55-.52-.57-.9-.02-1.41-.01-2.83-.01-4.24v-6.37c0-.35-.1-.47-.46-.47-4.22.01-8.44,0-12.67,0-.11,0-.23.03-.4.04Z"/><path class="cls-1" d="m47.34,25.05c0,.99.41,1.41,1.39,1.41h15.34c.41.02.8-.14,1.08-.44,1.89-1.91,3.79-3.79,5.68-5.69.25-.25.39-.26.65,0,1.16,1.18,2.34,2.35,3.51,3.52.72.72,1.45,1.45,2.17,2.17.36.35.89.43,1.34.22.42-.2.65-.67.56-1.13-.09-.3-.25-.57-.47-.79-1.82-1.84-3.66-3.67-5.5-5.49-.3-.3-.29-.47,0-.75,1.02-.98,2.01-1.99,3.01-2.99,1.11-1.11,2.22-2.21,3.32-3.32.62-.63.48-1.53-.28-1.87-.44-.2-.91-.08-1.35.35-2.09,2.09-4.19,4.19-6.28,6.29-.28.28-.43.29-.71,0-2.08-2.1-4.19-4.19-6.29-6.29-.11-.12-.23-.23-.36-.34-.34-.28-.81-.31-1.19-.09-.41.22-.64.59-.55,1.04.06.32.22.61.44.85,2.12,2.14,4.24,4.27,6.39,6.39.28.28.29.44,0,.72-1.72,1.69-3.42,3.39-5.12,5.1-.21.23-.52.36-.83.34-3.78-.01-7.57,0-11.35,0h-1.72c-.48,0-.61-.14-.62-.62V1.68c0-.24,0-.48-.03-.72-.07-.59-.61-1.01-1.2-.94-.39.05-.73.3-.87.67-.1.27-.14.55-.14.83,0,3.92,0,7.83,0,11.75,0,3.92.01,7.85,0,11.79h0Z"/><path class="cls-1" d="m45.4,19.77s-.09-.03-.13-.05c-.66-.23-1.18.07-1.54.88-1.51,3.42-5.66,4.86-8.89,3.08-.61-.33-.62-.41-.12-.91,3.11-3.11,6.22-6.22,9.33-9.33.6-.6.6-1.03,0-1.61-2.39-2.29-5.23-3.04-8.42-2.27-3.86.93-6.52,4.45-6.53,8.46-.01,1.34.29,2.67.89,3.88,1.96,3.99,6.61,5.87,10.79,4.37,2.47-.89,4.21-2.57,5.19-5.02.25-.57-.02-1.23-.58-1.47Zm-13.18,1.35c-.53-.95-.81-2.02-.79-3.11,0-3.54,2.87-6.41,6.41-6.41,1.02,0,2.03.24,2.94.71.08.04.16.09.24.13.41.24.43.34.1.67-.93.94-1.87,1.88-2.81,2.81l-5.3,5.29c-.42.42-.51.41-.79-.1Z"/><path class="cls-2" d="m78.05,18.82c.14-.05.28-.08.41-.14.72-.31,1.45-.61,2.15-.93,3.78-1.69,7.51-3.5,10.83-6,1.28-.97,2.49-2.01,3.26-3.45.77-1.45.48-2.72-.83-3.69-.28-.2-.58-.38-.89-.53-2.05-1-4.28-1.32-6.52-1.53-3.36-.29-6.75-.31-10.11-.07-2.53.16-5.05.39-7.57.64-1.81.18-3.62.43-5.42.68-1.22.17-2.44.38-3.66.58-.38.03-.68.32-.72.69-.1.62.3,1.09.93,1.02.84-.09,1.67-.24,2.5-.35,1.88-.24,3.76-.53,5.65-.7,2.55-.23,5.11-.43,7.66-.54,3.91-.17,7.81-.12,11.63.84,1.13.28,2.22.68,3.1,1.49.53.45.83,1.13.79,1.83-.03.84-.43,1.49-.91,2.11-1.2,1.54-2.78,2.65-4.41,3.69-2.39,1.49-4.88,2.8-7.46,3.93-.18.08-.34.19-.5.29l.07.14Z"/></g></g></svg>