<?xml version="1.0" encoding="UTF-8"?><svg id="Layer_2" xmlns="http://www.w3.org/2000/svg" xmlns:xlink="http://www.w3.org/1999/xlink" viewBox="0 0 1297 673.5"><defs><style>.cls-1,.cls-2{fill:none;}.cls-3{clip-path:url(#clippath);}.cls-4{fill:#fff;}.cls-5{fill:#43ba9a;}.cls-6{fill:#58595b;}.cls-2{stroke:#43ba9a;stroke-miterlimit:10;stroke-width:2px;}</style><clipPath id="clippath"><path class="cls-1" d="m143.5,18C297.5,22,1041.5,0,1041.5,0l-21.36,668.25-880.94,4.52,4.3-654.77Z"/></clipPath></defs><g id="page_2"><line class="cls-2" y1="672.5" x2="1297" y2="672.5"/><g class="cls-3"><path class="cls-6" d="m301.01,443.02l-50.15-8.88c15.61-88.19,71.72-152.55,162.28-186.11,66.12-24.5,127.21-23.78,129.75-23.73l-.85,50.92.42-25.46-.38,25.46c-.55,0-55.33-.48-112.57,21.06-72.88,27.42-116.12,76.8-128.5,146.74Z"/><path class="cls-6" d="m962.43,108.84c-26.92-10.3-61.82-20.14-105.63-30.03l-11.22,49.68c98.46,22.23,128,39.89,136.58,47.26-16.34,13.14-79.26,33.84-172.89,44.5l5.76,50.6c51.3-5.84,99.8-15.3,136.6-26.65,35.09-10.82,81.97-29.45,83.96-66.05,1.49-27.36-20.65-49.21-73.17-69.3Z"/><path class="cls-6" d="m449.73,691.87c-20.02-167.63,81.42-303.76,85.76-309.48l43.3,32.81-21.65-16.4,21.68,16.37c-.93,1.23-92.51,124.86-75.14,270.26l-53.94,6.45Z"/><path class="cls-6" d="m816.38,691.87l-53.94-6.44c17.36-145.4-74.22-269.03-75.14-270.26l43.32-32.77c4.33,5.71,105.78,141.84,85.76,309.47Z"/><rect class="cls-5" x="222.27" y="389.02" width="98.9" height="98.9" transform="translate(171.61 -67.56) rotate(20.6)"/><rect class="cls-5" x="386.63" y="648.04" width="153.53" height="108.96"/><rect class="cls-5" x="728.87" y="648.04" width="153.53" height="108.96"/><rect class="cls-5" x="469.82" y="326.85" width="163.45" height="163.45"/><rect class="cls-5" x="843.83" y="62.5" width="81.72" height="81.72" transform="translate(95.38 -309.38) rotate(20.94)"/><rect class="cls-5" x="617.44" y="26" width="163.45" height="163.45"/><rect class="cls-5" x="392.96" y="170.56" width="201.23" height="201.23"/><rect class="cls-5" x="692.3" y="189.45" width="163.45" height="163.45"/><rect class="cls-5" x="617.44" y="189.45" width="258.91" height="258.91"/><rect class="cls-5" x="427.96" y="50.87" width="378.96" height="378.96"/><rect class="cls-5" x="374.4" y="113.34" width="37.87" height="37.87"/><g><circle class="cls-4" cx="556.78" cy="226.68" r="59.38"/><path class="cls-6" d="m616.5,226.68c-.45,53.77-64.4,81.36-103.27,43.55-31.49-30.19-21.12-85.18,19.48-101.66,40.8-17.17,84.61,14.8,83.79,58.11h0Zm-.68,0c-.62-50.35-63.42-74.29-98.65-39.61-22.2,20.67-22.58,58.73-.82,80.04,35.73,36.54,99.72,11.22,99.46-40.43h0Z"/></g><g><circle class="cls-4" cx="714.33" cy="226.68" r="57.44"/><path class="cls-6" d="m685.44,276.72c-44.86-26.41-37.07-93.35,13.45-107.65,40.57-11.81,81.71,23.53,75.88,65.57-5.36,42.56-53.41,63.76-89.33,42.08h0Zm.34-.59c42.43,23.78,92.76-17.25,80.79-63.45-6.55-28.55-38.2-47.25-66.53-39.35-47.85,12.22-57.62,78.06-14.25,102.8h0Z"/></g><path class="cls-6" d="m547.79,198.83c.16,0,.32-.02.48,0,4.96.41,8.65,4.77,8.24,9.73-.41,4.96-4.77,8.65-9.73,8.24-4.96-.41-8.65-4.77-8.24-9.73.04-.52.15-1.02.28-1.51-4.4,4.8-7.33,11.02-7.91,18.01-1.39,16.74,11.05,31.44,27.79,32.82,16.74,1.39,31.44-11.05,32.82-27.79,1.39-16.74-11.05-31.43-27.79-32.82-5.71-.47-11.16.69-15.95,3.06Z"/><path class="cls-6" d="m709.67,198.69c4.59,3.08,6.29,9.15,3.7,14.19-2.79,5.43-9.46,7.58-14.89,4.79-4.64-2.39-6.86-7.6-5.67-12.46-3.6,2.77-6.69,6.34-8.9,10.65-8.04,15.65-1.87,34.85,13.78,42.89,15.65,8.04,34.85,1.87,42.89-13.78,8.04-15.65,1.87-34.85-13.78-42.89-5.49-2.82-11.4-3.85-17.13-3.38Z"/><path class="cls-6" d="m493.67,171.37c12.6-35.79,60.79-49.07,92.78-31.44-8.76,1.42-17.03,1.61-25.6,3.15-24.72,3.34-47.05,13.06-67.18,28.29h0Z"/><path class="cls-6" d="m771.78,139.19c-19.38-17.86-41.97-29.41-67.33-35.11-7.49-1.61-14.58-2.76-22.21-4.64,33.46-14.65,80.25,2.96,89.54,39.75h0Z"/><path class="cls-6" d="m519.22,324.62s107.08,114.62,229.68,0c0,0-109.46,59.12-229.68,0Z"/></g></g></svg>