<?xml version="1.0" encoding="UTF-8"?>
<!-- Created with Inkscape (http://www.inkscape.org/) -->
<svg width="260.98mm" height="306.83mm" version="1.1" viewBox="0 0 260.98 306.83" xmlns="http://www.w3.org/2000/svg">
 <g transform="translate(25.768 -5.3539)">
  <g transform="matrix(.35278 0 0 -.35278 -382.48 1980.8)">
   <g transform="translate(1265.4 5296.1)">
    <path d="m0 0c-16.09 0-34.418 2.359-54.065 9.053-62.496 21.294-115.55 77.585-157.7 167.31l48.17 22.625c34.959-74.432 78.356-122.55 125.5-139.15 43.579-15.342 76.56 0.35 77.944 1.022l24.102-47.445c-1.486-0.767-26.703-13.416-63.955-13.416" fill="#59595c"/>
   </g>
   <g transform="translate(1708 5035.6)">
    <path d="m0 0-47.141 24.696c24.908 47.543 29.1 87.972 12.459 120.16-37.611 72.752-166.82 90.945-168.12 91.122l7.013 52.754c6.42-0.853 157.82-21.929 208.3-119.28 25.169-48.544 20.959-105.56-12.513-169.45" fill="#59595c"/>
   </g>
   <g transform="translate(1393.5 4863.9)">
    <path d="m0 0c-93.701 34.54-147.37 83.534-159.5 145.63-19.102 97.722 75.391 185.2 79.422 188.88l38.247-41.951-19.124 20.975 19.163-20.937c-0.197-0.183-20.067-18.57-37.546-45.706-14.769-22.926-30.994-57.24-24.42-90.519 8.146-41.237 49.663-75.925 123.4-103.11z" fill="#59595c"/>
   </g>
   <g transform="translate(1509.6 4799.8)">
    <path d="m0 0-56.364 6.732c19.283 161.46 9.687 367.5 9.589 369.56l56.7 2.73c0.414-8.609 9.931-212.77-9.925-379.02" fill="#59595c"/>
   </g>
   <g transform="translate(1107.9 5424.2)">
    <path d="m0 0-96.735 36.354 36.353 96.734 96.735-36.353z" fill="#43ba9a"/>
   </g>
   <g transform="translate(1654.2 4973.4)">
    <path d="m0 0 96.735 36.353-36.353 96.735-96.735-36.353z" fill="#43ba9a"/>
   </g>
   <g transform="translate(1475.8 4904.3)">
    <path d="m0 0-75.138-141.75-100.6 53.325 75.138 141.75z" fill="#43ba9a"/>
   </g>
   <path d="m1567.8 4729.8h-160.43v113.86h160.43z" fill="#43ba9a"/>
   <g transform="translate(1179.5 5363.2)">
    <path d="m0 0 18.325 169.81 169.81-18.325-18.325-169.81z" fill="#43ba9a"/>
   </g>
   <g transform="translate(1475.5 5176.1)">
    <path d="m0 0 18.325 169.81 169.81-18.326-18.325-169.8z" fill="#43ba9a"/>
   </g>
   <g transform="translate(1307 5390.5)">
    <path d="m0 0 22.561 209.05 209.05-22.561-22.561-209.05z" fill="#43ba9a"/>
   </g>
   <g transform="translate(1297.3 5116.7)">
    <path d="m0 0 18.325 169.81 169.81-18.326-18.325-169.8z" fill="#43ba9a"/>
   </g>
   <g transform="translate(1203.8 5180)">
    <path d="m0 0 29.028 268.98 268.98-29.027-29.027-268.98z" fill="#43ba9a"/>
   </g>
   <g transform="translate(1222.9 5176)">
    <path d="m0 0 42.488 393.7 393.7-42.488-42.487-393.7z" fill="#43ba9a"/>
   </g>
   <g transform="translate(1143.1 5193.1)">
    <path d="m0 0 15.586 144.43 39.34-4.246-15.587-144.43z" fill="#43ba9a"/>
   </g>
   <g transform="translate(1556.6 5554.8)">
    <path d="m0 0 4.245 39.339 39.34-4.245-4.246-39.34z" fill="#43ba9a"/>
   </g>
   <g transform="translate(1398.4 5369)">
    <path d="m0 0c5.002 52.38-57.553 84.293-98.045 52.21-25.379-18.983-30.038-58.481-9.82-83.057 33.019-41.972 102.34-22.837 107.86 30.847m0.705-0.077c-6.492-55.816-76.028-77.307-112.16-33.662-29.331 34.89-12.389 90.858 31.63 103.43 44.31 13.265 86.24-24.858 80.534-69.768" fill="#59595c"/>
   </g>
   <g transform="translate(1395 5375.6)">
    <path d="m0 0c0-33.689-27.311-61-61-61s-61 27.311-61 61 27.311 61 61 61 61-27.311 61-61" fill="#fff"/>
   </g>
   <g transform="translate(1563 5358.6)">
    <path d="m0 0c0-33.689-27.311-61-61-61s-61 27.311-61 61 27.311 61 61 61 61-27.311 61-61" fill="#fff"/>
   </g>
   <g transform="translate(1465.1 5309.2)">
    <path d="m0 0c41.969-29.872 99.636 7.588 92.268 57.605-3.661 30.806-34.861 54.095-65.594 48.992-51.765-7.44-69.511-75.625-26.674-106.6m-0.419-0.573c-44.199 32.874-28.387 102.43 26.385 111.73 44.015 7.812 83.259-34.022 72.354-77.58-10.467-44.149-63.405-61.019-98.739-34.147" fill="#59595c"/>
   </g>
   <g transform="translate(1390.2 5376.1)">
    <path d="m0 0c-9e-3 -0.17 0.015-0.334-4e-3 -0.505-0.558-5.172-5.203-8.912-10.375-8.354s-8.912 5.203-8.354 10.375 5.203 8.912 10.375 8.354c0.544-0.058 1.06-0.186 1.568-0.33-4.899 4.724-11.323 7.94-18.614 8.727-17.45 1.883-33.122-10.737-35.006-28.187-1.883-17.45 10.737-33.122 28.187-35.006 17.45-1.883 33.122 10.737 35.005 28.187 0.642 5.951-0.434 11.678-2.782 16.739" fill="#59595c"/>
   </g>
   <g transform="translate(1510.5 5362.9)">
    <path d="m0 0c-1.371-6.005-6.995-10.19-13.27-9.513-6.763 0.73-11.654 6.805-10.924 13.568 0.623 5.78 5.161 10.161 10.686 10.866-4.323 2.638-9.259 4.42-14.627 4.999-19.478 2.102-36.971-11.983-39.073-31.461-2.102-19.477 11.983-36.971 31.461-39.073 19.477-2.102 36.97 11.984 39.072 31.462 0.737 6.826-0.549 13.39-3.325 19.152" fill="#59595c"/>
   </g>
   <g transform="translate(1276.1 5458.2)">
    <path d="M 0,0 C 17.101,35.771 68.655,44.161 99.914,22.262 90.652,21.767 82.041,22.495 72.962,21.86 46.903,21.164 22.618,13.57 0,0" fill="#59595c"/>
   </g>
   <g transform="translate(1566.4 5439.1)">
    <path d="m0 0c-18.133 20.73-40.3 35.263-66.009 44.028-7.598 2.509-14.837 4.497-22.554 7.305 36.4 11.465 83.041-12.075 88.563-51.333" fill="#59595c"/>
   </g>
   <g transform="translate(1329.6 5234.5)">
    <path d="m0 0c55.259-2.611 106.82-6.932 160.68 3.901 17.41 3.168 34.65 8.296 54.25 13.431-45.12-69.178-157.5-72.128-214.93-17.332" fill="#59595c"/>
   </g>
  </g>
 </g>
</svg>
