<?xml version="1.0" encoding="UTF-8"?>
<!-- Created with Inkscape (http://www.inkscape.org/) -->
<svg width="33.559mm" height="11.467mm" version="1.1" viewBox="0 0 33.559 11.467" xmlns="http://www.w3.org/2000/svg">
 <g transform="translate(-18.218 -160.59)">
  <g transform="matrix(.35278 0 0 -.35278 -34.851 2187.3)">
   <g transform="translate(163.05 5730.6)">
    <path d="m0 0v-10.756c0-0.467-0.114-0.871-0.52-1.135-0.5-0.332-1.174-0.196-1.506 0.304-0.119 0.178-0.182 0.387-0.182 0.601-0.03 1.159-0.01 2.319-0.012 3.478v0.555c-0.127 0-0.214 0.017-0.268-0.014-2.136-1.251-4.238-2.55-5.861-4.464-0.347-0.415-0.635-0.877-0.855-1.371-0.517-1.15-0.23-2.173 0.768-2.963 0.821-0.645 1.781-0.996 2.769-1.268 1.913-0.543 3.874-0.724 5.848-0.849 0.194-0.013 0.389-0.038 0.583-0.065 0.038 0 0.073-0.045 0.151-0.098-0.086-0.039-0.177-0.067-0.27-0.081-3.186 0.027-6.357 0.199-9.443 1.086-0.951 0.24-1.846 0.661-2.637 1.241-1.242 0.949-1.508 2.186-0.784 3.578 0.748 1.424 1.932 2.449 3.177 3.41 1.959 1.518 4.1 2.744 6.298 3.873 0.356 0.131 0.579 0.485 0.544 0.863-0.015 5.601-0.015 11.202 0 16.804v0.587c6e-3 0.566 0.462 1.024 1.028 1.034 0.583 0.028 1.088-0.401 1.154-0.981 0.015-0.181 0.019-0.362 0.013-0.543v-9.985c0-0.181 0.016-0.362 0.025-0.575 0.181-0.01 0.348-0.024 0.507-0.024 4.145 0 8.293 0 12.438-0.011 0.435 0 0.561 0.12 0.56 0.556-0.017 3.374-0.011 6.746 0 10.12-0.015 0.255 0.011 0.51 0.076 0.757 0.186 0.483 0.688 0.768 1.199 0.679 0.489-0.089 0.863-0.486 0.921-0.98 9e-3 -0.105 0-0.21 0-0.315v-23.807c5e-3 -0.253-0.043-0.505-0.143-0.737-0.283-0.529-0.941-0.729-1.471-0.445-0.333 0.178-0.55 0.518-0.572 0.896-0.018 1.414-0.012 2.83-0.014 4.245v6.369c0 0.349-0.096 0.471-0.456 0.471-4.222-0.011-8.443 0-12.667 0-0.108-6e-3 -0.226-0.025-0.398-0.04" fill="#221f1f"/>
   </g>
   <g transform="translate(197.78 5720)">
    <path d="m0 0c0-0.994 0.413-1.413 1.389-1.413h15.336c0.407-0.017 0.801 0.145 1.077 0.444 1.885 1.905 3.791 3.789 5.678 5.692 0.248 0.25 0.394 0.261 0.648 0 1.159-1.182 2.34-2.354 3.512-3.515 0.724-0.725 1.448-1.449 2.173-2.173 0.355-0.347 0.89-0.433 1.336-0.216 0.424 0.204 0.655 0.671 0.558 1.132-0.09 0.298-0.252 0.57-0.473 0.79-1.821 1.842-3.655 3.671-5.5 5.487-0.304 0.299-0.288 0.469 0 0.753 1.018 0.984 2.011 1.993 3.012 2.992 1.108 1.107 2.219 2.21 3.32 3.321 0.623 0.629 0.483 1.531-0.276 1.871-0.443 0.199-0.905 0.082-1.345-0.351-2.094-2.094-4.188-4.191-6.283-6.292-0.275-0.278-0.425-0.293-0.713 0-2.085 2.1-4.191 4.195-6.286 6.29-0.113 0.121-0.234 0.233-0.362 0.337-0.338 0.277-0.812 0.313-1.188 0.092-0.411-0.224-0.64-0.594-0.554-1.043 0.064-0.318 0.217-0.612 0.441-0.847 2.116-2.143 4.245-4.272 6.39-6.388 0.28-0.277 0.286-0.442 0-0.724-1.717-1.691-3.423-3.392-5.116-5.104-0.214-0.231-0.518-0.356-0.832-0.343-3.785 0.012-7.57 0-11.355 0h-1.72c-0.476 0-0.607 0.141-0.625 0.624v21.957c7e-3 0.242-4e-3 0.484-0.033 0.724-0.069 0.591-0.605 1.014-1.196 0.944-0.392-0.046-0.727-0.303-0.874-0.668-0.096-0.268-0.143-0.55-0.141-0.833-9e-3 -3.916-9e-3 -7.832 0-11.748 0.01-3.917 0.01-7.848 2e-3 -11.792" fill="#221f1f"/>
   </g>
   <g transform="translate(182.66 5723.9)">
    <path d="m0 0c-0.534 0.948-0.806 2.021-0.788 3.109-1e-3 3.54 2.868 6.411 6.407 6.412 1.024 0 2.032-0.245 2.942-0.714 0.079-0.04 0.157-0.087 0.235-0.132 0.406-0.239 0.429-0.341 0.101-0.672-0.932-0.94-1.867-1.875-2.807-2.807l-5.3-5.294c-0.419-0.416-0.511-0.405-0.79 0.098m13.181 1.351c-0.042 0.018-0.086 0.034-0.131 0.047-0.659 0.228-1.177-0.067-1.536-0.877-1.512-3.418-5.655-4.856-8.894-3.078-0.606 0.333-0.617 0.411-0.121 0.906 3.111 3.109 6.223 6.217 9.334 9.326 0.599 0.599 0.603 1.029 0 1.614-2.389 2.293-5.228 3.042-8.418 2.271-3.861-0.933-6.519-4.452-6.528-8.457-0.014-1.345 0.291-2.673 0.891-3.876 1.962-3.991 6.609-5.871 10.793-4.367 2.467 0.886 4.213 2.574 5.194 5.017 0.246 0.568-0.015 1.228-0.584 1.474" fill="#221f1f"/>
   </g>
   <g transform="translate(228.48 5726.2)">
    <path d="m0 0c0.138 0.045 0.279 0.082 0.411 0.138 0.724 0.306 1.449 0.608 2.153 0.929 3.784 1.693 7.507 3.504 10.834 6.003 1.28 0.966 2.49 2.007 3.26 3.454 0.769 1.447 0.48 2.716-0.835 3.689-0.279 0.205-0.576 0.384-0.888 0.534-2.053 1.002-4.279 1.317-6.519 1.527-3.365 0.287-6.747 0.31-10.115 0.069-2.526-0.16-5.047-0.393-7.566-0.645-1.811-0.181-3.622-0.431-5.422-0.681-1.224-0.168-2.44-0.384-3.658-0.583-0.377-0.026-0.681-0.317-0.725-0.692-0.098-0.617 0.299-1.087 0.935-1.016 0.838 0.085 1.669 0.243 2.504 0.351 1.882 0.245 3.76 0.533 5.649 0.703 2.55 0.232 5.107 0.426 7.664 0.543 3.906 0.171 7.809 0.125 11.634-0.838 1.128-0.284 2.216-0.685 3.102-1.489 0.534-0.454 0.825-1.132 0.786-1.832-0.029-0.839-0.426-1.495-0.905-2.114-1.203-1.545-2.782-2.653-4.41-3.691-2.388-1.489-4.881-2.803-7.46-3.93-0.181-0.079-0.335-0.194-0.503-0.289z" fill="#43ba9a"/>
   </g>
  </g>
 </g>
</svg>
