<?xml version="1.0" encoding="UTF-8"?><svg id="Layer_2" xmlns="http://www.w3.org/2000/svg" viewBox="0 0 78.31 62.36"><defs><style>.cls-1{fill:#43ba9a;}</style></defs><g id="Layer_23"><g><path class="cls-1" d="m35.16,0H13.23c-1.34,0-2.44,1.1-2.44,2.44v25.12c0,1.34,1.1,2.44,2.44,2.44h21.93c1.34,0,2.44-1.1,2.44-2.44V2.44c0-1.34-1.1-2.44-2.44-2.44Zm-3.24,25.16h-15.29c-1.19,0-2.17-.97-2.17-2.17s.97-2.17,2.17-2.17h15.29c1.19,0,2.17.97,2.17,2.17s-.97,2.17-2.17,2.17Zm0-8.12h-15.29c-1.19,0-2.17-.97-2.17-2.17s.97-2.17,2.17-2.17h15.29c1.19,0,2.17.97,2.17,2.17s-.97,2.17-2.17,2.17Zm0-8.12h-15.29c-1.19,0-2.17-.97-2.17-2.17s.97-2.17,2.17-2.17h15.29c1.19,0,2.17.97,2.17,2.17s-.97,2.17-2.17,2.17Z"/><path class="cls-1" d="m60.53,14.73c0-1.42-.8-2.64-1.97-3.26-.56-.34-1.21-.54-1.91-.54-1.38,0-2.58.75-3.21,1.87l-10.41.08c-1.02,0-1.84.84-1.83,1.86,0,1.01.83,1.83,1.85,1.83h.01l10.41-.08c.34.58.84,1.06,1.43,1.38.04.02.07.05.11.07l.08,10.41c0,1.02.84,1.84,1.86,1.83,1.02,0,1.83-.83,1.83-1.85h0s-.08-10.42-.08-10.42c1.09-.64,1.82-1.82,1.82-3.18Zm-3.69,1.16c-.73,0-1.32-.58-1.34-1.31.02-.72.61-1.3,1.34-1.3s1.32.58,1.34,1.3c-.02.72-.61,1.31-1.34,1.31Z"/><g><path class="cls-1" d="m0,61.56h2.22V21.89H0v39.68Z"/><path class="cls-1" d="m5.67,61.53h2.25v-3.1h-2.25v3.1Z"/><path class="cls-1" d="m7.91,21.85h-2.24v33.33h2.24V21.85Z"/><path class="cls-1" d="m42.02,21.88h-2.23v33.33h2.23V21.88Z"/><path class="cls-1" d="m13.59,32.99h-.12c-.9,0-1.68-.49-2.11-1.21v23.4h2.23v-22.19Z"/><path class="cls-1" d="m11.36,61.55h2.25v-3.11h-2.25v3.11Z"/><path class="cls-1" d="m19.26,32.99h-2.22v22.21h2.22v-22.21Z"/><path class="cls-1" d="m36.34,32.87c-.24.08-.49.12-.74.12h-1.49v22.19h2.23v-22.3Z"/><path class="cls-1" d="m22.74,32.99v23.8h2.2v-23.8h-2.2Z"/><path class="cls-1" d="m39.78,61.53h2.25v-3.1h-2.25v3.1Z"/><path class="cls-1" d="m45.46,21.85v39.71h2.23V21.85h-2.23Z"/><path class="cls-1" d="m34.11,61.57h2.24v-3.14h-2.24v3.14Z"/><path class="cls-1" d="m30.44,58.4c-.67-.03-1.34-.02-2-.02v3.19h2.25c0-.99.01-1.89-.01-2.78,0-.14-.15-.38-.24-.39Z"/><path class="cls-1" d="m22.74,61.56h2.2v-3.13h-2.2v3.13Z"/><path class="cls-1" d="m17.31,58.4c-.11,0-.29.25-.29.4-.03.92-.01,1.84-.01,2.78h2.26v-3.19c-.68,0-1.32-.02-1.96.02Z"/><path class="cls-1" d="m30.66,32.99h-2.23v22.21h2.23v-22.21Z"/></g><path class="cls-1" d="m75.88,32.36h-21.93c-1.34,0-2.44,1.1-2.44,2.44v25.12c0,1.34,1.1,2.44,2.44,2.44h21.93c1.34,0,2.44-1.1,2.44-2.44v-25.12c0-1.34-1.1-2.44-2.44-2.44Zm-3.24,25.16h-15.29c-1.19,0-2.17-.97-2.17-2.17s.97-2.17,2.17-2.17h15.29c1.19,0,2.17.97,2.17,2.17s-.97,2.17-2.17,2.17Zm0-8.12h-15.29c-1.19,0-2.17-.97-2.17-2.17s.97-2.17,2.17-2.17h15.29c1.19,0,2.17.97,2.17,2.17s-.97,2.17-2.17,2.17Zm0-8.12h-15.29c-1.19,0-2.17-.97-2.17-2.17s.97-2.17,2.17-2.17h15.29c1.19,0,2.17.97,2.17,2.17s-.97,2.17-2.17,2.17Z"/></g></g></svg>