<?xml version="1.0" encoding="UTF-8"?><svg id="Layer_2" xmlns="http://www.w3.org/2000/svg" viewBox="0 0 67.84 65.93"><defs><style>.cls-1{fill:#43ba9a;}</style></defs><g id="Layer_23"><g><path class="cls-1" d="m52.53,35.4c-.82-.31-1.65-.61-2.41-1.03-.97-.53-1.68-2.35-1.35-3.41.26-.83.64-1.63.98-2.43.35-.8.28-1.23-.32-1.84-.31-.31-.62-.62-.93-.93-.56-.55-1.06-.64-1.79-.31-.65.3-1.28.67-1.96.87-.51.15-1.1.18-1.63.1-1.62-.24-2.5-1.31-2.98-2.82-.68-2.13-.72-2.19-3.19-2.13-.78.02-1.19.34-1.47,1.08-.29.76-.55,1.54-.91,2.27-.55,1.13-2.44,1.97-3.64,1.6-.8-.24-1.56-.6-2.32-.94-.88-.39-1.29-.32-1.98.36-.3.3-.6.59-.89.89-.5.52-.59,1.02-.29,1.69.25.56.54,1.11.78,1.68.27.63.4,1.27.25,1.98-.34,1.6-1.34,2.51-2.84,2.99-2.19.7-2.18.79-2.14,3.18.02.79.36,1.22,1.13,1.51.73.27,1.47.52,2.17.85,1.19.57,2.04,2.45,1.64,3.71-.26.83-.65,1.62-.99,2.43-.28.67-.2,1.18.31,1.69.32.33.65.65.97.98.59.59,1.02.67,1.78.33.73-.32,1.44-.69,2.19-.95,1.22-.43,3.15.29,3.76,1.42.42.78.71,1.64,1.04,2.47.26.66.7.99,1.4,1.01.24,0,.48,0,.72,0,1.67,0,1.79-.1,2.37-1.67.23-.62.46-1.24.76-1.81.53-1,2.4-1.81,3.48-1.47.87.27,1.7.66,2.54,1.02.72.3,1.15.24,1.69-.28.36-.35.71-.7,1.06-1.06.51-.52.59-.96.29-1.63-.27-.6-.63-1.17-.81-1.8-.17-.59-.29-1.25-.21-1.85.22-1.65,1.3-2.53,2.83-3.04,2.14-.71,2.13-.75,2.12-3.01,0-.96-.31-1.36-1.2-1.7Zm-14.98,10.26c-4.38-.02-7.99-3.66-7.97-8.04.03-4.54,3.62-8.09,8.13-8.04,4.38.05,7.96,3.64,7.95,7.99-.01,4.51-3.63,8.11-8.12,8.09Z"/><path class="cls-1" d="m37.64,32.75c-2.66-.01-4.87,2.16-4.89,4.8-.02,2.67,2.14,4.88,4.79,4.89,2.7.01,4.89-2.11,4.91-4.76.02-2.72-2.13-4.92-4.81-4.93Z"/><path class="cls-1" d="m54.04,52.06c7.71-8.79,6.97-21.31-.32-29.11,0-4.78,0-9.56,0-14.34C53.73,3.63,50.14,0,45.19,0c-12.27,0-24.53,0-36.8,0C3.66,0,.01,3.66.01,8.4c0,9.07-.01,18.14,0,27.21,0,2.05-.09,4.13.16,6.16.44,3.67,3.97,6.72,7.66,6.78,3.54.06,7.07.02,10.61.02.3,0,.61,0,.92,0,.21.35.43.71.66,1.05,3.14,4.65,7.47,7.71,12.95,8.98,6.78,1.57,12.94.09,18.48-4.14,2.37,1.91,4.71,3.81,7.06,5.71,2.36,1.91,4.73,3.82,7.12,5.75.73-.91,1.45-1.81,2.2-2.74-4.61-3.72-9.2-7.42-13.79-11.12ZM16.12,2.72c1.47,0,2.66,1.17,2.68,2.64.02,1.45-1.2,2.68-2.65,2.68-1.47,0-2.69-1.18-2.71-2.62-.02-1.5,1.16-2.69,2.68-2.7Zm-8.03,0c1.5.02,2.65,1.19,2.63,2.67-.02,1.52-1.18,2.66-2.72,2.65-1.44-.01-2.62-1.24-2.61-2.71.01-1.47,1.22-2.63,2.7-2.61Zm.33,40.47c-1.77,0-3.02-1.26-3.02-3.01,0-8.69,0-17.38,0-26.07,0-2.03,1.17-3.21,3.19-3.21,12.29,0,24.57,0,36.86.05.58,0,1.22.24,1.71.56.8.51,1.18,1.33,1.18,2.3,0,1.65,0,3.31,0,4.96-7.66-4.23-17.26-3.42-24.12,2.25-6.8,5.62-9.25,14.33-7.14,22.17-2.89,0-5.77,0-8.66,0Zm29.57,12.51c-6.49,0-12.19-3.39-15.38-8.51.06-.82.38-1.58.78-2.32.13-.25.25-.5.35-.76.26-.69.1-.91-.63-.91-.78,0-1.57,0-2.35,0-.57-1.75-.87-3.62-.87-5.56,0-9.97,8.09-18.08,18.05-18.09,6.01,0,11.34,2.95,14.62,7.48.15.81.04,1.67-.35,2.52-.26.56-.53,1.12-.76,1.69-.2.48-.02.88.44,1.09.57.26,1.18.45,1.84.7,0-.43,0-.76,0-1.1,0-1.02,0-2.04,0-3.07,1.44,2.59,2.26,5.58,2.27,8.75.02,9.93-8.07,18.06-18,18.08Z"/></g></g></svg>