<?xml version="1.0" encoding="UTF-8"?><svg id="Layer_2" xmlns="http://www.w3.org/2000/svg" viewBox="0 0 79 82.93"><defs><style>.cls-1{fill:#43ba9a;}</style></defs><g id="Layer_23"><g><path class="cls-1" d="m69.45,54.4c-.99-2.46-1.98-4.91-3-7.43-.32.17-.62.31-.92.47-3.86,2.1-7.34,4.68-10.18,8.06-2.98,3.54-4.94,7.61-6.21,12.03-1.28,4.44-1.88,8.99-2.18,13.59-.04.61-.09,1.22-.13,1.82h-14.43c0-.31-.01-.56,0-.81.26-4.76.78-9.48,1.75-14.15,1.05-5.05,2.64-9.91,5.08-14.47,3.35-6.26,8.04-11.32,13.84-15.37,2.35-1.64,4.83-3.08,7.39-4.37.17-.09.34-.18.54-.29-1.02-2.53-2.03-5.03-3.08-7.67,7.08,2.78,14.05,5.52,21.07,8.27-3.15,6.81-6.29,13.57-9.42,20.33-.04,0-.09,0-.13,0Z"/><path class="cls-1" d="m21.34,25.68c-1.08,2.61-2.1,5.09-3.14,7.62.19.11.36.21.54.3,4.52,2.31,8.75,5.05,12.42,8.58,1.55,1.49,2.93,3.15,4.37,4.74.09.1.13.38.06.49-3.19,5.06-5.37,10.54-6.84,16.32-.01.05-.04.09-.12.26-3.01-7.94-8.58-13.4-15.98-17.23-1.03,2.5-2.05,4.96-3.13,7.56-3.21-6.98-6.36-13.85-9.53-20.74,7.1-2.63,14.15-5.24,21.34-7.9Z"/><path class="cls-1" d="m32.37,16.75h-8.04s-.04-.09-.05-.13c5.19-5.52,10.38-11.04,15.62-16.62,5.07,5.59,10.11,11.15,15.25,16.81h-8.31c0,.26,0,.45,0,.64,0,5.67,0,11.34,0,17,0,.41-.12.68-.44.94-2.36,1.88-4.53,3.97-6.51,6.25-.09.11-.19.21-.32.35-.65-.72-1.25-1.46-1.93-2.11-1.61-1.55-3.25-3.07-4.9-4.57-.28-.26-.39-.5-.39-.87,0-5.67,0-11.34,0-17v-.7Z"/></g></g></svg>