<?xml version="1.0" encoding="UTF-8"?>
<svg id="Layer_2"
  xmlns="http://www.w3.org/2000/svg" viewBox="0 0 739.78 869.76" width="739.78" height="869.76">
  <defs>
    <style>
      .cls-1 {
        fill: #fff;
      }
      .cls-2 {
        fill: #43ba9a;
      }
      .cls-3 {
        fill: #59595c;
      }
      .left-arm {
        transform-origin: 231px 266px;
        animation: wave 2s infinite ease-in-out;
      }
      @keyframes wave {
        from {
          transform: rotate(0deg);
        }
        50% {
          transform: rotate(8deg);
        }
        to {
          transform: rotate(0deg);
        }
      }
    </style>
  </defs>
  <g id="Layer_23">
    <g>
      <g class="left-arm">
        <path class="cls-3" d="m254.22,303.49c-16.09,0-34.42-2.36-54.06-9.05-62.5-21.29-115.55-77.59-157.7-167.31l48.17-22.62c34.96,74.43,78.36,122.55,125.5,139.15,43.58,15.34,76.56-.35,77.94-1.02l24.1,47.45c-1.49.77-26.7,13.42-63.95,13.42Z"/>
        <rect class="cls-2" x="14.87" y="57.14" width="103.34" height="103.34" transform="translate(42.53 -16.45) rotate(20.6)"/>
      </g>
      <path class="cls-3" d="m696.8,563.95l-47.14-24.7c24.91-47.54,29.1-87.97,12.46-120.16-37.61-72.75-166.82-90.94-168.12-91.12l7.01-52.75c6.42.85,157.82,21.93,208.3,119.28,25.17,48.54,20.96,105.56-12.51,169.45Z"/>
      <path class="cls-3" d="m382.29,735.67c-93.7-34.54-147.37-83.53-159.5-145.63-19.1-97.72,75.39-185.2,79.42-188.87l38.25,41.95-19.12-20.98,19.16,20.94c-.2.18-20.07,18.57-37.55,45.71-14.77,22.93-30.99,57.24-24.42,90.52,8.15,41.24,49.66,75.93,123.4,103.11l-19.63,53.26Z"/>
      <path class="cls-3" d="m498.43,799.8l-56.36-6.73c19.28-161.46,9.69-367.5,9.59-369.56l56.7-2.73c.41,8.61,9.93,212.77-9.92,379.02Z"/>
      <rect class="cls-2" x="621.56" y="507.97" width="103.34" height="103.34" transform="translate(1500.31 846.68) rotate(159.4)"/>
      <rect class="cls-2" x="296.54" y="682.58" width="160.43" height="113.86" transform="translate(-453.08 726.03) rotate(-62.07)"/>
      <rect class="cls-2" x="396.18" y="755.91" width="160.43" height="113.86"/>
      <rect class="cls-2" x="177.03" y="75.24" width="170.79" height="170.79" transform="translate(450.28 -83.04) rotate(96.16)"/>
      <rect class="cls-2" x="473.03" y="262.33" width="170.79" height="170.79" transform="translate(964.06 -170.17) rotate(96.16)"/>
      <rect class="cls-2" x="306.54" y="10.67" width="210.27" height="210.27" transform="translate(570.98 -281.06) rotate(96.16)"/>
      <rect class="cls-2" x="294.83" y="321.77" width="170.79" height="170.79" transform="translate(825.84 72.82) rotate(96.16)"/>
      <rect class="cls-2" x="206.4" y="164.29" width="270.54" height="270.54" transform="translate(676.17 -8) rotate(96.16)"/>
      <rect class="cls-2" x="231.81" y="49.96" width="395.99" height="395.99" transform="translate(722.44 -152.77) rotate(96.16)"/>
      <rect class="cls-2" x="86.78" y="316.6" width="145.26" height="39.57" transform="translate(510.96 213.98) rotate(96.16)"/>
      <rect class="cls-2" x="547.43" y="7.46" width="39.57" height="39.57" transform="translate(655.16 -533.77) rotate(96.16)"/>
      <g>
        <path class="cls-3" d="m387.95,230.61c-6.49,55.82-76.03,77.31-112.16,33.66-29.33-34.89-12.39-90.86,31.63-103.43,44.31-13.26,86.24,24.86,80.53,69.77h0Zm-.71-.08c5-52.38-57.55-84.29-98.05-52.21-25.38,18.98-30.04,58.48-9.82,83.06,33.02,41.97,102.34,22.84,107.87-30.85h0Z"/>
        <circle class="cls-1" cx="322.8" cy="223.97" r="61"/>
        <circle class="cls-1" cx="490.8" cy="240.97" r="61"/>
      </g>
      <path class="cls-3" d="m453.5,290.95c-44.2-32.87-28.39-102.43,26.38-111.73,44.02-7.81,83.26,34.02,72.35,77.58-10.47,44.15-63.4,61.02-98.74,34.15h0Zm.42-.57c41.97,29.87,99.64-7.59,92.27-57.6-3.66-30.81-34.86-54.1-65.59-48.99-51.77,7.44-69.51,75.62-26.67,106.6h0Z"/>
      <path class="cls-3" d="m379.03,223.48c0,.17.01.33,0,.51-.56,5.17-5.2,8.91-10.38,8.35-5.17-.56-8.91-5.2-8.35-10.38.56-5.17,5.2-8.91,10.38-8.35.54.06,1.06.19,1.57.33-4.9-4.72-11.32-7.94-18.61-8.73-17.45-1.88-33.12,10.74-35.01,28.19-1.88,17.45,10.74,33.12,28.19,35.01,17.45,1.88,33.12-10.74,35.01-28.19.64-5.95-.43-11.68-2.78-16.74Z"/>
      <path class="cls-3" d="m499.34,236.68c-1.37,6.01-7,10.19-13.27,9.51-6.76-.73-11.65-6.8-10.92-13.57.62-5.78,5.16-10.16,10.69-10.87-4.32-2.64-9.26-4.42-14.63-5-19.48-2.1-36.97,11.98-39.07,31.46-2.1,19.48,11.98,36.97,31.46,39.07,19.48,2.1,36.97-11.98,39.07-31.46.74-6.83-.55-13.39-3.33-19.15Z"/>
      <path class="cls-3" d="m264.93,141.36c17.1-35.77,68.65-44.16,99.91-22.26-9.26.5-17.87-.23-26.95.4-26.06.7-50.34,8.29-72.96,21.86h0Z"/>
      <path class="cls-3" d="m555.27,160.46c-18.13-20.73-40.3-35.26-66.01-44.03-7.6-2.51-14.84-4.5-22.55-7.31,36.4-11.46,83.04,12.07,88.56,51.33h0Z"/>
      <path class="cls-3" d="m318.43,365.06c55.26,2.61,106.82,6.93,160.68-3.9,17.41-3.17,34.65-8.3,54.25-13.43-45.12,69.18-157.49,72.13-214.93,17.33h0Z"/>
    </g>
  </g>
</svg>