<?xml version="1.0" encoding="UTF-8"?><svg id="Layer_2" xmlns="http://www.w3.org/2000/svg" viewBox="0 0 72 85.71"><defs><style>.cls-1{fill:#43ba9a;}</style></defs><g id="Layer_23"><path class="cls-1" d="m72,22.71v42.43c-.89.78-1.67,1.75-2.68,2.32-9.42,5.29-18.88,10.49-28.32,15.75-1.41.78-2.76,1.67-4.14,2.51h-1.71c-.64-.42-1.25-.89-1.91-1.26-10.19-5.66-20.39-11.29-30.55-16.99C1.67,66.9.89,65.93,0,65.14c0-14.14,0-28.29,0-42.43.85-.7,1.62-1.57,2.58-2.08,2.51-1.33,5.07-2.57,7.67-3.69,1.36-.59,2.04-1.34,1.81-2.86-.34-2.18.78-3.35,2.7-4.23,6.06-2.8,12.05-5.73,18.06-8.64C33.49.89,34.09.41,34.71,0c.71,0,1.43,0,2.14,0,6.78,3.29,13.52,6.65,20.35,9.83,2.03.95,3.06,2.22,2.73,4.45-.19,1.33.36,2.03,1.6,2.56,2.67,1.16,5.3,2.43,7.88,3.79.96.51,1.73,1.38,2.58,2.08Zm-33.46,56.01c.89-.45,1.46-.71,2.01-1.01,8.23-4.56,16.44-9.15,24.7-13.64,1.25-.68,1.66-1.41,1.66-2.81-.06-10.56-.03-21.12-.03-31.68,0-.53,0-1.06,0-1.52-.33-.07-.42-.12-.46-.1-8.98,4.95-17.97,9.9-26.93,14.91-.45.25-.89.96-.9,1.47-.05,11.34-.04,22.68-.04,34.4Zm-5.08.09c0-11.78.02-23.12-.06-34.45,0-.61-.78-1.45-1.41-1.8-8.39-4.71-16.81-9.36-25.23-14.01-.47-.26-.98-.43-1.63-.72,0,11.51-.02,22.78.06,34.04,0,.69.74,1.63,1.39,2.01,6,3.43,12.06,6.75,18.11,10.1,2.79,1.55,5.59,3.08,8.76,4.83ZM20.06,12.93c5.23,2.89,10.01,5.56,14.84,8.16.53.29,1.44.42,1.93.16,4.94-2.65,9.83-5.4,15.1-8.34-5.37-2.57-10.42-5-15.48-7.38-.32-.15-.87-.06-1.22.11-4.93,2.35-9.85,4.72-15.17,7.28Zm-2.94,4.11c0,3.78-.05,7.17.05,10.57.02.53.6,1.23,1.12,1.53,2.32,1.38,4.71,2.64,7.08,3.95,2.59,1.43,5.17,2.87,8.09,4.5,0-3.82.04-7.21-.04-10.6-.01-.49-.52-1.16-.98-1.42-4.94-2.8-9.93-5.54-15.31-8.53Zm37.76,0c-5.44,3.02-10.53,5.83-15.6,8.67-.32.18-.69.62-.7.95-.05,3.51-.03,7.02-.03,10.92,5.48-3.04,10.57-5.84,15.62-8.71.37-.21.67-.9.67-1.37.06-3.34.03-6.69.03-10.46Zm-46.76,6.5c1.45.79,2.53,1.38,3.78,2.06v-3.88c-1.27.62-2.32,1.12-3.78,1.83Zm55.76,0c-1.5-.73-2.58-1.25-3.79-1.84v3.93c1.26-.7,2.3-1.27,3.79-2.1Z"/></g></svg>