<?xml version="1.0" encoding="UTF-8"?><svg id="Layer_2" xmlns="http://www.w3.org/2000/svg" viewBox="0 0 72.39 52.97"><defs><style>.cls-1{fill:#43ba9a;}</style></defs><g id="Layer_23"><g><path class="cls-1" d="m36.24,12.15c11.55,0,23.1.01,34.65-.02,1.1,0,1.51.17,1.51,1.42-.06,10.43-.03,20.87-.04,31.3,0,4.77-3.31,8.11-8.05,8.12-18.77.01-37.54.01-56.32,0-4.56,0-7.92-3.24-7.94-7.8C0,34.51.05,23.85,0,13.2c0-1.12.56-1.06,1.32-1.06,11.64.01,23.28,0,34.91,0Zm-12.61,31.11c.66-.43,1.15-.94,1.54-1.53.31-.46-.2-.72-.46-.97-2.72-2.64-5.42-5.3-8.19-7.88-.86-.8-1-1.27-.04-2.15,2.82-2.59,5.53-5.31,8.29-7.96.45-.43.77-.85.11-1.28-.55-.36-.67-1.62-1.85-.78-.67.48-.99,1.19-1.6,1.66-3.35,2.59-5.96,5.95-9.09,8.77-.54.48-.5.8,0,1.28,3.57,3.42,7.12,6.87,10.67,10.31.19.18.39.34.6.51Zm22.97-23.05c-.45.55-.95,1.08-1.34,1.67-.37.55.26.77.53,1.06,2.53,2.7,5.06,5.4,7.66,8.03.67.69.6,1.05-.03,1.69-2.31,2.35-4.56,4.77-6.82,7.16-.4.42-.86.82-1.13,1.31-.54.99.59,1.19.96,1.74.31.47.6.29.94-.08,3.25-3.48,6.52-6.96,9.81-10.4.55-.57.29-.86-.12-1.3-3.22-3.39-6.42-6.81-9.63-10.21-.17-.18-.28-.47-.82-.68Zm-6.99.43c-.16-.88-1.09-.57-1.67-.82-.84-.35-.94.37-1.08.92-1.84,7.09-3.62,14.2-5.55,21.26-.4,1.46.58,1.23,1.26,1.53.91.4,1.09-.08,1.29-.86,1.47-5.76,2.99-11.52,4.5-17.27.4-1.55.81-3.09,1.25-4.77Z"/><path class="cls-1" d="m36.06,9.58c-11.54,0-23.09-.02-34.63.03-1.23,0-1.48-.36-1.43-1.49C.1,6.03.03,3.93.04,1.84.04-.16-.32.02,1.9.02c13.86,0,27.72,0,41.58,0,9.14,0,18.27.02,27.41-.03,1.12,0,1.57.18,1.5,1.43-.12,2.27-.08,4.55-.01,6.82.03.99-.17,1.36-1.28,1.36-11.68-.05-23.35-.03-35.03-.03ZM15.61,4.84c.01-1.08-.86-1.95-1.94-1.93-1.02.02-1.84.85-1.85,1.88-.01,1.05.76,1.87,1.8,1.91,1.11.05,1.97-.76,1.99-1.86Zm4.74,1.86c1.05.03,1.89-.73,1.96-1.76.07-1.07-.77-1.99-1.84-2.03-1.07-.04-1.96.83-1.95,1.91,0,1.05.79,1.85,1.83,1.88Zm-11.43-1.84c.02-1.07-.85-1.97-1.92-1.95-1.02.01-1.85.83-1.87,1.86-.03,1.05.74,1.87,1.78,1.93,1.1.06,1.99-.75,2.01-1.83Z"/></g></g></svg>