<?xml version="1.0" encoding="UTF-8"?><svg id="Layer_2" xmlns="http://www.w3.org/2000/svg" viewBox="0 0 72.67 78.07"><defs><style>.cls-1{fill:#43ba9a;}</style></defs><g id="Layer_23"><g><path class="cls-1" d="m50.46,31.14c-1.31-6.63-7.13-11.61-14.13-11.61-5.55,0-10.38,3.15-12.78,7.76-5.78.61-10.28,5.52-10.28,11.45,0,6.36,5.17,11.53,11.53,11.53h24.98c5.3,0,9.61-4.3,9.61-9.61s-3.94-9.19-8.94-9.53Z"/><path class="cls-1" d="m57.25,59.29H18.41C8.26,59.29,0,51.04,0,40.89c0-4.56,1.68-8.94,4.74-12.33,2.98-3.3,7.03-5.4,11.42-5.93,1.9-3.56,4.72-6.56,8.15-8.69,3.61-2.24,7.76-3.42,12.02-3.42,2.72,0,5.37.47,7.9,1.4,2.44.9,4.7,2.2,6.7,3.87,1.99,1.66,3.68,3.62,5.01,5.84,1.3,2.16,2.22,4.51,2.75,6.97,3.75.35,7.23,2.03,9.81,4.77,2.69,2.85,4.16,6.57,4.16,10.49,0,2.08-.41,4.1-1.21,6-.78,1.84-1.89,3.48-3.3,4.9-1.42,1.42-3.06,2.53-4.9,3.3-1.9.8-3.92,1.21-6,1.21ZM36.33,11.48c-4.08,0-8.07,1.13-11.52,3.28-3.36,2.08-6.1,5.04-7.93,8.54l-.12.23-.25.03c-4.25.45-8.18,2.46-11.06,5.65-2.9,3.21-4.5,7.36-4.5,11.69,0,9.62,7.83,17.45,17.45,17.45h38.85c1.95,0,3.85-.38,5.63-1.14,1.72-.73,3.27-1.77,4.6-3.1,1.33-1.33,2.37-2.88,3.1-4.6.75-1.78,1.14-3.68,1.14-5.63,0-3.68-1.39-7.17-3.9-9.84-2.5-2.65-5.89-4.25-9.55-4.51l-.36-.03-.07-.36c-.49-2.48-1.4-4.84-2.7-7.02-1.28-2.13-2.89-4.01-4.8-5.6-1.92-1.6-4.09-2.85-6.42-3.71-2.42-.89-4.97-1.34-7.57-1.34Z"/><path class="cls-1" d="m57.25,59.29H18.41C8.26,59.29,0,51.04,0,40.89c0-4.56,1.68-8.94,4.74-12.33,2.98-3.3,7.03-5.4,11.42-5.93,1.9-3.56,4.72-6.56,8.15-8.69,3.61-2.24,7.76-3.42,12.02-3.42,2.72,0,5.37.47,7.9,1.4,2.44.9,4.7,2.2,6.7,3.87,1.99,1.66,3.68,3.62,5.01,5.84,1.3,2.16,2.22,4.51,2.75,6.97,3.75.35,7.23,2.03,9.81,4.77,2.69,2.85,4.16,6.57,4.16,10.49,0,2.08-.41,4.1-1.21,6-.78,1.84-1.89,3.48-3.3,4.9-1.42,1.42-3.06,2.53-4.9,3.3-1.9.8-3.92,1.21-6,1.21ZM36.33,11.48c-4.08,0-8.07,1.13-11.52,3.28-3.36,2.08-6.1,5.04-7.93,8.54l-.12.23-.25.03c-4.25.45-8.18,2.46-11.06,5.65-2.9,3.21-4.5,7.36-4.5,11.69,0,9.62,7.83,17.45,17.45,17.45h38.85c1.95,0,3.85-.38,5.63-1.14,1.72-.73,3.27-1.77,4.6-3.1,1.33-1.33,2.37-2.88,3.1-4.6.75-1.78,1.14-3.68,1.14-5.63,0-3.68-1.39-7.17-3.9-9.84-2.5-2.65-5.89-4.25-9.55-4.51l-.36-.03-.07-.36c-.49-2.48-1.4-4.84-2.7-7.02-1.28-2.13-2.89-4.01-4.8-5.6-1.92-1.6-4.09-2.85-6.42-3.71-2.42-.89-4.97-1.34-7.57-1.34Z"/><path class="cls-1" d="m10.06,12.21l6.71,9.35c1.36-2.25,3.1-4.24,5.14-5.9l-5.66-7.89,2.67-1.92L5.99,0l1.4,14.12,2.67-1.92Z"/><polygon class="cls-1" points="57.65 65.71 53.41 59.29 44.28 59.29 51.3 69.91 48.56 71.72 61.25 78.07 60.4 63.9 57.65 65.71"/></g></g></svg>