<svg version="1.1" id="Layer_1" xmlns="http://www.w3.org/2000/svg" xmlns:xlink="http://www.w3.org/1999/xlink" x="0px" y="0px"
	 width="100%" viewBox="0 0 2506 529" enable-background="new 0 0 2506 529" xml:space="preserve">
<path fill="#FFFFFF" opacity="1.000000" stroke="none" 
	d="
M0.999999,447.000000 
	C1.000000,298.366516 1.000000,149.733047 1.000000,1.000000 
	C467.029388,1.000000 933.058777,1.000000 1399.403320,1.347805 
	C1388.473877,4.065382 1383.839844,11.400490 1383.887573,22.316473 
	C1384.130981,77.974731 1384.002808,133.634628 1383.996582,189.293945 
	C1383.995728,197.103470 1382.125977,198.999268 1374.514404,198.999390 
	C1306.523438,199.000427 1238.532349,199.000000 1170.541382,199.000000 
	C1168.780151,199.000000 1167.018921,199.000000 1165.000000,199.000000 
	C1165.000000,196.530441 1165.000000,194.717773 1165.000000,192.905090 
	C1165.000000,137.412415 1165.014648,81.919724 1164.958618,26.427107 
	C1164.955688,23.504435 1164.380005,20.578987 1164.023804,17.660597 
	C1162.591187,5.921548 1153.072510,0.783774 1143.092041,2.069934 
	C1134.725952,3.148059 1127.898193,9.651367 1127.917603,21.023476 
	C1128.067017,109.011604 1128.000000,197.000107 1128.000000,284.988495 
	C1128.000000,328.482758 1128.153442,371.977905 1127.900269,415.470703 
	C1127.830444,427.477020 1141.744873,435.448822 1150.815430,432.271149 
	C1160.149414,429.001190 1164.896484,422.425415 1164.927856,411.215271 
	C1165.085327,354.889832 1165.000000,298.563690 1165.000000,242.237778 
	C1165.000000,240.290878 1165.000000,238.343979 1165.000000,236.000183 
	C1166.643555,236.000183 1167.771118,236.000198 1168.898682,236.000198 
	C1238.222900,236.000153 1307.546997,236.025467 1376.871094,235.931549 
	C1380.685669,235.926376 1382.850952,237.166794 1383.417603,240.914902 
	C1383.686035,242.690155 1383.975220,244.487106 1383.976196,246.274399 
	C1384.005249,302.766937 1383.989868,359.259460 1384.009399,415.752014 
	C1384.012817,425.563782 1394.649048,434.787598 1403.893799,432.927277 
	C1414.553833,430.782135 1420.067261,424.359436 1420.059082,413.045746 
	C1419.965942,284.729401 1419.999878,156.412994 1420.000732,28.096592 
	C1420.000854,26.596922 1419.727173,25.028049 1420.068726,23.608809 
	C1422.305664,14.314401 1415.821777,4.532819 1406.905884,2.409653 
	C1405.252441,2.015931 1403.634399,1.473689 1402.000000,0.999999 
	C1515.696045,1.000000 1629.392090,1.000000 1743.411621,1.341541 
	C1734.638062,3.808658 1729.028564,11.281855 1729.025269,22.197853 
	C1728.986328,152.342270 1729.011841,282.486694 1728.983276,412.631104 
	C1728.980103,427.226959 1736.907959,432.869110 1749.331543,432.897827 
	C1833.816650,433.093140 1918.302368,433.014496 2002.787964,432.967896 
	C2008.526123,432.964722 2013.527588,431.066132 2017.758423,426.815552 
	C2048.441162,395.990845 2079.226318,365.268311 2109.980225,334.514496 
	C2110.922119,333.572357 2111.772705,332.498322 2112.843506,331.734406 
	C2114.899658,330.267639 2116.975342,328.918915 2119.276123,331.630005 
	C2121.145752,333.833313 2123.299072,335.797516 2125.347900,337.846680 
	C2153.153564,365.657257 2180.952881,393.474060 2208.792480,421.250671 
	C2210.761230,423.215027 2212.964844,424.963776 2215.174561,426.663086 
	C2224.445801,433.792755 2235.267578,432.974731 2242.555176,423.761841 
	C2248.221680,416.598297 2247.443848,408.130737 2239.692139,399.368103 
	C2231.231445,389.804047 2222.185303,380.741852 2213.141113,371.714569 
	C2202.681152,361.273956 2191.878906,351.177124 2181.347168,340.807404 
	C2170.304688,329.935059 2159.393066,318.929169 2148.451172,307.954956 
	C2143.735596,303.225525 2143.718994,300.702362 2148.572998,295.944855 
	C2161.508301,283.266541 2174.524414,270.670135 2187.477783,258.010040 
	C2191.812500,253.773453 2196.085693,249.472412 2200.335449,245.150162 
	C2218.057373,227.125259 2235.923096,209.237335 2253.367920,190.947906 
	C2258.554443,185.510284 2259.370850,178.521896 2256.109375,171.391815 
	C2252.991943,164.575638 2247.591309,161.560562 2240.257568,160.929184 
	C2232.038086,160.221542 2226.587646,165.019272 2221.537842,170.085159 
	C2188.987061,202.739212 2156.780029,235.738297 2124.040527,268.200562 
	C2116.488037,275.689056 2117.420410,276.751953 2108.948975,268.344086 
	C2074.531738,234.184875 2040.226807,199.910385 2006.130859,165.430954 
	C2000.931396,160.173019 1995.252808,158.453278 1988.365234,159.006866 
	C1978.954956,159.763245 1972.206177,169.741379 1973.770020,178.947662 
	C1975.116089,186.871597 1979.956909,192.273041 1985.068848,197.429733 
	C2015.805420,228.435318 2046.734985,259.249817 2077.637451,290.090698 
	C2079.723877,292.173035 2082.294922,293.777191 2084.334717,295.897858 
	C2089.321533,301.081726 2089.298340,303.291168 2084.243164,308.227203 
	C2074.264404,317.971222 2064.106201,327.532745 2054.197021,337.346497 
	C2037.503052,353.880005 2020.635132,370.257477 2004.490112,387.315460 
	C1998.394287,393.756012 1992.001221,396.149048 1983.387695,396.121674 
	C1914.733521,395.903534 1846.078125,396.000061 1777.423218,395.999908 
	C1768.017334,395.999908 1766.000488,393.937866 1766.000488,384.306702 
	C1765.999756,263.327393 1765.991577,142.348068 1766.023438,21.368752 
	C1766.025146,14.918018 1764.097778,9.343385 1758.857056,5.484112 
	C1756.229004,3.548937 1752.972412,2.467529 1750.000000,0.999993 
	C2002.212036,1.000000 2254.424072,1.000000 2507.000000,1.000000 
	C2507.000000,34.361816 2507.000000,67.724960 2506.662598,101.419464 
	C2501.660400,91.212502 2495.220459,82.280800 2485.435059,75.648987 
	C2463.739502,60.945309 2439.189453,53.737103 2413.967773,49.286789 
	C2391.512695,45.324600 2368.681641,43.332729 2345.951660,41.144684 
	C2331.802246,39.782597 2317.533203,39.147331 2303.315674,39.114025 
	C2276.875488,39.052078 2250.432861,39.619808 2223.992920,40.038906 
	C2217.881104,40.135784 2211.767822,40.575596 2205.670654,41.056080 
	C2189.733643,42.312019 2173.808838,43.723343 2157.872070,44.982819 
	C2148.164062,45.750011 2138.423828,46.147640 2128.732422,47.072430 
	C2113.178955,48.556614 2097.659424,50.392235 2082.115234,51.979259 
	C2071.303955,53.083038 2060.437256,53.719177 2049.663574,55.096214 
	C2030.784424,57.509239 2011.945068,60.245655 1993.112183,63.004452 
	C1973.152832,65.928268 1953.229858,69.100838 1933.272705,72.040504 
	C1920.143799,73.974411 1917.321777,80.113182 1917.889893,88.971497 
	C1918.549194,99.250412 1926.626709,102.768425 1934.243286,101.788162 
	C1947.084229,100.135536 1959.836670,97.806351 1972.665283,96.045174 
	C1986.335327,94.168495 2000.052979,92.640793 2013.745483,90.924606 
	C2031.995117,88.637207 2050.213867,86.071259 2068.495605,84.082146 
	C2084.053711,82.389359 2099.675293,81.247696 2115.282227,80.039742 
	C2129.929443,78.906075 2144.589600,77.930977 2159.252930,77.024300 
	C2171.795654,76.248741 2184.345703,75.548943 2196.901611,75.037140 
	C2209.002930,74.543877 2221.122803,73.909515 2233.222656,74.098656 
	C2251.777832,74.388733 2270.333496,75.123459 2288.867920,76.075554 
	C2299.878418,76.641136 2310.931152,77.441383 2321.818359,79.099449 
	C2340.919434,82.008507 2360.051758,85.005943 2378.904785,89.170906 
	C2399.844727,93.796913 2419.723877,101.419975 2434.458496,118.098396 
	C2441.665771,126.256561 2444.342773,136.128555 2442.489258,147.072052 
	C2439.870117,162.534424 2430.854248,174.459595 2420.773926,185.606079 
	C2406.526855,201.360138 2389.970703,214.480804 2372.357910,226.290405 
	C2338.139648,249.233826 2302.072510,268.913544 2265.085449,286.954010 
	C2253.285400,292.709381 2241.398438,298.290253 2229.472656,303.780304 
	C2226.445312,305.174011 2226.844482,306.579651 2228.599609,308.529175 
	C2230.227539,308.097992 2231.883545,307.883911 2233.348877,307.237976 
	C2259.947266,295.514099 2286.799316,284.319672 2313.031982,271.824768 
	C2345.119385,256.541138 2376.858643,240.503006 2406.768555,221.106567 
	C2434.118896,203.370026 2461.468994,185.682419 2483.422852,161.076553 
	C2492.464355,150.942856 2500.096924,139.947006 2504.571289,126.968079 
	C2505.064697,125.536400 2506.175537,124.317581 2507.000000,123.000000 
	C2507.000000,258.645966 2507.000000,394.291901 2507.000000,530.000000 
	C1744.303955,530.000000 981.607910,530.000000 218.460587,529.778137 
	C218.009277,529.556274 218.041351,529.113647 218.373169,529.052551 
	C219.073486,528.623474 219.441971,528.255493 219.810425,527.887451 
	C219.220718,527.553772 218.631012,527.220032 217.793976,526.564819 
	C214.788498,525.829956 212.043121,525.269531 209.270020,525.028564 
	C197.120880,523.973022 184.910477,523.431885 172.823029,521.906128 
	C157.871201,520.018799 142.900665,517.914490 128.152786,514.865906 
	C108.358093,510.774078 89.126793,505.052490 72.154625,493.153412 
	C53.016037,479.735474 48.064449,462.053467 58.287991,441.274261 
	C68.571587,420.373016 85.115868,404.916351 103.119049,391.206635 
	C119.273834,378.904541 136.662491,368.213287 153.615753,356.975708 
	C157.894485,354.139496 162.589355,351.931122 168.000000,348.931396 
	C168.000000,351.833191 168.000000,353.303589 168.000000,354.773956 
	C168.000000,373.938049 167.951614,393.102264 168.015839,412.266144 
	C168.064209,426.705627 175.056000,434.235291 189.539627,434.175690 
	C275.859894,433.820526 362.182312,434.000031 448.504028,434.000000 
	C449.670532,434.000000 450.839264,434.046173 452.003235,433.991669 
	C460.936462,433.573395 469.510956,422.878693 467.929321,414.147339 
	C465.951752,403.230347 458.415344,397.000977 447.167786,397.000763 
	C368.845001,396.999298 290.522217,397.000000 212.199448,397.000000 
	C210.263336,397.000000 208.327240,397.000000 206.403839,397.000000 
	C206.403839,343.647400 206.403839,290.942841 206.403839,238.000000 
	C208.796066,238.000000 210.785309,238.000000 212.774567,238.000000 
	C269.433594,238.000000 326.093994,237.789673 382.750702,238.152725 
	C396.355438,238.239899 404.958649,226.701065 401.395447,212.813202 
	C399.394867,205.015671 392.075287,200.001129 380.928650,200.000793 
	C324.602905,199.999039 268.277161,200.000000 211.951416,200.000000 
	C210.039215,200.000000 208.126999,200.000000 206.314774,200.000000 
	C206.314774,146.590286 206.314774,94.003601 206.314774,41.000000 
	C208.591003,41.000000 210.556839,41.000000 212.522675,41.000000 
	C291.345398,41.000000 370.168091,41.001465 448.990814,40.990902 
	C450.816681,40.990658 452.742920,41.207909 454.451294,40.722160 
	C462.493683,38.435467 468.977905,29.139534 467.973511,21.640209 
	C466.625671,11.576279 458.727539,4.026617 449.162445,4.022472 
	C361.674225,3.984561 274.185791,3.930021 186.698547,4.219664 
	C182.572220,4.233325 178.010574,6.807583 174.434387,9.308565 
	C168.182953,13.680458 168.058105,20.929152 168.052414,27.686232 
	C167.974594,120.007057 167.973877,212.328003 168.065491,304.648804 
	C168.070938,310.135468 165.807526,313.517303 161.123383,316.012604 
	C144.722672,324.749329 127.877846,332.806885 112.193138,342.695038 
	C91.397461,355.805389 71.143715,369.868225 51.395550,384.517303 
	C36.124508,395.845276 22.191267,408.986206 12.218694,425.483978 
	C8.381652,431.831665 6.001956,439.060272 2.695176,446.002441 
	C1.954732,446.411591 1.477365,446.705811 0.999999,447.000000 
M775.000000,226.500000 
	C775.000000,158.501785 774.944519,90.503464 775.054382,22.505423 
	C775.072754,11.135145 767.876404,4.259746 756.546021,4.121984 
	C746.271423,3.997061 737.813171,11.369297 737.875305,22.696411 
	C738.159119,74.527023 738.000000,126.360062 738.000000,178.192230 
	C738.000000,179.924072 738.000000,181.655914 738.000000,184.765503 
	C733.595947,179.477951 730.639160,174.769775 726.606079,171.319839 
	C717.371094,163.420151 708.082581,155.411301 697.938293,148.791534 
	C686.392212,141.257050 673.405334,136.436234 659.962952,132.967194 
	C643.581421,128.739609 626.901794,128.370651 610.210876,129.137283 
	C601.062561,129.557480 591.823120,130.686203 582.895081,132.696136 
	C558.289124,138.235550 536.464539,149.323975 517.279358,165.981339 
	C503.865997,177.627350 493.229156,191.214218 484.779816,206.635147 
	C474.460815,225.468369 468.889923,245.642441 466.779266,267.076630 
	C465.286377,282.237152 465.611664,297.291931 468.304474,312.017487 
	C475.340454,350.493347 493.650940,382.624207 525.122742,406.600342 
	C548.319763,424.272491 574.700073,434.491180 603.564697,436.681152 
	C620.448181,437.962158 637.546570,437.815918 654.522705,434.216156 
	C681.212158,428.556702 704.821533,417.097412 725.171021,399.178009 
	C740.688232,385.513824 752.401611,368.878601 761.055359,350.021759 
	C770.255493,329.974426 774.742065,308.948029 774.958679,286.998260 
	C775.154419,267.167297 775.000000,247.332886 775.000000,226.500000 
M1640.522461,374.988190 
	C1634.022339,379.324341 1627.905151,384.444061 1620.947876,387.845215 
	C1602.384277,396.920197 1582.850708,401.054810 1561.969360,398.126282 
	C1548.015625,396.169342 1535.008545,392.063660 1523.116211,384.579254 
	C1517.305786,380.922577 1517.338135,380.169800 1522.131714,375.375885 
	C1573.034912,324.467865 1623.939697,273.561279 1674.844116,222.654449 
	C1675.668823,221.829620 1676.491943,221.003311 1677.320557,220.182373 
	C1683.911987,213.651520 1686.106934,203.851746 1678.965820,197.104385 
	C1672.669189,191.155273 1666.216064,185.315430 1659.392456,179.990799 
	C1636.682251,162.269470 1610.553833,153.479553 1582.001221,152.167984 
	C1573.024902,151.755676 1563.946167,153.202347 1554.934326,154.019699 
	C1538.858887,155.477707 1523.609253,160.251312 1509.325073,167.450638 
	C1491.168457,176.601807 1475.591553,189.199631 1463.045776,205.410233 
	C1436.268555,240.009628 1427.126953,279.109009 1434.204224,321.878418 
	C1438.351929,346.944855 1449.471191,369.256866 1466.110352,388.440796 
	C1483.404297,408.379883 1504.607910,422.932434 1529.907227,430.995819 
	C1549.172363,437.136017 1568.796875,439.216797 1589.102417,437.210907 
	C1606.424683,435.499725 1622.595337,430.632141 1638.142700,423.333618 
	C1656.687622,414.627930 1672.380981,402.209503 1685.335327,386.246307 
	C1695.208862,374.079132 1702.818481,360.693939 1707.998779,345.969574 
	C1711.273804,336.660583 1707.316650,327.424225 1698.537476,323.255157 
	C1690.416870,319.398926 1680.453003,319.534790 1674.128418,329.506927 
	C1669.530396,336.756714 1666.409058,345.023041 1661.317627,351.859192 
	C1655.293457,359.948090 1647.859009,366.986603 1640.522461,374.988190 
M846.000000,181.500000 
	C846.000000,171.001587 846.061218,160.502716 845.983276,150.004883 
	C845.900024,138.789261 837.901001,131.888260 825.281433,132.000061 
	C816.061462,132.081741 809.000671,139.872406 809.000427,149.971756 
	C808.999390,198.798813 808.962952,247.625916 809.043884,296.452850 
	C809.054871,303.059967 809.673157,309.665405 809.985046,316.272827 
	C810.649475,330.346680 813.875122,343.884705 819.100281,356.892639 
	C831.554443,387.896820 852.586121,410.926331 883.290039,424.669617 
	C911.891052,437.471619 941.731262,440.777954 972.595459,436.039490 
	C994.806946,432.629456 1014.744873,423.989899 1032.364380,410.088501 
	C1038.244141,405.449493 1043.836060,400.445557 1050.000000,395.236267 
	C1050.000000,402.429199 1049.965576,409.058472 1050.007690,415.687256 
	C1050.078979,426.900574 1057.847046,434.026428 1069.910522,434.000000 
	C1080.618286,433.976532 1086.999268,427.291687 1086.999390,416.085541 
	C1087.000488,333.096222 1087.000122,250.106888 1087.000000,167.117554 
	C1087.000000,160.618393 1087.060791,154.118484 1086.982910,147.620255 
	C1086.901978,140.863663 1082.704468,134.956955 1076.412231,133.015518 
	C1062.641968,128.766754 1049.808838,135.941910 1049.890015,151.951538 
	C1050.173828,207.942886 1050.024170,263.936615 1049.950562,319.929321 
	C1049.945190,324.029785 1049.715698,328.243927 1048.772217,332.210632 
	C1042.997070,356.491760 1028.677856,374.447510 1007.019653,386.403351 
	C984.591125,398.784393 960.527588,402.970001 935.004822,400.132507 
	C919.275757,398.383820 904.431030,394.527496 890.784485,386.375977 
	C875.980286,377.532867 864.217896,365.745361 856.716248,350.173218 
	C849.259460,334.694397 846.065063,318.116425 846.027466,300.984711 
	C845.940857,261.489960 846.000000,221.994919 846.000000,181.500000 
z"/>
<path fill="#58A4D7" opacity="1.000000" stroke="none" 
	d="
M2.958255,445.887512 
	C6.001956,439.060272 8.381652,431.831665 12.218694,425.483978 
	C22.191267,408.986206 36.124508,395.845276 51.395550,384.517303 
	C71.143715,369.868225 91.397461,355.805389 112.193138,342.695038 
	C127.877846,332.806885 144.722672,324.749329 161.123383,316.012604 
	C165.807526,313.517303 168.070938,310.135468 168.065491,304.648804 
	C167.973877,212.328003 167.974594,120.007057 168.052414,27.686232 
	C168.058105,20.929152 168.182953,13.680458 174.434387,9.308565 
	C178.010574,6.807583 182.572220,4.233325 186.698547,4.219664 
	C274.185791,3.930021 361.674225,3.984561 449.162445,4.022472 
	C458.727539,4.026617 466.625671,11.576279 467.973511,21.640209 
	C468.977905,29.139534 462.493683,38.435467 454.451294,40.722160 
	C452.742920,41.207909 450.816681,40.990658 448.990814,40.990902 
	C370.168091,41.001465 291.345398,41.000000 212.522675,41.000000 
	C210.556839,41.000000 208.591003,41.000000 206.314774,41.000000 
	C206.314774,94.003601 206.314774,146.590286 206.314774,200.000000 
	C208.126999,200.000000 210.039215,200.000000 211.951416,200.000000 
	C268.277161,200.000000 324.602905,199.999039 380.928650,200.000793 
	C392.075287,200.001129 399.394867,205.015671 401.395447,212.813202 
	C404.958649,226.701065 396.355438,238.239899 382.750702,238.152725 
	C326.093994,237.789673 269.433594,238.000000 212.774567,238.000000 
	C210.785309,238.000000 208.796066,238.000000 206.403839,238.000000 
	C206.403839,290.942841 206.403839,343.647400 206.403839,397.000000 
	C208.327240,397.000000 210.263336,397.000000 212.199448,397.000000 
	C290.522217,397.000000 368.845001,396.999298 447.167786,397.000763 
	C458.415344,397.000977 465.951752,403.230347 467.929321,414.147339 
	C469.510956,422.878693 460.936462,433.573395 452.003235,433.991669 
	C450.839264,434.046173 449.670532,434.000000 448.504028,434.000000 
	C362.182312,434.000031 275.859894,433.820526 189.539627,434.175690 
	C175.056000,434.235291 168.064209,426.705627 168.015839,412.266144 
	C167.951614,393.102264 168.000000,373.938049 168.000000,354.773956 
	C168.000000,353.303589 168.000000,351.833191 168.000000,348.931396 
	C162.589355,351.931122 157.894485,354.139496 153.615753,356.975708 
	C136.662491,368.213287 119.273834,378.904541 103.119049,391.206635 
	C85.115868,404.916351 68.571587,420.373016 58.287991,441.274261 
	C48.064449,462.053467 53.016037,479.735474 72.154625,493.153412 
	C89.126793,505.052490 108.358093,510.774078 128.152786,514.865906 
	C142.900665,517.914490 157.871201,520.018799 172.823029,521.906128 
	C184.910477,523.431885 197.120880,523.973022 209.270020,525.028564 
	C212.043121,525.269531 214.788498,525.829956 217.783325,526.936035 
	C218.027130,528.123718 218.034241,528.618713 218.041351,529.113647 
	C218.041351,529.113647 218.009277,529.556274 218.004639,529.778137 
	C206.979111,530.000000 195.958206,530.000000 184.402679,529.641113 
	C182.231323,529.225830 180.594589,529.169495 178.520142,529.068970 
	C175.735657,529.054138 173.388901,529.083618 170.771545,528.802307 
	C167.629868,528.341614 164.758759,528.191772 161.429214,528.025513 
	C147.687180,526.978149 134.338181,526.458679 121.138710,524.770203 
	C108.357407,523.135132 95.631783,520.732239 83.056763,517.891663 
	C61.635525,513.052734 40.411839,507.574554 22.246206,494.140015 
	C13.625742,487.764740 5.985560,480.857697 2.969930,469.727722 
	C2.321074,468.228668 1.660541,467.114319 1.000004,466.000000 
	C1.000000,460.977905 1.000000,455.955811 1.364262,450.398804 
	C2.138435,448.538422 2.548346,447.212982 2.958255,445.887512 
z"/>
<path fill="#606161" opacity="1.000000" stroke="none" 
	d="
M1749.571533,0.999993 
	C1752.972412,2.467529 1756.229004,3.548937 1758.857056,5.484112 
	C1764.097778,9.343385 1766.025146,14.918018 1766.023438,21.368752 
	C1765.991577,142.348068 1765.999756,263.327393 1766.000488,384.306702 
	C1766.000488,393.937866 1768.017334,395.999908 1777.423218,395.999908 
	C1846.078125,396.000061 1914.733521,395.903534 1983.387695,396.121674 
	C1992.001221,396.149048 1998.394287,393.756012 2004.490112,387.315460 
	C2020.635132,370.257477 2037.503052,353.880005 2054.197021,337.346497 
	C2064.106201,327.532745 2074.264404,317.971222 2084.243164,308.227203 
	C2089.298340,303.291168 2089.321533,301.081726 2084.334717,295.897858 
	C2082.294922,293.777191 2079.723877,292.173035 2077.637451,290.090698 
	C2046.734985,259.249817 2015.805420,228.435318 1985.068848,197.429733 
	C1979.956909,192.273041 1975.116089,186.871597 1973.770020,178.947662 
	C1972.206177,169.741379 1978.954956,159.763245 1988.365234,159.006866 
	C1995.252808,158.453278 2000.931396,160.173019 2006.130859,165.430954 
	C2040.226807,199.910385 2074.531738,234.184875 2108.948975,268.344086 
	C2117.420410,276.751953 2116.488037,275.689056 2124.040527,268.200562 
	C2156.780029,235.738297 2188.987061,202.739212 2221.537842,170.085159 
	C2226.587646,165.019272 2232.038086,160.221542 2240.257568,160.929184 
	C2247.591309,161.560562 2252.991943,164.575638 2256.109375,171.391815 
	C2259.370850,178.521896 2258.554443,185.510284 2253.367920,190.947906 
	C2235.923096,209.237335 2218.057373,227.125259 2200.335449,245.150162 
	C2196.085693,249.472412 2191.812500,253.773453 2187.477783,258.010040 
	C2174.524414,270.670135 2161.508301,283.266541 2148.572998,295.944855 
	C2143.718994,300.702362 2143.735596,303.225525 2148.451172,307.954956 
	C2159.393066,318.929169 2170.304688,329.935059 2181.347168,340.807404 
	C2191.878906,351.177124 2202.681152,361.273956 2213.141113,371.714569 
	C2222.185303,380.741852 2231.231445,389.804047 2239.692139,399.368103 
	C2247.443848,408.130737 2248.221680,416.598297 2242.555176,423.761841 
	C2235.267578,432.974731 2224.445801,433.792755 2215.174561,426.663086 
	C2212.964844,424.963776 2210.761230,423.215027 2208.792480,421.250671 
	C2180.952881,393.474060 2153.153564,365.657257 2125.347900,337.846680 
	C2123.299072,335.797516 2121.145752,333.833313 2119.276123,331.630005 
	C2116.975342,328.918915 2114.899658,330.267639 2112.843506,331.734406 
	C2111.772705,332.498322 2110.922119,333.572357 2109.980225,334.514496 
	C2079.226318,365.268311 2048.441162,395.990845 2017.758423,426.815552 
	C2013.527588,431.066132 2008.526123,432.964722 2002.787964,432.967896 
	C1918.302368,433.014496 1833.816650,433.093140 1749.331543,432.897827 
	C1736.907959,432.869110 1728.980103,427.226959 1728.983276,412.631104 
	C1729.011841,282.486694 1728.986328,152.342270 1729.025269,22.197853 
	C1729.028564,11.281855 1734.638062,3.808658 1743.867554,1.341541 
	C1745.714355,1.000000 1747.428711,1.000000 1749.571533,0.999993 
z"/>
<path fill="#606161" opacity="1.000000" stroke="none" 
	d="
M1401.666748,0.999999 
	C1403.634399,1.473689 1405.252441,2.015931 1406.905884,2.409653 
	C1415.821777,4.532819 1422.305664,14.314401 1420.068726,23.608809 
	C1419.727173,25.028049 1420.000854,26.596922 1420.000732,28.096592 
	C1419.999878,156.412994 1419.965942,284.729401 1420.059082,413.045746 
	C1420.067261,424.359436 1414.553833,430.782135 1403.893799,432.927277 
	C1394.649048,434.787598 1384.012817,425.563782 1384.009399,415.752014 
	C1383.989868,359.259460 1384.005249,302.766937 1383.976196,246.274399 
	C1383.975220,244.487106 1383.686035,242.690155 1383.417603,240.914902 
	C1382.850952,237.166794 1380.685669,235.926376 1376.871094,235.931549 
	C1307.546997,236.025467 1238.222900,236.000153 1168.898682,236.000198 
	C1167.771118,236.000198 1166.643555,236.000183 1165.000000,236.000183 
	C1165.000000,238.343979 1165.000000,240.290878 1165.000000,242.237778 
	C1165.000000,298.563690 1165.085327,354.889832 1164.927856,411.215271 
	C1164.896484,422.425415 1160.149414,429.001190 1150.815430,432.271149 
	C1141.744873,435.448822 1127.830444,427.477020 1127.900269,415.470703 
	C1128.153442,371.977905 1128.000000,328.482758 1128.000000,284.988495 
	C1128.000000,197.000107 1128.067017,109.011604 1127.917603,21.023476 
	C1127.898193,9.651367 1134.725952,3.148059 1143.092041,2.069934 
	C1153.072510,0.783774 1162.591187,5.921548 1164.023804,17.660597 
	C1164.380005,20.578987 1164.955688,23.504435 1164.958618,26.427107 
	C1165.014648,81.919724 1165.000000,137.412415 1165.000000,192.905090 
	C1165.000000,194.717773 1165.000000,196.530441 1165.000000,199.000000 
	C1167.018921,199.000000 1168.780151,199.000000 1170.541382,199.000000 
	C1238.532349,199.000000 1306.523438,199.000427 1374.514404,198.999390 
	C1382.125977,198.999268 1383.995728,197.103470 1383.996582,189.293945 
	C1384.002808,133.634628 1384.130981,77.974731 1383.887573,22.316473 
	C1383.839844,11.400490 1388.473877,4.065382 1399.859375,1.347805 
	C1400.444458,1.000000 1400.888916,1.000000 1401.666748,0.999999 
z"/>
<path fill="#58A4D7" opacity="1.000000" stroke="none" 
	d="
M2507.000000,122.531471 
	C2506.175537,124.317581 2505.064697,125.536400 2504.571289,126.968079 
	C2500.096924,139.947006 2492.464355,150.942856 2483.422852,161.076553 
	C2461.468994,185.682419 2434.118896,203.370026 2406.768555,221.106567 
	C2376.858643,240.503006 2345.119385,256.541138 2313.031982,271.824768 
	C2286.799316,284.319672 2259.947266,295.514099 2233.348877,307.237976 
	C2231.883545,307.883911 2230.227539,308.097992 2228.599609,308.529175 
	C2226.844482,306.579651 2226.445312,305.174011 2229.472656,303.780304 
	C2241.398438,298.290253 2253.285400,292.709381 2265.085449,286.954010 
	C2302.072510,268.913544 2338.139648,249.233826 2372.357910,226.290405 
	C2389.970703,214.480804 2406.526855,201.360138 2420.773926,185.606079 
	C2430.854248,174.459595 2439.870117,162.534424 2442.489258,147.072052 
	C2444.342773,136.128555 2441.665771,126.256561 2434.458496,118.098396 
	C2419.723877,101.419975 2399.844727,93.796913 2378.904785,89.170906 
	C2360.051758,85.005943 2340.919434,82.008507 2321.818359,79.099449 
	C2310.931152,77.441383 2299.878418,76.641136 2288.867920,76.075554 
	C2270.333496,75.123459 2251.777832,74.388733 2233.222656,74.098656 
	C2221.122803,73.909515 2209.002930,74.543877 2196.901611,75.037140 
	C2184.345703,75.548943 2171.795654,76.248741 2159.252930,77.024300 
	C2144.589600,77.930977 2129.929443,78.906075 2115.282227,80.039742 
	C2099.675293,81.247696 2084.053711,82.389359 2068.495605,84.082146 
	C2050.213867,86.071259 2031.995117,88.637207 2013.745483,90.924606 
	C2000.052979,92.640793 1986.335327,94.168495 1972.665283,96.045174 
	C1959.836670,97.806351 1947.084229,100.135536 1934.243286,101.788162 
	C1926.626709,102.768425 1918.549194,99.250412 1917.889893,88.971497 
	C1917.321777,80.113182 1920.143799,73.974411 1933.272705,72.040504 
	C1953.229858,69.100838 1973.152832,65.928268 1993.112183,63.004452 
	C2011.945068,60.245655 2030.784424,57.509239 2049.663574,55.096214 
	C2060.437256,53.719177 2071.303955,53.083038 2082.115234,51.979259 
	C2097.659424,50.392235 2113.178955,48.556614 2128.732422,47.072430 
	C2138.423828,46.147640 2148.164062,45.750011 2157.872070,44.982819 
	C2173.808838,43.723343 2189.733643,42.312019 2205.670654,41.056080 
	C2211.767822,40.575596 2217.881104,40.135784 2223.992920,40.038906 
	C2250.432861,39.619808 2276.875488,39.052078 2303.315674,39.114025 
	C2317.533203,39.147331 2331.802246,39.782597 2345.951660,41.144684 
	C2368.681641,43.332729 2391.512695,45.324600 2413.967773,49.286789 
	C2439.189453,53.737103 2463.739502,60.945309 2485.435059,75.648987 
	C2495.220459,82.280800 2501.660400,91.212502 2506.662598,101.875412 
	C2507.000000,108.687645 2507.000000,115.375290 2507.000000,122.531471 
z"/>
<path fill="#FFFFFF" opacity="1.000000" stroke="none" 
	d="
M2.958252,470.112488 
	C5.985560,480.857697 13.625742,487.764740 22.246206,494.140015 
	C40.411839,507.574554 61.635525,513.052734 83.056763,517.891663 
	C95.631783,520.732239 108.357407,523.135132 121.138710,524.770203 
	C134.338181,526.458679 147.687180,526.978149 161.544250,528.288452 
	C162.411819,529.045288 162.705917,529.522644 163.000000,530.000000 
	C109.106133,530.000000 55.212265,530.000000 1.000000,530.000000 
	C1.000000,509.980225 1.000000,489.958771 1.278227,469.538788 
	C2.023719,469.464325 2.490986,469.788422 2.958252,470.112488 
z"/>
<path fill="#58A4D7" opacity="1.000000" stroke="none" 
	d="
M163.444168,530.000000 
	C162.705917,529.522644 162.411819,529.045288 162.002686,528.304932 
	C164.758759,528.191772 167.629868,528.341614 170.754883,529.023743 
	C171.008820,529.555969 171.000000,530.000000 171.000000,530.000000 
	C168.629440,530.000000 166.258896,530.000000 163.444168,530.000000 
z"/>
<path fill="#58A4D7" opacity="1.000000" stroke="none" 
	d="
M178.957870,529.113159 
	C180.594589,529.169495 182.231323,529.225830 183.934021,529.641113 
	C182.611115,530.000000 181.222214,530.000000 179.412201,529.777954 
	C178.991089,529.555969 178.957870,529.113098 178.957870,529.113159 
z"/>
<path fill="#FFFFFF" opacity="1.000000" stroke="none" 
	d="
M178.520142,529.068909 
	C178.957870,529.113098 178.991089,529.555969 178.995544,529.777954 
	C176.629440,530.000000 174.258896,530.000000 171.444168,530.000000 
	C171.000000,530.000000 171.008820,529.555969 171.025482,529.334534 
	C173.388901,529.083618 175.735657,529.054138 178.520142,529.068909 
z"/>
<path fill="#58A4D7" opacity="1.000000" stroke="none" 
	d="
M2.695178,446.002441 
	C2.548346,447.212982 2.138435,448.538422 1.364262,449.931946 
	C1.000000,449.250000 1.000000,448.500000 0.999999,447.375000 
	C1.477365,446.705811 1.954732,446.411591 2.695178,446.002441 
z"/>
<path fill="#58A4D7" opacity="1.000000" stroke="none" 
	d="
M2.969929,469.727722 
	C2.490986,469.788422 2.023719,469.464325 1.278227,469.070129 
	C1.000000,468.250000 1.000000,467.500000 1.000004,466.375000 
	C1.660541,467.114319 2.321074,468.228668 2.969929,469.727722 
z"/>
<path fill="#58A4D7" opacity="1.000000" stroke="none" 
	d="
M775.000000,227.000000 
	C775.000000,247.332886 775.154419,267.167297 774.958679,286.998260 
	C774.742065,308.948029 770.255493,329.974426 761.055359,350.021759 
	C752.401611,368.878601 740.688232,385.513824 725.171021,399.178009 
	C704.821533,417.097412 681.212158,428.556702 654.522705,434.216156 
	C637.546570,437.815918 620.448181,437.962158 603.564697,436.681152 
	C574.700073,434.491180 548.319763,424.272491 525.122742,406.600342 
	C493.650940,382.624207 475.340454,350.493347 468.304474,312.017487 
	C465.611664,297.291931 465.286377,282.237152 466.779266,267.076630 
	C468.889923,245.642441 474.460815,225.468369 484.779816,206.635147 
	C493.229156,191.214218 503.865997,177.627350 517.279358,165.981339 
	C536.464539,149.323975 558.289124,138.235550 582.895081,132.696136 
	C591.823120,130.686203 601.062561,129.557480 610.210876,129.137283 
	C626.901794,128.370651 643.581421,128.739609 659.962952,132.967194 
	C673.405334,136.436234 686.392212,141.257050 697.938293,148.791534 
	C708.082581,155.411301 717.371094,163.420151 726.606079,171.319839 
	C730.639160,174.769775 733.595947,179.477951 738.000000,184.765503 
	C738.000000,181.655914 738.000000,179.924072 738.000000,178.192230 
	C738.000000,126.360062 738.159119,74.527023 737.875305,22.696411 
	C737.813171,11.369297 746.271423,3.997061 756.546021,4.121984 
	C767.876404,4.259746 775.072754,11.135145 775.054382,22.505423 
	C774.944519,90.503464 775.000000,158.501785 775.000000,227.000000 
M528.488281,358.032959 
	C537.370667,366.367920 545.438538,375.860107 555.301208,382.802460 
	C577.384644,398.346954 602.392944,404.098907 629.470154,402.164734 
	C647.208374,400.897644 663.564514,396.153046 679.006653,387.535919 
	C697.630127,377.143494 712.141235,362.589539 722.368286,344.034119 
	C735.091675,320.949219 739.989075,296.231598 737.148438,269.813995 
	C735.221069,251.890015 730.521912,235.097183 721.252625,219.624863 
	C710.246155,201.252899 695.574585,186.642792 676.449646,176.845093 
	C656.618652,166.685669 635.625977,161.512390 613.240540,164.075302 
	C603.664062,165.171707 593.870056,166.096237 584.724976,168.895721 
	C561.321838,176.059906 541.984924,189.303726 527.101074,209.193085 
	C511.678741,229.802078 504.147736,252.938248 503.156921,278.288116 
	C502.824646,286.790314 503.958130,295.410675 505.053192,303.895538 
	C507.632355,323.880005 515.752869,341.599365 528.488281,358.032959 
z"/>
<path fill="#606161" opacity="1.000000" stroke="none" 
	d="
M1640.779053,374.734283 
	C1647.859009,366.986603 1655.293457,359.948090 1661.317627,351.859192 
	C1666.409058,345.023041 1669.530396,336.756714 1674.128418,329.506927 
	C1680.453003,319.534790 1690.416870,319.398926 1698.537476,323.255157 
	C1707.316650,327.424225 1711.273804,336.660583 1707.998779,345.969574 
	C1702.818481,360.693939 1695.208862,374.079132 1685.335327,386.246307 
	C1672.380981,402.209503 1656.687622,414.627930 1638.142700,423.333618 
	C1622.595337,430.632141 1606.424683,435.499725 1589.102417,437.210907 
	C1568.796875,439.216797 1549.172363,437.136017 1529.907227,430.995819 
	C1504.607910,422.932434 1483.404297,408.379883 1466.110352,388.440796 
	C1449.471191,369.256866 1438.351929,346.944855 1434.204224,321.878418 
	C1427.126953,279.109009 1436.268555,240.009628 1463.045776,205.410233 
	C1475.591553,189.199631 1491.168457,176.601807 1509.325073,167.450638 
	C1523.609253,160.251312 1538.858887,155.477707 1554.934326,154.019699 
	C1563.946167,153.202347 1573.024902,151.755676 1582.001221,152.167984 
	C1610.553833,153.479553 1636.682251,162.269470 1659.392456,179.990799 
	C1666.216064,185.315430 1672.669189,191.155273 1678.965820,197.104385 
	C1686.106934,203.851746 1683.911987,213.651520 1677.320557,220.182373 
	C1676.491943,221.003311 1675.668823,221.829620 1674.844116,222.654449 
	C1623.939697,273.561279 1573.034912,324.467865 1522.131714,375.375885 
	C1517.338135,380.169800 1517.305786,380.922577 1523.116211,384.579254 
	C1535.008545,392.063660 1548.015625,396.169342 1561.969360,398.126282 
	C1582.850708,401.054810 1602.384277,396.920197 1620.947876,387.845215 
	C1627.905151,384.444061 1634.022339,379.324341 1640.779053,374.734283 
M1507.540161,215.970901 
	C1502.676636,221.161041 1497.562866,226.141113 1492.996704,231.580887 
	C1479.570557,247.576279 1472.992432,266.514557 1471.125610,286.974060 
	C1469.283081,307.169434 1473.650146,326.354736 1483.058350,344.372223 
	C1487.413330,352.712585 1489.374634,353.053619 1496.200928,346.300964 
	C1496.437622,346.066772 1496.673096,345.831299 1496.908569,345.595856 
	C1540.123413,302.381561 1583.338257,259.167419 1626.552368,215.952393 
	C1627.376221,215.128479 1628.247559,214.343460 1628.999146,213.457367 
	C1631.256104,210.796936 1631.745850,208.353775 1628.021484,206.496628 
	C1621.913696,203.450867 1616.042358,199.763000 1609.671387,197.445297 
	C1593.109375,191.420212 1575.980957,189.218292 1558.463135,192.288055 
	C1539.653809,195.584122 1522.884644,203.461090 1507.540161,215.970901 
z"/>
<path fill="#58A4D7" opacity="1.000000" stroke="none" 
	d="
M846.000000,182.000000 
	C846.000000,221.994919 845.940857,261.489960 846.027466,300.984711 
	C846.065063,318.116425 849.259460,334.694397 856.716248,350.173218 
	C864.217896,365.745361 875.980286,377.532867 890.784485,386.375977 
	C904.431030,394.527496 919.275757,398.383820 935.004822,400.132507 
	C960.527588,402.970001 984.591125,398.784393 1007.019653,386.403351 
	C1028.677856,374.447510 1042.997070,356.491760 1048.772217,332.210632 
	C1049.715698,328.243927 1049.945190,324.029785 1049.950562,319.929321 
	C1050.024170,263.936615 1050.173828,207.942886 1049.890015,151.951538 
	C1049.808838,135.941910 1062.641968,128.766754 1076.412231,133.015518 
	C1082.704468,134.956955 1086.901978,140.863663 1086.982910,147.620255 
	C1087.060791,154.118484 1087.000000,160.618393 1087.000000,167.117554 
	C1087.000122,250.106888 1087.000488,333.096222 1086.999390,416.085541 
	C1086.999268,427.291687 1080.618286,433.976532 1069.910522,434.000000 
	C1057.847046,434.026428 1050.078979,426.900574 1050.007690,415.687256 
	C1049.965576,409.058472 1050.000000,402.429199 1050.000000,395.236267 
	C1043.836060,400.445557 1038.244141,405.449493 1032.364380,410.088501 
	C1014.744873,423.989899 994.806946,432.629456 972.595459,436.039490 
	C941.731262,440.777954 911.891052,437.471619 883.290039,424.669617 
	C852.586121,410.926331 831.554443,387.896820 819.100281,356.892639 
	C813.875122,343.884705 810.649475,330.346680 809.985046,316.272827 
	C809.673157,309.665405 809.054871,303.059967 809.043884,296.452850 
	C808.962952,247.625916 808.999390,198.798813 809.000427,149.971756 
	C809.000671,139.872406 816.061462,132.081741 825.281433,132.000061 
	C837.901001,131.888260 845.900024,138.789261 845.983276,150.004883 
	C846.061218,160.502716 846.000000,171.001587 846.000000,182.000000 
z"/>
<path fill="#58A4D7" opacity="1.000000" stroke="none" 
	d="
M218.373169,529.052551 
	C218.034241,528.618713 218.027130,528.123718 218.030670,527.257568 
	C218.631012,527.220032 219.220718,527.553772 219.810425,527.887451 
	C219.441971,528.255493 219.073486,528.623474 218.373169,529.052551 
z"/>
<path fill="#FFFFFF" opacity="1.000000" stroke="none" 
	d="
M528.240967,357.768188 
	C515.752869,341.599365 507.632355,323.880005 505.053192,303.895538 
	C503.958130,295.410675 502.824646,286.790314 503.156921,278.288116 
	C504.147736,252.938248 511.678741,229.802078 527.101074,209.193085 
	C541.984924,189.303726 561.321838,176.059906 584.724976,168.895721 
	C593.870056,166.096237 603.664062,165.171707 613.240540,164.075302 
	C635.625977,161.512390 656.618652,166.685669 676.449646,176.845093 
	C695.574585,186.642792 710.246155,201.252899 721.252625,219.624863 
	C730.521912,235.097183 735.221069,251.890015 737.148438,269.813995 
	C739.989075,296.231598 735.091675,320.949219 722.368286,344.034119 
	C712.141235,362.589539 697.630127,377.143494 679.006653,387.535919 
	C663.564514,396.153046 647.208374,400.897644 629.470154,402.164734 
	C602.392944,404.098907 577.384644,398.346954 555.301208,382.802460 
	C545.438538,375.860107 537.370667,366.367920 528.240967,357.768188 
z"/>
<path fill="#FFFFFF" opacity="1.000000" stroke="none" 
	d="
M1507.788330,215.710846 
	C1522.884644,203.461090 1539.653809,195.584122 1558.463135,192.288055 
	C1575.980957,189.218292 1593.109375,191.420212 1609.671387,197.445297 
	C1616.042358,199.763000 1621.913696,203.450867 1628.021484,206.496628 
	C1631.745850,208.353775 1631.256104,210.796936 1628.999146,213.457367 
	C1628.247559,214.343460 1627.376221,215.128479 1626.552368,215.952393 
	C1583.338257,259.167419 1540.123413,302.381561 1496.908569,345.595856 
	C1496.673096,345.831299 1496.437622,346.066772 1496.200928,346.300964 
	C1489.374634,353.053619 1487.413330,352.712585 1483.058350,344.372223 
	C1473.650146,326.354736 1469.283081,307.169434 1471.125610,286.974060 
	C1472.992432,266.514557 1479.570557,247.576279 1492.996704,231.580887 
	C1497.562866,226.141113 1502.676636,221.161041 1507.788330,215.710846 
z"/>
</svg>