<?xml version="1.0" encoding="UTF-8"?><svg id="Layer_2" xmlns="http://www.w3.org/2000/svg" viewBox="0 0 528.06 522"><defs><style>.cls-1{fill:none;}.cls-2{fill:#43ba9a;}</style></defs><g id="page_2"><g><path class="cls-1" d="m290.12,456.17c15.82,0,28.69,12.87,28.69,28.69,0,2.88-.43,5.65-1.22,8.27,1.21-3.51,2.02-8.25,2.55-12.28-1.97-14.82-14.68-26.29-30.02-26.29-8.33,0-15.88,3.39-21.36,8.85-1.78,3.2-3.59,6.74-4.93,9.98,4.44-10.13,14.55-17.22,26.29-17.22Z"/><path class="cls-1" d="m356.05,318.91c-2.66-7.75-3.11-13.27-3.12-13.36l1.6-.12c0,.09.44,5.42,3.02,12.93l51.53-18.87c4.35-8.24,6.81-17.61,6.81-27.56,0-17.96-8.03-34.08-20.69-44.96-.49-.42-.99-.84-1.5-1.25-10.16-8.17-23.05-13.07-37.07-13.07-.6,0-1.19.01-1.78.03-.65.02-1.29.05-1.94.09-30.95,1.93-55.55,27.72-55.55,59.15s26.59,59.27,59.27,59.27c1.63,0,3.25-.07,4.85-.2-2.09-3.71-3.68-7.31-4.89-10.57-.19-.51-.37-1.02-.54-1.52Zm-26.98-73.01c0-8.13,6.62-14.75,14.75-14.75s14.75,6.62,14.75,14.75-6.62,14.75-14.75,14.75-14.75-6.62-14.75-14.75Z"/><path class="cls-1" d="m127.42,85.67l-5.34-.12c1.54.01,3.02.3,4.38.81.3-.25.62-.48.95-.69Z"/><path class="cls-1" d="m128.13,87.12c-2.42,1.64-4.01,4.41-4.01,7.55,0,5.03,4.09,9.12,9.12,9.12h10.52c2.47,0,2.9,1.61,2.9,1.61h31.43s.43-1.61,2.9-1.61h9.11c5.03,0,9.12-4.09,9.12-9.12s-4.09-9.12-9.12-9.12h-56.85c-.65,0-1.29.07-1.91.2-.53.11-1.05.28-1.55.48-.58.24-1.14.54-1.65.88Z"/><path class="cls-1" d="m435.74,206.24c-2.39-1.74-5.19-2.94-8.24-3.41-.54-.08-1.1-.14-1.66-.18-.16-.01-.31-.02-.47-.03-.25-.01-.5-.02-.76-.02-1.58,0-3.12.2-4.58.57,0,.02-.01.03-.02.05-1.87,5.24-4.86,9.96-8.68,13.87,6.64,6.63,12.09,14.45,16,23.12,3.11-.45,5.97-1.66,8.4-3.43.56-.41,1.1-.85,1.61-1.31,3.79-3.46,6.17-8.43,6.17-13.95,0-4.36-1.49-8.37-3.97-11.57-.34-.44-.7-.87-1.08-1.27-.36-.38-.73-.76-1.12-1.11-.51-.47-1.05-.9-1.61-1.31Z"/><path class="cls-1" d="m364.58,336.01c-.36-.52-.7-1.05-1.03-1.57-.3-.47-.59-.93-.87-1.39-.11-.17-.2-.35-.31-.52-1.89.18-3.8.27-5.74.27-33.57,0-60.88-27.31-60.88-60.88s24.75-58.24,56.1-60.69c.62-.05,1.23-.09,1.85-.12.97-.05,1.94-.07,2.92-.07,14.79,0,28.37,5.3,38.93,14.11.48.4.95.81,1.42,1.22,12.59,11.16,20.54,27.44,20.54,45.55,0,9.59-2.23,18.67-6.2,26.74l18.55-6.79c1.73-6.36,2.67-13.05,2.67-19.95,0-10.65-2.21-20.79-6.18-29.99-.23-.52-.46-1.04-.69-1.56-3.81-8.3-9.07-15.79-15.45-22.16-.38-.38-.76-.75-1.15-1.12-.72-.69-1.45-1.36-2.2-2.01-.43-.38-.86-.75-1.29-1.12-13.22-11.18-30.3-17.93-48.93-17.93-2.99,0-5.95.18-8.85.52-.53.06-1.07.13-1.6.2-36.92,5.11-65.44,36.87-65.44,75.17,0,41.85,34.05,75.89,75.89,75.89,5.58,0,11.01-.61,16.25-1.76-.05-.05-.09-.09-.14-.14-3.01-3.05-5.74-6.35-8.16-9.91Z"/><path class="cls-1" d="m428.59,201.39c2.59.51,5.01,1.51,7.15,2.9.56.36,1.09.75,1.61,1.16.93.74,1.79,1.55,2.58,2.44,2.16-1.45,3.59-3.92,3.59-6.72,0-3.8-2.63-6.99-6.17-7.85-.26-.07-.53-.12-.81-.15-.24.52-.51,1.03-.8,1.53-1.69,2.86-4.17,5.2-7.15,6.7Z"/><path class="cls-1" d="m173.2,56.05c4.04,0,7.8-1.2,10.95-3.26,1.14-.75,2.21-1.6,3.18-2.56,3.69-3.65,5.98-8.71,5.98-14.29,0-11.09-9.02-20.11-20.11-20.11-5.59,0-10.65,2.29-14.29,5.98-.96.97-1.81,2.03-2.56,3.18-2.06,3.15-3.26,6.92-3.26,10.96,0,11.09,9.02,20.11,20.11,20.11Z"/><path class="cls-1" d="m420.8,170.19c-1.38,0-2.72.18-4,.52,3.45,5.75,5.44,12.47,5.44,19.65,0,3.83-.57,7.54-1.63,11.03,1.29-.26,2.63-.39,4-.39.19,0,.37,0,.55.01.19-.06.38-.11.57-.18.57-.19,1.12-.41,1.66-.66,3.18-1.47,5.78-3.97,7.38-7.07.27-.53.52-1.08.73-1.64.08-.22.16-.44.23-.66.51-1.54.79-3.19.79-4.9s-.28-3.36-.79-4.9c-2.06-6.28-7.98-10.82-14.94-10.82Z"/><path class="cls-1" d="m356.63,194.43c18.85,0,36.15,6.77,49.61,18,.43.36.85.71,1.27,1.08.92.8,1.81,1.62,2.69,2.46,3.39-3.47,6.09-7.61,7.9-12.2.09-.23.19-.47.28-.7.15-.4.28-.81.42-1.22.04-.11.08-.22.11-.33,1.13-3.52,1.74-7.26,1.74-11.15,0-7.01-1.98-13.57-5.41-19.15-.29-.47-.58-.93-.89-1.38-6.6-9.75-17.77-16.17-30.4-16.17-18.33,0-33.57,13.52-36.27,31.11v10.18c2.94-.34,5.93-.52,8.96-.52Z"/><path class="cls-1" d="m206.45,78.58c1.34,0,2.62-.24,3.82-.66,1.26-.44,2.42-1.09,3.43-1.92,2.61-2.12,4.28-5.34,4.28-8.95,0-6.36-5.17-11.53-11.53-11.53-1.74,0-3.38.4-4.86,1.09-1.21.57-2.32,1.33-3.26,2.26-2.11,2.09-3.42,4.99-3.42,8.19,0,6.36,5.17,11.53,11.53,11.53Z"/><path class="cls-1" d="m57.68,285.67c-4.72-8.03-4.17-18.93,1.7-33.32,5.46-13.39,15.41-29.53,30.42-49.34.27-.8,1.7-2.73,6.69-9.46,8.38-11.31,22.4-30.24,33.48-48.24,9-14.62,18.78-33.27,14.88-39.9h-10.19c-1.92,3.48-5.22,6.08-9.16,7.07,1.62.8,3.45,2.11,4.56,4.21,1.53,2.89,1.31,6.51-.65,10.78-5.86,12.79-50.22,75.25-52.1,77.9-.23.29-20.43,25.96-29.4,49.7-4.64,12.29-5.27,22.13-4.98,28.21.31,6.59,1.75,10.33,1.76,10.36l.02.05c.02.06,2.05,6.35,8.42,12.04,8.42,7.52,20.6,10.58,35.24,8.86,33.09-3.89,50.9-6.49,53.73-6.91-.04-3.18-.22-6.37-.56-9.56-14.7,2.05-27.49,3.09-38.4,3.09-24.38,0-39.35-5.15-45.45-15.52Z"/><circle class="cls-1" cx="343.82" cy="245.9" r="13.14"/><rect class="cls-1" x="347.67" y="67.31" width="88.07" height="7.54"/><path class="cls-1" d="m122.51,94.67c0-3.35,1.54-6.34,3.95-8.31-1.37-.51-2.84-.79-4.38-.81h-.12c-7.09,0-12.86,5.77-12.86,12.87s5.77,12.87,12.87,12.87c4.54,0,8.53-2.36,10.83-5.92-5.71-.23-10.29-4.94-10.29-10.7Z"/><path class="cls-1" d="m362.8,158.44v-68.6h1.61v67.59c4.94-2.94,10.59-4.8,16.63-5.25v-62.34h1.61v62.25c.43-.01.86-.03,1.3-.03,5.45,0,10.63,1.15,15.33,3.21v-65.43h1.61v66.18c6.11,3.02,11.29,7.63,15.03,13.27.86-.26,1.76-.44,2.67-.56v-78.89h1.61v78.76c.21,0,.41-.02.62-.02,6.36,0,11.92,3.44,14.94,8.56v-100.68h-88.07v101.61c2.75-8.09,8.13-14.98,15.13-19.63Z"/><rect class="cls-1" x="260.35" y="1.61" width="85.7" height="7.27"/><path class="cls-1" d="m193.31,67.04c0-2.27.58-4.41,1.6-6.27-2.61,2.12-4.28,5.34-4.28,8.95,0,6.36,5.17,11.53,11.53,11.53,1.74,0,3.38-.4,4.86-1.09-.19,0-.38.01-.57.01-7.25,0-13.14-5.89-13.14-13.14Z"/><path class="cls-1" d="m151.47,35.94c0-2.97.6-5.81,1.69-8.39-3.69,3.65-5.98,8.71-5.98,14.29,0,11.09,9.02,20.11,20.11,20.11,5.59,0,10.65-2.29,14.29-5.98-2.58,1.09-5.42,1.69-8.39,1.69-11.98,0-21.72-9.74-21.72-21.72Z"/><path class="cls-2" d="m258.74,152.86v-1.11c-2.67-.85-5.36-1.6-8.05-2.27v.36h-1.61v-.76c-1.22-.29-2.44-.56-3.67-.82-17.3-3.56-34.27-3.26-49.66.69.14.47.22.86.23,1.18l-1.61.08c-.01-.21-.07-.5-.18-.85-8.34,2.29-16.2,5.67-23.37,10.1-17.88,11.05-30.48,27.86-36.46,48.61-.64,2.22-1.19,4.48-1.67,6.77.51.13,1.03.25,1.57.38.47-2.27,1.02-4.51,1.65-6.7,5.86-20.37,18.22-36.86,35.75-47.69,20.43-12.63,46.51-16.53,73.42-10.99,27.33,5.62,54.22,20.54,78.2,43.3-17.3-9.86-36.81-9.31-53.54,1.88-13.98,9.35-24.61,25.41-29.92,45.23-5.99,22.35-5.19,48.95,2.32,76.98,7.36,22.26,4.91,52.63-6.55,81.24-5.84,14.58-13.59,27.91-23.02,39.6-10.06,12.48-21.54,22.44-34.13,29.61-11.31,6.45-23.37,10.51-35.83,12.08-13.47,1.7-27.49.48-41.68-3.62-31.42-9.08-63.61-32.09-95.71-68.4,17.87,5.87,36.79,6.9,54.91,2.96,18.01-3.92,34.89-12.58,48.79-25.07,29-26.03,40.88-64,31.78-101.58l-.02-.07c-8.32-23.96-10.61-46.99-6.75-67.19-.53-.13-1.05-.25-1.57-.38-3.93,20.48-1.63,43.81,6.78,68.05.97,4,1.68,8.01,2.17,12.01.39-.06.78-.1,1.17-.16l.23,1.59c-.41.06-.8.11-1.21.17.34,3.2.52,6.39.56,9.56.25-.04.4-.06.41-.06l.24,1.59s-.24.04-.64.1c-.1,28.35-12.1,55.29-34.24,75.16-13.7,12.3-30.32,20.83-48.06,24.69-18.79,4.09-38.47,2.74-56.9-3.89l-2.91-1.05,2.03,2.33c32.97,37.86,66.11,61.8,98.48,71.16,10.19,2.95,20.31,4.43,30.21,4.43,4.08,0,8.12-.25,12.12-.76,12.67-1.6,24.93-5.73,36.43-12.28,12.76-7.27,24.4-17.37,34.58-30,9.53-11.82,17.36-25.28,23.26-40.01,11.77-29.39,14.17-59.4,6.6-82.3-7.43-27.71-8.23-54.02-2.31-76.1,5.21-19.44,15.61-35.18,29.26-44.31,17.44-11.66,38-11.37,55.67.57,1.2.22,2.42.46,3.65.72l-.19.9.6-.68c-8.49-8.71-17.4-16.41-26.59-23.04v.27h-1.61v-1.42c-7.69-5.43-15.58-10.11-23.6-14.01v.68h-1.61v-1.44c-5.49-2.59-11.04-4.81-16.63-6.65v.59h-1.61Z"/><path class="cls-2" d="m326.33,196.94c1.01.68,2.01,1.39,2.99,2.15l.46-.52.19-.9c-1.23-.27-2.45-.5-3.65-.72Z"/><path class="cls-2" d="m347.67,184.77c-.28,1.82-.43,3.69-.43,5.59,0,1.56.11,3.09.3,4.6.04,0,.08,0,.13-.01v-10.18Z"/><path class="cls-2" d="m347.67,76.46h-.91v-1.61h.91v-7.54h-.69v-1.61h.69V0h-88.92v151.75c.54.17,1.07.34,1.61.52V10.49h-1.02v-1.61h1.02V1.61h85.7v7.27h.5v1.61h-.5v174.18c.34-2.27.89-4.47,1.61-6.6v-101.61Z"/><path class="cls-2" d="m258.74,152.86h1.61v-.59c-.54-.18-1.07-.35-1.61-.52v1.11Z"/><path class="cls-2" d="m437.35,238.14v-.57c-.25.2-.5.39-.76.57h.76Z"/><path class="cls-2" d="m435.74,67.31v7.54h.93v1.61h-.93v100.68c.67,1.13,1.21,2.34,1.61,3.61v-115.05h-89.68v1.61h88.07Z"/><path class="cls-2" d="m437.35,191.66v-.58c-.06.19-.12.37-.19.55.06.01.13.02.19.03Z"/><rect class="cls-2" x="346.97" y="65.7" width=".69" height="1.61"/><path class="cls-2" d="m59.07,284.85c-7.22-12.28-.99-32.91,19.03-62.76l-.61-1.09s.78-.43,2.1-1.1c3.5-5.12,7.37-10.49,11.66-16.14l1.08-1.42-.28.02c1.09-1.57,3.29-4.55,5.75-7.86,25.79-34.81,54.3-75.98,48.87-89.1h-1.8c3.9,6.63-5.88,25.28-14.88,39.9-11.08,18-25.1,36.93-33.48,48.24-4.99,6.74-6.42,8.67-6.69,9.46-15.01,19.81-24.96,35.95-30.42,49.34-5.87,14.39-6.42,25.29-1.7,33.32,6.1,10.37,21.08,15.52,45.45,15.52,10.9,0,23.69-1.03,38.4-3.09-.06-.53-.13-1.07-.19-1.6-46.88,6.55-73.8,2.74-82.27-11.65Z"/><path class="cls-2" d="m194.38,150.22l1.61-.08c-.02-.31-.1-.71-.23-1.18-.52.13-1.04.27-1.55.41.1.35.17.64.18.85Z"/><path class="cls-2" d="m142.74,297.93l-.23-1.59c-.4.06-.78.11-1.17.16.07.53.14,1.07.19,1.6.4-.06.8-.11,1.21-.17Z"/><path class="cls-2" d="m133.24,103.78c-5.03,0-9.12-4.09-9.12-9.12,0-3.14,1.59-5.91,4.01-7.55-.53-.29-1.09-.55-1.67-.76-2.41,1.97-3.95,4.96-3.95,8.31,0,5.77,4.58,10.47,10.29,10.7.33-.51.62-1.04.87-1.59h-.43Z"/><path class="cls-2" d="m131.33,85.75l-2.44-.05c.3.17.6.35.89.53.5-.2,1.01-.37,1.55-.48Z"/><path class="cls-2" d="m144.65,105.05l-.89-1.27h-8.33c-.22.55-.47,1.09-.76,1.61h10.19c-.07-.11-.13-.23-.2-.34Z"/><path class="cls-2" d="m122.11,111.3c.11.02,1.33.24,2.84.91.36.15.55.26.55.26,3.94-.99,7.25-3.6,9.16-7.07h-1.42c-.15,0-.29-.02-.44-.02-2.29,3.56-6.29,5.92-10.83,5.92-7.1,0-12.87-5.77-12.87-12.87s5.77-12.87,12.86-12.87h0s.04-1.61.04-1.61c0,0-.01,0-.02,0-7.99,0-14.48,6.5-14.48,14.48s6.45,14.43,14.39,14.48c-.02,0-.05,0-.05,0l.27-1.59Z"/><path class="cls-2" d="m128.13,87.12c.52-.35,1.07-.65,1.65-.88-.29-.19-.59-.37-.89-.53l-1.47-.03c-.33.21-.65.44-.95.69.58.21,1.13.47,1.67.76Z"/><path class="cls-2" d="m133.67,103.78c-.25.55-.55,1.08-.87,1.59.15,0,.29.02.44.02h1.42c.29-.52.54-1.06.76-1.61h-1.75Z"/><path class="cls-2" d="m121.98,85.55s0,0,0,0h.12s-.07,0-.11,0Z"/><path class="cls-2" d="m131.19,84.14l-9.2-.2h0c2.16,0,4.22.49,6.06,1.34.97-.54,2.02-.92,3.14-1.14Z"/><path class="cls-2" d="m128.89,85.7l2.44.05c.62-.13,1.25-.2,1.91-.2h5.23l.03-1.25-7.31-.16c-1.12.22-2.17.61-3.14,1.14.28.13.56.27.84.42Z"/><path class="cls-2" d="m121.97,85.55s0,0,0,0c.04,0,.07,0,.11,0l5.34.12c.21-.13.42-.27.63-.39-1.84-.86-3.9-1.34-6.06-1.34l-.04,1.61h0Z"/><path class="cls-2" d="m128.05,85.28c-.22.12-.43.25-.63.39l1.47.03c-.27-.15-.55-.29-.84-.42Z"/><path class="cls-2" d="m88.36,314.58c-14.64,1.72-26.82-1.34-35.24-8.86-6.36-5.68-8.4-11.97-8.42-12.04l-.02-.05s-1.45-3.77-1.76-10.36c-.29-6.08.34-15.92,4.98-28.21,8.97-23.74,29.17-49.41,29.4-49.7,1.89-2.65,46.24-65.11,52.1-77.9,1.95-4.26,2.17-7.89.65-10.78-1.11-2.1-2.93-3.41-4.56-4.21-1.13.28-2.31.44-3.52.44-.03,0-.06,0-.09,0,.46.09,4.91,1.05,6.75,4.54,1.27,2.42,1.04,5.56-.69,9.34-5.8,12.66-51.49,76.99-51.93,77.61-.2.26-20.56,26.12-29.62,50.1-4.76,12.6-5.39,22.7-5.08,28.95.33,6.6,1.71,10.37,1.85,10.75.17.53,2.29,6.82,8.8,12.67,8.54,7.67,19.36,9.79,28.71,9.79,2.78,0,5.43-.19,7.86-.47,32.32-3.8,50.08-6.37,53.56-6.88,0-.54,0-1.08-.01-1.63-2.83.42-20.64,3.01-53.73,6.91Z"/><path class="cls-2" d="m142.5,307.61s-.16.02-.41.06c0,.54.01,1.08.01,1.63.4-.06.62-.09.64-.1l-.24-1.59Z"/><path class="cls-2" d="m122.11,111.3c1.36.33,2.3.68,2.84.91-1.51-.66-2.73-.89-2.84-.91Z"/><path class="cls-2" d="m125.5,112.47l-3.39-1.16-.27,1.59s.03,0,.05,0c.03,0,.06,0,.09,0,1.22,0,2.4-.15,3.52-.44Z"/><path class="cls-2" d="m173.2,15.82c11.09,0,20.11,9.02,20.11,20.11,0,5.59-2.29,10.65-5.98,14.29-.55,1.31-1.23,2.56-2.01,3.73,5.79-3.91,9.6-10.53,9.6-18.02,0-11.98-9.74-21.72-21.72-21.72-7.49,0-14.11,3.81-18.02,9.6,1.17-.79,2.41-1.46,3.73-2.01,3.65-3.69,8.71-5.98,14.29-5.98Z"/><path class="cls-2" d="m173.2,56.05c-11.09,0-20.11-9.02-20.11-20.11,0-4.04,1.2-7.8,3.26-10.96-1.14.75-2.21,1.6-3.18,2.56-1.09,2.58-1.69,5.42-1.69,8.39,0,11.98,9.74,21.72,21.72,21.72,2.97,0,5.81-.6,8.39-1.69.96-.97,1.81-2.03,2.56-3.18-3.15,2.06-6.92,3.26-10.95,3.26Z"/><path class="cls-2" d="m167.3,63.56c7.49,0,14.11-3.81,18.02-9.6-1.17.79-2.41,1.46-3.73,2.01-3.65,3.69-8.71,5.98-14.29,5.98-11.09,0-20.11-9.02-20.11-20.11,0-5.59,2.29-10.65,5.98-14.29.55-1.31,1.23-2.56,2.01-3.73-5.79,3.91-9.6,10.53-9.6,18.02,0,11.98,9.74,21.72,21.72,21.72Z"/><path class="cls-2" d="m156.34,24.98c.75-1.14,1.6-2.21,2.56-3.18-1.31.55-2.56,1.23-3.73,2.01-.79,1.17-1.46,2.41-2.01,3.73.97-.96,2.03-1.81,3.18-2.56Z"/><path class="cls-2" d="m184.15,52.79c-.75,1.14-1.6,2.21-2.56,3.18,1.31-.55,2.56-1.23,3.73-2.01.79-1.17,1.46-2.41,2.01-3.73-.97.96-2.03,1.81-3.18,2.56Z"/><path class="cls-2" d="m206.45,55.51c6.36,0,11.53,5.17,11.53,11.53,0,3.61-1.67,6.84-4.28,8.95-.68,1.25-1.56,2.37-2.58,3.33,4.95-1.89,8.47-6.68,8.47-12.28,0-7.25-5.89-13.14-13.14-13.14-3.46,0-6.61,1.35-8.96,3.54,1.29-.49,2.67-.79,4.11-.85,1.48-.69,3.12-1.09,4.86-1.09Z"/><path class="cls-2" d="m206.45,78.58c-6.36,0-11.53-5.17-11.53-11.53,0-3.2,1.31-6.09,3.42-8.19-1.26.44-2.42,1.09-3.43,1.92-1.02,1.86-1.6,4-1.6,6.27,0,7.25,5.89,13.14,13.14,13.14.19,0,.38,0,.57-.01,1.21-.57,2.32-1.33,3.26-2.26-1.2.42-2.48.66-3.82.66Z"/><path class="cls-2" d="m189.02,69.73c0,7.25,5.89,13.14,13.14,13.14,3.46,0,6.61-1.35,8.96-3.54-1.28.49-2.67.79-4.11.85-1.48.69-3.12,1.09-4.86,1.09-6.36,0-11.53-5.17-11.53-11.53,0-3.61,1.67-6.84,4.28-8.95.68-1.25,1.56-2.37,2.58-3.33-4.95,1.89-8.47,6.68-8.47,12.28Z"/><path class="cls-2" d="m198.34,58.86c.94-.93,2.04-1.69,3.26-2.26-1.44.06-2.82.36-4.11.85-1.03.96-1.9,2.08-2.58,3.33,1.02-.82,2.18-1.47,3.43-1.92Z"/><path class="cls-2" d="m210.27,77.91c-.94.93-2.04,1.69-3.26,2.26,1.44-.06,2.82-.36,4.11-.85,1.03-.96,1.9-2.08,2.58-3.33-1.02.82-2.18,1.47-3.43,1.92Z"/><path class="cls-2" d="m432.52,271.93c0,6.9-.93,13.59-2.67,19.95l1.85-.68c1.58-6.16,2.43-12.62,2.43-19.27,0-10.71-2.18-20.91-6.13-30.2-.55.09-1.1.16-1.67.21,3.98,9.21,6.18,19.35,6.18,29.99Z"/><path class="cls-2" d="m372.88,346.07c-5.24,1.15-10.67,1.76-16.25,1.76-41.85,0-75.89-34.05-75.89-75.89,0-38.3,28.52-70.06,65.44-75.17-.09-.53-.17-1.06-.23-1.59-37.7,5.22-66.82,37.65-66.82,76.76,0,31.16,18.49,58.08,45.06,70.38.04-.28.07-.44.07-.47l1.59.22s-.05.37-.14.93c6.1,2.66,12.6,4.57,19.39,5.58.18-.34.28-.54.3-.57l1.42.76s-.01.03-.03.05c3.22.41,6.51.62,9.84.62,6.06,0,11.96-.7,17.62-2.02-.08-.08-.17-.15-.25-.23-.38-.37-.75-.74-1.13-1.11Z"/><path class="cls-2" d="m410.19,218.22c6.39,6.37,11.64,13.86,15.45,22.16.57-.03,1.14-.09,1.69-.17-3.9-8.66-9.35-16.49-16-23.12-.37.38-.76.76-1.15,1.13Z"/><path class="cls-2" d="m405.55,213.96c.21-.52.43-1.03.68-1.53-13.45-11.23-30.75-18-49.61-18-3.03,0-6.02.18-8.96.52v.82h-.02c.04.26.09.53.13.79,2.91-.34,5.86-.52,8.85-.52,18.63,0,35.7,6.75,48.93,17.93Z"/><path class="cls-2" d="m407.5,213.51c-.24.51-.46,1.03-.65,1.57.74.66,1.48,1.33,2.2,2.01.39-.37.77-.74,1.15-1.13-.88-.84-1.78-1.66-2.69-2.46Z"/><path class="cls-2" d="m347.67,194.95s-.08,0-.13.01c.03.27.06.54.1.81h.02v-.82Z"/><path class="cls-2" d="m356.63,331.2c-32.68,0-59.27-26.59-59.27-59.27s24.59-57.22,55.55-59.15c-.37-.5-.72-1.02-1.06-1.54-31.34,2.45-56.1,28.73-56.1,60.69,0,33.57,27.31,60.88,60.88,60.88,1.94,0,3.85-.09,5.74-.27-.31-.51-.61-1.03-.89-1.54-1.6.13-3.21.2-4.85.2Z"/><path class="cls-2" d="m415.9,271.93c0,9.94-2.46,19.32-6.81,27.56l2.22-.81c3.97-8.08,6.2-17.15,6.2-26.74,0-18.11-7.95-34.39-20.54-45.55-.58.21-1.17.41-1.76.59,12.66,10.88,20.69,27,20.69,44.96Z"/><path class="cls-2" d="m356.63,212.66c14.02,0,26.92,4.9,37.07,13.07.62-.17,1.24-.36,1.85-.57-10.56-8.8-24.13-14.11-38.93-14.11-.98,0-1.96.03-2.92.07.37.53.75,1.05,1.14,1.57.59-.02,1.18-.03,1.78-.03Z"/><path class="cls-2" d="m358.57,245.9c0-8.13-6.62-14.75-14.75-14.75s-14.75,6.62-14.75,14.75,6.62,14.75,14.75,14.75,14.75-6.62,14.75-14.75Zm-14.75,13.14c-7.25,0-13.14-5.89-13.14-13.14s5.89-13.14,13.14-13.14,13.14,5.89,13.14,13.14-5.89,13.14-13.14,13.14Z"/><path class="cls-2" d="m325.85,342.06l-1.59-.22s-.03.19-.07.47c.5.23,1.01.46,1.52.68.09-.57.14-.89.14-.93Z"/><path class="cls-2" d="m345.4,348s-.12.23-.3.57c.56.08,1.12.16,1.69.24.01-.02.02-.04.03-.05l-1.42-.76Z"/><path class="cls-2" d="m420.62,201.39c1.05-3.5,1.63-7.2,1.63-11.03,0-7.18-1.99-13.9-5.44-19.65-.54.14-1.06.31-1.57.51,3.43,5.58,5.41,12.13,5.41,19.15,0,3.89-.61,7.63-1.74,11.15.27.03.55.06.83.08.3-.07.59-.14.89-.2Z"/><path class="cls-2" d="m420.02,203.22c-.05,0-.11,0-.16,0-.6.16-1.19.34-1.77.56-1.81,4.59-4.51,8.72-7.9,12.2.39.37.77.74,1.15,1.12,3.81-3.91,6.8-8.62,8.68-13.87Z"/><path class="cls-2" d="m383.94,153.66c12.64,0,23.8,6.42,30.4,16.17.51-.21,1.03-.39,1.56-.54-3.74-5.65-8.92-10.25-15.03-13.27v.33h-1.61v-1.08c-4.7-2.06-9.88-3.21-15.33-3.21-.44,0-.87.02-1.3.03v1.04h-1.61v-.95c-6.04.46-11.69,2.31-16.63,5.25v1.6h-1.61v-.59c-7,4.65-12.38,11.54-15.13,19.63v6.7c2.7-17.59,17.94-31.11,36.27-31.11Z"/><path class="cls-2" d="m347.24,190.36c0-1.9.15-3.77.43-5.59v-6.7c-.72,2.12-1.27,4.33-1.61,6.6v10.48c.49-.07.99-.13,1.48-.19-.19-1.51-.3-3.04-.3-4.6Z"/><path class="cls-2" d="m347.78,196.56c-.04-.26-.09-.52-.13-.79h-1.59v-.62s-.08.01-.11.02c.07.53.14,1.07.23,1.59.53-.07,1.06-.14,1.6-.2Z"/><path class="cls-2" d="m410.19,215.97c-.37.38-.76.76-1.15,1.13.39.37.77.75,1.15,1.12.39-.37.77-.74,1.15-1.13-.38-.38-.76-.75-1.15-1.12Z"/><path class="cls-2" d="m347.64,195.77c-.04-.27-.07-.54-.1-.81-.5.06-.99.12-1.48.19v.62h1.59Z"/><path class="cls-2" d="m395.2,226.97c.59-.18,1.18-.38,1.76-.59-.47-.41-.94-.82-1.42-1.22-.61.2-1.23.39-1.85.57.51.41,1.01.82,1.5,1.25Z"/><path class="cls-2" d="m354.85,212.69c-.39-.51-.78-1.03-1.14-1.57-.62.03-1.24.07-1.85.12.34.52.69,1.04,1.06,1.54.64-.04,1.29-.07,1.94-.09Z"/><path class="cls-2" d="m420.8,168.58c-.21,0-.41,0-.62.02v1.16h-1.61v-1.03c-.91.12-1.81.31-2.67.56.31.47.61.94.9,1.42,1.28-.34,2.62-.52,4-.52,6.96,0,12.87,4.55,14.94,10.82v-3.88c-3.02-5.11-8.58-8.56-14.94-8.56Z"/><path class="cls-2" d="m427.33,201.18c.42.06.85.12,1.26.2,2.98-1.5,5.46-3.84,7.15-6.7v-1.6c-.11,0-.21-.02-.32-.02-.22,0-.43.02-.65.03-1.6,3.1-4.21,5.6-7.38,7.07-.04.32-.07.65-.07.99,0,0,0,.01,0,.02Z"/><path class="cls-2" d="m435.74,191.48v-.67c-.07.22-.15.44-.23.66.08,0,.15,0,.23.01Z"/><path class="cls-2" d="m425.74,200.84c-.19.06-.38.12-.57.18.19,0,.37,0,.56.02,0-.06,0-.13,0-.19Z"/><path class="cls-2" d="m438.13,185.91c0-1.8-.28-3.53-.79-5.16v10.32c.51-1.63.79-3.37.79-5.16Z"/><path class="cls-2" d="m435.74,181.01c.51,1.54.79,3.19.79,4.9s-.28,3.36-.79,4.9v.67c.48.02.96.06,1.42.15.06-.18.13-.37.19-.55v-10.32c-.4-1.27-.94-2.48-1.61-3.61v3.88Z"/><path class="cls-2" d="m435.74,194.69c.29-.49.56-1,.8-1.53-.26-.04-.53-.06-.8-.07v1.6Z"/><path class="cls-2" d="m415.91,169.29c-.53.16-1.05.34-1.56.54.31.45.6.91.89,1.38.51-.19,1.04-.37,1.57-.51-.29-.48-.59-.95-.9-1.42Z"/><path class="cls-2" d="m420.02,203.22s.01-.03.02-.05c-.06.01-.12.03-.18.04.05,0,.11,0,.16,0Z"/><path class="cls-2" d="m418.9,201.51c-.04.11-.08.22-.11.33.31-.09.62-.18.94-.26-.28-.02-.55-.05-.83-.08Z"/><path class="cls-2" d="m443.52,201.17c0,2.8-1.42,5.26-3.59,6.72.36.4.7.81,1.02,1.24,2.52-1.75,4.17-4.67,4.17-7.96,0-4.69-3.35-8.61-7.78-9.51v1.66c3.53.87,6.17,4.05,6.17,7.85Z"/><path class="cls-2" d="m436.54,193.16c.27.04.54.09.81.15v-1.66c-.06-.01-.13-.02-.19-.03-.18.52-.39,1.03-.62,1.53Z"/><path class="cls-2" d="m427.33,201.18s0-.01,0-.02c0-.33.03-.66.07-.99-.54.25-1.09.47-1.66.66,0,.06,0,.13,0,.19.54.03,1.07.08,1.6.15Z"/><path class="cls-2" d="m434.78,193.1c.21-.02.43-.03.65-.03.11,0,.21.01.32.02v-1.61c-.08,0-.15-.01-.23-.01-.21.56-.46,1.11-.73,1.64Z"/><path class="cls-2" d="m436.54,193.16c.23-.5.44-1.01.62-1.53-.46-.08-.94-.13-1.42-.15v1.61c.27.01.54.03.8.07Z"/><path class="cls-2" d="m427.5,202.83c3.05.47,5.85,1.67,8.24,3.41v-1.95c-2.14-1.39-4.56-2.39-7.15-2.9-.4.2-.81.39-1.22.56.03.3.07.59.13.88Z"/><path class="cls-2" d="m420.8,201.63c1.52,0,2.98-.22,4.37-.62-.18,0-.37-.01-.55-.01-1.37,0-2.71.14-4,.39-.02.08-.04.16-.07.24.08,0,.17,0,.25,0Z"/><path class="cls-2" d="m435.74,236.77c-2.43,1.77-5.29,2.98-8.4,3.43.23.5.45,1.01.67,1.52,3.17-.53,6.09-1.78,8.59-3.59h-.85v-1.37Z"/><path class="cls-2" d="m437.35,205.45v2.11c.39.35.76.73,1.12,1.11.52-.21,1.01-.47,1.47-.78-.79-.89-1.65-1.7-2.58-2.44Z"/><path class="cls-2" d="m425.38,202.63c.16,0,.31.01.47.03,0-.05-.02-.1-.02-.15-.15.04-.3.09-.45.13Z"/><path class="cls-2" d="m443.52,221.51c0,5.52-2.38,10.5-6.17,13.95v2.11c4.73-3.76,7.78-9.56,7.78-16.06,0-4.65-1.56-8.94-4.17-12.38-.44.31-.92.58-1.41.81,2.49,3.2,3.97,7.21,3.97,11.57Z"/><path class="cls-2" d="m435.74,236.77v1.37h.85c.26-.19.51-.38.76-.57v-2.11c-.51.47-1.05.9-1.61,1.31Z"/><path class="cls-2" d="m437.35,207.55v-2.11c-.52-.41-1.05-.8-1.61-1.16v1.95c.56.41,1.1.85,1.61,1.31Z"/><path class="cls-2" d="m425.64,240.38c.24.52.47,1.04.69,1.56.56-.05,1.12-.12,1.67-.21-.22-.51-.44-1.02-.67-1.52-.56.08-1.12.14-1.69.17Z"/><path class="cls-2" d="m406.23,212.43c-.25.5-.47,1.01-.68,1.53.43.37.87.74,1.29,1.12.19-.54.41-1.06.65-1.57-.42-.36-.84-.72-1.27-1.08Z"/><path class="cls-2" d="m418.37,203.07c-.09.24-.19.47-.28.7.58-.21,1.17-.4,1.77-.56-.5-.03-1-.08-1.49-.15Z"/><path class="cls-2" d="m420.55,201.63c.02-.08.04-.16.07-.24-.3.06-.6.13-.89.2.27.02.55.03.83.03Z"/><path class="cls-2" d="m420.55,201.63c-.16.52-.34,1.03-.52,1.54,1.47-.37,3-.57,4.58-.57.25,0,.51,0,.76.02.15-.04.3-.08.45-.13-.06-.44-.1-.88-.1-1.33,0-.05,0-.09,0-.14-.18,0-.37-.01-.56-.02-1.39.4-2.85.62-4.37.62-.08,0-.17,0-.25,0Z"/><path class="cls-2" d="m427.37,201.95c.42-.17.82-.36,1.22-.56-.42-.08-.84-.15-1.26-.2,0,.26.01.51.04.76Z"/><path class="cls-2" d="m420.03,203.17c.18-.51.36-1.02.52-1.54-.28,0-.55-.02-.83-.03-.32.08-.63.16-.94.26-.14.41-.27.82-.42,1.22.49.07.99.12,1.49.15.06-.02.12-.03.18-.04Z"/><path class="cls-2" d="m438.47,208.66c.38.41.74.83,1.08,1.27.49-.23.97-.5,1.41-.81-.32-.43-.67-.84-1.02-1.24-.46.31-.95.57-1.47.78Z"/><path class="cls-2" d="m425.82,202.5c0,.05.02.1.02.15.56.04,1.11.09,1.66.18-.06-.29-.1-.58-.13-.88-.5.21-1.02.39-1.55.55Z"/><path class="cls-2" d="m427.33,201.18c-.53-.07-1.06-.12-1.6-.15,0,.05,0,.09,0,.14,0,.45.04.9.1,1.33.53-.16,1.04-.34,1.55-.55-.02-.25-.04-.51-.04-.76Z"/><rect class="cls-2" x="276.98" y="17.7" width="1.61" height="21.99"/><rect class="cls-2" x="302.19" y="17.97" width="1.61" height="21.99"/><rect class="cls-2" x="327.4" y="17.97" width="1.61" height="21.99"/><path class="cls-2" d="m362.8,89.84v68.6c.53-.35,1.06-.69,1.61-1.01v-67.59h-1.61Z"/><path class="cls-2" d="m362.8,159.03h1.61v-1.6c-.55.32-1.08.66-1.61,1.01v.59Z"/><path class="cls-2" d="m381.03,89.84v62.34c.53-.04,1.07-.07,1.61-.09v-62.25h-1.61Z"/><path class="cls-2" d="m381.03,153.13h1.61v-1.04c-.54.02-1.08.05-1.61.09v.95Z"/><path class="cls-2" d="m399.27,89.84v65.43c.54.24,1.08.49,1.61.75v-66.18h-1.61Z"/><path class="cls-2" d="m399.27,156.35h1.61v-.33c-.53-.26-1.07-.51-1.61-.75v1.08Z"/><path class="cls-2" d="m420.19,89.84h-1.61v78.89c.53-.07,1.07-.11,1.61-.13v-78.76Z"/><path class="cls-2" d="m420.19,169.75v-1.16c-.54.02-1.08.06-1.61.13v1.03h1.61Z"/><rect class="cls-2" x="276.98" y="65.43" width="1.61" height="21.99"/><rect class="cls-2" x="302.19" y="65.7" width="1.61" height="21.99"/><rect class="cls-2" x="327.4" y="65.7" width="1.61" height="21.99"/><rect class="cls-2" x="276.98" y="111.56" width="1.61" height="21.99"/><rect class="cls-2" x="302.19" y="111.83" width="1.61" height="21.99"/><rect class="cls-2" x="327.4" y="111.83" width="1.61" height="21.99"/><path class="cls-2" d="m278.59,157.69h-1.61v1.24c.54.25,1.07.5,1.61.76v-2Z"/><path class="cls-2" d="m278.59,160.37v-.68c-.54-.26-1.07-.51-1.61-.76v1.44h1.61Z"/><path class="cls-2" d="m303.8,157.96h-1.61v15.74c.54.38,1.07.76,1.61,1.15v-16.89Z"/><path class="cls-2" d="m303.8,175.12v-.27c-.54-.39-1.07-.77-1.61-1.15v1.42h1.61Z"/><rect class="cls-2" x="327.4" y="157.96" width="1.61" height="21.99"/><rect class="cls-2" x="260.35" y="8.88" width="85.7" height="1.61"/><rect class="cls-2" x="259.33" y="8.88" width="1.02" height="1.61"/><rect class="cls-2" x="346.06" y="8.88" width=".5" height="1.61"/><rect class="cls-2" x="347.67" y="74.85" width="88.07" height="1.61"/><rect class="cls-2" x="346.76" y="74.85" width=".91" height="1.61"/><rect class="cls-2" x="435.74" y="74.85" width=".93" height="1.61"/><path class="cls-1" d="m478.85,384.31c-.85-.51-1.7-1-2.56-1.48l-68.06,24.93c-.29.75-.57,1.51-.84,2.27-1.63,4.63-2.91,9.4-3.84,14.29l86.9-31.83c-3.69-3.02-7.56-5.75-11.6-8.18Z"/><path class="cls-1" d="m507.54,410.21c-1.16-1.51-2.35-2.97-3.56-4.4l-102.26,37.46c-.01,1.66.01,3.32.07,5,.12,3.32.38,6.52.74,9.56l110.16-40.35c-1.56-2.39-3.27-4.82-5.15-7.27Z"/><path class="cls-1" d="m364.13,332.34s.06.1.09.14l.66-.24c-.25.03-.5.07-.75.1Z"/><path class="cls-1" d="m462.62,296.44c-.77-5.17-2.05-9.76-3.43-13.59l-27.99,10.25c-1.77,6.21-4.29,12.11-7.47,17.59l38.9-14.25Z"/><path class="cls-1" d="m389.21,323.33l32.12-11.76c3.38-5.5,6.08-11.47,7.99-17.78l-19.09,6.99c-4.97,9.19-12.23,16.96-21.01,22.55Z"/><path class="cls-1" d="m407.9,301.64l-49.8,18.24c1.24,3.37,2.9,7.1,5.13,10.95,19.07-2.12,35.45-13.33,44.67-29.19Z"/><path class="cls-2" d="m423.72,310.69c3.18-5.48,5.7-11.37,7.47-17.59l-1.88.69c-1.9,6.31-4.6,12.27-7.99,17.78l2.4-.88Z"/><path class="cls-2" d="m363.23,330.83c.29.5.59,1.01.9,1.52.25-.03.5-.06.75-.1l24.33-8.91c8.78-5.59,16.05-13.36,21.01-22.55l-2.32.85c-9.23,15.86-25.6,27.07-44.67,29.19Z"/><path class="cls-1" d="m433.46,370.34c-4.79,4.59-9.06,9.46-12.79,14.58l31.61-11.58c-6.04-1.52-12.32-2.53-18.82-3.01Z"/><path class="cls-1" d="m491.87,393.69l-88.66,32.47c-.86,5.01-1.35,10.15-1.47,15.39l101.11-37.03c-3.45-3.93-7.12-7.54-10.99-10.83Z"/><path class="cls-1" d="m454.99,374.06l-35.96,13.17c-4.03,5.87-7.38,12.05-10.01,18.52l65.37-23.94c-6.12-3.25-12.6-5.83-19.4-7.74Z"/><path class="cls-1" d="m400.57,335.74l62.52-22.9c.38-4.19.39-8.4,0-12.62-.07-.73-.15-1.44-.24-2.15l-40.45,14.82c-5.64,9.02-13.08,16.81-21.82,22.84Z"/><path class="cls-1" d="m419.89,313.81l-54.8,20.07c.28.43.57.86.86,1.3,2.49,3.66,5.32,7.04,8.45,10.14l18.67-6.84c10.8-5.94,20.01-14.44,26.81-24.67Z"/><path class="cls-2" d="m422.39,312.89l-2.5.92c-6.8,10.23-16,18.73-26.81,24.67l7.49-2.74c8.74-6.04,16.18-13.82,21.82-22.84Z"/><path class="cls-1" d="m458.22,332.9l-67.22,24.62c5.95,3.21,12.54,5.75,19.72,7.63l37.2-13.63c4.34-6.07,7.78-12.3,10.3-18.62Z"/><path class="cls-1" d="m446.19,353.87l-32.68,11.97c6.06,1.41,12.52,2.36,19.35,2.84,5.06-4.81,9.5-9.76,13.33-14.8Z"/><path class="cls-1" d="m462.9,314.62l-69.15,25.33c-5.51,3.02-11.42,5.39-17.63,7,3.9,3.6,8.24,6.8,13.01,9.54l69.85-25.58c1.96-5.36,3.27-10.81,3.92-16.29Z"/><path class="cls-2" d="m375.7,346.56c.14.13.28.26.43.39,6.21-1.62,12.12-3.98,17.63-7l-18.06,6.61Z"/><path class="cls-1" d="m402.73,459.47c.65,4.96,1.56,9.47,2.51,13.36l114.97-42.11c-1.77-3.62-3.97-7.64-6.64-11.85l-110.85,40.6Z"/><path class="cls-2" d="m507.54,410.21c1.88,2.44,3.58,4.88,5.15,7.27l1.55-.57c-1.63-2.51-3.41-5.06-5.38-7.63-1.06-1.39-2.15-2.74-3.26-4.06l-1.61.59c1.21,1.43,2.4,2.89,3.56,4.4Z"/><path class="cls-2" d="m376.12,346.95c-.62.16-1.24.31-1.87.46,3.87,3.69,8.19,6.96,12.93,9.8l1.96-.72c-4.77-2.74-9.11-5.94-13.01-9.54Z"/><path class="cls-2" d="m375.7,346.56l-1.69.62c.08.08.17.15.25.23.63-.15,1.25-.3,1.87-.46-.14-.13-.29-.26-.43-.39Z"/><path class="cls-2" d="m478.85,384.31c4.04,2.43,7.91,5.16,11.6,8.18l1.74-.64c-3.96-3.3-8.13-6.28-12.48-8.9-.48-.29-.97-.56-1.45-.84l-1.97.72c.86.48,1.71.98,2.56,1.48Z"/><path class="cls-2" d="m502.85,404.51l1.61-.59c-3.41-3.93-7.04-7.56-10.86-10.87l-1.74.64c3.87,3.29,7.54,6.9,10.99,10.83Z"/><path class="cls-2" d="m391,357.52l-2.01.73c5.78,3.25,12.17,5.87,19.11,7.85l2.61-.96c-7.17-1.87-13.76-4.42-19.72-7.63Z"/><path class="cls-2" d="m520.21,430.71l1.52-.56c-1.77-3.62-3.95-7.65-6.61-11.86l-1.54.57c2.67,4.21,4.86,8.23,6.64,11.85Z"/><path class="cls-2" d="m356.59,320.43c1.2,3.26,2.79,6.85,4.89,10.57.59-.05,1.17-.11,1.75-.17-2.23-3.85-3.89-7.59-5.13-10.95l-1.51.55Z"/><path class="cls-2" d="m364.13,332.34c-.58.07-1.17.13-1.76.19.1.17.2.34.31.52l1.54-.56s-.06-.1-.09-.14Z"/><path class="cls-2" d="m363.23,330.83c-.58.06-1.16.12-1.75.17.29.51.59,1.02.89,1.54.59-.06,1.18-.12,1.76-.19-.31-.51-.61-1.01-.9-1.52Z"/><path class="cls-2" d="m365.09,333.88l-1.55.57c.33.52.68,1.04,1.03,1.57,2.42,3.56,5.15,6.87,8.16,9.91l1.67-.61c-3.13-3.1-5.96-6.48-8.45-10.14-.29-.43-.58-.86-.86-1.3Z"/><path class="cls-2" d="m522.43,431.62l-1.52.56c3.95,8.33,5.57,14.14,5.6,14.24l1.55-.42c-.03-.1-1.65-5.96-5.63-14.38Z"/><path class="cls-2" d="m474.4,381.81l2.02-.74c-5.96-3.27-12.26-5.93-18.86-7.94l-2.56.94c6.8,1.91,13.28,4.5,19.4,7.74Z"/><path class="cls-2" d="m432.86,368.67c-6.83-.48-13.29-1.43-19.35-2.84l-2.72.99c6.4,1.64,13.26,2.75,20.54,3.33.48-.47.95-.94,1.43-1.4.03-.03.06-.06.1-.1Z"/><path class="cls-2" d="m433.46,370.34c6.5.48,12.78,1.48,18.82,3.01l2.65-.97c-6.38-1.76-13.04-2.93-19.94-3.52-.37.36-.74.73-1.12,1.09-.14.13-.27.27-.41.4Z"/><path class="cls-2" d="m354.54,305.43l-1.6.12c0,.09.45,5.61,3.12,13.36l1.51-.55c-2.58-7.51-3.01-12.84-3.02-12.93Z"/><path class="cls-2" d="m433.46,370.34c-.19-.01-.38-.03-.57-.05-.52-.04-1.04-.08-1.56-.12-5.04,4.95-9.49,10.2-13.34,15.74l2.68-.98c3.73-5.12,8-9.99,12.79-14.58Z"/><path class="cls-2" d="m403.21,426.16l-1.73.63c-.81,5.01-1.26,10.13-1.36,15.35l1.62-.59c.12-5.24.61-10.37,1.47-15.39Z"/><path class="cls-2" d="m401.78,448.27c-.06-1.68-.08-3.34-.07-5l-1.61.59c0,1.5.02,3.01.07,4.53.13,3.49.41,6.83.79,10.01l1.55-.57c-.36-3.04-.62-6.23-.74-9.56Z"/><path class="cls-2" d="m407.39,410.03c.27-.76.55-1.52.84-2.27l-1.98.73c-.13.35-.26.69-.39,1.04-1.76,4.99-3.11,10.15-4.06,15.44l1.75-.64c.93-4.89,2.21-9.66,3.84-14.29Z"/><path class="cls-2" d="m432.86,368.67s.09,0,.14.01c.67.05,1.33.11,1.99.16,5.35-5.19,10-10.52,13.94-15.98l-2.74,1c-3.83,5.05-8.27,9.99-13.33,14.8Z"/><path class="cls-2" d="m454.24,269.09l-1.31.93c.05.07,2.96,4.24,5.69,11.32l1.51-.55c-2.82-7.32-5.84-11.63-5.89-11.7Z"/><path class="cls-2" d="m419.03,387.24l-2.58.95c-3.82,5.82-6.98,11.93-9.47,18.32l2.04-.75c2.63-6.47,5.98-12.65,10.01-18.52Z"/><path class="cls-2" d="m447.92,351.52l2.63-.96c4.07-5.98,7.31-12.1,9.66-18.33,0-.03.02-.05.03-.08l-2.02.74c-2.52,6.33-5.96,12.55-10.3,18.62Z"/><path class="cls-2" d="m408.76,488.92l1.47-.66c-.04-.09-2.38-5.32-4.59-13.87l-1.52.56c2.24,8.61,4.6,13.88,4.64,13.97Z"/><path class="cls-2" d="m462.62,296.44l1.54-.56c-.79-5.15-2.08-9.73-3.47-13.58l-1.51.55c1.38,3.84,2.66,8.42,3.43,13.59Z"/><path class="cls-2" d="m402.73,459.47l-1.55.57c.67,4.96,1.58,9.46,2.54,13.35l1.52-.56c-.95-3.89-1.86-8.4-2.51-13.36Z"/><path class="cls-2" d="m458.98,330.9l1.97-.72c1.85-5.33,3.06-10.74,3.64-16.18l-1.69.62c-.65,5.48-1.95,10.92-3.92,16.29Z"/><path class="cls-2" d="m463.08,300.22c.39,4.21.39,8.42,0,12.62l1.67-.61c.33-4.07.3-8.15-.08-12.23-.08-.84-.18-1.67-.28-2.48l-1.55.57c.09.71.17,1.42.24,2.15Z"/><path class="cls-2" d="m433.46,370.34c.14-.13.27-.27.41-.4.38-.36.75-.73,1.12-1.09-.66-.06-1.33-.12-1.99-.16-.05,0-.09,0-.14-.01-.03.03-.06.06-.1.1-.49.46-.96.93-1.43,1.4.52.04,1.03.09,1.56.12.19.01.38.03.57.05Z"/><path class="cls-2" d="m410.22,300.79l19.09-6.99c.19-.63.37-1.27.55-1.91l-18.55,6.79c-.35.71-.71,1.42-1.09,2.11Z"/><path class="cls-2" d="m459.18,282.85c-.19-.52-.37-1.02-.56-1.51l-26.92,9.86c-.16.64-.33,1.27-.51,1.9l27.99-10.25Z"/><path class="cls-2" d="m358.1,319.88l49.8-18.24c.41-.71.81-1.42,1.19-2.15l-51.53,18.87c.17.5.35,1,.54,1.52Z"/><path class="cls-2" d="m429.31,293.79l1.88-.69c.18-.63.35-1.26.51-1.9l-1.85.68c-.18.64-.36,1.28-.55,1.91Z"/><path class="cls-2" d="m407.9,301.64l2.32-.85c.38-.7.74-1.4,1.09-2.11l-2.22.81c-.38.73-.78,1.44-1.19,2.15Z"/><path class="cls-2" d="m356.05,318.91c.17.5.35,1,.54,1.52l1.51-.55c-.19-.51-.37-1.02-.54-1.52l-1.51.55Z"/><path class="cls-2" d="m460.69,282.3c-.19-.52-.37-1.02-.56-1.51l-1.51.55c.19.49.38.99.56,1.51l1.51-.55Z"/><path class="cls-2" d="m364.21,332.49c.28.46.58.93.88,1.39l54.8-20.07c.49-.74.97-1.48,1.43-2.24l-32.12,11.76c-7.22,4.59-15.48,7.71-24.33,8.91l-.66.24Z"/><path class="cls-2" d="m422.39,312.89l40.45-14.82c-.07-.55-.14-1.09-.22-1.63l-38.9,14.25c-.43.74-.87,1.47-1.33,2.2Z"/><path class="cls-2" d="m422.39,312.89c.45-.73.9-1.46,1.33-2.2l-2.4.88c-.46.76-.94,1.5-1.43,2.24l2.5-.92Z"/><path class="cls-2" d="m389.21,323.33l-24.33,8.91c8.85-1.2,17.11-4.32,24.33-8.91Z"/><path class="cls-2" d="m364.21,332.49l-1.54.56c.28.46.57.93.87,1.39l1.55-.57c-.3-.46-.59-.93-.88-1.39Z"/><path class="cls-2" d="m462.84,298.08l1.55-.57c-.07-.55-.15-1.09-.23-1.63l-1.54.56c.08.54.15,1.08.22,1.63Z"/><path class="cls-2" d="m393.75,339.95l69.15-25.33c.07-.59.13-1.19.19-1.78l-62.52,22.9c-2.19,1.52-4.47,2.92-6.82,4.21Z"/><path class="cls-2" d="m374.74,345.63c6.48-1.59,12.63-4.02,18.34-7.16l-18.67,6.84c.11.11.22.21.33.32Z"/><path class="cls-2" d="m400.57,335.74l-7.49,2.74c-5.71,3.14-11.87,5.56-18.34,7.16.32.31.64.62.96.93l18.06-6.61c2.35-1.29,4.62-2.69,6.82-4.21Z"/><path class="cls-2" d="m374.41,345.32l-1.67.61s.09.09.14.14c.62-.14,1.24-.28,1.86-.43-.11-.11-.22-.21-.33-.32Z"/><path class="cls-2" d="m372.88,346.07c.37.37.75.75,1.13,1.11l1.69-.62c-.32-.3-.64-.61-.96-.93-.62.15-1.23.29-1.86.43Z"/><path class="cls-2" d="m462.9,314.62l1.69-.62c.06-.59.12-1.18.17-1.78l-1.67.61c-.05.59-.12,1.19-.19,1.78Z"/><path class="cls-2" d="m458.69,331.71c.1-.27.2-.54.29-.81l-69.85,25.58c.09.05.18.11.27.16.52.3,1.06.58,1.59.87l67.22-24.62c.16-.39.32-.79.47-1.18Z"/><path class="cls-2" d="m389.4,356.65c-.09-.05-.18-.11-.27-.16l-1.96.72c.46.27.92.55,1.38.81.14.08.29.16.43.24l2.01-.73c-.53-.29-1.07-.57-1.59-.87Z"/><path class="cls-2" d="m458.69,331.71c-.15.4-.31.79-.47,1.18l2.02-.74c.25-.66.49-1.32.71-1.98l-1.97.72c-.1.27-.19.54-.29.81Z"/><path class="cls-2" d="m447.92,351.52l-37.2,13.63c.92.24,1.85.47,2.8.69l32.68-11.97c.59-.78,1.17-1.56,1.73-2.35Z"/><path class="cls-2" d="m410.72,365.15l-2.61.96c.89.25,1.79.5,2.69.73l2.72-.99c-.94-.22-1.87-.45-2.8-.69Z"/><path class="cls-2" d="m446.19,353.87l2.74-1c.55-.77,1.09-1.54,1.62-2.31l-2.63.96c-.56.78-1.14,1.57-1.73,2.35Z"/><path class="cls-2" d="m452.28,373.34l-31.61,11.58c-.56.77-1.1,1.54-1.64,2.31l35.96-13.17c-.9-.25-1.8-.49-2.71-.72Z"/><path class="cls-2" d="m454.99,374.06l2.56-.94c-.87-.26-1.74-.51-2.61-.76l-2.65.97c.91.23,1.81.47,2.71.72Z"/><path class="cls-2" d="m420.67,384.92l-2.68.98c-.52.75-1.04,1.51-1.54,2.28l2.58-.95c.53-.78,1.08-1.55,1.64-2.31Z"/><path class="cls-2" d="m474.4,381.81l-65.37,23.94c-.27.67-.54,1.33-.79,2l68.06-24.93c-.63-.35-1.26-.68-1.89-1.02Z"/><path class="cls-2" d="m476.29,382.83l1.97-.72c-.61-.35-1.22-.7-1.84-1.04l-2.02.74c.63.34,1.27.67,1.89,1.02Z"/><path class="cls-2" d="m409.02,405.75l-2.04.75c-.26.66-.5,1.32-.74,1.98l1.98-.73c.26-.67.52-1.34.79-2Z"/><path class="cls-2" d="m490.45,392.49l-86.9,31.83c-.12.61-.23,1.22-.34,1.84l88.66-32.47c-.47-.4-.94-.8-1.42-1.19Z"/><path class="cls-2" d="m491.87,393.69l1.74-.64c-.47-.4-.94-.8-1.41-1.2l-1.74.64c.48.39.95.79,1.42,1.19Z"/><path class="cls-2" d="m403.55,424.32l-1.75.64c-.11.61-.21,1.22-.31,1.83l1.73-.63c.11-.61.22-1.23.34-1.84Z"/><path class="cls-2" d="m502.85,404.51l-101.11,37.03c-.01.57-.03,1.15-.03,1.73l102.26-37.46c-.37-.44-.74-.87-1.12-1.3Z"/><path class="cls-2" d="m503.98,405.82l1.61-.59c-.37-.44-.74-.87-1.12-1.3l-1.61.59c.38.43.75.87,1.12,1.3Z"/><path class="cls-2" d="m401.74,441.55l-1.62.59c-.01.57-.02,1.15-.02,1.72l1.61-.59c0-.58.02-1.15.03-1.73Z"/><path class="cls-2" d="m512.68,417.48l-110.16,40.35c.07.55.13,1.1.2,1.64l110.85-40.6c-.29-.46-.59-.92-.89-1.39Z"/><path class="cls-2" d="m513.58,418.86l1.54-.57c-.29-.46-.59-.92-.89-1.39l-1.55.57c.3.46.6.93.89,1.39Z"/><path class="cls-2" d="m402.52,457.83l-1.55.57c.07.55.14,1.1.21,1.64l1.55-.57c-.07-.54-.14-1.09-.2-1.64Z"/><path class="cls-2" d="m405.24,472.83c.13.53.26,1.06.4,1.57l115.28-42.22c-.23-.48-.46-.96-.7-1.46l-114.97,42.11Z"/><path class="cls-2" d="m403.47,473.47l.55,1.51.09-.03c-.13-.51-.27-1.03-.4-1.57l-.25.09Z"/><path class="cls-2" d="m521.73,430.16l-1.52.56c.24.49.48.98.7,1.46l1.52-.56c-.23-.48-.46-.96-.7-1.46Z"/><path class="cls-2" d="m403.72,473.38c.13.53.26,1.06.4,1.57l1.52-.56c-.13-.51-.26-1.03-.4-1.57l-1.52.56Z"/><path class="cls-2" d="m321.52,451.46c0,.25.58,15.64-1.33,29.71.15,1.21.23,2.44.23,3.69,0,6.37-1.98,12.29-5.36,17.18,9.52-11.64,8.13-49.04,8.06-50.67-3.76-49.75,22.72-100.76,23.66-102.56-.57-.07-1.13-.15-1.69-.24-2.96,5.78-27.2,54.89-23.58,102.89Z"/><path class="cls-2" d="m313.58,501.35c.07-.1.15-.2.22-.3-.08.1-.16.19-.24.28l.02.02Z"/><path class="cls-2" d="m320.19,481.17c-1.11,8.13-3.04,15.81-6.39,19.87-.07.1-.14.2-.22.3l1.19,1.04c.1-.11.2-.23.29-.35,3.38-4.89,5.36-10.8,5.36-17.18,0-1.25-.08-2.48-.23-3.69Z"/><path class="cls-1" d="m262.75,476.24c.3-.91.67-1.87,1.08-2.86-.41.93-.77,1.88-1.08,2.86Z"/><path class="cls-1" d="m316.12,496.39c.55-.86,1.03-1.98,1.47-3.26.79-2.62,1.22-5.4,1.22-8.27,0-15.82-12.87-28.69-28.69-28.69-11.74,0-21.86,7.09-26.29,17.22-.41.99-.77,1.94-1.08,2.86,0,.03-.02.06-.03.09,0,0,0,.01,0,.02-.39,1.26-.7,2.56-.91,3.9-.02.2-.04.39-.05.57,0-.18.03-.38.05-.57-.24,1.5-.38,3.05-.38,4.62,0,15.82,12.87,28.69,28.69,28.69,9.69,0,18.26-4.83,23.46-12.2l-.02-.02c.08-.09.16-.19.24-.28,1.65-2.4,2.94-5.07,3.8-7.91-.44,1.28-.93,2.4-1.47,3.26Z"/><path class="cls-1" d="m268.47,463.68c.09-.09.19-.18.29-.28,3.15-5.68,6.17-10.3,6.17-10.3,0,0-3.02,4.62-6.17,10.3,5.48-5.46,13.03-8.85,21.36-8.85,15.35,0,28.05,11.47,30.02,26.29.59-4.55.82-8.21.82-8.21,0,0-.23,3.66-.82,8.21.01.11.03.22.05.32,1.91-14.07,1.34-29.47,1.33-29.71-3.62-48,20.62-97.1,23.58-102.89-6.79-1.02-13.29-2.92-19.39-5.58-1.23,7.63-10.67,60.61-41.41,96.8-.14.18-9.14,11.79-15.83,23.89Z"/><path class="cls-2" d="m317.59,493.13c-.86,2.85-2.15,5.51-3.8,7.91,3.35-4.07,5.29-11.75,6.39-19.87-.01-.11-.03-.22-.05-.32-.53,4.04-1.35,8.77-2.55,12.28Z"/><path class="cls-2" d="m313.58,501.35c-5.2,7.37-13.77,12.2-23.46,12.2-15.82,0-28.69-12.87-28.69-28.69,0-1.57.13-3.11.38-4.62.12-1.13.44-2.45.91-3.9,0,0,0-.01,0-.02,0-.03.02-.06.03-.09.31-.98.67-1.93,1.08-2.86,1.34-3.24,3.15-6.78,4.93-9.98-.09.09-.19.18-.29.28-4.31,7.8-7.66,15.81-7.05,21.08l-1.6.18s0-.03,0-.05c.02,16.69,13.61,30.26,30.3,30.26,10.33,0,19.47-5.2,24.95-13.12-.1.12-.19.24-.29.35l-1.19-1.04Z"/><path class="cls-2" d="m261.8,480.24c.22-1.33.52-2.63.91-3.9-.48,1.44-.8,2.76-.91,3.9Z"/><path class="cls-2" d="m261.63,474.54c-1.39,3.89-2.13,7.47-1.81,10.37,0-.01,0-.03,0-.04,0-3.62.64-7.1,1.81-10.32Z"/><path class="cls-2" d="m284.3,439.79c30.74-36.19,40.19-89.17,41.41-96.8-.51-.22-1.02-.45-1.52-.68-.87,5.61-9.96,59.76-41.14,96.47-.8,1.03-15.91,20.52-21.36,35.6,1.49-4.04,3.83-7.67,6.78-10.69,6.69-12.1,15.69-23.72,15.83-23.89Z"/><path class="cls-2" d="m261.42,484.77c-.61-5.28,2.74-13.28,7.05-21.08-2.96,3.02-5.29,6.65-6.78,10.69-.02.05-.04.11-.06.16-1.17,3.22-1.81,6.7-1.81,10.32,0,.01,0,.03,0,.04,0,.02,0,.03,0,.05l1.6-.18Z"/><path class="cls-1" d="m177.85,105.77c.06-.13.12-.26.18-.38h-31.37c5.43,13.12-23.08,54.29-48.87,89.1-2.45,3.31-4.66,6.29-5.75,7.86l.28-.02-1.08,1.42c-4.29,5.65-8.16,11.02-11.66,16.14,2.64-1.32,7.55-3.62,13.45-5.57,14.88-4.91,24.52-3.89,29.98-2.18,2.42.76,5.71,1.72,9.68,2.69.48-2.3,1.03-4.55,1.67-6.77,5.97-20.76,18.58-37.57,36.46-48.61,7.18-4.44,15.04-7.81,23.37-10.1-.64-2.17-2.97-6.86-5.41-11.79-5.86-11.82-13.16-26.52-10.95-31.81Z"/><path class="cls-1" d="m78.28,222.4l-.17-.31c-20.03,29.85-26.26,50.48-19.03,62.76,8.46,14.39,35.39,18.2,82.27,11.65-.49-4-1.2-8.01-2.17-12.01-8.41-24.24-10.71-47.57-6.78-68.05-4.04-.99-7.39-1.96-9.85-2.74-18.23-5.73-44,8.56-44.26,8.71Z"/><path class="cls-2" d="m178.03,105.39c-.07.12-.13.25-.18.38-2.21,5.28,5.08,19.99,10.95,31.81,2.44,4.93,4.77,9.61,5.41,11.79.52-.14,1.03-.28,1.55-.41-.63-2.18-2.55-6.09-5.52-12.09-5.11-10.3-12.83-25.87-10.9-30.47.21-.51.53-.82,1-1h-2.3Z"/><path class="cls-2" d="m138.47,85.55h51.62c5.03,0,9.12,4.09,9.12,9.12s-4.09,9.12-9.12,9.12h-4.91l-4.77,1.57s-.06.03-.09.04h9.76c5.91,0,10.73-4.81,10.73-10.73s-4.81-10.73-10.73-10.73h-56.85c-.7,0-1.38.07-2.05.2l7.31.16-.03,1.25Z"/><path class="cls-2" d="m185.19,103.78h-4.2c-2.47,0-2.9,1.61-2.9,1.61h2.25s.06-.03.09-.04l4.77-1.57Z"/><path class="cls-2" d="m143.76,103.78l.89,1.27c.08.11.14.23.2.34h1.8s-.43-1.61-2.9-1.61Z"/><path class="cls-2" d="m125.5,112.47s-.19-.1-.55-.26c.18.08.36.16.55.26Z"/><path class="cls-2" d="m122.11,111.3l3.39,1.16c-.19-.09-.37-.18-.55-.26-.54-.23-1.47-.58-2.84-.91Z"/><path class="cls-2" d="m250.7,8.05h-1.61v141.04c.54.13,1.07.26,1.61.4V8.05Z"/><path class="cls-2" d="m250.7,149.85v-.36c-.54-.13-1.07-.27-1.61-.4v.76h1.61Z"/><path class="cls-2" d="m389.34,441.89c.19-12.02,2.54-23.81,6.97-35.04,7.55-19.15,18.7-30.18,18.81-30.29l1.65-1.61-2.29.23c-25.56,2.6-50.09-25.6-50.34-25.88l-1.22,1.05c.06.07,6.36,7.36,15.8,14.21,8.32,6.04,20.77,12.91,33.85,12.37-3.31,3.68-11.66,13.91-17.73,29.26-7.09,17.94-12.44,46.76,2.35,82.2l1.48-.62c-6.43-15.42-9.57-30.85-9.33-45.88Z"/><path class="cls-2" d="m256.34,510.55c-6.25-5.82-8.94-13.99-8-24.3.71-7.77,3.33-13.88,3.36-13.94l.03-.07c.06-.19,6.73-19.53,33.62-49.06,27.22-29.89,32.34-78.28,32.39-78.77l.06-.61-.57-.22c-31.4-12.04-40.18-48.94-40.27-49.31l-1.57.36c.02.1,2.24,9.63,8.4,20.53,10.1,17.89,23.02,26.02,32.28,29.7-.68,5.66-6.69,49.56-31.91,77.24-26.59,29.2-33.61,48.62-33.95,49.59-.23.53-2.75,6.55-3.47,14.36-.99,10.7,1.95,19.57,8.5,25.67,9.11,8.48,20.1,10.27,27.77,10.27,5.55,0,9.36-.94,9.45-.96l-.4-1.56c-.21.05-20.67,5.09-35.72-8.93Z"/><path class="cls-2" d="m133.95,216.81c.1-.53.21-1.05.32-1.58-.53-.13-1.05-.25-1.57-.38-.11.52-.22,1.05-.32,1.58.51.13,1.03.25,1.57.38Z"/><path class="cls-2" d="m78.1,222.09c.48-.72.98-1.45,1.48-2.19-1.32.66-2.07,1.08-2.1,1.1l.61,1.09Z"/><path class="cls-2" d="m93.04,214.34c-5.9,1.95-10.81,4.24-13.45,5.57-.5.73-1,1.46-1.48,2.19l.17.31c.26-.15,26.03-14.43,44.26-8.71,2.46.77,5.81,1.75,9.85,2.74.1-.53.21-1.05.32-1.58-3.97-.98-7.26-1.93-9.68-2.69-5.47-1.72-15.1-2.73-29.98,2.18Z"/></g></g></svg>