<?xml version="1.0" encoding="UTF-8"?><svg id="Layer_2" xmlns="http://www.w3.org/2000/svg" viewBox="0 0 607.89 530"><defs><style>.cls-1{fill:none;}.cls-2{fill:#43bb9a;}</style></defs><g id="Layer_23"><g><path class="cls-1" d="m33.09,219.63l.48.79c-.02-.17-.04-.34-.06-.52-.14-.09-.29-.18-.42-.27Z"/><path class="cls-1" d="m25.77,197.14c-3.35-.82-6.26-2.06-8.68-3.7l8.01,13.12c-.36-2.91-.14-6.06.67-9.41Z"/><path class="cls-1" d="m133.56,104.37l-.95-1.55c.04.33.07.67.1,1,.29.18.57.36.85.55Z"/><path class="cls-1" d="m8.94,177.27c.09-6.64,2.9-14.37,8.35-22.64,8.54-12.97,22.56-25.8,39.48-36.13,16.92-10.33,34.74-16.94,50.17-18.61,9.85-1.07,18-.04,23.95,2.92-.32-2.37-1.07-4.56-2.28-6.54-4.01-6.57-12.45-9.75-23.39-9.75-15.62,0-36.33,6.48-56.51,18.8C14.41,126.27-5.58,156.3,4.17,172.25c1.21,1.98,2.82,3.65,4.78,5.02Z"/><path class="cls-1" d="m8.16,178.79l.95,1.56c-.04-.33-.08-.67-.1-1.01-.29-.18-.57-.36-.85-.55Z"/><path class="cls-1" d="m307.5,233.93l4.95-4.63h-.16c-.66-10.38-7.31-19.69-15.07-27.14,1.91,3.96,3.67,8.31,5.26,13.06,1.91,5.68,3.58,11.93,5.03,18.71Z"/><path class="cls-1" d="m307.9,235.89c2.11,10.38,3.7,21.96,4.73,34.66,3.03,37.3.24,71.78.21,72.12l-1.7-.14c.03-.34,2.81-34.7-.22-71.86-.86-10.61-2.27-22.13-4.51-33.38l-115.85,108.45h127.4l-5.64-113.97-4.41,4.13Z"/><path class="cls-1" d="m347.56,345.73h77.95l104.42-120.7-184.03,4.79c-.61,7.11-1.07,14.45-1.39,22.02-2.04,48.67,2.69,90.78,3.05,93.88Z"/><path class="cls-1" d="m313.17,230.96l.82-.04,5.68,114.81h26.17c-.5-4.41-5.04-46.02-3.03-93.95.32-7.53.77-14.83,1.38-21.91l-30.71.8-.31.29Z"/><path class="cls-1" d="m271.63,184.11l-67.99,48.32c-2.92,3.39-6.64,6.06-10.87,7.73l-78.33,55.67c21.8,2.2,49.73,8.86,63.89,27.74,8.85,11.8,8.11,22.62,8.07,23.08l-.32-.03.53.46,119.4-111.77c-2.78-13.31-6.78-26.14-12.5-36.52-9.57-8.2-19.65-13.55-21.88-14.69Z"/><polygon class="cls-1" points="426.21 347.44 425.67 347.44 426.21 348.02 426.21 347.44"/><path class="cls-1" d="m140.89,126.86c3.35.82,6.25,2.06,8.67,3.71l-8.01-13.11c.36,2.9.14,6.05-.66,9.4Z"/><path class="cls-1" d="m182.7,188.53c-.2,0-.41.01-.61.02-.51,6.24-3.28,13.34-8.26,20.9-3.75,5.69-8.55,11.36-14.19,16.79,4.3,8.37,13.02,14.12,23.06,14.12,3.26,0,6.37-.61,9.24-1.71l10.54-7.49c3.82-4.52,6.13-10.35,6.13-16.72,0-14.29-11.63-25.92-25.92-25.92Z"/><path class="cls-1" d="m271.93,182.35c.1.05,9.3,4.55,18.97,12.07-4.2-6.48-9.22-11.72-15.2-15.11-24.09-13.64-44.75-9.83-57.83-4.23-11.97,5.12-19.98,12.62-22.28,14.94,8.76,4.64,14.75,13.84,14.75,24.43,0,5.01-1.35,9.71-3.69,13.76l64.83-46.08.46.22Z"/><path class="cls-1" d="m107.07,145.96c6.47-5.96,11.81-12.12,15.81-18.13-15.13,1.69-32.6,8.19-49.22,18.34-17.19,10.5-30.78,23.27-38.85,35.41,7.18-.8,15.12-2.75,23.39-5.78,6.72-6.17,14.51-12.01,23.03-17.22,8.52-5.2,17.28-9.46,25.84-12.62Z"/><path class="cls-1" d="m151.55,165.84c4.47-.22,8.54.03,12.15.73,1.41-5.92.96-11.27-1.68-15.59-1.11-1.81-2.57-3.36-4.31-4.66.02,5.78-2.05,12.41-6.16,19.52Z"/><path class="cls-1" d="m158.02,144.44l-.48-.78c.02.17.04.33.06.5.14.09.28.19.42.28Z"/><path class="cls-1" d="m62.79,174.01c6.99-2.86,14.16-6.47,21.26-10.81,7.1-4.34,13.59-9.06,19.33-13.97-6.99,2.86-14.16,6.47-21.26,10.81-7.1,4.34-13.59,9.06-19.33,13.98Z"/><path class="cls-1" d="m150.5,167.58c-.37.59-.74,1.19-1.14,1.79-8.54,12.97-22.56,25.8-39.48,36.13-16.92,10.33-34.74,16.94-50.17,18.61-.71.08-1.42.14-2.12.2-2.41,4-4.19,7.91-5.27,11.62,4.49.86,9.76,1,15.67.36,15.19-1.64,32.76-8.17,49.47-18.37,24.17-14.76,41.23-34.02,45.8-49.7-2.65-.51-5.54-.78-8.63-.78-1.34,0-2.72.05-4.13.15Z"/><path class="cls-1" d="m72.77,144.71c16.92-10.33,34.74-16.94,50.17-18.61.38-.04.75-.08,1.12-.11,4.73-7.6,7.22-14.89,7-21.15-4.29-2.4-9.99-3.65-16.84-3.65-2.25,0-4.61.13-7.1.4-15.19,1.64-32.76,8.17-49.47,18.37-16.71,10.2-30.54,22.85-38.94,35.61-5.57,8.45-8.29,16.25-8.06,22.77,5.47,3.06,13.09,4.17,22.02,3.44.2-.31.4-.63.61-.95,8.54-12.97,22.56-25.8,39.48-36.13Z"/><polygon class="cls-1" points="425.92 350.21 375.14 453.45 374.53 453.37 197.5 429.58 206.82 511.53 429.01 527.88 426.25 350.58 425.92 350.21"/><path class="cls-1" d="m52.46,224.52c-6.84,0-12.6-1.2-17.08-3.53.36,2.15,1.08,4.15,2.19,5.97,2.59,4.23,7.07,7.13,13.11,8.6,1.02-3.53,2.66-7.26,4.9-11.13-1.06.05-2.1.08-3.11.08Z"/><polygon class="cls-1" points="427.99 352.45 430.71 527.23 540.32 396.13 535.85 313.66 484.78 413.56 427.99 352.45"/><path class="cls-1" d="m467.49,62.08c-14.29,0-25.92,11.63-25.92,25.92s11.63,25.92,25.92,25.92c.67,0,1.33-.03,1.99-.08v-51.66c-.66-.05-1.32-.08-1.99-.08Z"/><circle class="cls-1" cx="539.82" cy="172.87" r="6.55"/><path class="cls-1" d="m487.14,71.13v33.74c3.9-4.54,6.27-10.43,6.27-16.87s-2.37-12.33-6.27-16.87Z"/><path class="cls-1" d="m487.14,107.39v43.83c0,3.3,2.68,5.98,5.98,5.98h91.13c3.3,0,5.98-2.68,5.98-5.98V30.08c0-3.3-2.68-5.98-5.98-5.98h-91.13c-3.3,0-5.98,2.68-5.98,5.98v38.52c4.93,4.99,7.97,11.84,7.97,19.39s-3.05,14.4-7.97,19.39Z"/><path class="cls-2" d="m312.44,229.3l-4.95,4.63c.14.65.27,1.3.41,1.96l4.41-4.13-.04-.75.89-.04.31-.29,30.71-.8c.05-.58.1-1.14.15-1.71l-30.37.79c0,.08.02.17.02.25l-1.54.1Z"/><path class="cls-2" d="m529.94,225.03l-104.42,120.7h-77.95c.01.11.02.17.02.18l-1.7.2s-.02-.16-.04-.39h-26.17v.24s-1.69.08-1.69.08l-.02-.33h-127.4l115.85-108.45c-.13-.66-.26-1.31-.4-1.96l-119.4,111.77.14.12,1.35-.15.04.38h236.93l.32-.3.28.3h.54v-.84s.83-.01.83-.01l104.07-120.3-.03-.53-.44-.48.39-.35-.04-.74,1.71-.09.02.34,1.04-1.2-187.7,4.89c-.05.57-.1,1.14-.15,1.71l184.03-4.79Z"/><polygon class="cls-2" points="532.75 225.06 532.72 224.42 532.46 224.73 532.75 225.06"/><polygon class="cls-2" points="540.32 396.13 430.71 527.23 430.74 529.72 430.84 529.73 542.06 396.71 537.39 310.63 535.85 313.66 540.32 396.13"/><polygon class="cls-2" points="206.82 511.53 197.5 429.58 195.75 429.34 205.2 512.43 205.28 513.13 429.03 529.6 429.01 527.88 206.82 511.53"/><polygon class="cls-2" points="531.08 225.75 531.11 226.29 531.33 226.03 531.08 225.75"/><polygon class="cls-2" points="188.15 347.44 188.11 347.06 186.75 347.21 187.02 347.44 188.15 347.44"/><polygon class="cls-2" points="530.99 224.17 531.04 224.92 531.91 224.12 532.46 224.73 532.72 224.42 532.7 224.08 530.99 224.17"/><polygon class="cls-2" points="429.03 529.6 429.04 530 430.75 529.97 430.74 529.72 430.4 529.7 429.03 529.6"/><polygon class="cls-2" points="426.25 350.58 429.01 527.88 430.09 527.96 430.71 527.23 427.99 352.45 426.25 350.58"/><polygon class="cls-2" points="427.95 349.9 427.9 346.57 427.04 346.58 426.3 347.44 426.21 347.44 426.21 348.02 427.95 349.9"/><polygon class="cls-2" points="427.04 346.58 426.19 346.6 426.21 347.44 426.3 347.44 427.04 346.58"/><polygon class="cls-2" points="430.09 527.96 429.01 527.88 429.03 529.6 430.4 529.7 430.74 529.72 430.71 527.23 430.09 527.96"/><polygon class="cls-2" points="561.58 259.58 537.21 307.24 537.39 310.63 563.63 259.3 532.75 225.06 532.9 227.77 561.58 259.58"/><polygon class="cls-2" points="425.92 350.21 426.25 350.58 426.24 349.56 425.92 350.21"/><polygon class="cls-2" points="424.67 348.87 425.14 347.92 426.22 348.45 426.21 348.02 425.67 347.44 425.07 347.44 424.14 348.31 424.67 348.87"/><polygon class="cls-2" points="427.95 349.9 427.99 352.45 484.78 413.56 535.85 313.66 535.66 310.27 484.37 410.61 427.95 349.9"/><polygon class="cls-2" points="425.39 347.14 425.07 347.44 425.67 347.44 425.39 347.14"/><polygon class="cls-2" points="530.64 225.27 531.08 225.75 531.04 224.92 530.64 225.27"/><polygon class="cls-2" points="535.66 310.27 535.85 313.66 537.39 310.63 537.21 307.24 535.66 310.27"/><polygon class="cls-2" points="531.33 226.03 532.9 227.77 532.75 225.06 532.46 224.73 531.33 226.03"/><polygon class="cls-2" points="532.46 224.73 531.91 224.12 531.04 224.92 531.08 225.75 531.33 226.03 532.46 224.73"/><polygon class="cls-2" points="426.24 349.56 426.25 350.58 427.99 352.45 427.95 349.9 426.21 348.02 426.22 348.45 426.67 348.67 426.24 349.56"/><polygon class="cls-2" points="375.14 453.45 425.92 350.21 424.67 348.87 374.15 451.6 197.3 427.83 197.5 429.58 374.53 453.37 375.14 453.45"/><polygon class="cls-2" points="126.28 418.28 186.56 348.6 186.43 347.44 186.23 347.44 186.41 347.27 186.41 347.25 186.44 347.25 186.61 347.09 186.08 346.63 186.02 346.62 122.92 419.56 195.75 429.34 195.55 427.59 126.28 418.28"/><polygon class="cls-2" points="186.23 347.44 186.43 347.44 186.41 347.27 186.23 347.44"/><polygon class="cls-2" points="186.75 347.21 186.61 347.09 186.44 347.25 186.75 347.21"/><polygon class="cls-2" points="186.41 347.25 186.41 347.27 186.44 347.25 186.41 347.25"/><polygon class="cls-2" points="197.3 427.83 195.55 427.59 195.75 429.34 197.5 429.58 197.3 427.83"/><polygon class="cls-2" points="187.02 347.44 186.43 347.44 186.56 348.6 187.33 347.71 187.02 347.44"/><polygon class="cls-2" points="186.41 347.27 186.43 347.44 187.02 347.44 186.75 347.21 186.44 347.25 186.41 347.27"/><polygon class="cls-2" points="426.24 349.56 426.22 348.45 425.14 347.92 424.67 348.87 425.92 350.21 426.24 349.56"/><polygon class="cls-2" points="426.67 348.67 426.22 348.45 426.24 349.56 426.67 348.67"/><path class="cls-2" d="m293.51,198.8c-.83-1.51-1.7-2.98-2.61-4.38-9.67-7.52-18.87-12.02-18.97-12.07l-.46-.22-64.83,46.08c-.87,1.5-1.87,2.92-3,4.23l67.99-48.32c2.23,1.14,12.31,6.49,21.88,14.69Z"/><path class="cls-2" d="m312.28,229.31h.16s.34-.33.34-.33h.32s.85-.03.85-.03c-.76-10.36-7.33-21.11-19.07-31.25.8,1.43,1.57,2.91,2.32,4.46,7.76,7.45,14.41,16.76,15.07,27.15Z"/><path class="cls-2" d="m202.48,231.16l-10.54,7.49c4.12-1.58,7.74-4.18,10.54-7.49Z"/><path class="cls-2" d="m186.08,346.63l.32.03c.04-.45.78-11.28-8.07-23.08-14.16-18.88-42.09-25.54-63.89-27.74l78.33-55.67c-1.59.62-3.24,1.1-4.95,1.43l-78.12,55.52,2.31.21c21.7,1.93,50.57,8.21,64.89,27.18,8.52,11.29,7.82,21.91,7.81,22.02l1.32.1.02-.03.04.03Z"/><path class="cls-2" d="m312.79,228.98l-.34.32,1.54-.1c0-.08-.01-.17-.02-.25l-.85.02h-.32Z"/><polygon class="cls-2" points="186.04 346.6 186.02 346.62 186.08 346.63 186.04 346.6"/><polygon class="cls-2" points="313.17 230.96 312.32 231.76 317.96 345.73 319.67 345.73 313.99 230.92 313.17 230.96"/><polygon class="cls-2" points="317.97 346.06 319.68 345.97 319.67 345.73 317.96 345.73 317.97 346.06"/><polygon class="cls-2" points="312.28 231 312.32 231.76 313.17 230.96 312.28 231"/><path class="cls-2" d="m345.84,345.73h1.72c-.36-3.1-5.08-45.22-3.05-93.88.32-7.57.78-14.91,1.39-22.02l-1.72.04c-.6,7.08-1.06,14.38-1.38,21.91-2.01,47.93,2.53,89.54,3.03,93.95Z"/><path class="cls-2" d="m384.01,110.61c-13.5,14.22-23.89,35.48-30.9,63.17-4.06,16.03-6.99,34.26-8.77,54.37l1.72-.04c1.77-19.94,4.68-38.01,8.71-53.91,6.94-27.41,17.19-48.41,30.48-62.42,14.52-15.3,32.93-22.46,54.73-21.3-.05-.57-.08-1.14-.1-1.72-22.24-1.14-41.03,6.2-55.87,21.84Z"/><path class="cls-2" d="m344.19,229.87l1.72-.04c.05-.57.1-1.14.15-1.71l-1.72.04c-.05.57-.1,1.14-.15,1.71Z"/><path class="cls-2" d="m345.89,346.12l1.7-.2s0-.08-.02-.18h-1.72c.03.23.04.37.04.39Z"/><path class="cls-2" d="m467.49,113.91c-14.29,0-25.92-11.63-25.92-25.92s11.63-25.92,25.92-25.92c.67,0,1.33.03,1.99.08v-1.71c-.66-.05-1.32-.08-1.99-.08-15.23,0-27.62,12.39-27.62,27.62,0,.26.01.52.02.77.49.03.97.05,1.46.08l-.12,1.7c-.42-.03-.83-.05-1.25-.07,1.26,14.07,13.11,25.13,27.51,25.13.67,0,1.33-.03,1.99-.08v-1.71c-.66.05-1.32.08-1.99.08Z"/><path class="cls-2" d="m441.34,88.86c-.49-.03-.98-.06-1.46-.08.02.58.05,1.15.1,1.72.42.02.83.04,1.25.07l.12-1.7Z"/><path class="cls-2" d="m203.64,232.44l-10.87,7.73c4.23-1.66,7.95-4.34,10.87-7.73Z"/><path class="cls-2" d="m182.09,188.54c.2,0,.4-.02.61-.02,14.29,0,25.92,11.63,25.92,25.92,0,6.37-2.31,12.2-6.13,16.72l4.15-2.95c2.34-4.06,3.69-8.75,3.69-13.76,0-10.58-5.99-19.79-14.75-24.43-.43.44-.67.69-.68.71l-1.27-1.14s.15-.16.33-.35c-3.44-1.54-7.25-2.41-11.26-2.41-.18,0-.35.01-.52.01,0,.56-.04,1.13-.09,1.71Z"/><path class="cls-2" d="m182.7,240.36c-10.04,0-18.76-5.75-23.06-14.12-.42.41-.86.81-1.3,1.22,4.66,8.69,13.83,14.61,24.36,14.61,1.75,0,3.45-.17,5.11-.48l4.13-2.94c-2.87,1.1-5.99,1.71-9.24,1.71Z"/><path class="cls-2" d="m203.64,232.44c1.13-1.31,2.13-2.72,3-4.23l-4.15,2.95c-2.8,3.31-6.42,5.91-10.54,7.49l-4.13,2.94c1.71-.32,3.37-.8,4.95-1.43l10.87-7.73Z"/><path class="cls-2" d="m311.14,342.53l1.7.14c.03-.34,2.82-34.82-.21-72.12-1.03-12.7-2.62-24.28-4.73-34.66l-1.49,1.4c2.25,11.25,3.65,22.77,4.51,33.38,3.02,37.16.24,71.52.22,71.86Z"/><path class="cls-2" d="m302.47,215.21c-1.59-4.75-3.35-9.1-5.26-13.06-1.21-1.16-2.45-2.28-3.7-3.35,5.72,10.38,9.72,23.21,12.5,36.52l1.49-1.39c-1.45-6.78-3.12-13.03-5.03-18.71Z"/><path class="cls-2" d="m217.86,175.08c13.09-5.6,33.74-9.41,57.83,4.23,5.99,3.39,11,8.63,15.2,15.11.45.35.9.7,1.34,1.06.91.73,1.8,1.47,2.65,2.21-5.14-9.21-11.28-15.87-18.36-19.88-24.73-14-45.95-10.06-59.41-4.29-13.16,5.65-21.44,13.88-23.17,15.69.55.25,1.09.51,1.62.79,2.3-2.32,10.31-9.82,22.28-14.94Z"/><path class="cls-2" d="m307.5,233.93l-1.49,1.39c.14.65.27,1.31.4,1.96l1.49-1.4c-.13-.66-.27-1.31-.41-1.96Z"/><path class="cls-2" d="m290.89,194.42c.91,1.4,1.78,2.87,2.61,4.38,1.25,1.07,2.49,2.19,3.7,3.35-.75-1.55-1.52-3.04-2.32-4.46-.86-.74-1.74-1.48-2.65-2.21-.45-.36-.9-.71-1.34-1.06Z"/><path class="cls-2" d="m194.9,190.72s.25-.27.68-.71c-.53-.28-1.07-.54-1.62-.79-.18.19-.29.31-.33.35l1.27,1.14Z"/><path class="cls-2" d="m469.48,62.17v51.66c.57-.04,1.14-.1,1.71-.18v-51.29c-.56-.08-1.13-.14-1.71-.18Z"/><path class="cls-2" d="m600.2,0h-123.03c-4.24,0-7.69,3.45-7.69,7.69v52.77c.57.04,1.14.1,1.71.18V7.69c0-3.3,2.68-5.98,5.98-5.98h123.03c3.3,0,5.98,2.68,5.98,5.98v178.28c0,3.3-2.68,5.98-5.98,5.98h-123.03c-3.3,0-5.98-2.68-5.98-5.98v-70.6c-.56.08-1.13.13-1.71.18v70.42c0,4.24,3.45,7.69,7.69,7.69h123.03c4.24,0,7.69-3.45,7.69-7.69V7.69c0-4.24-3.45-7.69-7.69-7.69Z"/><path class="cls-2" d="m471.19,113.65c-.56.08-1.13.14-1.71.18v1.71c.57-.04,1.14-.1,1.71-.18v-1.72Z"/><path class="cls-2" d="m471.19,62.35v-1.72c-.56-.08-1.13-.13-1.71-.18v1.71c.57.04,1.14.1,1.71.18Z"/><path class="cls-2" d="m487.14,104.87v-33.74c-.54-.63-1.11-1.23-1.71-1.81v37.35c.6-.57,1.17-1.18,1.71-1.81Z"/><path class="cls-2" d="m487.14,68.61V30.08c0-3.3,2.68-5.98,5.98-5.98h91.13c3.3,0,5.98,2.68,5.98,5.98v121.14c0,3.3-2.68,5.98-5.98,5.98h-91.13c-3.3,0-5.98-2.68-5.98-5.98v-43.83c-.55.55-1.12,1.08-1.71,1.59v42.24c0,4.24,3.45,7.69,7.69,7.69h91.13c4.24,0,7.69-3.45,7.69-7.69V30.08c0-4.24-3.45-7.69-7.69-7.69h-91.13c-4.24,0-7.69,3.45-7.69,7.69v36.94c.59.51,1.16,1.03,1.71,1.59Z"/><path class="cls-2" d="m487.14,107.39v-2.52c-.54.63-1.11,1.23-1.71,1.81v2.3c.59-.51,1.16-1.03,1.71-1.59Z"/><path class="cls-2" d="m487.14,71.13v-2.52c-.55-.55-1.12-1.08-1.71-1.59v2.3c.6.57,1.17,1.18,1.71,1.81Z"/><path class="cls-2" d="m539.82,164.61c-4.55,0-8.26,3.7-8.26,8.26s3.7,8.26,8.26,8.26,8.26-3.7,8.26-8.26-3.7-8.26-8.26-8.26Zm0,14.81c-3.61,0-6.55-2.94-6.55-6.55s2.94-6.55,6.55-6.55,6.55,2.94,6.55,6.55-2.94,6.55-6.55,6.55Z"/><path class="cls-2" d="m55.21,178.64c.97-.96,1.97-1.91,2.99-2.85-8.27,3.03-16.21,4.98-23.39,5.78-.4.6-.78,1.2-1.15,1.8.37-.03.74-.07,1.12-.11,6.47-.7,13.37-2.28,20.44-4.63Z"/><path class="cls-2" d="m8.94,177.27c-1.96-1.37-3.57-3.04-4.78-5.02l3.99,6.54c.28.19.56.37.85.55-.05-.68-.07-1.37-.06-2.07Z"/><path class="cls-2" d="m132.71,103.82c-.03-.34-.06-.67-.1-1l-4-6.55c1.21,1.98,1.96,4.18,2.28,6.54.63.31,1.24.65,1.82,1.01Z"/><path class="cls-2" d="m48.72,105.32c20.18-12.32,40.89-18.8,56.51-18.8,10.93,0,19.37,3.18,23.39,9.75l1.46-.89c-5.02-8.22-16.41-11.82-32.07-10.12-15.43,1.67-33.25,8.28-50.17,18.61-16.92,10.33-30.94,23.16-39.48,36.13-8.66,13.16-10.67,24.93-5.65,33.15l1.46-.89c-9.74-15.96,10.25-45.98,44.56-66.93Z"/><path class="cls-2" d="m124.06,125.99c.7-.06,1.38-.12,2.06-.16,4.33-7.25,6.57-14.01,6.65-19.92-.54-.38-1.11-.73-1.71-1.06.22,6.26-2.28,13.55-7,21.15Z"/><path class="cls-2" d="m107.98,147.45c-1.52.56-3.05,1.15-4.59,1.78-5.74,4.91-12.23,9.64-19.33,13.97-7.1,4.34-14.27,7.95-21.26,10.81-1.26,1.08-2.49,2.17-3.68,3.27,8.56-3.16,17.31-7.42,25.84-12.62,8.52-5.2,16.31-11.04,23.03-17.21Z"/><path class="cls-2" d="m31.59,183.54c.35-.58.71-1.17,1.09-1.76-8.92.73-16.55-.38-22.02-3.44.02.68.08,1.35.17,2.01,4.42,2.19,10.05,3.33,16.69,3.33,1.32,0,2.68-.05,4.07-.14Z"/><path class="cls-2" d="m122.88,127.83c-3.99,6.01-9.34,12.17-15.81,18.13,1.31-.48,2.61-.93,3.9-1.36,5.32-5.22,9.87-10.63,13.45-16.06.2-.31.4-.61.59-.92-.62.05-1.25.11-1.89.18-.08,0-.16.02-.24.03Z"/><path class="cls-2" d="m39.58,198.24c.33-.58.68-1.16,1.04-1.74-4.67.31-8.97.11-12.76-.62-.16.55-.3,1.09-.43,1.62,2.75.54,5.77.82,9.04.82,1.01,0,2.05-.03,3.11-.08Z"/><path class="cls-2" d="m133.49,139.78c.7-.06,1.39-.1,2.06-.14,2.24-3.87,3.87-7.6,4.89-11.12-.54-.13-1.1-.25-1.67-.36-1.07,3.65-2.84,7.55-5.29,11.62Z"/><path class="cls-2" d="m132.78,105.9c1.98,1.38,3.58,3.05,4.78,5.01,2.59,4.23,3.12,9.55,1.66,15.59.57.11,1.12.23,1.67.36.8-3.35,1.02-6.5.66-9.4l-7.99-13.09c-.28-.19-.56-.37-.85-.55.05.68.07,1.37.06,2.08Z"/><path class="cls-2" d="m93.89,179.3c16.92-10.33,30.94-23.16,39.48-36.13.4-.6.77-1.2,1.14-1.79-.7.05-1.41.1-2.13.18-.14.23-.29.45-.44.68-8.4,12.76-22.23,25.41-38.94,35.61-17.61,10.75-35.61,17.05-50.29,18.48-.38.6-.75,1.19-1.11,1.78.7-.06,1.4-.12,2.11-.2,15.43-1.67,33.25-8.28,50.17-18.61Z"/><path class="cls-2" d="m26.21,195.51c-5.91-1.45-10.46-4.3-13.1-8.62-1.2-1.96-1.95-4.15-2.28-6.54-.63-.31-1.24-.65-1.82-1.01.03.34.06.68.1,1.01l7.99,13.08c2.42,1.65,5.33,2.89,8.68,3.7.13-.54.28-1.08.43-1.63Z"/><path class="cls-2" d="m132.78,105.9c0-.71-.01-1.4-.06-2.08-.58-.36-1.18-.69-1.82-1.01.09.66.15,1.34.17,2.03.6.33,1.17.68,1.71,1.06Z"/><path class="cls-2" d="m8.94,177.27c0,.7.01,1.39.06,2.07.58.36,1.19.7,1.82,1.01-.09-.65-.14-1.32-.17-2.01-.6-.33-1.17-.69-1.72-1.07Z"/><path class="cls-2" d="m55.57,224.44c.34-.59.7-1.18,1.06-1.77-9,.61-16.32-.69-21.49-3.74.04.7.12,1.39.23,2.07,4.47,2.32,10.24,3.53,17.08,3.53,1.01,0,2.05-.03,3.11-.08Z"/><path class="cls-2" d="m149.48,165.98c.7-.06,1.39-.1,2.06-.14,4.11-7.11,6.18-13.73,6.16-19.52-.55-.41-1.13-.8-1.74-1.16.35,5.99-1.84,13.1-6.49,20.82Z"/><path class="cls-2" d="m109.88,205.5c16.92-10.33,30.94-23.16,39.48-36.13.4-.6.77-1.2,1.14-1.79-.7.05-1.41.1-2.13.17-.15.23-.29.45-.44.68-8.4,12.76-22.23,25.41-38.94,35.61-16.71,10.2-34.28,16.73-49.47,18.37-.27.03-.53.05-.8.08-.39.61-.77,1.21-1.13,1.82.7-.06,1.4-.12,2.12-.2,15.43-1.67,33.25-8.28,50.17-18.61Z"/><path class="cls-2" d="m123.12,127.8c.64-.07,1.27-.13,1.89-.18.38-.6.75-1.2,1.11-1.79-.68.04-1.37.1-2.06.16-.38.61-.77,1.22-1.18,1.84.08,0,.16-.02.24-.03Z"/><path class="cls-2" d="m32.68,181.78c-.38.59-.74,1.18-1.09,1.76.68-.04,1.37-.1,2.06-.16.37-.6.76-1.2,1.15-1.8-.72.08-1.43.15-2.13.21Z"/><path class="cls-2" d="m140.44,128.52c.16-.56.31-1.11.44-1.65-.54-.13-1.1-.25-1.67-.36-.13.55-.28,1.1-.44,1.65.57.11,1.12.23,1.67.36Z"/><path class="cls-2" d="m26.21,195.51c-.16.55-.31,1.09-.43,1.63.54.13,1.09.25,1.65.36.13-.54.27-1.08.43-1.62-.56-.11-1.11-.23-1.65-.36Z"/><path class="cls-2" d="m117.46,217.91c-16.71,10.2-34.28,16.73-49.47,18.37-5.92.64-11.18.51-15.67-.36-.16.55-.3,1.1-.43,1.64,2.75.54,5.77.82,9.04.82,2.3,0,4.72-.14,7.25-.41,15.43-1.67,33.25-8.28,50.17-18.61,16.92-10.33,30.94-23.16,39.48-36.13,3.39-5.14,5.75-10.08,7.08-14.67-.54-.13-1.09-.25-1.65-.36-4.57,15.68-21.63,34.94-45.8,49.7Z"/><path class="cls-2" d="m157.71,146.32c1.74,1.3,3.2,2.85,4.31,4.66,2.64,4.32,3.09,9.67,1.68,15.59.56.11,1.12.23,1.66.36.8-3.35,1.02-6.5.66-9.4l-7.99-13.09c-.14-.09-.28-.19-.42-.28.07.71.11,1.43.11,2.16Z"/><path class="cls-2" d="m50.68,235.57c-6.04-1.47-10.52-4.37-13.11-8.6-1.11-1.82-1.83-3.82-2.19-5.97-.65-.34-1.27-.7-1.86-1.09.02.17.04.34.06.52l7.99,13.08c2.42,1.65,5.33,2.89,8.68,3.7.13-.54.28-1.09.44-1.64Z"/><path class="cls-2" d="m107.98,147.45c1.03-.94,2.02-1.89,2.99-2.85-1.3.43-2.59.88-3.9,1.36-1.19,1.1-2.42,2.19-3.68,3.27,1.54-.63,3.07-1.22,4.59-1.78Z"/><path class="cls-2" d="m58.2,175.79c-1.03.94-2.02,1.89-2.99,2.85,1.3-.43,2.6-.88,3.9-1.36,1.19-1.1,2.42-2.19,3.68-3.27-1.54.63-3.07,1.22-4.59,1.78Z"/><path class="cls-2" d="m40.62,196.5c-.36.58-.71,1.16-1.04,1.74.67-.03,1.34-.08,2.02-.13.36-.59.72-1.19,1.11-1.78-.7.07-1.4.12-2.09.17Z"/><path class="cls-2" d="m134.51,141.38c.36-.58.71-1.16,1.05-1.74-.68.03-1.37.08-2.06.14-.36.59-.73,1.18-1.11,1.78.72-.07,1.43-.13,2.13-.18Z"/><path class="cls-2" d="m33.41,217.77c0,.73.04,1.44.11,2.14.59.38,1.21.75,1.86,1.09-.11-.68-.19-1.37-.23-2.07-.61-.36-1.19-.75-1.74-1.16Z"/><path class="cls-2" d="m157.71,146.32c0-.73-.04-1.46-.11-2.16-.59-.38-1.22-.74-1.87-1.08.11.68.19,1.37.24,2.08.61.36,1.19.75,1.74,1.16Z"/><path class="cls-2" d="m173.83,209.44c4.98-7.56,7.75-14.66,8.26-20.9-.58.01-1.15.04-1.72.09-.53,5.88-3.21,12.63-7.97,19.87-3.59,5.45-8.17,10.87-13.54,16.1.24.56.5,1.1.77,1.63,5.64-5.44,10.45-11.1,14.19-16.79Z"/><path class="cls-2" d="m180.47,186.92c.56-.05,1.13-.07,1.71-.08.06-3.93-.84-7.48-2.7-10.54l-1.46.89c1.71,2.81,2.52,6.08,2.45,9.73Z"/><path class="cls-2" d="m133.46,244.11c-34.31,20.95-70.15,25.01-79.89,9.05l-1.46.89c4.21,6.89,12.89,10.53,24.81,10.53,2.3,0,4.72-.14,7.25-.41,15.43-1.67,33.25-8.28,50.17-18.61,8.94-5.46,17.05-11.61,23.99-18.12-.28-.52-.54-1.06-.79-1.6-6.93,6.55-15.09,12.76-24.09,18.26Z"/><path class="cls-2" d="m158.86,224.6c-.43.42-.87.83-1.31,1.25.25.54.51,1.08.79,1.6.43-.41.87-.81,1.3-1.22-.27-.54-.54-1.08-.77-1.63Z"/><path class="cls-2" d="m180.37,188.64c.57-.05,1.14-.08,1.72-.09.05-.58.08-1.15.09-1.71-.57.01-1.14.04-1.71.08-.01.56-.04,1.14-.1,1.72Z"/><path class="cls-2" d="m56.63,222.67c-.37.59-.72,1.18-1.06,1.77.67-.03,1.34-.08,2.02-.13.36-.6.74-1.21,1.13-1.82-.71.07-1.4.13-2.09.17Z"/><path class="cls-2" d="m150.5,167.58c.36-.58.71-1.17,1.05-1.74-.68.03-1.37.08-2.06.14-.36.59-.73,1.18-1.11,1.78.72-.07,1.43-.13,2.13-.17Z"/><path class="cls-2" d="m50.68,235.57c-.16.55-.31,1.1-.44,1.64.54.13,1.09.25,1.65.36.13-.54.27-1.09.43-1.64-.56-.11-1.11-.23-1.65-.36Z"/><path class="cls-2" d="m163.7,166.57c-.13.54-.27,1.09-.43,1.64.56.11,1.11.23,1.65.36.16-.55.31-1.1.44-1.64-.54-.13-1.09-.25-1.66-.36Z"/><path class="cls-2" d="m41.56,233.5c-2.25-1.54-4.09-3.42-5.45-5.65-1.36-2.23-2.2-4.72-2.54-7.43l-.48-.79c-2.25-1.54-4.09-3.42-5.45-5.65-1.36-2.23-2.2-4.72-2.54-7.44l-8.01-13.12c-2.25-1.54-4.09-3.42-5.45-5.65-1.36-2.23-2.2-4.72-2.54-7.44l-.95-1.56c-2.25-1.54-4.09-3.42-5.45-5.65l49.4,80.91c-1.36-2.23-2.2-4.72-2.54-7.44l-8.01-13.12Z"/><path class="cls-2" d="m8.16,178.79l-3.99-6.54-1.46.89c1.36,2.23,3.2,4.11,5.45,5.65Z"/><path class="cls-2" d="m11.65,187.79c1.36,2.23,3.2,4.11,5.45,5.65l-7.99-13.08c.34,2.71,1.18,5.2,2.54,7.44Z"/><path class="cls-2" d="m27.64,213.99c1.36,2.23,3.2,4.11,5.45,5.65l-7.99-13.08c.34,2.71,1.18,5.2,2.54,7.44Z"/><path class="cls-2" d="m49.57,246.62c.34,2.71,1.18,5.2,2.54,7.44l1.46-.89-4-6.55Z"/><path class="cls-2" d="m133.56,104.37c2.26,1.54,4.09,3.42,5.45,5.65,1.36,2.23,2.2,4.72,2.54,7.43l8.01,13.11c2.26,1.54,4.09,3.42,5.45,5.65,1.36,2.23,2.2,4.72,2.54,7.43l.48.78c2.26,1.54,4.09,3.42,5.45,5.65,1.36,2.23,2.2,4.72,2.54,7.44l8,13.11c2.26,1.54,4.09,3.42,5.45,5.66l-49.4-80.91c1.36,2.23,2.2,4.72,2.54,7.44l.95,1.55Z"/><path class="cls-2" d="m132.61,102.82c-.34-2.71-1.18-5.2-2.54-7.44l-1.46.89,4,6.55Z"/><path class="cls-2" d="m139.01,110.02c-1.36-2.23-3.2-4.12-5.45-5.65l7.99,13.09c-.34-2.71-1.18-5.2-2.54-7.43Z"/><path class="cls-2" d="m155.01,136.22c-1.36-2.23-3.2-4.12-5.45-5.65l7.99,13.09c-.34-2.71-1.18-5.2-2.54-7.43Z"/><path class="cls-2" d="m163.48,150.09c-1.36-2.23-3.2-4.12-5.45-5.65l7.99,13.09c-.34-2.71-1.18-5.2-2.54-7.44Z"/><path class="cls-2" d="m174.02,170.64l4,6.55,1.46-.89c-1.36-2.23-3.2-4.12-5.45-5.66Z"/></g></g></svg>