<?xml version="1.0" encoding="UTF-8"?><svg id="Layer_2" xmlns="http://www.w3.org/2000/svg" viewBox="0 0 495.89 544.96"><defs><style>.cls-1,.cls-2{fill:none;}.cls-2{stroke:#43bb9a;stroke-miterlimit:10;stroke-width:3px;}.cls-3{fill:#43bb9a;}</style></defs><g id="Layer_23"><g><path class="cls-1" d="m184.46,344.85v-12.22c-.51-.4-1.01-.81-1.48-1.22v12.11c.15.14.29.28.44.42.34.31.69.61,1.04.91Z"/><path class="cls-1" d="m153.59,90.54c12.66,0,22.97,10.3,22.97,22.97,0,1.01-.07,2-.2,2.97,4.59.43,9.33.88,14.28,1.36,17.86,1.72,38.09,3.66,62.77,5.3,29.53,3.89,53.05-.19,61.42-2.91,7.12-3.45,11.06-7.91,11.39-12.91.31-4.72-2.75-9.67-8.18-13.22-6.2-4.06-17.06-6.93-27.27-1.67-.84.48-4.97,2.69-7.4,1.18-1.2-.75-1.74-2.21-1.6-4.35,1.1-22.92-11.28-32.43-23.23-33.7-18.41-1.94-32.03,12.93-34.57,28.43l-1.47-.17c0-.14.89-14.15-5.9-30.73-3.98-9.72-9.79-18.41-17.25-25.83-9.34-9.28-21.33-16.59-35.63-21.73C147.98-.12,131.47.15,115.97,6.3c-13.39,5.31-25.98,15.04-35.46,27.39-7.28,9.49-12.4,20.15-14.43,30.03-2.11,10.3-.84,19.17,3.66,25.66l1.51,2.17-2.42-1.08c-28.07-12.48-49.29-6.46-59.8,3.34C2.61,99.8.02,107.39,2.29,113.61c1.49,4.11,6.46,11.13,22.91,12h.01c2.19.04,21.87.19,38.23-5.88l.12-.03c26.02-4.92,46.46-6.47,67.07-6.14,0-.01,0-.03,0-.04,0-12.66,10.3-22.97,22.97-22.97Z"/><path class="cls-1" d="m153.59,134.99c10.38,0,19.06-7.39,21.05-17.19-15.38-1.42-29-2.47-42.48-2.74.8,11.12,10.1,19.93,21.42,19.93Z"/><path class="cls-1" d="m182.98,302.81c.15.14.29.28.44.42.34.31.69.61,1.04.91,2.28,1.91,5.01,3.7,8.12,5.32.53.28,1.07.55,1.62.82,11.51,5.57,27.69,9.05,45.58,9.05s34.06-3.47,45.58-9.05c.55-.27,1.09-.54,1.62-.82,3.6-1.88,6.69-3.97,9.17-6.23.37-.33.72-.67,1.06-1.01,3.72-3.74,5.8-7.91,5.8-12.3,0-2.01-.44-3.97-1.27-5.87-2.73,4.34-7.45,8.34-13.93,11.75-.52.27-1.06.55-1.6.81-.29.14-.58.28-.88.42-5.11,2.41-10.92,4.35-17.22,5.81-1.15.27-2.32.52-3.5.76-7.76,1.53-16.17,2.33-24.83,2.33s-17.06-.8-24.83-2.33c-1.18-.23-2.35-.49-3.5-.76-6.29-1.46-12.11-3.4-17.22-5.81-.3-.14-.59-.28-.88-.42-.54-.27-1.08-.54-1.6-.81-2.76-1.45-5.19-3.01-7.29-4.65-.51-.4-1.01-.81-1.48-1.22-2.14-1.86-3.87-3.83-5.15-5.87-.83,1.9-1.27,3.86-1.27,5.87,0,4.39,2.08,8.55,5.8,12.3.2.2.41.4.62.59Z"/><path class="cls-1" d="m80,183.4c-7.7,0-14.02,6.01-14.53,13.58h29.07c-.51-7.58-6.83-13.58-14.53-13.58Z"/><path class="cls-1" d="m182.98,329.44c.47.45.97.88,1.48,1.31,2.28,1.92,5.01,3.7,8.12,5.33.53.28,1.07.55,1.62.82,11.51,5.57,27.69,9.05,45.58,9.05s34.06-3.47,45.58-9.05c.55-.27,1.09-.54,1.62-.82,6.73-3.51,11.68-7.78,14.18-12.49.29-.54.54-1.09.76-1.64.7-1.75,1.08-3.56,1.08-5.41v-19.97c-1.05,2.31-2.63,4.54-4.74,6.66-.34.34-.7.68-1.06,1.01-2.35,2.15-5.25,4.18-8.66,6.03-.51.28-1.03.55-1.56.82-.54.27-1.09.55-1.65.81-12.18,5.74-28.35,8.9-45.55,8.9s-33.37-3.16-45.55-8.9c-.56-.27-1.11-.54-1.65-.81-.53-.27-1.05-.54-1.56-.82-2.46-1.34-4.65-2.77-6.56-4.26-.51-.4-1.01-.81-1.48-1.22-.21-.18-.42-.36-.62-.55-.37-.33-.72-.67-1.06-1.01-2.11-2.12-3.69-4.35-4.74-6.66v19.97c0,1.85.37,3.65,1.08,5.41.22.55.48,1.1.76,1.64,1.08,2.04,2.63,4,4.58,5.85Z"/><path class="cls-1" d="m67.11,282.69c1.52,2.38,3.61,4.35,6.07,5.74.43.24.87.46,1.32.67.52.23,1.05.44,1.59.62.47.16.94.29,1.42.41,1.27.3,2.6.47,3.96.47,1.52,0,2.99-.2,4.4-.58.48-.13.95-.28,1.41-.44.72-.26,1.41-.57,2.08-.92.44-.23.87-.48,1.28-.75,2.37-1.52,4.35-3.62,5.72-6.09.24-.43.46-.87.66-1.33.24-.53.45-1.07.63-1.63.15-.47.29-.94.4-1.43.29-1.25.45-2.54.45-3.88,0-1.55-.21-3.05-.6-4.48-.13-.48-.28-.95-.45-1.41-.25-.67-.54-1.32-.87-1.95-.23-.44-.48-.87-.74-1.28-1.51-2.38-3.6-4.36-6.07-5.74-.43-.24-.87-.46-1.32-.67-.52-.23-1.05-.44-1.59-.62-.47-.16-.94-.29-1.42-.41-1.28-.31-2.61-.47-3.98-.47-1.51,0-2.98.2-4.38.57-.48.13-.95.27-1.41.44-.72.26-1.41.57-2.08.92-.44.23-.87.48-1.28.74-2.38,1.52-4.35,3.61-5.73,6.08-.24.43-.46.87-.66,1.32-.24.54-.46,1.1-.65,1.67-.15.47-.28.94-.4,1.43-.29,1.24-.45,2.53-.45,3.86,0,1.56.21,3.06.61,4.5.13.48.28.95.45,1.41.25.67.54,1.32.87,1.95.23.44.48.87.74,1.28Z"/><path class="cls-1" d="m69.59,312.52c.47.14.95.28,1.43.41,3.34.89,6.85,1.37,10.47,1.37,4,0,7.86-.59,11.51-1.67.47-.14.95-.29,1.41-.45,2.39-.8,4.69-1.82,6.86-3.03.43-.24.86-.48,1.28-.74,6.36-3.86,11.58-9.41,15.04-16.02.23-.44.46-.88.67-1.32.89-1.87,1.64-3.81,2.25-5.83.14-.47.28-.95.41-1.43.86-3.28,1.32-6.73,1.32-10.28,0-4.07-.61-7.99-1.72-11.7-.14-.47-.3-.94-.46-1.41-.78-2.28-1.75-4.48-2.9-6.56-.24-.43-.48-.86-.74-1.28-3.84-6.37-9.37-11.61-15.96-15.1-.44-.23-.87-.46-1.32-.68-1.83-.88-3.74-1.63-5.72-2.24-.47-.14-.95-.28-1.43-.41-3.36-.9-6.88-1.38-10.51-1.38-3.98,0-7.82.58-11.46,1.65-.48.14-.95.29-1.41.44-2.4.8-4.69,1.81-6.87,3.02-.43.24-.86.48-1.28.74-6.36,3.85-11.59,9.39-15.06,16-.23.44-.46.87-.67,1.32-.91,1.89-1.67,3.87-2.28,5.91-.14.47-.28.95-.41,1.43-.85,3.27-1.3,6.7-1.3,10.23,0,4.08.61,8.02,1.73,11.74.14.47.3.94.46,1.41.78,2.28,1.75,4.47,2.91,6.56.24.43.48.86.74,1.28,3.84,6.37,9.38,11.6,15.98,15.08.44.23.87.46,1.32.67,1.83.88,3.75,1.63,5.72,2.23Zm40.77-42.32c1.64,0,2.97,1.31,2.98,2.95,0,1.64-1.31,2.97-2.95,2.98-1.64,0-2.97-1.31-2.98-2.95,0-1.64,1.31-2.97,2.95-2.98Zm-58.23,6.46c-1.64.02-2.98-1.29-3-2.92s1.29-2.98,2.92-3,2.98,1.29,3,2.92-1.29,2.98-2.92,3Zm29.39,28.74c-1.64.01-2.98-1.3-2.99-2.94-.01-1.64,1.3-2.98,2.94-2.99,1.64-.01,2.98,1.3,2.99,2.94.01,1.64-1.3,2.98-2.94,2.99Zm-.29-64.21c1.64,0,2.96,1.33,2.96,2.96s-1.33,2.96-2.96,2.96-2.96-1.33-2.96-2.96,1.33-2.96,2.96-2.96Zm-18.28,32.35c0-1.47.18-2.89.5-4.26.11-.48.25-.96.4-1.43.21-.66.47-1.31.75-1.93.2-.45.42-.89.66-1.33,1.51-2.73,3.69-5.03,6.31-6.7.42-.26.84-.51,1.28-.74.76-.4,1.56-.76,2.38-1.05.46-.17.94-.31,1.41-.44,1.54-.42,3.15-.64,4.82-.64,1.51,0,2.98.19,4.39.53.48.12.96.25,1.42.41.63.21,1.25.45,1.85.72.45.21.89.43,1.32.67,2.72,1.52,5.02,3.7,6.69,6.33.26.42.51.84.74,1.28.38.72.72,1.47,1,2.24.17.46.32.93.45,1.41.43,1.57.67,3.22.67,4.93,0,1.47-.18,2.9-.5,4.28-.11.48-.25.96-.4,1.43-.21.65-.46,1.28-.73,1.89-.2.45-.42.89-.66,1.33-1.51,2.73-3.68,5.04-6.31,6.71-.42.26-.84.51-1.28.75-.76.4-1.56.76-2.38,1.05-.46.17-.93.31-1.41.44-1.54.42-3.17.65-4.84.65-1.5,0-2.96-.18-4.37-.52-.48-.12-.96-.25-1.42-.41-.63-.21-1.25-.45-1.85-.72-.45-.21-.89-.43-1.32-.66-2.73-1.51-5.03-3.69-6.69-6.32-.26-.42-.51-.84-.74-1.28-.38-.72-.72-1.47-1-2.24-.17-.46-.32-.93-.45-1.41-.44-1.58-.68-3.23-.68-4.95Z"/><path class="cls-1" d="m303.01,357.25v-19.97c-1.05,2.31-2.63,4.54-4.74,6.66-.34.34-.7.68-1.06,1.01-3.06,2.8-7.04,5.38-11.87,7.66-12.18,5.74-28.35,8.9-45.55,8.9s-33.37-3.16-45.55-8.9c-3.8-1.79-7.06-3.77-9.78-5.9-.51-.4-1.01-.81-1.48-1.23-.21-.18-.42-.36-.62-.54-.37-.33-.72-.67-1.06-1.01-2.11-2.12-3.69-4.35-4.74-6.66v19.97c0,4.63,2.31,9,6.42,12.9.47.45.96.89,1.48,1.32,10.79,9.05,31.54,15.18,55.32,15.18,34.86,0,63.22-13.19,63.22-29.4Z"/><path class="cls-1" d="m422.54,226.87c-1.54,0-2.94-.54-4.05-1.44l-54.41,36.76,53.83,37.29c1.17-1.21,2.81-1.97,4.62-1.97,2.32,0,4.35,1.24,5.48,3.09l55.44-38.41-55.89-37.76c-1.18,1.49-2.99,2.44-5.03,2.44Z"/><path class="cls-1" d="m422.54,310.34c-1.51,0-2.89-.52-3.98-1.39l-54.12,37.49,53.71,36.28c1.15-1.08,2.69-1.75,4.39-1.75,2.2,0,4.15,1.11,5.3,2.8l55.27-37.34-55.57-38.5c-1.18,1.46-2.98,2.4-5,2.4Z"/><path class="cls-1" d="m422.54,393.82c-1.69,0-3.22-.66-4.36-1.72l-54.09,36.54,54.13,37.5c1.14-1.04,2.66-1.69,4.33-1.69,2.18,0,4.1,1.09,5.26,2.75l55.66-38.56-55.64-37.59c-1.16,1.67-3.09,2.77-5.28,2.77Z"/><polygon class="cls-1" points="387.47 120.18 387.47 172.04 460.57 172.04 460.57 120.18 484.3 120.18 433.01 52.51 416.52 52.51 365.23 120.18 387.47 120.18"/><path class="cls-1" d="m422.54,477.29c-1.66,0-3.16-.63-4.3-1.67l-53.03,36.73h117.13l-54.56-37.79c-1.16,1.65-3.08,2.72-5.24,2.72Z"/><path class="cls-1" d="m462.06,121.66v51.86h-76.07v-51.86h-23.74l52.42-69.15h-60.28v474.67h138.8V52.51h-58.31l52.42,69.15h-25.23Zm-33.09,182.26c0,.99-.23,1.93-.63,2.77l56.87,39.4-.26.37.25.37-56.66,38.28c.27.71.43,1.49.43,2.29s-.16,1.61-.44,2.33l57.57,38.89-57.58,39.89c.29.73.45,1.53.45,2.36s-.17,1.65-.46,2.39l56.7,39.28-.27.38v3.89h-122.41v-4.02l-.17-.25.17-.12v-.05h.08l54.64-37.85c-.71-1.03-1.13-2.29-1.13-3.64s.41-2.58,1.11-3.61l-55.77-38.63,55.74-37.66c-.68-1.02-1.08-2.25-1.08-3.57s.39-2.52,1.06-3.54l-54.82-37.04.25-.37-.26-.37,55.14-38.2c-.86-1.09-1.37-2.47-1.37-3.96,0-1.19.33-2.31.9-3.27l-55.56-38.49,55.99-37.82c-.83-1.08-1.33-2.43-1.33-3.9,0-1.16.31-2.25.85-3.19l-54.61-36.89.17-.25v-4.13h122.41v3.99l.26.38-56.52,38.18c.19.6.29,1.24.29,1.9,0,.97-.22,1.89-.61,2.72l57.74,39.01-57.44,39.79c.2.62.31,1.28.31,1.97Z"/><path class="cls-1" d="m422.54,214.02c2.35,0,4.4,1.27,5.52,3.15l54.38-36.74h-117.33l52.74,35.63c1.17-1.25,2.84-2.04,4.69-2.04Z"/><polygon class="cls-1" points="424.76 41.63 417.64 51.03 431.88 51.03 424.76 41.63"/><rect class="cls-1" x="23.93" y="370.6" width="115.58" height="156.58"/><path class="cls-3" d="m25.77,127.13v-.03c4.03.02,22.53-.19,38.13-5.96,25.9-4.89,46.25-6.43,66.79-6.1-.03-.49-.05-.99-.06-1.49-20.61-.32-41.04,1.22-67.07,6.14l-.12.03c-16.36,6.08-36.05,5.93-38.23,5.88h-.01c-16.45-.87-21.41-7.89-22.91-12-2.26-6.22.32-13.81,6.74-19.8,10.51-9.8,31.73-15.82,59.8-3.34l2.42,1.08-1.51-2.17c-4.5-6.49-5.76-15.36-3.66-25.66,2.02-9.88,7.14-20.54,14.43-30.03,9.48-12.35,22.07-22.07,35.46-27.39,15.5-6.15,32.01-6.41,47.75-.76,14.3,5.14,26.29,12.45,35.63,21.73,7.47,7.42,13.27,16.11,17.25,25.83,6.79,16.57,5.91,30.59,5.9,30.73l1.47.17c2.54-15.5,16.16-30.38,34.57-28.43,11.95,1.26,24.33,10.78,23.23,33.7-.14,2.14.39,3.6,1.6,4.35,2.43,1.52,6.56-.7,7.4-1.18,10.21-5.26,21.07-2.39,27.27,1.67,5.43,3.56,8.49,8.5,8.18,13.22-.33,5-4.26,9.46-11.39,12.91-8.37,2.71-31.89,6.8-61.42,2.91-24.68-1.64-44.92-3.58-62.77-5.3-4.95-.48-9.69-.93-14.28-1.36-.06.49-.14.98-.24,1.47,4.62.43,9.39.89,14.37,1.37,17.87,1.72,38.12,3.67,62.77,5.3,37.28,4.91,61.83-2.91,62.07-2.99l.09-.04c9.68-4.67,12.01-10.28,12.27-14.16.34-5.26-2.96-10.71-8.85-14.56-6.48-4.24-17.79-7.25-28.49-1.89h-.02s-.3.17-.3.17c-1.41.81-4.45,2.11-5.89,1.21-.7-.44-1.01-1.44-.9-3.01.5-10.44-1.82-19.27-6.72-25.52-4.32-5.52-10.66-8.98-17.84-9.73-7.77-.82-16.01,1.56-22.6,6.53-5.71,4.31-9.93,10.36-12.21,17.41-.37-5.75-1.67-15.11-5.89-25.44-4.05-9.91-9.97-18.78-17.57-26.35-9.5-9.45-21.68-16.89-36.21-22.11-16.08-5.78-32.95-5.51-48.8.78-13.63,5.41-26.45,15.3-36.09,27.86-7.42,9.66-12.64,20.54-14.7,30.64-1.98,9.68-1.07,18.18,2.62,24.76-27.65-11.51-48.65-5.32-59.23,4.55-6.87,6.4-9.6,14.6-7.13,21.39,1.62,4.45,6.92,12.06,24.24,12.98l.64.03Z"/><path class="cls-3" d="m132.17,115.07c13.48.27,27.1,1.33,42.48,2.74.1-.48.17-.97.24-1.47-15.49-1.43-29.2-2.49-42.78-2.76,0,.5.03.99.06,1.49Z"/><polygon class="cls-3" points="494.66 51.03 433.74 51.03 434.87 52.51 493.17 52.51 493.17 527.18 354.38 527.18 354.38 52.51 414.66 52.51 415.78 51.03 352.9 51.03 352.9 528.66 494.66 528.66 494.66 51.03"/><path class="cls-3" d="m22.45,528.66h118.54v-159.54H22.45v159.54Zm1.48-158.06h115.58v156.58H23.93v-156.58Z"/><path class="cls-3" d="m72.32,259.18l-.74-1.28c-2.62,1.67-4.8,3.97-6.31,6.7l1.33.66c1.38-2.47,3.35-4.56,5.73-6.08Z"/><path class="cls-3" d="m97.04,280.48l1.33.66c.28-.61.52-1.25.73-1.89l-1.43-.4c-.18.56-.39,1.1-.63,1.63Z"/><path class="cls-3" d="m65.49,279.45l-1.41.45c.28.77.62,1.52,1,2.24l1.28-.74c-.33-.63-.62-1.28-.87-1.95Z"/><path class="cls-3" d="m64.44,273.54c0-1.33.16-2.62.45-3.86l-1.43-.4c-.32,1.37-.5,2.79-.5,4.26,0,1.71.24,3.37.68,4.95l1.41-.45c-.39-1.43-.61-2.94-.61-4.5Z"/><path class="cls-3" d="m65.93,266.59l-1.33-.66c-.28.63-.54,1.27-.75,1.93l1.43.4c.19-.57.4-1.13.65-1.67Z"/><path class="cls-3" d="m75.69,257.52l-.44-1.41c-.82.3-1.62.65-2.38,1.05l.74,1.28c.67-.35,1.37-.66,2.08-.92Z"/><path class="cls-3" d="m95.86,264.42l1.29-.74c-1.66-2.63-3.96-4.81-6.69-6.33l-.67,1.33c2.47,1.38,4.55,3.36,6.07,5.74Z"/><path class="cls-3" d="m88.47,258.01l.67-1.32c-.6-.27-1.21-.52-1.85-.72l-.41,1.43c.54.18,1.07.39,1.59.62Z"/><path class="cls-3" d="m98.52,273.54c0,1.33-.16,2.63-.45,3.88l1.43.4c.33-1.37.5-2.81.5-4.28,0-1.71-.24-3.36-.67-4.93l-1.41.45c.39,1.43.6,2.93.6,4.48Z"/><path class="cls-3" d="m97.47,267.65l1.41-.45c-.28-.77-.62-1.52-1-2.24l-1.29.74c.33.63.62,1.28.87,1.95Z"/><path class="cls-3" d="m81.48,256.5c1.37,0,2.7.17,3.98.47l.41-1.43c-1.41-.34-2.88-.53-4.39-.53-1.67,0-3.28.23-4.82.64l.44,1.41c1.4-.37,2.87-.57,4.38-.57Z"/><path class="cls-3" d="m81.48,290.58c-1.36,0-2.69-.17-3.96-.47l-.41,1.43c1.4.34,2.86.52,4.37.52,1.68,0,3.3-.23,4.84-.65l-.44-1.41c-1.4.38-2.88.58-4.4.58Z"/><path class="cls-3" d="m67.11,282.69l-1.28.74c1.66,2.63,3.97,4.81,6.69,6.32l.67-1.33c-2.47-1.38-4.56-3.36-6.07-5.74Z"/><path class="cls-3" d="m74.51,289.09l-.66,1.33c.6.27,1.22.51,1.85.72l.41-1.43c-.54-.18-1.07-.39-1.59-.62Z"/><path class="cls-3" d="m87.29,289.56l.44,1.41c.82-.3,1.62-.65,2.38-1.05l-.74-1.28c-.67.35-1.36.66-2.08.92Z"/><path class="cls-3" d="m90.65,287.89l.74,1.28c2.62-1.67,4.8-3.98,6.31-6.71l-1.33-.66c-1.38,2.47-3.35,4.56-5.72,6.09Z"/><path class="cls-3" d="m42.92,286.69l-1.41.45c.81,2.38,1.83,4.67,3.04,6.84l1.28-.74c-1.15-2.08-2.13-4.27-2.91-6.56Z"/><path class="cls-3" d="m118.26,291.07l1.33.66c.94-1.95,1.72-3.99,2.35-6.09l-1.43-.4c-.6,2.01-1.35,3.96-2.25,5.83Z"/><path class="cls-3" d="m120.05,260.44l1.41-.45c-.81-2.38-1.82-4.67-3.03-6.85l-1.28.74c1.15,2.08,2.12,4.28,2.9,6.56Z"/><path class="cls-3" d="m63.87,310.29l-.66,1.33c1.92.92,3.91,1.7,5.98,2.33l.41-1.42c-1.97-.6-3.88-1.35-5.72-2.23Z"/><path class="cls-3" d="m68.6,234.89l-.44-1.41c-2.5.83-4.9,1.89-7.17,3.15l.74,1.28c2.18-1.21,4.47-2.22,6.87-3.02Z"/><path class="cls-3" d="m62.55,309.61c-6.6-3.48-12.14-8.71-15.98-15.08l-1.28.74c3.99,6.62,9.74,12.05,16.6,15.66l.66-1.32Z"/><path class="cls-3" d="m81.48,232.79c3.63,0,7.16.49,10.51,1.38l.41-1.42c-3.49-.93-7.14-1.44-10.92-1.44-4.13,0-8.13.61-11.91,1.72l.44,1.41c3.64-1.07,7.48-1.65,11.46-1.65Z"/><path class="cls-3" d="m116.41,252.59l1.28-.74c-3.98-6.62-9.73-12.06-16.58-15.68l-.67,1.32c6.6,3.49,12.13,8.72,15.96,15.1Z"/><path class="cls-3" d="m122.23,273.54c0,3.55-.46,6.99-1.32,10.28l1.43.4c.89-3.41,1.37-6.99,1.37-10.68,0-4.22-.63-8.3-1.79-12.15l-1.41.45c1.11,3.71,1.72,7.63,1.72,11.7Z"/><path class="cls-3" d="m81.48,314.29c-3.62,0-7.13-.48-10.47-1.37l-.41,1.42c3.47.93,7.11,1.43,10.87,1.43,4.15,0,8.16-.61,11.95-1.73l-.44-1.41c-3.65,1.08-7.51,1.67-11.51,1.67Z"/><path class="cls-3" d="m60.45,238.65l-.74-1.28c-6.61,4-12.04,9.75-15.64,16.62l1.32.66c3.47-6.6,8.7-12.15,15.06-16Z"/><path class="cls-3" d="m40.73,273.54c0-3.53.45-6.96,1.3-10.23l-1.43-.4c-.88,3.4-1.36,6.96-1.36,10.63,0,4.24.63,8.33,1.8,12.2l1.41-.45c-1.12-3.72-1.73-7.66-1.73-11.74Z"/><path class="cls-3" d="m44.72,255.97l-1.33-.66c-.95,1.98-1.75,4.05-2.38,6.18l1.43.4c.61-2.04,1.37-4.02,2.28-5.91Z"/><path class="cls-3" d="m99.13,236.82l.67-1.32c-1.92-.93-3.91-1.71-5.97-2.34l-.41,1.42c1.97.61,3.88,1.35,5.72,2.24Z"/><path class="cls-3" d="m102.55,308.41l.74,1.28c6.61-4,12.03-9.77,15.62-16.64l-1.33-.66c-3.46,6.61-8.68,12.16-15.04,16.02Z"/><path class="cls-3" d="m94.4,312.18l.44,1.41c2.5-.84,4.9-1.9,7.16-3.16l-.74-1.28c-2.17,1.21-4.47,2.23-6.86,3.03Z"/><path class="cls-3" d="m94.57,197.97c0-.33-.02-.66-.04-.99h-29.07c-.02.33-.04.66-.04.99,0,.17,0,.33.01.49h29.12c0-.16.01-.33.01-.49Z"/><path class="cls-3" d="m58.75,198.47h5.2c0-.16-.01-.33-.01-.49,0-.33.01-.66.03-.99h-7.24l8.32,26.58c.47-.15.94-.3,1.41-.44l-7.72-24.66Z"/><path class="cls-3" d="m96.04,198.47h6.19l-6.97,24.31c.48.13.95.27,1.42.41l7.51-26.2h-8.18c.02.33.03.66.03.99,0,.17,0,.33-.01.49Z"/><path class="cls-3" d="m86.88,257.39l.41-1.43c-.47-.15-.94-.29-1.42-.41l-.41,1.43c.48.12.96.25,1.42.41Z"/><path class="cls-3" d="m77.1,257.08l-.44-1.41c-.48.13-.95.28-1.41.44l.44,1.41c.46-.17.93-.31,1.41-.44Z"/><path class="cls-3" d="m93.42,234.58l.41-1.42c-.47-.14-.95-.28-1.43-.41l-.41,1.42c.48.13.95.26,1.43.41Z"/><path class="cls-3" d="m70.02,234.45l-.44-1.41c-.48.14-.95.29-1.41.44l.44,1.41c.47-.16.94-.3,1.41-.44Z"/><path class="cls-3" d="m104.29,348.6l-43.47.05,6.94-24.32c-.48-.13-.95-.26-1.43-.41l-7.48,26.21,47.46-.05-8.35-26.57c-.47.15-.94.3-1.41.44l7.75,24.65Z"/><path class="cls-3" d="m76.09,289.71l-.41,1.43c.47.15.94.29,1.42.41l.41-1.43c-.48-.12-.96-.25-1.42-.41Z"/><path class="cls-3" d="m85.88,290.01l.44,1.41c.48-.13.95-.28,1.41-.44l-.44-1.41c-.46.17-.93.31-1.41.44Z"/><path class="cls-3" d="m92.99,312.63l.44,1.41c.47-.14.95-.29,1.41-.45l-.44-1.41c-.47.16-.94.31-1.41.45Z"/><path class="cls-3" d="m69.59,312.52l-.41,1.42c.47.14.95.28,1.43.41l.41-1.42c-.48-.13-.95-.26-1.43-.41Z"/><path class="cls-3" d="m156.42,250.37l.26,43.47-24.35-6.82c-.13.48-.26.95-.4,1.43l26.24,7.35-.28-47.46-26.53,8.48c.16.47.31.94.45,1.41l24.61-7.87Z"/><path class="cls-3" d="m97.92,269.07l1.41-.45c-.13-.48-.28-.95-.45-1.41l-1.41.45c.17.46.32.93.45,1.41Z"/><path class="cls-3" d="m97.67,278.85l1.43.4c.15-.47.28-.94.4-1.43l-1.43-.4c-.11.48-.25.96-.4,1.43Z"/><path class="cls-3" d="m120.51,285.25l1.43.4c.14-.47.28-.95.41-1.43l-1.43-.4c-.12.48-.26.95-.41,1.43Z"/><path class="cls-3" d="m120.51,261.85l1.41-.45c-.14-.47-.3-.94-.46-1.41l-1.41.45c.16.47.31.94.46,1.41Z"/><path class="cls-3" d="m6.56,296.8l-.31-43.47,24.36,6.79c.13-.48.26-.95.4-1.43l-26.25-7.32.34,47.46,26.52-8.51c-.16-.47-.31-.94-.45-1.41l-24.6,7.89Z"/><path class="cls-3" d="m65.49,279.45c-.17-.46-.32-.93-.45-1.41l-1.41.45c.13.48.28.95.45,1.41l1.41-.45Z"/><path class="cls-3" d="m65.28,268.26l-1.43-.4c-.15.47-.28.94-.4,1.43l1.43.4c.11-.48.24-.96.4-1.43Z"/><path class="cls-3" d="m42.44,261.89l-1.43-.4c-.14.47-.28.95-.41,1.43l1.43.4c.12-.48.26-.95.41-1.43Z"/><path class="cls-3" d="m42.46,285.29l-1.41.45c.14.47.3.94.46,1.41l1.41-.45c-.16-.47-.32-.94-.46-1.41Z"/><path class="cls-3" d="m117.4,203.81l31.22,30.25-21.94,12.62c.25.42.5.85.74,1.28l23.64-13.6-34.08-33.03-12.53,24.89c.44.22.88.44,1.32.67l11.62-23.09Z"/><path class="cls-3" d="m89.79,258.68l.67-1.33c-.43-.24-.87-.46-1.32-.67l-.67,1.32c.45.2.89.43,1.32.67Z"/><path class="cls-3" d="m96.6,265.7l1.29-.74c-.23-.44-.48-.87-.74-1.28l-1.29.74c.26.42.51.84.74,1.28Z"/><path class="cls-3" d="m117.15,253.88l1.28-.74c-.24-.43-.48-.86-.74-1.28l-1.28.74c.25.42.5.85.74,1.28Z"/><path class="cls-3" d="m100.45,237.5l.67-1.32c-.44-.23-.87-.46-1.32-.68l-.67,1.32c.45.22.88.45,1.32.68Z"/><path class="cls-3" d="m11.93,312.8l34.12,32.99,12.5-24.9c-.44-.22-.89-.44-1.32-.67l-11.59,23.1-31.25-30.22,21.92-12.64c-.25-.42-.5-.85-.74-1.28l-22.77,13.13-.85.49Z"/><path class="cls-3" d="m66.37,281.4l-1.28.74c.23.44.48.87.74,1.28l1.28-.74c-.27-.42-.51-.84-.74-1.28Z"/><path class="cls-3" d="m73.18,288.42l-.67,1.33c.43.24.87.46,1.32.66l.66-1.33c-.45-.2-.89-.42-1.32-.67Z"/><path class="cls-3" d="m62.55,309.61l-.66,1.32c.44.23.87.46,1.32.68l.66-1.33c-.45-.21-.88-.44-1.32-.67Z"/><path class="cls-3" d="m45.83,293.25l-1.28.74c.24.43.48.86.74,1.28l1.28-.74c-.25-.42-.5-.85-.74-1.28Z"/><path class="cls-3" d="m11.67,237.77l30.18-31.29,12.67,21.91c.42-.25.85-.5,1.28-.74l-13.65-23.61-32.95,34.15,24.92,12.47c.22-.44.44-.89.67-1.32l-23.12-11.57Z"/><path class="cls-3" d="m73.6,258.44l-.74-1.28c-.44.23-.86.48-1.28.74l.74,1.28c.42-.27.84-.51,1.28-.74Z"/><path class="cls-3" d="m66.59,265.26l-1.33-.66c-.24.43-.46.87-.66,1.33l1.33.66c.2-.45.42-.89.66-1.32Z"/><path class="cls-3" d="m61.73,237.91l-.74-1.28c-.43.24-.86.48-1.28.74l.74,1.28c.42-.26.85-.5,1.28-.74Z"/><path class="cls-3" d="m45.39,254.65l-1.32-.66c-.23.44-.46.87-.67,1.32l1.33.66c.21-.45.44-.88.67-1.32Z"/><path class="cls-3" d="m151.33,309.24l-30.15,31.32-12.69-21.89c-.42.25-.85.5-1.28.74l13.68,23.59,32.91-34.19-24.93-12.44c-.22.45-.44.89-.67,1.32l23.13,11.54Z"/><path class="cls-3" d="m89.37,288.64l.74,1.28c.44-.23.86-.48,1.28-.75l-.74-1.28c-.42.27-.84.52-1.28.75Z"/><path class="cls-3" d="m96.37,281.81l1.33.66c.24-.43.46-.87.66-1.33l-1.33-.66c-.2.45-.42.89-.66,1.33Z"/><path class="cls-3" d="m101.26,309.15l.74,1.28c.43-.24.86-.48,1.28-.74l-.74-1.28c-.42.26-.85.5-1.28.74Z"/><path class="cls-3" d="m117.59,292.39l1.33.66c.23-.44.46-.87.67-1.32l-1.33-.66c-.21.45-.44.88-.67,1.32Z"/><path class="cls-3" d="m33.03,289.87l-1.41.45c1.04,3.09,2.37,6.05,3.94,8.85l1.28-.74c-1.52-2.71-2.8-5.58-3.81-8.57Z"/><path class="cls-3" d="m59.21,319.56l-.66,1.32c2.49,1.21,5.09,2.23,7.78,3.04l.41-1.43c-2.6-.78-5.12-1.77-7.52-2.94Z"/><path class="cls-3" d="m97.51,322.09l.44,1.41c3.23-1.07,6.33-2.44,9.25-4.09l-.74-1.28c-2.83,1.59-5.83,2.92-8.95,3.96Z"/><path class="cls-3" d="m129.95,257.27l1.41-.45c-1.04-3.09-2.36-6.05-3.93-8.86l-1.28.74c1.52,2.72,2.79,5.58,3.8,8.57Z"/><path class="cls-3" d="m103.79,227.56l.67-1.32c-2.49-1.21-5.09-2.24-7.78-3.05l-.41,1.42c2.6.79,5.11,1.78,7.52,2.95Z"/><path class="cls-3" d="m127.54,295.71l1.33.66c1.23-2.53,2.25-5.18,3.06-7.92l-1.43-.4c-.78,2.65-1.78,5.21-2.96,7.66Z"/><path class="cls-3" d="m65.5,224.98l-.44-1.41c-3.24,1.07-6.33,2.44-9.26,4.08l.74,1.28c2.83-1.59,5.83-2.92,8.96-3.95Z"/><path class="cls-3" d="m35.44,251.33l-1.32-.66c-1.25,2.57-2.29,5.25-3.11,8.03l1.43.4c.79-2.69,1.8-5.28,3-7.77Z"/><path class="cls-3" d="m66.91,224.54l-.44-1.41c-.47.14-.95.29-1.41.44l.44,1.41c.47-.15.94-.3,1.41-.44Z"/><path class="cls-3" d="m94.85,224.2c.48.13.95.27,1.42.41l.41-1.42c-.47-.14-.95-.28-1.42-.41l-.41,1.42Z"/><path class="cls-3" d="m96.1,322.53l.44,1.41c.47-.14.95-.29,1.41-.44l-.44-1.41c-.47.16-.94.3-1.41.44Z"/><path class="cls-3" d="m68.16,322.9c-.48-.13-.95-.26-1.43-.41l-.41,1.43c.47.14.95.28,1.43.41l.41-1.43Z"/><path class="cls-3" d="m130.9,286.62c-.13.48-.26.95-.4,1.43l1.43.4c.14-.47.27-.95.4-1.43l-1.43-.4Z"/><path class="cls-3" d="m130.4,258.69l1.41-.45c-.14-.47-.29-.94-.45-1.41l-1.41.45c.16.47.31.94.45,1.41Z"/><path class="cls-3" d="m32.04,260.52c.13-.48.26-.95.4-1.43l-1.43-.4c-.14.47-.27.95-.4,1.43l1.43.4Z"/><path class="cls-3" d="m32.58,288.46l-1.41.45c.14.47.29.94.45,1.41l1.41-.45c-.16-.47-.31-.94-.45-1.41Z"/><path class="cls-3" d="m105.12,228.23l.67-1.32c-.44-.23-.88-.45-1.32-.67l-.67,1.32c.44.22.88.44,1.32.67Z"/><path class="cls-3" d="m125.41,247.42c.25.42.5.85.74,1.28l1.28-.74c-.24-.43-.49-.86-.74-1.28l-1.28.74Z"/><path class="cls-3" d="m37.58,299.72c-.25-.42-.5-.85-.74-1.28l-1.28.74c.24.43.49.86.74,1.28l1.28-.74Z"/><path class="cls-3" d="m57.89,318.89l-.66,1.32c.44.23.88.45,1.32.67l.66-1.32c-.44-.22-.89-.44-1.32-.67Z"/><path class="cls-3" d="m36.11,250l-1.33-.66c-.23.44-.45.88-.67,1.32l1.32.66c.22-.45.44-.89.67-1.32Z"/><path class="cls-3" d="m55.26,229.67c.42-.25.85-.5,1.28-.74l-.74-1.28c-.43.24-.86.49-1.28.74l.74,1.28Z"/><path class="cls-3" d="m107.75,317.38c-.42.25-.85.5-1.28.74l.74,1.28c.43-.24.86-.49,1.28-.74l-.74-1.28Z"/><path class="cls-3" d="m126.88,297.03l1.33.66c.23-.44.45-.88.67-1.32l-1.33-.66c-.22.45-.44.89-.67,1.32Z"/><path class="cls-3" d="m428.35,223.16c.39-.83.61-1.74.61-2.72,0-.66-.1-1.3-.29-1.9l-3.58,2.42,3.25,2.2Z"/><path class="cls-3" d="m416.97,217.26c-.54.94-.85,2.02-.85,3.19,0,1.47.5,2.82,1.33,3.9l5-3.38-5.48-3.7Z"/><path class="cls-3" d="m418.49,225.43c1.1.9,2.51,1.44,4.05,1.44,2.04,0,3.86-.96,5.03-2.44l-3.8-2.57-5.28,3.57Z"/><path class="cls-3" d="m422.54,214.02c-1.85,0-3.52.79-4.69,2.04l5.92,4,4.28-2.89c-1.12-1.88-3.17-3.15-5.52-3.15Z"/><path class="cls-3" d="m417.02,300.65c-.57.96-.9,2.07-.9,3.27,0,1.5.52,2.87,1.37,3.96l4.98-3.45-5.45-3.78Z"/><path class="cls-3" d="m422.54,297.5c-1.82,0-3.46.76-4.62,1.97l5.86,4.06,4.25-2.94c-1.13-1.85-3.16-3.09-5.48-3.09Z"/><path class="cls-3" d="m422.54,310.34c2.02,0,3.82-.94,5-2.4l-3.77-2.61-5.22,3.62c1.1.87,2.48,1.39,3.98,1.39Z"/><path class="cls-3" d="m428.33,306.69c.4-.84.63-1.77.63-2.77,0-.69-.11-1.35-.31-1.97l-3.58,2.48,3.25,2.25Z"/><path class="cls-3" d="m428.52,389.73c.28-.72.44-1.51.44-2.33s-.16-1.58-.43-2.29l-3.43,2.32,3.42,2.31Z"/><path class="cls-3" d="m422.54,393.82c2.19,0,4.12-1.1,5.28-2.77l-4.04-2.73-5.6,3.78c1.15,1.06,2.68,1.72,4.36,1.72Z"/><path class="cls-3" d="m417.18,383.86c-.67,1.01-1.06,2.23-1.06,3.54s.4,2.55,1.08,3.57l5.25-3.55-5.27-3.56Z"/><path class="cls-3" d="m422.54,380.97c-1.7,0-3.25.67-4.39,1.75l5.63,3.8,4.07-2.75c-1.16-1.69-3.1-2.8-5.3-2.8Z"/><path class="cls-3" d="m428.5,473.26c.3-.74.46-1.54.46-2.39s-.16-1.63-.45-2.36l-3.43,2.38,3.42,2.37Z"/><path class="cls-3" d="m417.23,467.26c-.7,1.03-1.11,2.27-1.11,3.61s.42,2.6,1.13,3.64l5.22-3.62-5.24-3.63Z"/><path class="cls-3" d="m422.54,477.29c2.17,0,4.08-1.08,5.24-2.72l-4.01-2.78-5.54,3.84c1.14,1.03,2.65,1.67,4.3,1.67Z"/><path class="cls-3" d="m422.54,464.45c-1.67,0-3.18.64-4.33,1.69l5.56,3.85,4.03-2.79c-1.16-1.66-3.08-2.75-5.26-2.75Z"/><circle class="cls-3" cx="81.23" cy="244.15" r="2.96"/><path class="cls-3" d="m110.39,276.13c1.64,0,2.96-1.34,2.95-2.98,0-1.64-1.34-2.96-2.98-2.95-1.64,0-2.96,1.34-2.95,2.98,0,1.64,1.34,2.96,2.98,2.95Z"/><path class="cls-3" d="m81.47,299.47c-1.64.01-2.95,1.35-2.94,2.99.01,1.64,1.35,2.95,2.99,2.94,1.64-.01,2.95-1.35,2.94-2.99-.01-1.64-1.35-2.95-2.99-2.94Z"/><path class="cls-3" d="m52.05,270.73c-1.64.02-2.95,1.37-2.92,3s1.37,2.95,3,2.92,2.95-1.37,2.92-3-1.37-2.95-3-2.92Z"/><path class="cls-1" d="m216.61,246.18c-.02-.43-.04-.86-.04-1.29,0-12.66,10.3-22.97,22.97-22.97s22.97,10.3,22.97,22.97c0,.4-.01.8-.03,1.2,8.47,1.5,16.26,3.85,22.86,6.96,12.36,5.82,19.16,13.63,19.16,21.99,0,2.27-.51,4.49-1.48,6.65v1.58c.98,2.16,1.48,4.38,1.48,6.65v26.62c0,2.27-.51,4.49-1.48,6.65v.79c.98,2.16,1.48,4.38,1.48,6.65v26.62c0,8.35-6.8,16.16-19.16,21.99-12.18,5.74-28.35,8.9-45.55,8.9s-33.37-3.16-45.55-8.9c-3.79-1.79-7.06-3.77-9.78-5.89v153.83h124.97V170.56h-124.97v88.38c2.71-2.12,5.98-4.1,9.78-5.89,6.47-3.05,14.08-5.36,22.37-6.87Z"/><path class="cls-1" d="m261,245.84c.01-.31.02-.63.02-.94,0-11.85-9.64-21.49-21.49-21.49s-21.49,9.64-21.49,21.49c0,.34,0,.68.03,1.02,6.88-1.16,14.19-1.76,21.71-1.76s14.48.58,21.22,1.69Z"/><path class="cls-1" d="m182.98,343.52v-12.11c-2.25-1.96-4.04-4.03-5.35-6.19-.7,1.75-1.08,3.56-1.08,5.41,0,4.39,2.08,8.55,5.8,12.3.2.2.41.4.62.59Z"/><path class="cls-1" d="m288.55,336.89c-.51.28-1.03.55-1.56.82-.54.27-1.09.55-1.65.81-12.18,5.74-28.35,8.9-45.55,8.9s-33.37-3.16-45.55-8.9c-.56-.27-1.11-.54-1.65-.81-.53-.27-1.05-.54-1.56-.82-2.46-1.34-4.65-2.76-6.56-4.26v12.22c10.79,9.05,31.54,15.18,55.32,15.18s45.9-6.55,56.37-16.09c.37-.33.72-.67,1.06-1.01,3.72-3.74,5.8-7.91,5.8-12.3,0-1.85-.37-3.65-1.08-5.41-2.6,4.29-7.13,8.27-13.39,11.67Z"/><path class="cls-3" d="m310.91,528.66V169.08h-127.93v91.09c.47-.41.97-.82,1.48-1.22v-88.38h124.97v356.62h-124.97v-153.83c-.51-.4-1.01-.81-1.48-1.22v156.53h127.93Z"/><path class="cls-1" d="m176.56,323.19v.79c.06-.13.12-.26.18-.4-.06-.13-.12-.26-.18-.4Z"/><path class="cls-1" d="m303.01,283.27v-1.58c-.12.26-.25.53-.38.79.13.26.26.52.38.79Z"/><path class="cls-1" d="m176.56,281.69v1.58c.12-.26.25-.53.38-.79-.13-.26-.26-.52-.38-.79Z"/><path class="cls-1" d="m303.01,323.98v-.79c-.06.13-.12.26-.18.4.06.13.12.26.18.4Z"/><path class="cls-3" d="m264.61,302.08c1.18.23,2.35.49,3.5.76,6.29-1.46,12.11-3.4,17.22-5.81.3-.14.59-.28.88-.42-.55-.28-1.1-.55-1.67-.81-5.68,2.65-12.43,4.8-19.93,6.29Z"/><path class="cls-3" d="m286.21,294.98c.54.27,1.08.54,1.6.81,6.48-3.41,11.2-7.41,13.93-11.75-.23-.53-.49-1.05-.78-1.56-2.66,4.73-7.81,9.01-14.75,12.5Z"/><path class="cls-3" d="m177.83,280.91c-.83-1.9-1.27-3.86-1.27-5.87v6.65c.12.26.25.53.38.79.27-.53.56-1.05.89-1.56Z"/><path class="cls-3" d="m182.98,289.91v-1.98c-1.82-1.73-3.3-3.56-4.37-5.46-.29.52-.55,1.04-.78,1.56,1.28,2.04,3.01,4,5.15,5.87Z"/><path class="cls-3" d="m184.46,289.26v1.88c2.1,1.64,4.54,3.2,7.29,4.65.52-.27,1.06-.55,1.6-.81-3.43-1.73-6.42-3.65-8.89-5.72Z"/><path class="cls-3" d="m182.98,287.93v1.98c.47.41.97.82,1.48,1.22v-1.88c-.52-.43-1.01-.88-1.48-1.32Z"/><path class="cls-3" d="m239.78,304.44c-7.22,0-14.16-.57-20.62-1.61-1.42.23-2.83.48-4.2.76,7.76,1.53,16.17,2.33,24.83,2.33s17.06-.8,24.83-2.33c-1.38-.27-2.78-.53-4.2-.76-6.47,1.04-13.41,1.61-20.62,1.61Z"/><path class="cls-3" d="m182.98,262.14v-1.97c-5.16,4.49-7.9,9.57-7.9,14.88h1.48c0-4.63,2.31-9,6.42-12.9Z"/><path class="cls-3" d="m239.78,244.15c-7.51,0-14.83.6-21.71,1.76.02.5.07,1,.13,1.49,6.74-1.14,14.01-1.77,21.58-1.77s14.5.6,21.1,1.69c.06-.49.1-.98.12-1.48-6.73-1.11-13.88-1.69-21.22-1.69Z"/><path class="cls-3" d="m216.74,247.66c-.06-.49-.11-.98-.13-1.48-8.29,1.51-15.9,3.82-22.37,6.87-3.79,1.79-7.06,3.77-9.78,5.89v1.88c7.1-5.95,18.52-10.65,32.28-13.16Z"/><path class="cls-3" d="m303.01,275.04h1.48c0-8.35-6.8-16.16-19.16-21.99-6.6-3.11-14.38-5.46-22.86-6.96-.03.5-.07.99-.13,1.48,23.75,4.23,40.66,14.95,40.66,27.47Z"/><path class="cls-3" d="m184.46,260.82v-1.88c-.51.4-1.01.81-1.48,1.22v1.97c.47-.45.96-.89,1.48-1.32Z"/><path class="cls-3" d="m301.74,280.91c.33.52.62,1.04.89,1.56.13-.26.26-.52.38-.79v-6.65c0,2.01-.44,3.97-1.27,5.87Z"/><path class="cls-3" d="m195.03,295.79c-.57.27-1.12.54-1.67.81.29.14.58.28.88.42,5.11,2.41,10.92,4.35,17.22,5.81,1.15-.27,2.32-.52,3.5-.76-7.5-1.49-14.25-3.64-19.93-6.29Z"/><path class="cls-3" d="m239.78,319.32c-17.89,0-34.06-3.47-45.58-9.05-.55.27-1.09.54-1.62.82.54.27,1.09.55,1.65.81,12.18,5.74,28.35,8.9,45.55,8.9s33.37-3.16,45.55-8.9c.56-.27,1.11-.54,1.65-.81-.53-.28-1.07-.55-1.62-.82-11.51,5.57-27.69,9.05-45.58,9.05Z"/><path class="cls-3" d="m182.36,302.21c-3.72-3.74-5.8-7.91-5.8-12.3v6.65c1.05,2.31,2.63,4.54,4.74,6.66.34-.34.7-.68,1.06-1.01Z"/><path class="cls-3" d="m177.83,284.04c-.33-.52-.62-1.04-.89-1.56-.13.26-.26.52-.38.79v6.65c0-2.01.44-3.97,1.27-5.87Z"/><path class="cls-3" d="m286.98,309.46c.53.27,1.05.54,1.56.82,3.41-1.86,6.31-3.88,8.66-6.03-.34-.34-.69-.68-1.06-1.01-2.48,2.26-5.57,4.35-9.17,6.23Z"/><path class="cls-3" d="m182.36,304.24c.2.18.41.36.62.55v-1.14c-.21.2-.42.39-.62.59Z"/><path class="cls-3" d="m184.46,304.14v1.87c1.91,1.5,4.1,2.93,6.56,4.26.51-.28,1.03-.55,1.56-.82-3.11-1.62-5.84-3.41-8.12-5.32Z"/><path class="cls-3" d="m183.42,303.23c-.15.14-.29.28-.44.42v1.14c.47.41.97.82,1.48,1.22v-1.87c-.36-.3-.71-.6-1.04-.91Z"/><path class="cls-3" d="m297.21,302.21c.37.33.72.67,1.06,1.01,2.11-2.12,3.69-4.35,4.74-6.66v-6.65c0,4.39-2.08,8.55-5.8,12.3Z"/><path class="cls-3" d="m301.74,284.04c.83,1.9,1.27,3.86,1.27,5.87v-6.65c-.12-.26-.25-.53-.38-.79-.27.53-.56,1.05-.89,1.56Z"/><path class="cls-3" d="m177.83,280.91c-.33.52-.62,1.04-.89,1.56.27.53.56,1.05.89,1.56.23-.53.49-1.05.78-1.56-.29-.52-.55-1.04-.78-1.56Z"/><path class="cls-3" d="m301.74,280.91c-.23.53-.49,1.05-.78,1.56.29.52.55,1.04.78,1.56.33-.52.62-1.04.89-1.56-.27-.53-.56-1.05-.89-1.56Z"/><path class="cls-3" d="m301.93,321.94c.33.54.63,1.09.89,1.64.06-.13.12-.26.18-.4v-6.65c0,1.85-.37,3.65-1.08,5.41Z"/><path class="cls-3" d="m191.02,336.89c.51-.28,1.03-.55,1.56-.82-3.11-1.62-5.84-3.41-8.12-5.33v1.88c1.91,1.5,4.1,2.92,6.56,4.26Z"/><path class="cls-3" d="m182.98,331.41v-1.98c-1.95-1.85-3.5-3.81-4.58-5.85-.29.54-.54,1.09-.76,1.64,1.3,2.15,3.09,4.23,5.35,6.19Z"/><path class="cls-3" d="m184.46,330.75c-.52-.43-1.01-.87-1.48-1.31v1.98c.47.41.97.82,1.48,1.22v-1.88Z"/><path class="cls-3" d="m194.24,338.52c12.18,5.74,28.35,8.9,45.55,8.9s33.37-3.16,45.55-8.9c.56-.27,1.11-.54,1.65-.81-.53-.28-1.07-.55-1.62-.82-11.51,5.57-27.69,9.05-45.58,9.05s-34.06-3.47-45.58-9.05c-.55.27-1.09.54-1.62.82.54.27,1.09.55,1.65.81Z"/><path class="cls-3" d="m177.64,321.94c-.7-1.75-1.08-3.56-1.08-5.41v6.65c.06.13.12.26.18.4.27-.55.56-1.1.89-1.64Z"/><path class="cls-3" d="m301.93,325.22c-.22-.55-.48-1.1-.76-1.64-2.5,4.71-7.45,8.98-14.18,12.49.53.27,1.05.54,1.56.82,6.26-3.41,10.79-7.38,13.39-11.67Z"/><path class="cls-3" d="m284.54,295.79c.57.27,1.12.54,1.67.81.54-.27,1.08-.54,1.6-.81-.52-.27-1.06-.55-1.6-.81-.55.28-1.1.55-1.67.81Z"/><path class="cls-3" d="m193.36,294.98c-.54.27-1.08.54-1.6.81.52.27,1.06.55,1.6.81.55-.28,1.1-.55,1.67-.81-.57-.27-1.12-.54-1.67-.81Z"/><path class="cls-3" d="m296.15,303.23c.37.33.72.67,1.06,1.01.37-.33.72-.67,1.06-1.01-.34-.34-.7-.68-1.06-1.01-.34.34-.69.68-1.06,1.01Z"/><path class="cls-3" d="m182.98,302.81c-.21-.2-.42-.39-.62-.59-.37.33-.72.67-1.06,1.01.34.34.7.68,1.06,1.01.2-.2.41-.4.62-.59v-.84Z"/><path class="cls-3" d="m183.42,303.23c-.15-.14-.29-.28-.44-.42v.84c.15-.14.29-.28.44-.42Z"/><path class="cls-3" d="m182.36,342.93c-3.72-3.74-5.8-7.91-5.8-12.3v6.65c1.05,2.31,2.63,4.54,4.74,6.66.34-.34.7-.68,1.06-1.01Z"/><path class="cls-3" d="m182.36,344.95c.2.18.41.36.62.54v-1.13c-.21.2-.42.39-.62.59Z"/><path class="cls-3" d="m239.78,360.03c-23.78,0-44.53-6.14-55.32-15.18v1.87c2.71,2.12,5.98,4.11,9.78,5.9,12.18,5.74,28.35,8.9,45.55,8.9s33.37-3.16,45.55-8.9c4.83-2.28,8.82-4.86,11.87-7.66-.34-.34-.69-.68-1.06-1.01-10.46,9.54-31.8,16.09-56.37,16.09Z"/><path class="cls-3" d="m183.42,343.94c-.15.14-.29.28-.44.42v1.13c.47.41.97.82,1.48,1.23v-1.87c-.36-.3-.71-.6-1.04-.91Z"/><path class="cls-3" d="m301.93,325.22c.7,1.75,1.08,3.56,1.08,5.41v-6.65c-.06-.13-.12-.26-.18-.4-.27.55-.56,1.1-.89,1.64Z"/><path class="cls-3" d="m297.21,342.93c.37.33.72.67,1.06,1.01,2.11-2.12,3.69-4.35,4.74-6.66v-6.65c0,4.39-2.08,8.55-5.8,12.3Z"/><path class="cls-3" d="m177.64,325.22c-.33-.54-.63-1.09-.89-1.64-.06.13-.12.26-.18.4v6.65c0-1.85.37-3.65,1.08-5.41Z"/><path class="cls-3" d="m214.96,302.08c-1.18.23-2.35.49-3.5.76,1.15.27,2.32.52,3.5.76,1.38-.27,2.78-.53,4.2-.76-1.42-.23-2.83-.48-4.2-.76Z"/><path class="cls-3" d="m260.41,302.83c1.42.23,2.83.48,4.2.76,1.18-.23,2.35-.49,3.5-.76-1.15-.27-2.32-.52-3.5-.76-1.38.27-2.78.53-4.2.76Z"/><path class="cls-3" d="m285.36,310.27c.55.27,1.09.54,1.62.82.53-.27,1.05-.54,1.56-.82-.51-.28-1.03-.55-1.56-.82-.53.28-1.07.55-1.62.82Z"/><path class="cls-3" d="m192.59,309.46c-.53.27-1.05.54-1.56.82.51.28,1.03.55,1.56.82.53-.28,1.07-.55,1.62-.82-.55-.27-1.09-.54-1.62-.82Z"/><path class="cls-3" d="m302.82,323.58c-.27-.55-.56-1.1-.89-1.64-.22.55-.48,1.1-.76,1.64.29.54.54,1.09.76,1.64.33-.54.63-1.09.89-1.64Z"/><path class="cls-3" d="m177.64,321.94c-.33.54-.63,1.09-.89,1.64.27.55.56,1.1.89,1.64.22-.55.48-1.1.76-1.64-.29-.54-.54-1.09-.76-1.64Z"/><path class="cls-3" d="m176.56,357.25h-1.48c0,5.3,2.74,10.38,7.9,14.88v-1.97c-4.11-3.9-6.42-8.28-6.42-12.9Z"/><path class="cls-3" d="m239.78,388.14c17.19,0,33.37-3.16,45.55-8.9,12.36-5.82,19.16-13.63,19.16-21.99h-1.48c0,16.21-28.36,29.4-63.22,29.4-23.78,0-44.53-6.14-55.32-15.18v1.88c2.71,2.12,5.98,4.1,9.78,5.89,12.18,5.74,28.35,8.9,45.55,8.9Z"/><path class="cls-3" d="m184.46,371.47c-.52-.43-1.01-.87-1.48-1.32v1.97c.47.41.97.82,1.48,1.22v-1.88Z"/><path class="cls-3" d="m192.59,337.71c.53-.28,1.07-.55,1.62-.82-.55-.27-1.09-.54-1.62-.82-.53.27-1.05.54-1.56.82.51.28,1.03.55,1.56.82Z"/><path class="cls-3" d="m288.55,336.89c-.51-.28-1.03-.55-1.56-.82-.53.28-1.07.55-1.62.82.55.27,1.09.54,1.62.82.53-.27,1.05-.54,1.56-.82Z"/><path class="cls-3" d="m296.15,343.94c.37.33.72.67,1.06,1.01.37-.33.72-.67,1.06-1.01-.34-.34-.7-.68-1.06-1.01-.34.34-.69.68-1.06,1.01Z"/><path class="cls-3" d="m182.98,343.52c-.21-.2-.42-.39-.62-.59-.37.33-.72.67-1.06,1.01.34.34.7.68,1.06,1.01.2-.2.41-.4.62-.59v-.84Z"/><path class="cls-3" d="m183.42,343.94c-.15-.14-.29-.28-.44-.42v.84c.15-.14.29-.28.44-.42Z"/><path class="cls-3" d="m176.56,337.28c-.98-2.16-1.48-4.38-1.48-6.65v26.62c0-2.27.51-4.49,1.48-6.65v-13.32Z"/><path class="cls-3" d="m176.56,296.57c-.98-2.16-1.48-4.38-1.48-6.65v26.62c0-2.27.51-4.49,1.48-6.65v-13.32Z"/><path class="cls-3" d="m175.08,275.04c0,2.27.51,4.49,1.48,6.65v-6.65h-1.48Z"/><path class="cls-3" d="m176.56,289.92v-6.65c-.98,2.16-1.48,4.38-1.48,6.65s.51,4.49,1.48,6.65v-6.65Z"/><path class="cls-3" d="m176.56,309.89c-.98,2.16-1.48,4.38-1.48,6.65s.51,4.49,1.48,6.65v-13.3Z"/><path class="cls-3" d="m176.56,330.63v-6.65c-.98,2.16-1.48,4.38-1.48,6.65s.51,4.49,1.48,6.65v-6.65Z"/><path class="cls-3" d="m176.56,350.6c-.98,2.16-1.48,4.38-1.48,6.65h1.48v-6.65Z"/><path class="cls-3" d="m303.01,350.6c.98,2.16,1.48,4.38,1.48,6.65v-26.62c0,2.27-.51,4.49-1.48,6.65v13.32Z"/><path class="cls-3" d="m303.01,309.89c.98,2.16,1.48,4.38,1.48,6.65v-26.62c0,2.27-.51,4.49-1.48,6.65v13.32Z"/><path class="cls-3" d="m303.01,281.69c.98-2.16,1.48-4.38,1.48-6.65h-1.48v6.65Z"/><path class="cls-3" d="m303.01,296.57c.98-2.16,1.48-4.38,1.48-6.65s-.51-4.49-1.48-6.65v13.3Z"/><path class="cls-3" d="m303.01,316.54v6.65c.98-2.16,1.48-4.38,1.48-6.65s-.51-4.49-1.48-6.65v6.65Z"/><path class="cls-3" d="m303.01,337.28c.98-2.16,1.48-4.38,1.48-6.65s-.51-4.49-1.48-6.65v13.3Z"/><path class="cls-3" d="m303.01,357.25h1.48c0-2.27-.51-4.49-1.48-6.65v6.65Z"/><path class="cls-3" d="m153.59,134.99c-11.32,0-20.62-8.81-21.42-19.93-.5-.01-.99-.02-1.49-.03.79,11.95,10.76,21.44,22.91,21.44,11.15,0,20.46-7.98,22.53-18.53-.5-.05-.99-.09-1.48-.14-2,9.8-10.68,17.19-21.05,17.19Z"/><path class="cls-3" d="m174.89,116.34c-.07.49-.14.98-.24,1.47.49.05.99.09,1.48.14.09-.48.17-.97.24-1.47-.49-.05-.99-.09-1.48-.14Z"/><path class="cls-3" d="m132.11,113.58c-.49,0-.99-.02-1.48-.03,0,.5.02.99.06,1.49.5,0,.99.02,1.49.03-.04-.49-.06-.99-.06-1.49Z"/><path class="cls-3" d="m218.05,244.9c0-11.85,9.64-21.49,21.49-21.49s21.49,9.64,21.49,21.49c0,.32-.01.63-.02.94.49.08.98.17,1.47.25.02-.4.03-.8.03-1.2,0-12.66-10.3-22.97-22.97-22.97s-22.97,10.3-22.97,22.97c0,.43.01.86.04,1.29.49-.09.98-.18,1.47-.27-.02-.34-.03-.68-.03-1.02Z"/><path class="cls-3" d="m218.08,245.92c-.49.08-.98.18-1.47.27.03.5.08.99.13,1.48.48-.09.97-.17,1.46-.26-.06-.49-.1-.99-.13-1.49Z"/><path class="cls-3" d="m260.88,247.32c.49.08.98.16,1.46.25.06-.49.1-.98.13-1.48-.49-.09-.98-.17-1.47-.25-.02.5-.06.99-.12,1.48Z"/><path class="cls-3" d="m80,183.4c7.7,0,14.02,6.01,14.53,13.58h1.49c-.51-8.39-7.5-15.07-16.02-15.07s-15.51,6.67-16.02,15.07h1.49c.51-7.58,6.83-13.58,14.53-13.58Z"/><path class="cls-3" d="m94.57,197.97c0,.17,0,.33-.01.49h1.48c0-.16.01-.33.01-.49,0-.33-.01-.66-.03-.99h-1.49c.02.33.04.66.04.99Z"/><path class="cls-3" d="m63.96,198.47h1.48c0-.16-.01-.33-.01-.49,0-.33.02-.66.04-.99h-1.49c-.02.33-.03.66-.03.99,0,.17,0,.33.01.49Z"/><rect class="cls-3" x="22.21" y="540.52" width="473.68" height="4.45"/><polygon class="cls-3" points="362.53 512.36 362.53 512.42 362.61 512.36 362.53 512.36"/><polygon class="cls-3" points="482.34 512.36 365.21 512.36 363.2 513.76 362.53 512.79 362.53 516.81 484.93 516.81 484.93 512.92 484.36 513.76 482.34 512.36"/><polygon class="cls-3" points="365.11 180.44 482.44 180.44 484.36 179.14 484.93 179.98 484.93 175.99 362.53 175.99 362.53 180.12 363.19 179.14 365.11 180.44"/><path class="cls-3" d="m418.15,382.72l-53.71-36.28-1.24.86-.59-.85-.25.37,54.82,37.04c.28-.42.6-.8.96-1.14Z"/><polygon class="cls-3" points="362.35 512.54 362.53 512.79 362.53 512.42 362.35 512.54"/><path class="cls-3" d="m483.46,428.64l-55.66,38.56c.28.41.52.85.71,1.31l57.58-39.89-57.57-38.89c-.18.47-.42.91-.7,1.32l55.64,37.59Z"/><path class="cls-3" d="m418.24,475.63c-.37-.33-.7-.71-.99-1.12l-54.64,37.85h2.6l53.03-36.73Z"/><path class="cls-3" d="m423.78,386.53l-5.63-3.8c-.36.34-.69.72-.96,1.14l5.27,3.56,1.32-.89Z"/><path class="cls-3" d="m423.78,388.31l4.04,2.73c.28-.41.52-.85.7-1.32l-3.42-2.31-1.32.89Z"/><path class="cls-3" d="m423.78,469.99l1.3.9,3.43-2.38c-.18-.47-.42-.91-.71-1.31l-4.03,2.79Z"/><path class="cls-3" d="m418.24,475.63l5.54-3.84-1.3-.9-5.22,3.62c.28.41.62.78.99,1.12Z"/><polygon class="cls-3" points="365.21 512.36 362.61 512.36 362.53 512.42 362.53 512.79 363.2 513.76 365.21 512.36"/><path class="cls-3" d="m418.22,466.14l-54.13-37.5,54.09-36.54c-.37-.34-.69-.72-.97-1.13l-55.74,37.66,55.77,38.63c.28-.41.61-.79.98-1.12Z"/><path class="cls-3" d="m482.34,512.36h2.59v.56l.27-.38-56.7-39.28c-.19.47-.43.9-.71,1.31l54.56,37.79Z"/><path class="cls-3" d="m483.11,346.44l-55.27,37.34c.28.41.51.85.69,1.32l56.66-38.28-.25-.37-.59.85-1.24-.86Z"/><path class="cls-3" d="m423.78,386.53l1.32.89,3.43-2.32c-.18-.47-.41-.91-.69-1.32l-4.07,2.75Z"/><path class="cls-3" d="m418.18,392.1l5.6-3.78-1.32-.89-5.25,3.55c.28.42.61.79.97,1.13Z"/><path class="cls-3" d="m423.78,471.79l4.01,2.78c.29-.4.53-.84.71-1.31l-3.42-2.37-1.3.9Z"/><path class="cls-3" d="m423.78,469.99l-5.56-3.85c-.37.34-.7.71-.98,1.12l5.24,3.63,1.3-.9Z"/><polygon class="cls-3" points="482.34 512.36 484.36 513.76 484.93 512.92 484.93 512.36 482.34 512.36"/><polygon class="cls-3" points="423.78 388.31 425.1 387.42 423.78 386.53 422.45 387.42 423.78 388.31"/><polygon class="cls-3" points="423.78 471.79 425.08 470.89 423.78 469.99 422.47 470.89 423.78 471.79"/><path class="cls-3" d="m364.44,346.44l54.12-37.49c-.39-.31-.75-.67-1.06-1.07l-55.14,38.2.26.37.58-.86,1.25.84Z"/><path class="cls-3" d="m428.35,223.16c-.21.45-.47.88-.78,1.26l55.89,37.76-55.44,38.41c.26.43.47.88.63,1.37l57.44-39.79-57.74-39.01Z"/><path class="cls-3" d="m365.11,180.44h-2.58v-.32l-.17.25,54.61,36.89c.25-.43.54-.83.88-1.19l-52.74-35.63Z"/><path class="cls-3" d="m423.78,221.86l3.8,2.57c.31-.39.57-.81.78-1.26l-3.25-2.2-1.32.89Z"/><path class="cls-3" d="m423.78,220.07l-5.92-4c-.34.36-.63.76-.88,1.19l5.48,3.7,1.32-.89Z"/><path class="cls-3" d="m418.56,308.95l5.22-3.62-1.3-.9-4.98,3.45c.31.4.67.75,1.06,1.07Z"/><path class="cls-3" d="m423.78,303.53l1.3.9,3.58-2.48c-.16-.48-.37-.94-.63-1.37l-4.25,2.94Z"/><polygon class="cls-3" points="365.11 180.44 363.19 179.14 362.53 180.12 362.53 180.44 365.11 180.44"/><polygon class="cls-3" points="364.44 346.44 363.19 345.59 362.61 346.45 363.2 347.3 364.44 346.44"/><path class="cls-3" d="m364.09,262.18l54.41-36.76c-.39-.32-.74-.68-1.04-1.08l-55.99,37.82,55.56,38.49c.25-.43.55-.82.9-1.18l-53.83-37.29Z"/><path class="cls-3" d="m483.11,346.44l1.25-.84.58.86.26-.37-56.87-39.4c-.22.45-.48.87-.79,1.26l55.57,38.5Z"/><path class="cls-3" d="m482.44,180.44l-54.38,36.74c.25.43.47.89.62,1.37l56.52-38.18-.26-.38v.45h-2.49Z"/><path class="cls-3" d="m423.78,220.07l1.32.89,3.58-2.42c-.15-.49-.36-.94-.62-1.37l-4.28,2.89Z"/><path class="cls-3" d="m418.49,225.43l5.28-3.57-1.32-.89-5,3.38c.31.4.65.77,1.04,1.08Z"/><path class="cls-3" d="m423.78,305.33l3.77,2.61c.31-.38.57-.81.79-1.26l-3.25-2.25-1.3.9Z"/><path class="cls-3" d="m423.78,303.53l-5.86-4.06c-.34.36-.64.75-.9,1.18l5.45,3.78,1.3-.9Z"/><polygon class="cls-3" points="482.44 180.44 484.93 180.44 484.93 179.98 484.36 179.14 482.44 180.44"/><polygon class="cls-3" points="483.11 346.44 484.36 347.3 484.94 346.45 484.36 345.59 483.11 346.44"/><polygon class="cls-3" points="423.78 220.07 422.45 220.96 423.78 221.86 425.1 220.96 423.78 220.07"/><polygon class="cls-3" points="423.78 305.33 425.08 304.43 423.78 303.53 422.47 304.43 423.78 305.33"/><polygon class="cls-3" points="484.3 120.18 460.57 120.18 460.57 172.04 387.47 172.04 387.47 120.18 365.23 120.18 416.52 52.51 414.66 52.51 362.25 121.66 385.99 121.66 385.99 173.52 462.06 173.52 462.06 121.66 487.28 121.66 434.87 52.51 433.01 52.51 484.3 120.18"/><polygon class="cls-3" points="424.76 41.63 431.88 51.03 433.74 51.03 424.76 39.18 415.78 51.03 417.64 51.03 424.76 41.63"/><polygon class="cls-3" points="416.52 52.51 417.64 51.03 415.78 51.03 414.66 52.51 416.52 52.51"/><polygon class="cls-3" points="433.01 52.51 434.87 52.51 433.74 51.03 431.88 51.03 433.01 52.51"/><path class="cls-2" d="m153.59,136.48c-.49,23.46-36.06,22.97-55.32,25.44-19.26,2.47-18.28,21.49-18.28,21.49"/><path class="cls-2" d="m239.54,221.93s1.98-28.9-43.47-29.39c-45.44-.49-42.48-56.06-42.48-56.06"/></g></g></svg>