<svg version="1.1" id="Layer_1" xmlns="http://www.w3.org/2000/svg" xmlns:xlink="http://www.w3.org/1999/xlink" x="0px" y="0px"
	 width="100%" viewBox="0 0 400 121" enable-background="new 0 0 400 121" xml:space="preserve">
<path fill="#))0000" opacity="1.000000" stroke="none" 
	d="
M401.000000,75.000000 
	C401.000000,90.660072 401.000000,106.320145 401.000000,121.985168 
	C267.729401,121.990112 134.458771,121.990112 1.094077,121.990112 
	C1.094077,81.746559 1.094077,41.492821 1.094077,1.119544 
	C134.333267,1.119544 267.666626,1.119544 401.000000,1.119544 
	C401.000000,24.415781 401.000000,47.739231 400.612823,71.768692 
	C396.128174,71.271156 393.144867,71.526215 392.848541,76.967514 
	C392.682678,80.013725 391.809143,83.064857 390.902954,86.005455 
	C390.551056,87.147316 389.264862,88.800484 388.346252,88.839035 
	C382.293488,89.093063 376.224945,88.970177 370.050659,88.970177 
	C371.201050,82.963249 372.218445,77.650703 373.258636,72.219177 
	C370.649841,72.219177 369.027557,72.219177 367.126617,72.219177 
	C364.271606,85.773842 361.449005,99.174576 358.580994,112.790916 
	C361.323151,112.790916 362.944183,112.790916 364.800079,112.790916 
	C365.889191,107.733002 366.793671,102.777939 368.116028,97.937027 
	C368.435547,96.767265 370.098602,95.193527 371.208435,95.139809 
	C377.004089,94.859283 382.820557,95.008904 388.929382,95.008904 
	C388.018646,99.356415 387.253418,103.318420 386.348907,107.248367 
	C385.231598,112.103004 386.305939,113.212723 391.675079,112.478752 
	C394.137360,100.378143 396.584534,88.253563 399.138947,76.151596 
	C399.242950,75.658745 400.356689,75.379013 401.000000,75.000000 
M158.991104,25.279436 
	C159.327026,23.712833 159.662949,22.146231 160.250702,19.405201 
	C156.107315,20.450136 152.650482,21.321928 149.193649,22.193722 
	C149.311096,21.811268 149.428543,21.428812 149.545990,21.046358 
	C147.589828,20.612043 145.633667,20.177729 143.470428,19.697439 
	C141.230042,30.336782 139.127991,40.319180 136.985519,50.493584 
	C141.044632,51.669441 143.879242,51.360020 144.080048,46.282799 
	C144.143280,44.684158 144.760590,43.115150 145.013443,41.515064 
	C146.989792,29.008469 151.834549,26.181667 159.666611,26.573381 
	C158.744232,28.498402 157.536545,30.341553 156.955994,32.364666 
	C155.535492,37.314831 154.567093,42.410652 158.351334,46.818359 
	C164.924637,54.474659 178.652924,52.158836 183.558884,41.203056 
	C180.596695,41.897644 178.551727,42.150883 176.692032,42.877991 
	C174.895203,43.580521 173.389511,45.054688 171.580719,45.694572 
	C166.197006,47.599121 161.953766,44.065525 162.538391,37.999283 
	C169.137283,37.999283 175.777390,38.164001 182.397705,37.875313 
	C183.918900,37.808975 186.247513,36.499981 186.706802,35.223816 
	C188.818222,29.357134 183.868637,20.982594 177.745819,20.119755 
	C172.307770,19.353416 167.019409,19.943521 162.821213,24.325716 
	C161.905029,25.282057 160.248932,25.529575 158.991104,25.279436 
M362.700165,49.694241 
	C362.828217,49.819828 362.956268,49.945415 362.995819,50.794308 
	C358.572937,59.803947 352.382904,60.258751 343.606323,52.313908 
	C342.321381,53.361267 341.042938,54.403324 339.769104,55.441628 
	C342.479614,62.103630 347.585480,63.275997 353.566376,63.021755 
	C359.990356,62.748672 367.435730,58.500015 368.798187,53.183079 
	C371.564087,42.389286 373.761627,31.449837 376.271088,20.222876 
	C373.823944,20.222876 372.052856,20.222876 370.308472,20.222876 
	C370.085541,21.410679 369.894867,22.426657 369.668793,23.631163 
	C361.831055,16.521933 350.835571,20.377457 346.326324,27.421253 
	C341.933777,34.282761 341.333923,44.018112 346.630157,48.283463 
	C351.849213,52.486649 356.944550,51.286335 362.700165,49.694241 
M228.925385,82.122437 
	C229.011948,80.854774 229.098511,79.587105 229.206848,78.000389 
	C235.372742,78.000389 241.184891,77.813530 246.978378,78.061951 
	C251.294037,78.247002 252.818741,76.643990 251.624359,72.249092 
	C242.574356,72.249092 233.490891,72.249092 224.440857,72.249092 
	C221.582199,85.797272 218.766983,99.139542 215.963242,112.427483 
	C216.559738,112.672745 216.864807,112.906914 217.170929,112.908295 
	C226.992432,112.952675 236.817368,112.836838 246.633835,113.074249 
	C250.086029,113.157738 252.307816,112.130821 253.574936,108.909409 
	C256.001373,102.740761 260.127716,100.103165 267.140289,100.833038 
	C274.388489,101.587440 275.079071,100.942902 275.735779,108.033966 
	C276.272064,113.824982 278.924774,113.477341 283.229858,112.422760 
	C280.390106,98.839684 277.602051,85.503769 274.470764,70.526253 
	C271.563751,72.417946 269.033478,73.347694 267.607117,75.150734 
	C265.096710,78.324120 263.298126,82.054420 261.135162,85.510025 
	C256.078308,93.589058 250.982208,101.643509 246.447968,108.841232 
	C238.834442,104.948174 231.144073,108.476669 223.783936,106.350594 
	C224.186981,104.283951 224.921310,102.230286 224.916962,100.178192 
	C224.908386,96.133049 226.559250,94.643799 230.632660,94.926727 
	C235.252243,95.247612 239.911255,95.000793 244.611771,95.000793 
	C245.142120,92.988472 245.587860,91.297218 246.193314,88.999924 
	C242.835419,88.999924 239.886917,88.999931 236.938400,88.999931 
	C233.787979,88.999931 230.637558,88.999924 227.431885,88.999924 
	C227.851776,86.765800 228.213440,84.841568 228.925385,82.122437 
M315.297638,112.982193 
	C315.651550,111.914467 316.557800,110.655800 316.265869,109.811356 
	C314.833649,105.668388 313.082733,101.635597 312.042603,99.050545 
	C315.552277,94.584869 319.405212,91.044609 321.518402,86.664932 
	C324.468964,80.549652 319.562653,72.268112 313.499420,72.053375 
	C307.205078,71.830444 300.896698,72.003716 294.348755,72.003716 
	C291.464233,85.661469 288.633362,99.065346 285.789337,112.531372 
	C292.117432,113.237228 292.117432,113.237228 293.011536,107.806480 
	C294.503387,98.745232 294.503448,98.742592 303.752655,99.064758 
	C304.065796,99.075668 304.373108,99.253700 304.842621,99.405342 
	C306.381195,102.889336 307.682007,106.639206 309.675537,109.975113 
	C310.539948,111.421547 312.831299,112.015221 315.297638,112.982193 
M115.910225,112.899513 
	C119.783195,113.609329 122.227448,112.675110 122.537529,108.109520 
	C122.741821,105.101639 123.744858,102.148010 124.368256,99.271561 
	C133.489853,98.604141 133.487274,98.605354 137.043365,106.182838 
	C137.460510,107.071739 138.171051,107.897133 138.326187,108.822281 
	C139.096390,113.415619 142.017014,113.596619 146.533310,112.441177 
	C144.598526,107.393524 142.733963,102.529114 141.401413,99.052628 
	C144.755630,95.079201 148.314178,92.318527 149.895416,88.694984 
	C153.450058,80.549194 150.030746,70.827713 139.358582,71.933968 
	C135.406982,72.343590 131.375320,72.079674 127.384125,71.973732 
	C124.681015,71.901985 123.447517,72.550934 122.864685,75.701080 
	C120.588448,88.003944 117.797600,100.211594 115.910225,112.899513 
M178.093475,94.983597 
	C178.705750,93.756927 180.132736,92.033020 179.753448,91.411552 
	C179.055893,90.268646 177.330521,89.197746 175.971649,89.115173 
	C171.411560,88.838051 166.824203,89.009903 162.024918,89.009903 
	C162.931778,84.934036 163.691940,81.517570 164.499954,77.886017 
	C171.781479,77.886017 178.737091,77.886017 185.659866,77.886017 
	C186.185776,75.903381 186.633377,74.216003 187.164124,72.215218 
	C177.607651,72.215218 168.508347,72.215218 159.112610,72.215218 
	C156.291290,85.714684 153.492004,99.108635 150.588928,112.999245 
	C159.433975,112.999245 167.236221,112.850189 175.029022,113.057137 
	C179.451797,113.174599 180.383774,111.120010 179.702759,106.918663 
	C172.433319,106.918663 165.356003,106.918663 158.183884,106.918663 
	C161.083633,95.001068 161.083633,95.001167 172.672165,95.000526 
	C174.169250,95.000450 175.666321,94.998802 178.093475,94.983597 
M261.172455,50.379417 
	C265.681519,52.088058 267.888489,50.777439 268.109802,45.714108 
	C268.235260,42.843502 269.341675,40.017193 269.993073,37.167900 
	C272.011963,28.336958 276.483765,25.251158 286.100555,26.505171 
	C285.052979,31.886274 283.981537,37.242149 282.972900,42.609833 
	C281.771454,49.003410 283.833374,51.429527 290.230652,50.951237 
	C292.120880,50.809914 293.969482,50.112312 295.641724,49.715954 
	C295.641724,47.619999 295.641724,45.905468 295.641724,44.451355 
	C293.298340,44.635750 291.282227,44.794395 288.735596,44.994785 
	C289.940186,38.879463 290.867676,33.441299 292.200165,28.104254 
	C292.429962,27.183804 294.388123,26.092850 295.533173,26.109266 
	C300.002319,26.173334 300.194824,23.663046 299.802521,20.288139 
	C297.723755,20.064882 295.953888,19.874796 293.916046,19.655933 
	C294.588562,16.765377 295.207184,14.106359 295.877441,11.225336 
	C293.639191,11.225336 291.546082,11.225336 289.495972,11.225336 
	C288.832977,14.241820 288.216339,17.047329 287.796936,18.955521 
	C283.024078,20.086329 278.946808,21.058723 274.865051,22.011681 
	C274.324188,22.137957 273.643188,22.402500 273.227173,22.197321 
	C271.427795,21.309818 269.702759,20.271549 267.587646,19.084364 
	C265.208984,30.156019 263.127930,39.842430 261.172455,50.379417 
M212.132523,106.318069 
	C216.366394,98.597374 214.186584,92.944519 205.930588,90.461372 
	C203.751968,89.806107 201.325058,89.794670 199.299271,88.863167 
	C197.196960,87.896477 193.105453,87.987534 194.207504,84.313850 
	C194.924866,81.922455 197.165482,79.210976 199.418930,78.213409 
	C204.687561,75.881104 209.558990,77.636368 213.445633,81.826660 
	C218.366150,77.313805 218.289520,75.587456 212.228577,73.189117 
	C205.846024,70.663506 199.098801,71.029541 193.229080,74.520432 
	C188.799133,77.155029 186.458496,81.909531 187.117630,87.199440 
	C187.711365,91.964371 191.950562,93.242088 195.898529,94.444550 
	C198.383240,95.201324 200.998413,95.698334 203.300552,96.829758 
	C204.984390,97.657303 207.668564,99.752075 207.432312,100.539955 
	C206.820557,102.579994 205.198944,105.087936 203.342285,105.846024 
	C196.520660,108.631340 190.197250,107.139839 185.017090,101.881554 
	C180.720215,105.833237 180.886688,107.577774 185.519638,110.140099 
	C194.910370,115.333801 204.285263,114.169327 212.132523,106.318069 
M329.143066,110.617569 
	C339.031555,115.298691 348.067474,113.173096 355.870728,104.330200 
	C353.680664,99.144897 353.680664,99.144905 349.552887,102.935028 
	C344.906830,107.201035 337.859070,108.289307 333.864410,105.451027 
	C329.453430,102.316956 328.059418,97.682350 329.226135,92.951973 
	C331.180450,85.028130 335.712250,79.027596 344.578918,77.742683 
	C350.192108,76.929237 353.448578,80.004944 356.080811,86.176559 
	C357.824402,83.419075 360.138824,80.709320 359.743561,80.228859 
	C357.264435,77.215462 354.547882,73.110313 351.223358,72.343796 
	C343.994202,70.677002 337.034851,72.670113 331.139862,77.920944 
	C320.578827,87.327957 320.347595,104.180458 329.143066,110.617569 
M255.065247,21.017397 
	C248.109970,18.480911 241.960098,20.312117 236.138611,24.232611 
	C236.845551,25.946793 237.446762,27.404617 238.047989,28.862442 
	C238.115936,28.331640 238.183884,27.800838 238.251831,27.270035 
	C242.540405,26.733627 246.840469,25.829239 251.108170,25.962284 
	C251.992523,25.989853 252.756744,29.870499 253.431305,31.602882 
	C247.854507,32.126194 243.050629,31.975056 238.593079,33.144295 
	C232.732605,34.681534 229.718201,40.079090 231.098969,45.620525 
	C232.411179,50.886745 236.739380,51.486862 241.220856,50.944206 
	C244.401138,50.559113 247.518692,49.655888 249.861282,49.155457 
	C252.216827,49.973812 254.246994,50.679127 256.496155,51.460522 
	C257.424561,44.445133 257.673492,38.138191 259.233337,32.174122 
	C260.487579,27.378523 259.024292,24.293528 255.065247,21.017397 
M333.999329,31.464762 
	C332.745026,37.817757 331.490692,44.170750 330.204102,50.687180 
	C334.012238,51.304821 336.872711,51.802887 337.244812,46.180542 
	C337.616364,40.566414 339.538635,35.053448 340.798126,29.500000 
	C341.961090,24.372337 338.581848,19.807623 333.315369,20.099287 
	C329.700958,20.299456 326.138275,21.432848 324.247253,21.810566 
	C320.853394,20.874706 318.686646,20.277229 316.521454,19.680178 
	C314.227692,30.626741 312.140442,40.587788 310.036072,50.630543 
	C314.399384,51.498695 317.299866,51.433689 317.199890,45.976036 
	C317.141693,42.799564 318.373535,39.598335 319.033844,36.410091 
	C320.006226,31.714594 322.911163,28.445353 327.097198,26.503492 
	C331.251526,24.576334 333.555267,26.101385 333.999329,31.464762 
M189.869476,42.974712 
	C188.111984,43.743702 186.354507,44.512691 184.314682,45.405216 
	C189.572296,51.077515 200.813309,52.979980 205.909164,49.432068 
	C209.417038,46.989761 212.537506,43.317169 210.721359,39.011250 
	C209.631744,36.427841 205.978989,34.800514 203.264008,33.081863 
	C201.961411,32.257294 200.114273,32.348259 198.597824,31.794415 
	C195.683044,30.729885 195.077637,29.154375 197.626160,26.853941 
	C201.273239,23.561897 204.684387,24.869520 208.443726,26.764614 
	C209.659531,27.377510 211.680618,26.392950 213.333344,26.139118 
	C213.119476,24.866234 213.365326,22.979242 212.617599,22.419500 
	C207.525986,18.607948 196.544266,18.688480 191.897812,24.614885 
	C188.017715,29.563843 189.496552,34.993771 195.414688,36.974182 
	C197.561981,37.692749 199.794006,38.174801 201.902863,38.984810 
	C203.005386,39.408279 204.810699,40.408489 204.747131,40.973694 
	C204.603012,42.254704 203.793716,43.943760 202.730820,44.553761 
	C198.455780,47.007233 194.266785,46.782814 189.869476,42.974712 
M221.645447,50.999718 
	C224.425583,50.479229 227.205704,49.958744 230.336334,49.372643 
	C229.465469,46.975155 228.936478,45.518826 228.577026,44.529251 
	C226.185013,44.678703 224.186890,44.803547 221.659988,44.961426 
	C222.883026,39.289913 223.744049,34.321983 225.125717,29.503342 
	C225.523666,28.115440 227.415253,26.183908 228.632645,26.176205 
	C233.170502,26.147491 233.464371,23.843575 232.631165,20.225979 
	C230.789963,20.058542 229.016327,19.897251 227.173691,19.729685 
	C227.737411,16.857044 228.262558,14.181018 228.818665,11.347203 
	C225.079788,10.590410 222.004669,10.319419 221.572037,15.624806 
	C221.409088,17.623030 221.330780,20.860586 217.463959,20.486473 
	C217.276398,20.468328 216.273209,25.255041 216.480103,25.324308 
	C220.115295,26.541298 218.718491,28.698793 218.139236,31.135319 
	C217.123917,35.405918 216.798386,39.837418 215.852753,44.128544 
	C214.894943,48.475014 216.659042,50.503201 221.645447,50.999718 
M300.605133,50.996021 
	C303.317505,51.249226 304.608826,50.465450 305.161102,47.327579 
	C306.749481,38.303047 308.916077,29.380291 310.849304,20.446152 
	C306.401886,19.180645 304.215820,20.236975 303.424713,24.896406 
	C302.012634,33.212933 299.918304,41.412895 298.218170,49.683998 
	C298.153717,49.997437 299.224762,50.544277 300.605133,50.996021 
M306.003143,13.647099 
	C305.627838,18.850739 309.241211,16.477057 311.719666,16.969091 
	C312.189758,14.181307 312.595551,11.774884 312.998077,9.387827 
	C309.236053,8.616625 306.436432,8.546487 306.003143,13.647099 
z"/>
<path fill="#0C7BDA" opacity="1.000000" stroke="none" 
	d="
M401.000000,74.625000 
	C400.356689,75.379013 399.242950,75.658745 399.138947,76.151596 
	C396.584534,88.253563 394.137360,100.378143 391.675079,112.478752 
	C386.305939,113.212723 385.231598,112.103004 386.348907,107.248367 
	C387.253418,103.318420 388.018646,99.356415 388.929382,95.008904 
	C382.820557,95.008904 377.004089,94.859283 371.208435,95.139809 
	C370.098602,95.193527 368.435547,96.767265 368.116028,97.937027 
	C366.793671,102.777939 365.889191,107.733002 364.800079,112.790916 
	C362.944183,112.790916 361.323151,112.790916 358.580994,112.790916 
	C361.449005,99.174576 364.271606,85.773842 367.126617,72.219177 
	C369.027557,72.219177 370.649841,72.219177 373.258636,72.219177 
	C372.218445,77.650703 371.201050,82.963249 370.050659,88.970177 
	C376.224945,88.970177 382.293488,89.093063 388.346252,88.839035 
	C389.264862,88.800484 390.551056,87.147316 390.902954,86.005455 
	C391.809143,83.064857 392.682678,80.013725 392.848541,76.967514 
	C393.144867,71.526215 396.128174,71.271156 400.612823,72.237350 
	C401.000000,72.750000 401.000000,73.500000 401.000000,74.625000 
z"/>
<path fill="#0C7BDA" opacity="1.000000" stroke="none" 
	d="
M228.750244,82.519882 
	C228.213440,84.841568 227.851776,86.765800 227.431885,88.999924 
	C230.637558,88.999924 233.787979,88.999931 236.938400,88.999931 
	C239.886917,88.999931 242.835419,88.999924 246.193314,88.999924 
	C245.587860,91.297218 245.142120,92.988472 244.611771,95.000793 
	C239.911255,95.000793 235.252243,95.247612 230.632660,94.926727 
	C226.559250,94.643799 224.908386,96.133049 224.916962,100.178192 
	C224.921310,102.230286 224.186981,104.283951 223.783936,106.350594 
	C231.144073,108.476669 238.834442,104.948174 246.447968,108.841232 
	C250.982208,101.643509 256.078308,93.589058 261.135162,85.510025 
	C263.298126,82.054420 265.096710,78.324120 267.607117,75.150734 
	C269.033478,73.347694 271.563751,72.417946 274.470764,70.526253 
	C277.602051,85.503769 280.390106,98.839684 283.229858,112.422760 
	C278.924774,113.477341 276.272064,113.824982 275.735779,108.033966 
	C275.079071,100.942902 274.388489,101.587440 267.140289,100.833038 
	C260.127716,100.103165 256.001373,102.740761 253.574936,108.909409 
	C252.307816,112.130821 250.086029,113.157738 246.633835,113.074249 
	C236.817368,112.836838 226.992432,112.952675 217.170929,112.908295 
	C216.864807,112.906914 216.559738,112.672745 215.963242,112.427483 
	C218.766983,99.139542 221.582199,85.797272 224.440857,72.249092 
	C233.490891,72.249092 242.574356,72.249092 251.624359,72.249092 
	C252.818741,76.643990 251.294037,78.247002 246.978378,78.061951 
	C241.184891,77.813530 235.372742,78.000389 229.206848,78.000389 
	C229.098511,79.587105 229.011948,80.854774 228.750244,82.519882 
M270.806183,81.834496 
	C267.903381,85.959320 265.000549,90.084145 261.758850,94.690521 
	C266.096405,94.690521 269.447723,94.690521 273.328949,94.690521 
	C272.492340,90.365242 271.731934,86.433807 270.806183,81.834496 
z"/>
<path fill="#0C7BDA" opacity="1.000000" stroke="none" 
	d="
M362.318756,49.314713 
	C356.944550,51.286335 351.849213,52.486649 346.630157,48.283463 
	C341.333923,44.018112 341.933777,34.282761 346.326324,27.421253 
	C350.835571,20.377457 361.831055,16.521933 369.668793,23.631163 
	C369.894867,22.426657 370.085541,21.410679 370.308472,20.222876 
	C372.052856,20.222876 373.823944,20.222876 376.271088,20.222876 
	C373.761627,31.449837 371.564087,42.389286 368.798187,53.183079 
	C367.435730,58.500015 359.990356,62.748672 353.566376,63.021755 
	C347.585480,63.275997 342.479614,62.103630 339.769104,55.441628 
	C341.042938,54.403324 342.321381,53.361267 343.606323,52.313908 
	C352.382904,60.258751 358.572937,59.803947 363.304840,50.315010 
	C363.660675,49.389099 363.707489,48.942490 363.754303,48.495872 
	C363.275787,48.768814 362.797272,49.041763 362.318756,49.314713 
M350.397491,33.111897 
	C347.069702,38.788940 349.691864,44.288498 354.370819,45.614079 
	C359.209259,46.984844 362.897644,43.871548 364.922913,40.214550 
	C366.783722,36.854515 369.159546,32.629414 366.000610,28.561106 
	C361.731506,23.062984 354.389465,25.031963 350.397491,33.111897 
z"/>
<path fill="#0C7BDA" opacity="1.000000" stroke="none" 
	d="
M314.886078,112.989212 
	C312.831299,112.015221 310.539948,111.421547 309.675537,109.975113 
	C307.682007,106.639206 306.381195,102.889336 304.842621,99.405342 
	C304.373108,99.253700 304.065796,99.075668 303.752655,99.064758 
	C294.503448,98.742592 294.503387,98.745232 293.011536,107.806480 
	C292.117432,113.237228 292.117432,113.237228 285.789337,112.531372 
	C288.633362,99.065346 291.464233,85.661469 294.348755,72.003716 
	C300.896698,72.003716 307.205078,71.830444 313.499420,72.053375 
	C319.562653,72.268112 324.468964,80.549652 321.518402,86.664932 
	C319.405212,91.044609 315.552277,94.584869 312.042603,99.050545 
	C313.082733,101.635597 314.833649,105.668388 316.265869,109.811356 
	C316.557800,110.655800 315.651550,111.914467 314.886078,112.989212 
M299.025482,92.998566 
	C301.010376,92.999031 302.995422,93.015388 304.980133,92.996895 
	C310.311646,92.947220 314.445129,89.747192 315.650085,84.754997 
	C316.376190,81.746910 314.103760,78.227272 311.007141,78.061401 
	C307.091248,77.851654 303.155579,78.010742 299.379761,78.010742 
	C298.457764,82.872841 297.598785,87.165741 296.895813,91.484039 
	C296.827026,91.906372 297.718597,92.485031 299.025482,92.998566 
z"/>
<path fill="#0C7BDA" opacity="1.000000" stroke="none" 
	d="
M115.554138,112.677078 
	C117.797600,100.211594 120.588448,88.003944 122.864685,75.701080 
	C123.447517,72.550934 124.681015,71.901985 127.384125,71.973732 
	C131.375320,72.079674 135.406982,72.343590 139.358582,71.933968 
	C150.030746,70.827713 153.450058,80.549194 149.895416,88.694984 
	C148.314178,92.318527 144.755630,95.079201 141.401413,99.052628 
	C142.733963,102.529114 144.598526,107.393524 146.533310,112.441177 
	C142.017014,113.596619 139.096390,113.415619 138.326187,108.822281 
	C138.171051,107.897133 137.460510,107.071739 137.043365,106.182838 
	C133.487274,98.605354 133.489853,98.604141 124.368256,99.271561 
	C123.744858,102.148010 122.741821,105.101639 122.537529,108.109520 
	C122.227448,112.675110 119.783195,113.609329 115.554138,112.677078 
M128.000336,81.509399 
	C127.292603,85.149506 126.584862,88.789612 125.643066,93.633560 
	C130.891800,92.895699 135.643311,92.985664 139.769302,91.423515 
	C143.507843,90.008072 145.648483,86.167191 144.851852,81.803688 
	C144.021973,77.257980 140.274673,77.916489 136.975510,77.993385 
	C135.144547,78.036064 133.227646,77.674927 131.507523,78.114365 
	C130.213974,78.444824 129.171906,79.759773 128.000336,81.509399 
z"/>
<path fill="#0C7BDA" opacity="1.000000" stroke="none" 
	d="
M177.628448,94.990738 
	C175.666321,94.998802 174.169250,95.000450 172.672165,95.000526 
	C161.083633,95.001167 161.083633,95.001068 158.183884,106.918663 
	C165.356003,106.918663 172.433319,106.918663 179.702759,106.918663 
	C180.383774,111.120010 179.451797,113.174599 175.029022,113.057137 
	C167.236221,112.850189 159.433975,112.999245 150.588928,112.999245 
	C153.492004,99.108635 156.291290,85.714684 159.112610,72.215218 
	C168.508347,72.215218 177.607651,72.215218 187.164124,72.215218 
	C186.633377,74.216003 186.185776,75.903381 185.659866,77.886017 
	C178.737091,77.886017 171.781479,77.886017 164.499954,77.886017 
	C163.691940,81.517570 162.931778,84.934036 162.024918,89.009903 
	C166.824203,89.009903 171.411560,88.838051 175.971649,89.115173 
	C177.330521,89.197746 179.055893,90.268646 179.753448,91.411552 
	C180.132736,92.033020 178.705750,93.756927 177.628448,94.990738 
z"/>
<path fill="#0C7BDA" opacity="1.000000" stroke="none" 
	d="
M261.109680,49.954132 
	C263.127930,39.842430 265.208984,30.156019 267.587646,19.084364 
	C269.702759,20.271549 271.427795,21.309818 273.227173,22.197321 
	C273.643188,22.402500 274.324188,22.137957 274.865051,22.011681 
	C278.946808,21.058723 283.024078,20.086329 287.796936,18.955521 
	C288.216339,17.047329 288.832977,14.241820 289.495972,11.225336 
	C291.546082,11.225336 293.639191,11.225336 295.877441,11.225336 
	C295.207184,14.106359 294.588562,16.765377 293.916046,19.655933 
	C295.953888,19.874796 297.723755,20.064882 299.802521,20.288139 
	C300.194824,23.663046 300.002319,26.173334 295.533173,26.109266 
	C294.388123,26.092850 292.429962,27.183804 292.200165,28.104254 
	C290.867676,33.441299 289.940186,38.879463 288.735596,44.994785 
	C291.282227,44.794395 293.298340,44.635750 295.641724,44.451355 
	C295.641724,45.905468 295.641724,47.619999 295.641724,49.715954 
	C293.969482,50.112312 292.120880,50.809914 290.230652,50.951237 
	C283.833374,51.429527 281.771454,49.003410 282.972900,42.609833 
	C283.981537,37.242149 285.052979,31.886274 286.100555,26.505171 
	C276.483765,25.251158 272.011963,28.336958 269.993073,37.167900 
	C269.341675,40.017193 268.235260,42.843502 268.109802,45.714108 
	C267.888489,50.777439 265.681519,52.088058 261.109680,49.954132 
z"/>
<path fill="#0C7BDA" opacity="1.000000" stroke="none" 
	d="
M211.881042,106.607513 
	C204.285263,114.169327 194.910370,115.333801 185.519638,110.140099 
	C180.886688,107.577774 180.720215,105.833237 185.017090,101.881554 
	C190.197250,107.139839 196.520660,108.631340 203.342285,105.846024 
	C205.198944,105.087936 206.820557,102.579994 207.432312,100.539955 
	C207.668564,99.752075 204.984390,97.657303 203.300552,96.829758 
	C200.998413,95.698334 198.383240,95.201324 195.898529,94.444550 
	C191.950562,93.242088 187.711365,91.964371 187.117630,87.199440 
	C186.458496,81.909531 188.799133,77.155029 193.229080,74.520432 
	C199.098801,71.029541 205.846024,70.663506 212.228577,73.189117 
	C218.289520,75.587456 218.366150,77.313805 213.445633,81.826660 
	C209.558990,77.636368 204.687561,75.881104 199.418930,78.213409 
	C197.165482,79.210976 194.924866,81.922455 194.207504,84.313850 
	C193.105453,87.987534 197.196960,87.896477 199.299271,88.863167 
	C201.325058,89.794670 203.751968,89.806107 205.930588,90.461372 
	C214.186584,92.944519 216.366394,98.597374 211.881042,106.607513 
z"/>
<path fill="#0C7BDA" opacity="1.000000" stroke="none" 
	d="
M328.873840,110.344360 
	C320.347595,104.180458 320.578827,87.327957 331.139862,77.920944 
	C337.034851,72.670113 343.994202,70.677002 351.223358,72.343796 
	C354.547882,73.110313 357.264435,77.215462 359.743561,80.228859 
	C360.138824,80.709320 357.824402,83.419075 356.080811,86.176559 
	C353.448578,80.004944 350.192108,76.929237 344.578918,77.742683 
	C335.712250,79.027596 331.180450,85.028130 329.226135,92.951973 
	C328.059418,97.682350 329.453430,102.316956 333.864410,105.451027 
	C337.859070,108.289307 344.906830,107.201035 349.552887,102.935028 
	C353.680664,99.144905 353.680664,99.144897 355.870728,104.330200 
	C348.067474,113.173096 339.031555,115.298691 328.873840,110.344360 
z"/>
<path fill="#0C7BDA" opacity="1.000000" stroke="none" 
	d="
M158.933609,26.103542 
	C160.248932,25.529575 161.905029,25.282057 162.821213,24.325716 
	C167.019409,19.943521 172.307770,19.353416 177.745819,20.119755 
	C183.868637,20.982594 188.818222,29.357134 186.706802,35.223816 
	C186.247513,36.499981 183.918900,37.808975 182.397705,37.875313 
	C175.777390,38.164001 169.137283,37.999283 162.538391,37.999283 
	C161.953766,44.065525 166.197006,47.599121 171.580719,45.694572 
	C173.389511,45.054688 174.895203,43.580521 176.692032,42.877991 
	C178.551727,42.150883 180.596695,41.897644 183.558884,41.203056 
	C178.652924,52.158836 164.924637,54.474659 158.351334,46.818359 
	C154.567093,42.410652 155.535492,37.314831 156.955994,32.364666 
	C157.536545,30.341553 158.744232,28.498402 159.339890,26.295280 
	C159.013168,26.017181 158.933609,26.103540 158.933609,26.103542 
M168.549667,26.876740 
	C166.734924,28.577780 164.920197,30.278820 162.350189,32.687813 
	C169.608353,32.687813 175.187119,32.687813 180.812515,32.687813 
	C179.523514,25.508986 175.739532,23.557096 168.549667,26.876740 
z"/>
<path fill="#0C7BDA" opacity="1.000000" stroke="none" 
	d="
M255.436554,21.178761 
	C259.024292,24.293528 260.487579,27.378523 259.233337,32.174122 
	C257.673492,38.138191 257.424561,44.445133 256.496155,51.460522 
	C254.246994,50.679127 252.216827,49.973812 249.861282,49.155457 
	C247.518692,49.655888 244.401138,50.559113 241.220856,50.944206 
	C236.739380,51.486862 232.411179,50.886745 231.098969,45.620525 
	C229.718201,40.079090 232.732605,34.681534 238.593079,33.144295 
	C243.050629,31.975056 247.854507,32.126194 253.431305,31.602882 
	C252.756744,29.870499 251.992523,25.989853 251.108170,25.962284 
	C246.840469,25.829239 242.540405,26.733627 238.251831,27.270035 
	C238.183884,27.800838 238.115936,28.331640 238.047989,28.862442 
	C237.446762,27.404617 236.845551,25.946793 236.138611,24.232611 
	C241.960098,20.312117 248.109970,18.480911 255.436554,21.178761 
M239.774826,38.058262 
	C239.118011,40.133465 238.461197,42.208668 237.804382,44.283867 
	C240.219955,44.675327 242.827698,45.833389 245.008163,45.286854 
	C248.704468,44.360367 251.917648,42.176392 251.908676,36.556755 
	C247.993896,37.010921 244.271347,37.442783 239.774826,38.058262 
z"/>
<path fill="#0C7BDA" opacity="1.000000" stroke="none" 
	d="
M333.999329,31.024815 
	C333.555267,26.101385 331.251526,24.576334 327.097198,26.503492 
	C322.911163,28.445353 320.006226,31.714594 319.033844,36.410091 
	C318.373535,39.598335 317.141693,42.799564 317.199890,45.976036 
	C317.299866,51.433689 314.399384,51.498695 310.036072,50.630543 
	C312.140442,40.587788 314.227692,30.626741 316.521454,19.680178 
	C318.686646,20.277229 320.853394,20.874706 324.247253,21.810566 
	C326.138275,21.432848 329.700958,20.299456 333.315369,20.099287 
	C338.581848,19.807623 341.961090,24.372337 340.798126,29.500000 
	C339.538635,35.053448 337.616364,40.566414 337.244812,46.180542 
	C336.872711,51.802887 334.012238,51.304821 330.204102,50.687180 
	C331.490692,44.170750 332.745026,37.817757 333.999329,31.024815 
z"/>
<path fill="#0C7BDA" opacity="1.000000" stroke="none" 
	d="
M190.226929,43.062748 
	C194.266785,46.782814 198.455780,47.007233 202.730820,44.553761 
	C203.793716,43.943760 204.603012,42.254704 204.747131,40.973694 
	C204.810699,40.408489 203.005386,39.408279 201.902863,38.984810 
	C199.794006,38.174801 197.561981,37.692749 195.414688,36.974182 
	C189.496552,34.993771 188.017715,29.563843 191.897812,24.614885 
	C196.544266,18.688480 207.525986,18.607948 212.617599,22.419500 
	C213.365326,22.979242 213.119476,24.866234 213.333344,26.139118 
	C211.680618,26.392950 209.659531,27.377510 208.443726,26.764614 
	C204.684387,24.869520 201.273239,23.561897 197.626160,26.853941 
	C195.077637,29.154375 195.683044,30.729885 198.597824,31.794415 
	C200.114273,32.348259 201.961411,32.257294 203.264008,33.081863 
	C205.978989,34.800514 209.631744,36.427841 210.721359,39.011250 
	C212.537506,43.317169 209.417038,46.989761 205.909164,49.432068 
	C200.813309,52.979980 189.572296,51.077515 184.314682,45.405216 
	C186.354507,44.512691 188.111984,43.743702 190.226929,43.062748 
z"/>
<path fill="#0C7BDA" opacity="1.000000" stroke="none" 
	d="
M221.222672,50.999138 
	C216.659042,50.503201 214.894943,48.475014 215.852753,44.128544 
	C216.798386,39.837418 217.123917,35.405918 218.139236,31.135319 
	C218.718491,28.698793 220.115295,26.541298 216.480103,25.324308 
	C216.273209,25.255041 217.276398,20.468328 217.463959,20.486473 
	C221.330780,20.860586 221.409088,17.623030 221.572037,15.624806 
	C222.004669,10.319419 225.079788,10.590410 228.818665,11.347203 
	C228.262558,14.181018 227.737411,16.857044 227.173691,19.729685 
	C229.016327,19.897251 230.789963,20.058542 232.631165,20.225979 
	C233.464371,23.843575 233.170502,26.147491 228.632645,26.176205 
	C227.415253,26.183908 225.523666,28.115440 225.125717,29.503342 
	C223.744049,34.321983 222.883026,39.289913 221.659988,44.961426 
	C224.186890,44.803547 226.185013,44.678703 228.577026,44.529251 
	C228.936478,45.518826 229.465469,46.975155 230.336334,49.372643 
	C227.205704,49.958744 224.425583,50.479229 221.222672,50.999138 
z"/>
<path fill="#0C7BDA" opacity="1.000000" stroke="none" 
	d="
M159.056366,25.977428 
	C151.834549,26.181667 146.989792,29.008469 145.013443,41.515064 
	C144.760590,43.115150 144.143280,44.684158 144.080048,46.282799 
	C143.879242,51.360020 141.044632,51.669441 136.985519,50.493584 
	C139.127991,40.319180 141.230042,30.336782 143.470428,19.697439 
	C145.633667,20.177729 147.589828,20.612043 149.545990,21.046358 
	C149.428543,21.428812 149.311096,21.811268 149.193649,22.193722 
	C152.650482,21.321928 156.107315,20.450136 160.250702,19.405201 
	C159.662949,22.146231 159.327026,23.712833 158.962357,25.691488 
	C158.933609,26.103540 159.013168,26.017181 159.056366,25.977428 
z"/>
<path fill="#0C7BDA" opacity="1.000000" stroke="none" 
	d="
M300.185913,50.989189 
	C299.224762,50.544277 298.153717,49.997437 298.218170,49.683998 
	C299.918304,41.412895 302.012634,33.212933 303.424713,24.896406 
	C304.215820,20.236975 306.401886,19.180645 310.849304,20.446152 
	C308.916077,29.380291 306.749481,38.303047 305.161102,47.327579 
	C304.608826,50.465450 303.317505,51.249226 300.185913,50.989189 
z"/>
<path fill="#0C7BDA" opacity="1.000000" stroke="none" 
	d="
M306.007996,13.213221 
	C306.436432,8.546487 309.236053,8.616625 312.998077,9.387827 
	C312.595551,11.774884 312.189758,14.181307 311.719666,16.969091 
	C309.241211,16.477057 305.627838,18.850739 306.007996,13.213221 
z"/>
<path fill="#000000" opacity="1.000000" stroke="none" 
	d="
M270.888855,82.168442 
	C271.731934,86.433807 272.492340,90.365242 273.328949,94.690521 
	C269.447723,94.690521 266.096405,94.690521 261.758850,94.690521 
	C265.000549,90.084145 267.903381,85.959320 270.888855,82.168442 
z"/>
<path fill="#000000" opacity="1.000000" stroke="none" 
	d="
M350.648956,32.806946 
	C354.389465,25.031963 361.731506,23.062984 366.000610,28.561106 
	C369.159546,32.629414 366.783722,36.854515 364.922913,40.214550 
	C362.897644,43.871548 359.209259,46.984844 354.370819,45.614079 
	C349.691864,44.288498 347.069702,38.788940 350.648956,32.806946 
z"/>
<path fill="#000000" opacity="1.000000" stroke="none" 
	d="
M362.509460,49.504475 
	C362.797272,49.041763 363.275787,48.768814 363.754303,48.495872 
	C363.707489,48.942490 363.660675,49.389099 363.349091,49.953358 
	C362.956268,49.945415 362.828217,49.819828 362.509460,49.504475 
z"/>
<path fill="#000000" opacity="1.000000" stroke="none" 
	d="
M298.594940,92.994843 
	C297.718597,92.485031 296.827026,91.906372 296.895813,91.484039 
	C297.598785,87.165741 298.457764,82.872841 299.379761,78.010742 
	C303.155579,78.010742 307.091248,77.851654 311.007141,78.061401 
	C314.103760,78.227272 316.376190,81.746910 315.650085,84.754997 
	C314.445129,89.747192 310.311646,92.947220 304.980133,92.996895 
	C302.995422,93.015388 301.010376,92.999031 298.594940,92.994843 
z"/>
<path fill="#000000" opacity="1.000000" stroke="none" 
	d="
M128.009125,81.072937 
	C129.171906,79.759773 130.213974,78.444824 131.507523,78.114365 
	C133.227646,77.674927 135.144547,78.036064 136.975510,77.993385 
	C140.274673,77.916489 144.021973,77.257980 144.851852,81.803688 
	C145.648483,86.167191 143.507843,90.008072 139.769302,91.423515 
	C135.643311,92.985664 130.891800,92.895699 125.643066,93.633560 
	C126.584862,88.789612 127.292603,85.149506 128.009125,81.072937 
z"/>
<path fill="#000000" opacity="1.000000" stroke="none" 
	d="
M168.839966,26.627573 
	C175.739532,23.557096 179.523514,25.508986 180.812515,32.687813 
	C175.187119,32.687813 169.608353,32.687813 162.350189,32.687813 
	C164.920197,30.278820 166.734924,28.577780 168.839966,26.627573 
z"/>
<path fill="#000000" opacity="1.000000" stroke="none" 
	d="
M240.161819,37.966454 
	C244.271347,37.442783 247.993896,37.010921 251.908676,36.556755 
	C251.917648,42.176392 248.704468,44.360367 245.008163,45.286854 
	C242.827698,45.833389 240.219955,44.675327 237.804382,44.283867 
	C238.461197,42.208668 239.118011,40.133465 240.161819,37.966454 
z"/>
</svg>