<?xml version="1.0" encoding="UTF-8"?><svg id="Layer_2" xmlns="http://www.w3.org/2000/svg" viewBox="0 0 492.47 93.83"><defs><style>.cls-1{fill:#bf1f3e;}.cls-2{fill:#616366;}.cls-3{fill:none;stroke:#bf1f3e;stroke-miterlimit:10;stroke-width:2.18px;}</style></defs><g id="page_4"><g><g><g><path class="cls-2" d="m123.41,80.33c-.53.44-1.06.88-1.59,1.32-.1-.07-.21-.15-.31-.22.29-.64.59-1.27.91-1.97-.37-.06-.63-.11-.94-.16v-1.65c.67-.03,1.3-.06,1.93-.09v2.77Z"/><g><path class="cls-2" d="m84.67.99c1.18,2.22,2.34,4.44,3.55,6.65,1.37,2.5,2.78,4.97,4.16,7.46,2.2,3.94,4.39,7.89,6.58,11.83.62,1.11,1.27,2.21,1.85,3.34.11.21.03.59-.09.82-1.75,3.19-3.52,6.36-5.28,9.54-.96,1.72-1.92,3.44-2.88,5.16-2.26,4.08-4.52,8.16-6.77,12.25-.35.64-.66,1.3-1.05,1.91-.13.2-.44.32-.69.41-.16.06-.36.01-.55.01-19.83,0-39.66-.01-59.48.02-2.66,0-5.23-2.11-5.35-4.9-.06-1.34-.17-2.68-.17-4.03-.01-14.7-.02-29.39,0-44.09,0-2.28.57-4.35,2.7-5.63.47-.28.99-.49,1.49-.74,20.66,0,41.32,0,61.98,0ZM27.87,17.56v26.42h4.27v-19.67c.27.32.39.43.47.57,1.36,2.15,2.72,4.3,4.06,6.46,2.5,4.04,4.99,8.09,7.49,12.13.14.23.41.54.64.54,1.46.05,2.93.03,4.42.03v-26.4h-4.29v19.7c-.59-.97-1.02-1.7-1.47-2.41-3.46-5.58-6.92-11.16-10.41-16.73-.17-.27-.53-.58-.81-.59-1.44-.06-2.88-.03-4.37-.03Zm56.59,26.42v-26.37h-4.47v10.42h-12.28v-10.41h-4.42v26.35h4.45v-11.86h12.28v11.88h4.43Zm-30.41-26.37v26.35h4.4v-26.35h-4.4Z"/><path class="cls-1" d="m94.08.99c1.4.6,2.88,1.11,3.86,2.35.63.8,1.18,1.68,1.68,2.57,2.76,4.97,5.49,9.95,8.25,14.93,1.71,3.09,3.46,6.17,5.15,9.27.15.27.11.78-.05,1.07-1.84,3.37-3.72,6.72-5.58,10.08-1.33,2.41-2.64,4.82-3.97,7.23-1.59,2.88-3.08,5.83-4.82,8.62-1.3,2.08-3.33,3.21-5.86,3.25-1.35.02-2.7,0-4.24,0,.63-1.2,1.19-2.31,1.79-3.4,1.15-2.09,2.32-4.17,3.48-6.26,2.43-4.36,4.86-8.71,7.29-13.07,1.22-2.19,2.45-4.38,3.63-6.59.12-.23.05-.67-.09-.93-1.36-2.53-2.75-5.04-4.14-7.56-1.14-2.06-2.29-4.12-3.43-6.18-2.43-4.36-4.86-8.71-7.29-13.07-.42-.76-.8-1.55-1.2-2.33,1.84,0,3.69,0,5.53,0Z"/><path class="cls-2" d="m0,69.81c1.85-.4,2.59.83,3.35,2.17.85,1.52,1.83,2.96,2.94,4.4v-6.49h1.54v9.33c-1.61.34-1.77.24-2.64-1.22-1.02-1.7-2.09-3.38-3.34-5.01v6.31c-.69.03-1.27.06-1.84.09,0-3.2,0-6.4,0-9.59Z"/><path class="cls-2" d="m22.87,93.79c-.62-.49-1.42-.86-1.81-1.48-.86-1.4-.84-3.02-.11-4.45.73-1.46,2.36-1.91,3.89-1.23.3.13.59.3,1,.52v-3.24h1.54v9.54c-1.23.2-1.29.19-1.65-.39-.4.24-.79.48-1.19.72h-1.66Zm1.11-1.43c1.05,0,1.88-1.03,1.89-2.34,0-1.31-.83-2.36-1.88-2.36-1.09,0-1.9,1.04-1.9,2.44,0,1.43.69,2.26,1.89,2.26Z"/><path class="cls-2" d="m61.61,93.79c-1.07-.57-2.03-1.25-2.24-2.57-.22-1.32-.25-2.6.6-3.74,1.12-1.48,2.98-1.44,4.64-.32,0-.58,0-1.09,0-1.59s0-1.04,0-1.63h1.51v9.52c-1.24.2-1.3.18-1.66-.39-.39.24-.79.48-1.19.72h-1.66Zm2.99-3.82c0-.15.02-.31,0-.46-.1-.82-.85-1.72-1.55-1.84-.82-.13-1.46.21-1.82.92-.47.92-.62,1.94.01,2.83.29.42.85.84,1.33.9,1.29.16,2.05-.79,2.04-2.35Z"/><path class="cls-2" d="m7.56,93.79c-.19-.12-.37-.26-.57-.35-1.05-.45-1.11-1.35-1.05-2.3.06-.83.55-1.24,1.32-1.39.88-.18,1.78-.31,2.64-.56.26-.07.61-.46.6-.69-.01-.27-.38-.74-.58-.74-.6,0-1.48,0-1.74.37-.6.84-1.28.6-2.04.62,0-.95.4-1.55,1.16-1.96,1.27-.68,2.6-.61,3.82-.04.48.22.87,1.02.95,1.61.15,1.05,0,2.14.06,3.22.02.35.29.68.44,1.02.13-.02.25-.04.38-.05-.14.42-.29.84-.43,1.26h-4.98Zm2.86-3.57c-.76.15-1.54.23-2.26.48-.28.1-.57.56-.59.87-.01.23.36.62.64.72,1.47.51,2.55-.48,2.22-2.07Z"/><path class="cls-2" d="m113.45,93.79c-.97-.57-2-1.09-2.23-2.37-.33-1.83-.23-3.73,1.51-4.66,1.9-1.03,4.48-.23,4.91,2.35.22,1.3.15,1.31-1.17,1.31-1.22,0-2.45,0-3.7,0-.26.95.33,1.54.93,1.81.57.26,1.47.44,1.91-.3.52-.87,1.23-.71,1.99-.65-.14,1.04-.69,1.73-1.64,2.11-.23.09-.43.26-.65.39h-1.84Zm2.58-4.42c-.37-1.36-.93-1.84-1.9-1.71-.81.11-1.4.83-1.35,1.71h3.25Z"/><path class="cls-2" d="m46.48,93.79c-1.09-.59-2.18-1.16-2.42-2.56-.51-3,.55-4.79,3.38-4.9,2.57-.11,3.89,1.96,3.55,4.42-.22,1.58-1.21,2.52-2.66,3.05h-1.84Zm2.81-3.81c0-1.79-1.25-2.85-2.6-2.08-.55.32-.95,1.14-1.13,1.81-.38,1.41.8,2.76,2.16,2.64,1.01-.09,1.57-.94,1.57-2.38Z"/><path class="cls-2" d="m54.23,93.79c-.62-.43-1.36-.76-1.85-1.31-1.34-1.5-1.05-4.87,1.04-5.8,2.24-.99,5.23.06,5.23,3.21,0,1.99-.93,3.12-2.58,3.9h-1.84Zm-1.07-3.83s.08.02.11.04c0,.18-.02.37,0,.55.14,1.05.68,1.71,1.48,1.81.99.13,1.68-.19,2.03-1.24.21-.63.25-1.46,0-2.07-.22-.56-.83-1.1-1.4-1.34-.72-.3-1.36.23-1.75.84-.26.41-.33.94-.49,1.41Z"/><path class="cls-2" d="m83.56,93.79c-.25-.12-.51-.23-.76-.35-.86-.41-1.35-1.07-1.41-2.1.78-.07,1.52-.38,1.99.65.27.59,2.11.52,2.5,0,.29-.39-.09-1-.76-1.18-.7-.19-1.4-.34-2.09-.55-1.16-.36-1.52-.91-1.45-2.18.03-.64.83-1.52,1.66-1.57.91-.06,1.85-.02,2.73.17.87.18,1.29.9,1.46,1.84-.86.1-1.54.21-2.24-.52-.29-.31-1.29-.24-1.79,0-.55.28-.09.77.3.92.65.24,1.34.32,2.01.52,1.21.36,2.04.76,1.89,2.22-.09.93-.59,1.57-1.67,1.91-.18.06-.34.16-.51.24h-1.84Z"/><path class="cls-2" d="m101.45,93.79c-1.41-.6-1.73-1.72-1.64-3.15.09-1.34.02-2.7.02-4.12h1.57c0,1.4,0,2.8,0,4.2,0,1.19.36,1.62,1.33,1.63.96,0,1.52-.57,1.52-1.63.01-1.38,0-2.76,0-4.21h1.52v7.11c-.61-.1-1.16-.18-1.7-.27,0-.1.01-.2.02-.3-.33.24-.65.48-.98.72h-1.66Z"/><path class="cls-2" d="m38.91,88.36c1.22.7,1.73,1.86,1.44,3.19-.23,1.07-1.32,1.94-2.75,2-1.71.08-3.43.02-5.2.02v-9.67c1.81,0,3.62-.16,5.4.04,2.21.25,3.08,2.67,1.12,4.42Zm-4.79,3.9c1.18-.09,2.27-.16,3.35-.27.75-.07,1.12-.54,1.14-1.28.02-.74-.3-1.28-1.04-1.37-1.13-.14-2.27-.18-3.44-.27v3.18Zm.02-4.33c1,0,1.92.06,2.82-.02.74-.06,1.3-.57,1.22-1.31-.04-.41-.55-1.04-.92-1.1-1.01-.15-2.05-.05-3.12-.05v2.48Z"/><path class="cls-2" d="m118.41,78.66c-1.49,1.07-3.27.98-4.27-.21-1-1.18-1.15-3.89.03-5.15,1.18-1.27,2.77-1.43,3.86-.62.86-.13,1.46-.22,2.03-.3,0,2.6.05,5.07-.02,7.53-.03,1.17-.81,1.86-1.94,2.07-1.39.25-2.8.45-3.92-.73-.27-.29-.41-.69-.68-1.17.93-.08,1.55-.25,2.21.49.32.36,1.38.29,2.01.1.92-.28.81-1.16.69-2.02Zm.06-2.88c.11-1.72-.97-2.33-1.83-2.19-.83.14-1.51.81-1.58,1.61-.13,1.5.31,2.6,1.19,2.88.25.08.55.07.81.01,1-.23,1.41-.93,1.41-2.32Z"/><path class="cls-2" d="m60.22,79.32h-1.66v-4.12h-4.34v4.09h-1.73v-9.36h1.66v3.53h4.34v-3.54h1.73v9.39Z"/><path class="cls-2" d="m77.38,72.48c.04.3.08.54.12.88.88-1.12,1.96-1.34,3.31-.86v-2.04h1.57v1.92c.52.04.94.06,1.43.1v1.12c-.4.03-.82.05-1.26.08v4.44c.5.03.86.05,1.21.07.26,1.3.15,1.42-1.12,1.36-1.27-.07-1.8-.6-1.8-1.86,0-1.32,0-2.63,0-3.94-2.42-.04-3.22.6-3.22,2.54,0,.74,0,1.48,0,2.21,0,.24,0,.49,0,.8h-1.52v-6.81h1.28Z"/><path class="cls-2" d="m15.94,79.55c-.79-.14-1.65.39-2.1-.34-1.06.12-2.03.3-3.01.32-1.03.02-1.95-.87-1.91-1.82.05-1.11.4-1.83,1.59-2.12.7-.17,1.44-.19,2.13-.41.39-.12.95-.46,1-.77.09-.67-.49-.75-1.07-.78-.72-.04-1.25.12-1.77.7-.25.29-.92.21-1.41.3-.13-1.29.56-2.14,2.05-2.33.84-.11,1.75.08,2.59.28.88.2,1.23.91,1.23,1.79,0,1.08,0,2.15,0,3.23,0,.23.01.54.15.67.56.54.58.52.51,1.27Zm-2.33-3.42c-.62.09-1.24.16-1.85.29-.58.12-1.25.38-1.04,1.08.11.36.74.76,1.18.8,1.19.12,1.91-.85,1.72-2.17Z"/><path class="cls-2" d="m75.48,79.67c-.94-.15-1.65-.27-2.71-.44-.85.38-2.1.59-3.4.05-1.08-.45-.95-1.4-.88-2.27.07-.78.61-1.24,1.35-1.41.73-.17,1.49-.25,2.23-.39.48-.09,1.03-.15.99-.82-.04-.63-.5-.75-1.05-.75-.68,0-1.25.06-1.75.71-.23.3-1,.2-1.57.29.06-1.21.61-1.89,1.61-2.18,1.26-.36,2.54-.42,3.65.39.36.26.63.82.67,1.28.1.97.01,1.96.04,2.95.02.5-.25,1.13.58,1.35.14.04.13.65.22,1.25Zm-2.51-3.51c-.63.09-1.3.08-1.87.3-.41.16-.7.62-1.04.95.36.31.68.81,1.09.9,1.35.28,2.15-.73,1.82-2.15Z"/><path class="cls-2" d="m38.58,74.62c.1-.91.36-1.54,1.1-1.91,1.22-.6,2.44-.63,3.7-.15.86.33,1.22.95,1.22,1.82,0,.92-.01,1.84,0,2.77.01.49-.19,1.06.58,1.27.14.04.13.65.23,1.22-.91-.13-1.67-.24-2.42-.35.01-.11.02-.21.03-.32-1.18.71-2.41.81-3.68.33-1.08-.42-1-1.37-.92-2.25.07-.82.61-1.3,1.4-1.46.74-.15,1.51-.19,2.22-.41.36-.11.87-.46.92-.76.1-.6-.41-.77-.97-.78-.72-.01-1.33-.01-1.82.73-.19.29-1,.17-1.6.25Zm4.38,1.53c-.67.09-1.34.09-1.92.31-.41.16-.71.62-1.05.94.36.32.67.82,1.08.91,1.25.28,2.04-.65,1.89-2.16Z"/><path class="cls-2" d="m67.92,76.38h-4.94c.03.96.47,1.59,1.27,1.89.78.29,1.35-.16,1.95-.66.37-.32.99-.34,1.52-.51.11,1.24-1.09,2.41-2.3,2.45-2.81.09-4.25-1.14-4.12-3.69.13-2.42,1.51-3.81,3.94-3.58,1.74.16,3.17,2.13,2.68,4.12Zm-1.69-1.24c-.19-1.13-.65-1.52-1.65-1.5-.93.02-1.38.46-1.49,1.5h3.14Z"/><path class="cls-2" d="m26.78,79.54c-2.1.32-3.54-1.64-3.48-3.52.07-2.31,1.16-3.78,3.56-3.77,2.25,0,3.54,1.38,3.53,3.8,0,2.18-1.37,3.49-3.61,3.49Zm.22-5.9c-1.25-.02-2.06.83-2.12,2.22-.05,1.21.91,2.45,1.91,2.48.99.03,1.97-1.07,2.02-2.28.06-1.26-.8-2.4-1.81-2.42Z"/><path class="cls-2" d="m13.38,86.5h1.47c.04.27.08.52.12.85,1.09-1.05,2.29-1.37,3.56-.62.43.26.91.85.93,1.31.11,1.8.04,3.61.04,5.47h-1.57c0-1.47.01-2.96,0-4.45-.01-1.04-.8-1.69-1.66-1.33-.75.31-1.22.87-1.2,1.76.03,1.32,0,2.63,0,4.01h-1.71v-7.01Z"/><path class="cls-2" d="m32.97,79.34h-1.69v-6.86c.58.11,1.38-.56,1.61.65,1.08-.92,2.26-1.3,3.5-.51.45.29.92.9.95,1.4.12,1.74.04,3.48.04,5.28h-1.57c0-1.4.06-2.83-.03-4.25-.03-.47-.36-1.21-.7-1.31-.49-.14-1.19.08-1.66.37-.29.18-.42.79-.44,1.21-.05,1.31-.02,2.62-.02,4.02Z"/><path class="cls-2" d="m105.05,79.43c-.62-.1-1.16-.19-1.8-.29-.64.11-1.45.33-2.27.38-1.08.07-2-.72-2.04-1.77-.07-1.74-.02-3.49-.02-5.27h1.57c0,1.33,0,2.67,0,4.01,0,1.15.49,1.83,1.31,1.84,1.01.02,1.54-.61,1.54-1.82,0-1.32,0-2.63,0-4.02h1.7v6.93Z"/><path class="cls-2" d="m75.95,93.52h-1.52v-7.01c.6.1,1.39-.55,1.64.65.78-.68,1.61-.99,2.66-.73,1.09.27,1.77.86,1.82,2.05.06,1.41.02,2.83.02,4.24,0,.24,0,.48,0,.78h-1.57c0-1.16.02-2.3,0-3.43-.01-.54-.01-1.13-.22-1.61-.15-.35-.61-.7-.98-.78-.74-.16-1.3.27-1.61.93-.16.34-.2.76-.2,1.15-.02,1.22,0,2.45,0,3.75Z"/><path class="cls-2" d="m106.34,79.32v-6.87c.6.2,1.46-.62,1.62.69.89-.86,1.85-1.07,2.96-.75.98.28,1.49.96,1.54,1.89.08,1.65.02,3.31.02,5.02h-1.57c0-1.21,0-2.4,0-3.59,0-.33-.06-.66-.13-.98-.13-.57-.24-1.1-1.06-1.11-.86,0-1.44.34-1.64,1.12-.17.66-.17,1.38-.2,2.07-.03.82,0,1.64,0,2.5h-1.53Z"/><path class="cls-2" d="m91.77,79.31v-9.39h1.68v8h4.77v1.39h-6.45Z"/><path class="cls-2" d="m95.97,87.9c-.39-.04-.69-.07-1.04-.1v-1.29c.3-.03.6-.07,1.01-.11v-1.92h1.78v1.9c.45.05.83.09,1.25.14v1.27c-.36.04-.75.07-1.24.12,0,1.29-.07,2.57.05,3.84.03.3.66.54,1.02.81.06-.06.12-.12.18-.18v1.18c-.58,0-1.16.03-1.73,0-.86-.06-1.25-.64-1.27-1.87-.02-1.25,0-2.5,0-3.78Z"/><path class="cls-2" d="m106.54,86.5c.33-.03.63-.05,1.03-.09v-1.93h1.56v1.92c.52.04.94.07,1.43.1v1.3c-.41.03-.86.06-1.39.11,0,1.22-.04,2.41.02,3.6.03.7.33.84,1.42.91v1.16c-.61,0-1.19.04-1.76,0-.81-.06-1.24-.65-1.25-1.7-.01-1.31,0-2.62,0-3.95-.4-.04-.7-.07-1.05-.1v-1.3Z"/><path class="cls-2" d="m91.79,92.42v1.14c-.64,0-1.28.07-1.89-.02-.71-.1-.96-.64-.95-1.34.02-1.41,0-2.82,0-4.29-.44-.04-.82-.08-1.24-.13v-1.27c.37-.04.76-.08,1.21-.12v-1.9h1.6v1.92c.46.03.82.05,1.24.08v1.31c-.39.03-.74.05-1.23.08,0,1.26-.08,2.51.05,3.75.03.35.66.63,1.01.95.07-.06.13-.11.2-.17Z"/><path class="cls-2" d="m17.01,70.45h1.53c.03.64.06,1.27.09,1.94.4.03.76.05,1.18.08v1.11c-.35.03-.71.06-1.21.11,0,1.32-.06,2.66.05,3.98.02.26.69.47,1.17.77-.07.29.46,1.01-.56,1.1-1.4.13-2.2-.34-2.23-1.38-.03-1.13,0-2.27,0-3.4,0-.33,0-.66,0-1.06-.45-.04-.83-.08-1.25-.11v-1.09c.37-.03.75-.07,1.24-.12v-1.93Z"/><path class="cls-2" d="m72.77,93.52h-1.64v-9.58h1.64v9.58Z"/><path class="cls-2" d="m42.89,93.52h-1.46v-9.59h1.46v9.59Z"/><path class="cls-2" d="m46.01,79.32v-9.4h1.49v9.4h-1.49Z"/><path class="cls-2" d="m94.17,86.52v7h-1.46v-7h1.46Z"/><path class="cls-2" d="m20.75,79.29v-6.8h1.46v6.8h-1.46Z"/><path class="cls-2" d="m84.58,81.38c.35-.62.7-1.24,1.09-1.93-.34-.06-.6-.11-.91-.17v-1.61c.59,0,1.18,0,1.77,0,.37,2.23.05,3.53-1.96,3.71Z"/><path class="cls-2" d="m94.18,83.95v1.44h-1.49v-1.44h1.49Z"/><path class="cls-2" d="m22.2,71.41h-1.42v-1.49h1.42v1.49Z"/></g></g><path class="cls-2" d="m265.58,14.57c0,2.57-.48,4.78-1.43,6.64-.95,1.86-2.21,3.39-3.77,4.59-1.56,1.2-3.32,2.08-5.28,2.65-1.96.56-3.95.85-5.96.85h-10.93V0h10.59c2.07,0,4.11.24,6.13.72,2.01.48,3.81,1.28,5.38,2.4,1.57,1.12,2.84,2.61,3.81,4.49.97,1.88,1.45,4.2,1.45,6.95m-7.37,0c0-1.65-.27-3.03-.81-4.12-.54-1.09-1.25-1.96-2.15-2.61-.9-.65-1.92-1.11-3.06-1.39-1.15-.27-2.32-.41-3.54-.41h-3.52v17.14h3.35c1.27,0,2.49-.14,3.66-.43,1.17-.29,2.21-.77,3.1-1.43.9-.66,1.62-1.55,2.15-2.65.54-1.1.81-2.47.81-4.1"/><path class="cls-2" d="m269.59,11.51c1.21-1.16,2.63-2.03,4.24-2.61,1.62-.58,3.26-.87,4.95-.87s3.21.22,4.41.64c1.2.43,2.17,1.09,2.92,1.99.75.9,1.29,2.03,1.64,3.39.34,1.36.52,2.99.52,4.86v10.39h-6.21v-2.19h-.12c-.53.86-1.32,1.52-2.38,1.99-1.06.47-2.21.7-3.46.7-.83,0-1.68-.11-2.57-.33-.88-.22-1.69-.58-2.42-1.08-.73-.5-1.33-1.16-1.8-1.99-.47-.83-.7-1.85-.7-3.06,0-1.49.41-2.69,1.22-3.6.81-.91,1.86-1.61,3.14-2.11,1.28-.5,2.71-.83,4.28-.99,1.57-.17,3.11-.25,4.6-.25v-.33c0-1.02-.36-1.77-1.08-2.26-.72-.48-1.6-.72-2.65-.72-.97,0-1.9.21-2.79.62-.9.41-1.66.91-2.3,1.49l-3.44-3.68Zm12.46,8.82h-.87c-.74,0-1.5.03-2.26.1-.76.07-1.44.2-2.03.4-.59.19-1.08.48-1.47.85-.39.37-.58.86-.58,1.47,0,.39.09.72.27.99.18.27.41.5.68.66.27.16.59.28.95.35.36.07.7.1,1.03.1,1.38,0,2.44-.38,3.16-1.14.73-.76,1.1-1.79,1.1-3.08v-.7Z"/><path class="cls-2" d="m300.26,13.74v7.89c0,.97.19,1.7.56,2.18.37.49,1.04.73,2.01.73.33,0,.68-.03,1.06-.08.37-.05.68-.14.93-.25l.08,4.97c-.47.17-1.06.31-1.78.44-.72.12-1.43.18-2.15.18-1.38,0-2.54-.17-3.48-.52-.94-.35-1.69-.84-2.26-1.5-.56-.65-.97-1.42-1.22-2.32-.25-.9-.37-1.9-.37-3.01v-8.71h-3.31v-5.05h3.27V3.27h6.66v5.42h4.84v5.05h-4.84Z"/><path class="cls-2" d="m308,11.51c1.21-1.16,2.63-2.03,4.24-2.61,1.61-.58,3.26-.87,4.94-.87s3.21.22,4.41.64c1.2.43,2.17,1.09,2.92,1.99.74.9,1.29,2.03,1.63,3.39.34,1.36.52,2.99.52,4.86v10.39h-6.21v-2.19h-.12c-.53.86-1.32,1.52-2.38,1.99-1.06.47-2.21.7-3.46.7-.83,0-1.68-.11-2.57-.33s-1.69-.58-2.42-1.08c-.73-.5-1.33-1.16-1.8-1.99s-.7-1.85-.7-3.06c0-1.49.41-2.69,1.22-3.6.81-.91,1.86-1.61,3.14-2.11,1.28-.5,2.71-.83,4.28-.99,1.57-.17,3.1-.25,4.6-.25v-.33c0-1.02-.36-1.77-1.08-2.26-.72-.48-1.6-.72-2.65-.72-.97,0-1.9.21-2.79.62-.9.41-1.66.91-2.3,1.49l-3.44-3.68Zm12.46,8.82h-.87c-.74,0-1.5.03-2.25.1-.76.07-1.44.2-2.03.4-.59.19-1.08.48-1.47.85-.39.37-.58.86-.58,1.47,0,.39.09.72.27.99.18.27.41.5.68.66.27.16.59.28.95.35.36.07.7.1,1.03.1,1.38,0,2.44-.38,3.17-1.14.73-.76,1.1-1.79,1.1-3.08v-.7Z"/><path class="cls-2" d="m177.91,0h10.1c1.1,0,2.21.13,3.31.37,1.1.25,2.09.66,2.96,1.24.87.58,1.57,1.34,2.11,2.28.54.94.81,2.11.81,3.52,0,1.63-.47,3-1.41,4.1-.94,1.1-2.18,1.86-3.73,2.28v.08c.94.11,1.81.35,2.61.72s1.49.86,2.07,1.47c.58.61,1.03,1.33,1.34,2.15.32.83.48,1.75.48,2.77,0,1.41-.29,2.63-.87,3.68-.58,1.05-1.37,1.91-2.36,2.59-.99.68-2.16,1.19-3.5,1.53-1.34.35-2.77.52-4.28.52h-9.64V0Zm4.1,12.38h5.34c.77,0,1.51-.09,2.21-.27.7-.18,1.32-.45,1.84-.83.52-.37.94-.84,1.24-1.41.3-.56.46-1.25.46-2.05,0-1.57-.58-2.7-1.74-3.37-1.16-.68-2.72-1.02-4.68-1.02h-4.68v8.94Zm0,13.45h5.13c.85,0,1.72-.08,2.59-.23.87-.15,1.65-.42,2.36-.81.7-.39,1.27-.9,1.7-1.55.43-.65.64-1.47.64-2.46,0-1.74-.59-3-1.78-3.77-1.19-.77-2.9-1.16-5.13-1.16h-5.5v9.97Z"/><path class="cls-2" d="m208.83,2.61c0,.72-.25,1.31-.76,1.78-.51.47-1.11.7-1.83.7s-1.31-.24-1.81-.73c-.49-.48-.74-1.07-.74-1.76s.25-1.32.74-1.8c.49-.48,1.09-.72,1.81-.72s1.32.24,1.83.72c.51.48.76,1.08.76,1.8m-.62,26.69h-3.89V9.69h3.89v19.62Z"/><path class="cls-2" d="m234.86,19.45c0,1.52-.27,2.91-.81,4.18-.54,1.27-1.28,2.37-2.23,3.29-.95.93-2.08,1.64-3.37,2.15-1.3.51-2.69.77-4.18.77s-2.88-.26-4.18-.77c-1.3-.51-2.42-1.23-3.35-2.15-.94-.92-1.68-2.02-2.22-3.29-.54-1.27-.81-2.66-.81-4.18s.27-2.9.81-4.16c.54-1.26,1.28-2.34,2.22-3.25.94-.91,2.05-1.62,3.35-2.13,1.3-.51,2.69-.76,4.18-.76s2.88.25,4.18.76c1.3.51,2.42,1.22,3.37,2.13.95.91,1.7,1.99,2.23,3.25.54,1.26.81,2.64.81,4.16m-4.06.02c0-.94-.14-1.83-.44-2.68-.29-.85-.71-1.6-1.27-2.25-.55-.65-1.24-1.16-2.05-1.55-.82-.39-1.75-.58-2.8-.58s-1.99.19-2.8.58c-.82.39-1.5.9-2.05,1.55-.55.65-.97,1.4-1.27,2.25-.29.85-.43,1.75-.43,2.68s.14,1.83.43,2.68c.29.85.71,1.61,1.27,2.27.55.66,1.24,1.18,2.05,1.57s1.75.58,2.8.58,1.99-.19,2.8-.58,1.5-.91,2.05-1.57c.55-.66.98-1.42,1.27-2.27.29-.85.44-1.75.44-2.68"/><line class="cls-3" x1="150.66" x2="150.66" y2="93.17"/><g><polygon class="cls-1" points="245.15 68.59 251.72 68.59 248.43 58.23 245.15 68.59"/><path class="cls-1" d="m177.92,35.93v57.24h290.22l23.35-28.62-23.35-28.62H177.92Zm36.84,46.93c-9.05,0-16.08-6.93-16.08-17.96v-.61c0-10.92,7.13-18.05,16.44-18.05,5.56,0,9.36,2.18,12.24,5.56l-5.87,6.22c-1.52-1.82-3.44-3.34-6.22-3.34-4.15,0-7.23,3.69-7.23,9.71v.2c0,6.32,3.14,9.81,7.23,9.81,3.03,0,4.86-1.62,6.47-3.49l5.76,5.86c-2.88,3.54-6.83,6.07-12.74,6.07m41.32-.61l-2.07-6.37h-11.13l-2.02,6.37h-9.36l12.44-35.6h9.2l12.49,35.6h-9.56Zm36.81-27.21h-8.75v27.21h-9.1v-27.21h-8.75v-8.19h26.6v8.19Zm25.29,27.21l-2.07-6.37h-11.13l-2.02,6.37h-9.36l12.44-35.6h9.2l12.49,35.6h-9.56Zm38.58,0h-23.01v-35.4h9.1v27.21h13.91v8.19Zm19.06-13.35v13.35h-9.1v-13.25l-11.38-22.15h10.06l5.92,12.8,5.97-12.8h9.91l-11.38,22.05Zm40.4,2.73c0,6.88-5.31,11.13-12.9,11.13-5.26,0-10.27-1.62-14.41-5.21l4.85-6.62c2.88,2.38,6.17,3.99,9.61,3.99,2.43,0,3.69-1.06,3.69-2.58v-.05c0-1.42-1.06-2.28-5.21-3.74-6.67-2.28-11.38-4.7-11.38-11.13v-.15c0-6.42,4.9-10.92,12.64-10.92,4.76,0,8.95,1.31,12.64,4.3l-4.6,6.78c-2.43-1.87-5.36-3.24-8.24-3.24-2.07,0-3.24,1.01-3.24,2.33v.05c0,1.57,1.11,2.38,5.61,4.05,6.73,2.17,10.92,4.9,10.92,10.92v.1Zm31.15-16.59h-8.75v27.21h-9.1v-27.21h-8.75v-8.19h26.6v8.19Z"/><polygon class="cls-1" points="307.25 68.59 313.82 68.59 310.53 58.23 307.25 68.59"/><path class="cls-1" d="m177.92,35.93v57.24h290.22l23.35-28.62-23.35-28.62H177.92Zm36.84,46.93c-9.05,0-16.08-6.93-16.08-17.96v-.61c0-10.92,7.13-18.05,16.44-18.05,5.56,0,9.36,2.18,12.24,5.56l-5.87,6.22c-1.52-1.82-3.44-3.34-6.22-3.34-4.15,0-7.23,3.69-7.23,9.71v.2c0,6.32,3.14,9.81,7.23,9.81,3.03,0,4.86-1.62,6.47-3.49l5.76,5.86c-2.88,3.54-6.83,6.07-12.74,6.07m41.32-.61l-2.07-6.37h-11.13l-2.02,6.37h-9.36l12.44-35.6h9.2l12.49,35.6h-9.56Zm36.81-27.21h-8.75v27.21h-9.1v-27.21h-8.75v-8.19h26.6v8.19Zm25.29,27.21l-2.07-6.37h-11.13l-2.02,6.37h-9.36l12.44-35.6h9.2l12.49,35.6h-9.56Zm38.58,0h-23.01v-35.4h9.1v27.21h13.91v8.19Zm19.06-13.35v13.35h-9.1v-13.25l-11.38-22.15h10.06l5.92,12.8,5.97-12.8h9.91l-11.38,22.05Zm40.4,2.73c0,6.88-5.31,11.13-12.9,11.13-5.26,0-10.27-1.62-14.41-5.21l4.85-6.62c2.88,2.38,6.17,3.99,9.61,3.99,2.43,0,3.69-1.06,3.69-2.58v-.05c0-1.42-1.06-2.28-5.21-3.74-6.67-2.28-11.38-4.7-11.38-11.13v-.15c0-6.42,4.9-10.92,12.64-10.92,4.76,0,8.95,1.31,12.64,4.3l-4.6,6.78c-2.43-1.87-5.36-3.24-8.24-3.24-2.07,0-3.24,1.01-3.24,2.33v.05c0,1.57,1.11,2.38,5.61,4.05,6.73,2.17,10.92,4.9,10.92,10.92v.1Zm31.15-16.59h-8.75v27.21h-9.1v-27.21h-8.75v-8.19h26.6v8.19Z"/></g><path class="cls-2" d="m265.58,14.57c0,2.57-.48,4.78-1.43,6.64-.95,1.86-2.21,3.39-3.77,4.59-1.56,1.2-3.32,2.08-5.28,2.65-1.96.56-3.95.85-5.96.85h-10.93V0h10.59c2.07,0,4.11.24,6.13.72,2.01.48,3.81,1.28,5.38,2.4,1.57,1.12,2.84,2.61,3.81,4.49.97,1.88,1.45,4.2,1.45,6.95m-7.37,0c0-1.65-.27-3.03-.81-4.12-.54-1.09-1.25-1.96-2.15-2.61-.9-.65-1.92-1.11-3.06-1.39-1.15-.27-2.32-.41-3.54-.41h-3.52v17.14h3.35c1.27,0,2.49-.14,3.66-.43,1.17-.29,2.21-.77,3.1-1.43.9-.66,1.62-1.55,2.15-2.65.54-1.1.81-2.47.81-4.1"/><path class="cls-2" d="m269.59,11.51c1.21-1.16,2.63-2.03,4.24-2.61,1.62-.58,3.26-.87,4.95-.87s3.21.22,4.41.64c1.2.43,2.17,1.09,2.92,1.99.75.9,1.29,2.03,1.64,3.39.34,1.36.52,2.99.52,4.86v10.39h-6.21v-2.19h-.12c-.53.86-1.32,1.52-2.38,1.99-1.06.47-2.21.7-3.46.7-.83,0-1.68-.11-2.57-.33-.88-.22-1.69-.58-2.42-1.08-.73-.5-1.33-1.16-1.8-1.99-.47-.83-.7-1.85-.7-3.06,0-1.49.41-2.69,1.22-3.6.81-.91,1.86-1.61,3.14-2.11,1.28-.5,2.71-.83,4.28-.99,1.57-.17,3.11-.25,4.6-.25v-.33c0-1.02-.36-1.77-1.08-2.26-.72-.48-1.6-.72-2.65-.72-.97,0-1.9.21-2.79.62-.9.41-1.66.91-2.3,1.49l-3.44-3.68Zm12.46,8.82h-.87c-.74,0-1.5.03-2.26.1-.76.07-1.44.2-2.03.4-.59.19-1.08.48-1.47.85-.39.37-.58.86-.58,1.47,0,.39.09.72.27.99.18.27.41.5.68.66.27.16.59.28.95.35.36.07.7.1,1.03.1,1.38,0,2.44-.38,3.16-1.14.73-.76,1.1-1.79,1.1-3.08v-.7Z"/><path class="cls-2" d="m300.26,13.74v7.89c0,.97.19,1.7.56,2.18.37.49,1.04.73,2.01.73.33,0,.68-.03,1.06-.08.37-.05.68-.14.93-.25l.08,4.97c-.47.17-1.06.31-1.78.44-.72.12-1.43.18-2.15.18-1.38,0-2.54-.17-3.48-.52-.94-.35-1.69-.84-2.26-1.5-.56-.65-.97-1.42-1.22-2.32-.25-.9-.37-1.9-.37-3.01v-8.71h-3.31v-5.05h3.27V3.27h6.66v5.42h4.84v5.05h-4.84Z"/><path class="cls-2" d="m308,11.51c1.21-1.16,2.63-2.03,4.24-2.61,1.61-.58,3.26-.87,4.94-.87s3.21.22,4.41.64c1.2.43,2.17,1.09,2.92,1.99.74.9,1.29,2.03,1.63,3.39.34,1.36.52,2.99.52,4.86v10.39h-6.21v-2.19h-.12c-.53.86-1.32,1.52-2.38,1.99-1.06.47-2.21.7-3.46.7-.83,0-1.68-.11-2.57-.33s-1.69-.58-2.42-1.08c-.73-.5-1.33-1.16-1.8-1.99s-.7-1.85-.7-3.06c0-1.49.41-2.69,1.22-3.6.81-.91,1.86-1.61,3.14-2.11,1.28-.5,2.71-.83,4.28-.99,1.57-.17,3.1-.25,4.6-.25v-.33c0-1.02-.36-1.77-1.08-2.26-.72-.48-1.6-.72-2.65-.72-.97,0-1.9.21-2.79.62-.9.41-1.66.91-2.3,1.49l-3.44-3.68Zm12.46,8.82h-.87c-.74,0-1.5.03-2.25.1-.76.07-1.44.2-2.03.4-.59.19-1.08.48-1.47.85-.39.37-.58.86-.58,1.47,0,.39.09.72.27.99.18.27.41.5.68.66.27.16.59.28.95.35.36.07.7.1,1.03.1,1.38,0,2.44-.38,3.17-1.14.73-.76,1.1-1.79,1.1-3.08v-.7Z"/><path class="cls-2" d="m177.91,0h10.1c1.1,0,2.21.13,3.31.37,1.1.25,2.09.66,2.96,1.24.87.58,1.57,1.34,2.11,2.28.54.94.81,2.11.81,3.52,0,1.63-.47,3-1.41,4.1-.94,1.1-2.18,1.86-3.73,2.28v.08c.94.11,1.81.35,2.61.72s1.49.86,2.07,1.47c.58.61,1.03,1.33,1.34,2.15.32.83.48,1.75.48,2.77,0,1.41-.29,2.63-.87,3.68-.58,1.05-1.37,1.91-2.36,2.59-.99.68-2.16,1.19-3.5,1.53-1.34.35-2.77.52-4.28.52h-9.64V0Zm4.1,12.38h5.34c.77,0,1.51-.09,2.21-.27.7-.18,1.32-.45,1.84-.83.52-.37.94-.84,1.24-1.41.3-.56.46-1.25.46-2.05,0-1.57-.58-2.7-1.74-3.37-1.16-.68-2.72-1.02-4.68-1.02h-4.68v8.94Zm0,13.45h5.13c.85,0,1.72-.08,2.59-.23.87-.15,1.65-.42,2.36-.81.7-.39,1.27-.9,1.7-1.55.43-.65.64-1.47.64-2.46,0-1.74-.59-3-1.78-3.77-1.19-.77-2.9-1.16-5.13-1.16h-5.5v9.97Z"/><path class="cls-2" d="m208.83,2.61c0,.72-.25,1.31-.76,1.78-.51.47-1.11.7-1.83.7s-1.31-.24-1.81-.73c-.49-.48-.74-1.07-.74-1.76s.25-1.32.74-1.8c.49-.48,1.09-.72,1.81-.72s1.32.24,1.83.72c.51.48.76,1.08.76,1.8m-.62,26.69h-3.89V9.69h3.89v19.62Z"/><path class="cls-2" d="m234.86,19.45c0,1.52-.27,2.91-.81,4.18-.54,1.27-1.28,2.37-2.23,3.29-.95.93-2.08,1.64-3.37,2.15-1.3.51-2.69.77-4.18.77s-2.88-.26-4.18-.77c-1.3-.51-2.42-1.23-3.35-2.15-.94-.92-1.68-2.02-2.22-3.29-.54-1.27-.81-2.66-.81-4.18s.27-2.9.81-4.16c.54-1.26,1.28-2.34,2.22-3.25.94-.91,2.05-1.62,3.35-2.13,1.3-.51,2.69-.76,4.18-.76s2.88.25,4.18.76c1.3.51,2.42,1.22,3.37,2.13.95.91,1.7,1.99,2.23,3.25.54,1.26.81,2.64.81,4.16m-4.06.02c0-.94-.14-1.83-.44-2.68-.29-.85-.71-1.6-1.27-2.25-.55-.65-1.24-1.16-2.05-1.55-.82-.39-1.75-.58-2.8-.58s-1.99.19-2.8.58c-.82.39-1.5.9-2.05,1.55-.55.65-.97,1.4-1.27,2.25-.29.85-.43,1.75-.43,2.68s.14,1.83.43,2.68c.29.85.71,1.61,1.27,2.27.55.66,1.24,1.18,2.05,1.57s1.75.58,2.8.58,1.99-.19,2.8-.58,1.5-.91,2.05-1.57c.55-.66.98-1.42,1.27-2.27.29-.85.44-1.75.44-2.68"/><g><polygon class="cls-1" points="245.15 68.59 251.72 68.59 248.43 58.23 245.15 68.59"/><path class="cls-1" d="m177.92,35.93v57.24h290.22l23.35-28.62-23.35-28.62H177.92Zm36.84,46.93c-9.05,0-16.08-6.93-16.08-17.96v-.61c0-10.92,7.13-18.05,16.44-18.05,5.56,0,9.36,2.18,12.24,5.56l-5.87,6.22c-1.52-1.82-3.44-3.34-6.22-3.34-4.15,0-7.23,3.69-7.23,9.71v.2c0,6.32,3.14,9.81,7.23,9.81,3.03,0,4.86-1.62,6.47-3.49l5.76,5.86c-2.88,3.54-6.83,6.07-12.74,6.07m41.32-.61l-2.07-6.37h-11.13l-2.02,6.37h-9.36l12.44-35.6h9.2l12.49,35.6h-9.56Zm36.81-27.21h-8.75v27.21h-9.1v-27.21h-8.75v-8.19h26.6v8.19Zm25.29,27.21l-2.07-6.37h-11.13l-2.02,6.37h-9.36l12.44-35.6h9.2l12.49,35.6h-9.56Zm38.58,0h-23.01v-35.4h9.1v27.21h13.91v8.19Zm19.06-13.35v13.35h-9.1v-13.25l-11.38-22.15h10.06l5.92,12.8,5.97-12.8h9.91l-11.38,22.05Zm40.4,2.73c0,6.88-5.31,11.13-12.9,11.13-5.26,0-10.27-1.62-14.41-5.21l4.85-6.62c2.88,2.38,6.17,3.99,9.61,3.99,2.43,0,3.69-1.06,3.69-2.58v-.05c0-1.42-1.06-2.28-5.21-3.74-6.67-2.28-11.38-4.7-11.38-11.13v-.15c0-6.42,4.9-10.92,12.64-10.92,4.76,0,8.95,1.31,12.64,4.3l-4.6,6.78c-2.43-1.87-5.36-3.24-8.24-3.24-2.07,0-3.24,1.01-3.24,2.33v.05c0,1.57,1.11,2.38,5.61,4.05,6.73,2.17,10.92,4.9,10.92,10.92v.1Zm31.15-16.59h-8.75v27.21h-9.1v-27.21h-8.75v-8.19h26.6v8.19Z"/><polygon class="cls-1" points="307.25 68.59 313.82 68.59 310.53 58.23 307.25 68.59"/><path class="cls-1" d="m177.92,35.93v57.24h290.22l23.35-28.62-23.35-28.62H177.92Zm36.84,46.93c-9.05,0-16.08-6.93-16.08-17.96v-.61c0-10.92,7.13-18.05,16.44-18.05,5.56,0,9.36,2.18,12.24,5.56l-5.87,6.22c-1.52-1.82-3.44-3.34-6.22-3.34-4.15,0-7.23,3.69-7.23,9.71v.2c0,6.32,3.14,9.81,7.23,9.81,3.03,0,4.86-1.62,6.47-3.49l5.76,5.86c-2.88,3.54-6.83,6.07-12.74,6.07m41.32-.61l-2.07-6.37h-11.13l-2.02,6.37h-9.36l12.44-35.6h9.2l12.49,35.6h-9.56Zm36.81-27.21h-8.75v27.21h-9.1v-27.21h-8.75v-8.19h26.6v8.19Zm25.29,27.21l-2.07-6.37h-11.13l-2.02,6.37h-9.36l12.44-35.6h9.2l12.49,35.6h-9.56Zm38.58,0h-23.01v-35.4h9.1v27.21h13.91v8.19Zm19.06-13.35v13.35h-9.1v-13.25l-11.38-22.15h10.06l5.92,12.8,5.97-12.8h9.91l-11.38,22.05Zm40.4,2.73c0,6.88-5.31,11.13-12.9,11.13-5.26,0-10.27-1.62-14.41-5.21l4.85-6.62c2.88,2.38,6.17,3.99,9.61,3.99,2.43,0,3.69-1.06,3.69-2.58v-.05c0-1.42-1.06-2.28-5.21-3.74-6.67-2.28-11.38-4.7-11.38-11.13v-.15c0-6.42,4.9-10.92,12.64-10.92,4.76,0,8.95,1.31,12.64,4.3l-4.6,6.78c-2.43-1.87-5.36-3.24-8.24-3.24-2.07,0-3.24,1.01-3.24,2.33v.05c0,1.57,1.11,2.38,5.61,4.05,6.73,2.17,10.92,4.9,10.92,10.92v.1Zm31.15-16.59h-8.75v27.21h-9.1v-27.21h-8.75v-8.19h26.6v8.19Z"/></g></g><g id="xrushB.tif"><g><path class="cls-2" d="m487.54,93.83h-.47s-.03,0-.04,0c-.11,0-.21-.02-.32-.03-.41-.04-.8-.14-1.19-.28-.81-.3-1.5-.77-2.07-1.41-.78-.88-1.22-1.91-1.31-3.09-.04-.53,0-1.05.13-1.57.29-1.17.9-2.13,1.85-2.87.85-.67,1.82-1.03,2.9-1.09.56-.03,1.1.02,1.64.17,1.35.38,2.38,1.17,3.1,2.37.4.68.63,1.41.69,2.2,0,.06.01.12.02.18v.47s0,.04,0,.06c0,.11-.02.23-.03.34-.05.43-.15.85-.32,1.25-.49,1.23-1.33,2.14-2.51,2.74-.6.3-1.23.48-1.9.53-.06,0-.12.01-.18.02Zm-4.36-5.17c0,2.27,1.84,4.12,4.12,4.12,2.27,0,4.12-1.84,4.12-4.12,0-2.27-1.84-4.12-4.12-4.12-2.27,0-4.12,1.84-4.12,4.12Z"/><path class="cls-2" d="m488.2,88.72c.22.06.4.18.55.35.09.11.18.23.25.35.15.28.29.57.44.85.16.31.31.62.46.93,0,.02.01.03.02.05h-.05c-.46,0-.93,0-1.39,0-.04,0-.05-.01-.07-.04-.22-.46-.45-.91-.68-1.37-.08-.16-.17-.31-.31-.43-.12-.11-.28-.18-.44-.19-.18-.01-.36,0-.54-.01,0,0,0,0-.02,0v2.04h-1.39v-5.41s.03,0,.04,0c.73,0,1.46,0,2.2,0,.36,0,.73.04,1.07.16.25.09.47.22.63.44.12.17.19.36.22.56.04.28.04.56-.04.83-.11.38-.37.63-.72.79-.08.03-.16.06-.24.09Zm-1.77-.48c.24,0,.47,0,.7,0,.08,0,.15-.01.23-.03.22-.05.38-.16.44-.38.05-.19.05-.37,0-.56-.05-.17-.15-.29-.32-.34-.09-.03-.19-.05-.28-.06-.25-.01-.49,0-.74-.01,0,0-.01,0-.02,0v1.38Z"/></g></g></g></g></svg>