<?xml version="1.0" encoding="UTF-8"?><svg id="Layer_2" xmlns="http://www.w3.org/2000/svg" xmlns:xlink="http://www.w3.org/1999/xlink" viewBox="0 0 1297 815.5"><defs><style>.cls-1,.cls-2{fill:none;}.cls-3{clip-path:url(#clippath);}.cls-4{fill:#fff;}.cls-5{fill:#43bb9b;}.cls-6{fill:#43ba9a;}.cls-7{fill:#58595b;}.cls-8{clip-path:url(#clippath-1);}.cls-2{stroke:#43ba9a;stroke-miterlimit:10;stroke-width:2px;}.cls-9{opacity:.32;}.cls-10{opacity:.42;}</style><clipPath id="clippath"><rect class="cls-1" x="50.5" width="1199" height="814"/></clipPath><clipPath id="clippath-1"><path class="cls-1" d="m674.29,88.95l-12.97-35.52.42-.16c2.19-.8,3.33-3.25,2.53-5.45-.8-2.19-3.25-3.33-5.45-2.53l-28.19,10.29c-2.19.8-3.33,3.25-2.53,5.45.8,2.19,3.25,3.33,5.45,2.53l.42-.15,12.97,35.52c-11.08,10.14-15.58,26.33-10.11,41.32,7.24,19.83,29.18,30.03,49.01,22.79,19.83-7.24,30.03-29.18,22.79-49.01-5.47-14.99-19.34-24.47-34.35-25.08Z"/></clipPath></defs><g id="page_4"><line class="cls-2" y1="814.5" x2="1297" y2="814.5"/><g class="cls-3"><g><g><path class="cls-6" d="m975.48,141.5c-10.97-14.99-13.54-32.44-7.24-42.78-.03-.01-.06-.02-.09-.03l-48.73,72.31c-2.91-.61-5.65-.22-7.79,1.34-5.37,3.93-4.85,13.77,1.16,21.97,6.01,8.21,15.23,11.67,20.6,7.74,2.97-2.18,4.14-6.17,3.56-10.69l19.49-7.56c-.67,2.17-.6,4.33.38,6.2,1.9,3.6,6.65,5.05,11.79,4.04l18.33,101.93,4.97-.89-18.47-102.71c.14-.07.29-.13.43-.21.05-.03.1-.06.15-.09l71.34,74.73,3.65-3.49-70.86-74.22c3.91-3.71,5.5-8.55,3.56-12.23-.45-.85-1.06-1.58-1.8-2.18l34.83-13.52c-11.82,3.35-28.09-4.4-39.27-19.67Z"/><path class="cls-6" d="m1021.21,109.37c-10.17-15.53-28.65-25.26-40.87-19.69-1.45.49-2.82,1.14-4.11,1.99-.25.16-.5.32-.74.5-11.72,8.58-10.58,30.07,2.54,47.99,11.18,15.27,27.45,23.02,39.27,19.67l3.28-1.27c.84-.43,1.65-.92,2.43-1.48.24-.18.47-.37.7-.56,7.48-6.09,9.21-17.78,5.48-30.17-1.54-5.87-4.26-11.77-7.99-16.97Zm.29,43.75c-18.79,11.83-47.32-15.85-47.82-39.31-1.22-29,31-27.49,47.21-4.21,10.45,14.03,12.68,35.64.62,43.52Z"/></g><g><g class="cls-8"><path class="cls-6" d="m623.65,165.13c-4.13-8.91,6.52-25.47,12.59-31.66,6.55-6.68,16.03-9.45,24.99-10.71,4.63-.65,17.06,1.37,20.8-1.84,5.76-4.95-.42-9.52-4.87-11.69,4.12-4.79,6.43.57,10.41.85,6.53.46,4.39-2.3,8.08-6.74,7.29-8.77,19.67-5.29,25.94,2.22,31.33,37.52-14.55,74.35-51.39,74.77-18.21.21-32.22-6.46-46.61-15.85.72-.65,1.35-1.38.07.64Z"/></g><path class="cls-6" d="m679.03,77.87l-11.7-32.05c2.32-2.93,3.12-6.97,1.74-10.74-2.1-5.76-8.51-8.74-14.27-6.64l-10.91,3.99c.6,1.75.74,3.67.28,5.6-.1.41-.27.79-.41,1.18l13.22-4.83c2.49-.91,5.26.38,6.17,2.87.91,2.49-.38,5.26-2.87,6.17l-.48.18,14.69,40.24c17,.7,32.72,11.44,38.92,28.41,8.2,22.46-3.36,47.32-25.82,55.52-22.46,8.2-47.32-3.36-55.52-25.82-6.2-16.98-1.1-35.32,11.45-46.8l-14.69-40.24-.48.18c-2.49.91-5.26-.38-6.17-2.87-.91-2.49.38-5.26,2.87-6.17l4.47-1.63c-2.06-1.15-3.63-2.95-4.47-5.09l-2.16.79c-5.76,2.1-8.74,8.51-6.64,14.27,1.38,3.77,4.59,6.34,8.25,7.09l11.7,32.05c-12.51,13.59-16.49,33-10.07,50.59,9.38,25.7,37.92,38.97,63.62,29.59,25.7-9.38,38.97-37.92,29.59-63.62-6.42-17.59-21.97-29.87-40.3-32.2Z"/><path class="cls-6" d="m636.74,25.88c-5.4-1.3-10.83,2.02-12.14,7.41-.5,2.08-.31,4.16.42,6.01l18.86-6.89c-1.08-3.15-3.67-5.7-7.14-6.54Z"/><path class="cls-6" d="m643.75,39.19c.15-.39.31-.76.41-1.18.47-1.93.32-3.85-.28-5.6l-18.86,6.89c.84,2.14,2.41,3.94,4.47,5.09l14.25-5.2Z"/><circle class="cls-6" cx="666.15" cy="110.18" r="7.15"/><circle class="cls-6" cx="675.05" cy="99.02" r="3"/></g><g><path class="cls-6" d="m333.55,201.24l14.95,22.43c.84-2.21,1.83-4.36,2.97-6.45,11.11-20.34,36.11-34.48,63.94-40.66,1.8-.4,3.61-.77,5.43-1.1l-13.9-20.85c-34.6,4.5-56.54,19.64-73.39,46.63Z"/><path class="cls-6" d="m438.09,119.84l-97.58,13.46-50.11,84.97,28.24-3.79,17,25.51c-.17.15-.33.32-.48.51-2.5,3.02-1.36,8.37.5,11.45,1.08,1.79,2.58,3.41,4.1,4.78,1.44,1.3,3.27,2.34,4.53,3.75.02-.04.03-.07.04-.09-1.46-1.23-2.38-3.69-3.19-5.36-1.26-2.6-2.25-5.38-3.9-7.77,1.92.5,2.6,3.32,3.43,4.86,1.68,3.14,4.21,6.52,6.61,9.09,1.93,2.06,4.86,3.27,6.81,5.35-1.77-2.19-1.72-6.02-2.42-8.65-.74-2.78-1.3-5.67-2.31-8.4-1.28-3.49-3.09-7.41-6.41-9.31-1.86-1.06-4-1.77-5.85-1.11l-16.57-24.87,14.86-2-8.15-12.23c13.36-28.99,47.35-51.65,81.44-50.74l6.52,9.79,22.89-39.2Z"/><path class="cls-6" d="m344.32,260.39s.07.06.11.09c-.03-.09-.06-.17-.11-.09Z"/></g><g><path class="cls-7" d="m762.28,549.53c-3.48,0-5.57-.07-6.01-.09l1.99-53.76c.56.02,58.38,1.74,118.79-19.81,76.74-27.38,122.26-78.62,135.3-152.3l52.98,9.38c-16.53,93.37-75.96,160.51-171.87,194.18-58.51,20.54-113.29,22.4-131.18,22.4Z"/><path class="cls-7" d="m450.21,970.96c-21.15-177.08,86.02-320.89,90.59-326.92l45.74,34.66-22.87-17.33,22.9,17.29c-.98,1.3-97.72,131.9-79.38,285.5l-56.98,6.81Z"/><path class="cls-7" d="m837.54,970.96l-56.98-6.81c18.34-153.6-78.4-284.2-79.38-285.5l45.77-34.62c4.57,6.04,111.74,149.84,90.59,326.92Z"/><rect class="cls-5" x="994.99" y="276.14" width="104.47" height="104.47" transform="translate(1912 1004.17) rotate(-159.4)"/><g class="cls-9"><path class="cls-7" d="m752.9,517.59c-2.86-1.99-4.53-3.24-4.88-3.51l32.38-42.96c.45.34,46.89,34.82,108.77,51.7,78.6,21.44,145.25,5.45,198.1-47.53l38.09,38c-66.96,67.13-154.12,88.21-252.05,60.97-59.74-16.62-105.74-46.43-120.41-56.66Z"/></g><g class="cls-9"><rect class="cls-5" x="1060.9" y="446.95" width="104.47" height="104.47" transform="translate(1332.49 1699.24) rotate(-124.51)"/></g><g class="cls-10"><path class="cls-7" d="m542.29,549.53c-17.89,0-72.67-1.86-131.18-22.4-95.91-33.67-155.34-100.82-171.87-194.18l52.98-9.38c13.04,73.68,58.56,124.92,135.3,152.3,60.41,21.55,118.22,19.83,118.79,19.81l1.99,53.76c-.44.02-2.53.09-6.01.09Z"/><rect class="cls-5" x="205.11" y="276.14" width="104.47" height="104.47" transform="translate(-99.07 111.52) rotate(-20.6)"/></g><g><path class="cls-7" d="m497.87,506.91c-11.15,13.98-46.76,55.65-99.31,88.59-86.13,53.99-175.68,58.58-258.98,13.28l25.7-47.26c65.74,35.75,134.18,32.11,203.43-10.81,54.52-33.79,89.22-80.06,89.56-80.52l43.27,31.97c-.26.36-1.51,2.03-3.68,4.75Z"/><rect class="cls-5" x="95.06" y="539.55" width="104.47" height="104.47" transform="translate(-461.05 549.22) rotate(-72.02)"/></g><rect class="cls-5" x="471.43" y="585.36" width="172.66" height="172.66"/><rect class="cls-5" x="856.64" y="325.53" width="86.33" height="86.33"/><rect class="cls-5" x="627.38" y="267.55" width="172.66" height="172.66"/><rect class="cls-5" x="390.24" y="420.26" width="212.57" height="212.57"/><rect class="cls-5" x="706.45" y="440.21" width="172.66" height="172.66"/><rect class="cls-5" x="627.38" y="440.21" width="273.51" height="273.51"/><rect class="cls-5" x="427.21" y="293.82" width="400.33" height="400.33"/><rect class="cls-5" x="370.63" y="359.81" width="40" height="40"/><g><circle class="cls-4" cx="563.3" cy="479.54" r="62.73"/><path class="cls-7" d="m626.38,479.54c-.47,56.81-68.03,85.95-109.09,46-33.27-31.89-22.31-89.98,20.57-107.39,43.1-18.14,89.38,15.63,88.51,61.39h0Zm-.72,0c-.65-53.19-66.99-78.48-104.21-41.84-23.45,21.83-23.85,62.04-.86,84.55,37.74,38.6,105.34,11.85,105.07-42.71h0Z"/></g><path class="cls-7" d="m616.64,437.48c0,.17.05.33.05.51,0,5.26-4.26,9.52-9.52,9.52s-9.52-4.26-9.52-9.52,4.26-9.52,9.52-9.52c.55,0,1.09.07,1.61.16-5.44-4.22-12.24-6.75-19.66-6.75-17.74,0-32.13,14.38-32.13,32.13s14.38,32.13,32.13,32.13,32.13-14.38,32.13-32.13c0-6.05-1.7-11.69-4.61-16.52Z"/><path class="cls-7" d="m493.04,403.18c13.31-37.81,64.22-51.83,98.01-33.21-8.21,1.24-15.78,1.77-23.81,2.74-27.23,3.56-52.09,13.54-74.2,30.47h0Z"/><path class="cls-7" d="m790.41,422.98c-20.47-18.87-44.33-31.07-71.12-37.09-7.91-1.7-15.4-2.91-23.46-4.9,35.34-15.47,84.78,3.13,94.58,41.99h0Z"/><path class="cls-7" d="m528.14,592.22c42.02,19.23,84.57,34.82,129.76,33.89,45.66-.92,84.89-21.57,124.49-45.78-11.29,21.95-28.63,40.7-49.94,54.93-65.79,44.49-160.47,21.01-204.3-43.04h0Z"/><g><circle class="cls-4" cx="731.88" cy="479.54" r="62.73"/><path class="cls-7" d="m669.51,479.54c-.27,54.56,67.34,81.31,105.07,42.7,22.98-22.51,22.59-62.72-.86-84.55-37.23-36.64-103.56-11.35-104.21,41.84h0Zm-.72,0c-.86-45.76,45.42-79.53,88.52-61.39,42.87,17.41,53.84,75.51,20.57,107.39-41.06,39.95-108.62,10.8-109.09-46h0Z"/></g><path class="cls-7" d="m678.54,437.48c0,.17-.05.33-.05.51,0,5.26,4.26,9.52,9.52,9.52,5.26,0,9.52-4.26,9.52-9.52s-4.26-9.52-9.52-9.52c-.55,0-1.09.07-1.61.16,5.44-4.22,12.24-6.75,19.66-6.75,17.74,0,32.13,14.38,32.13,32.13,0,17.74-14.38,32.13-32.13,32.13-17.74,0-32.13-14.38-32.13-32.13,0-6.05,1.7-11.69,4.61-16.52Z"/></g></g></g></g></svg>