<?xml version="1.0" encoding="UTF-8" standalone="no"?>
<!-- Created with Inkscape (http://www.inkscape.org/) -->

<svg
   version="1.1"
   id="svg2"
   width="83.044403"
   height="79.711868"
   viewBox="0 0 83.044403 79.711868"
   sodipodi:docname="scidas_logo.ai"
   xmlns:inkscape="http://www.inkscape.org/namespaces/inkscape"
   xmlns:sodipodi="http://sodipodi.sourceforge.net/DTD/sodipodi-0.dtd"
   xmlns="http://www.w3.org/2000/svg"
   xmlns:svg="http://www.w3.org/2000/svg">
  <defs
     id="defs6">
    <clipPath
       clipPathUnits="userSpaceOnUse"
       id="clipPath16">
      <path
         d="M 0,59.784 H 62.283 V 0 H 0 Z"
         id="path14" />
    </clipPath>
    <radialGradient
       fx="0"
       fy="0"
       cx="0"
       cy="0"
       r="1"
       gradientUnits="userSpaceOnUse"
       gradientTransform="matrix(-23.989078,-19.798214,-19.798214,23.989078,36.493587,45.965763)"
       spreadMethod="pad"
       id="radialGradient54">
      <stop
         style="stop-opacity:1;stop-color:#0077c0"
         offset="0"
         id="stop48" />
      <stop
         style="stop-opacity:1;stop-color:#0077c0"
         offset="0.259447"
         id="stop50" />
      <stop
         style="stop-opacity:1;stop-color:#180445"
         offset="1"
         id="stop52" />
    </radialGradient>
  </defs>
  <sodipodi:namedview
     id="namedview4"
     pagecolor="#ffffff"
     bordercolor="#000000"
     borderopacity="0.25"
     inkscape:showpageshadow="2"
     inkscape:pageopacity="0.0"
     inkscape:pagecheckerboard="0"
     inkscape:deskcolor="#d1d1d1" />
  <g
     id="g8"
     inkscape:groupmode="layer"
     inkscape:label="scidas_logo"
     transform="matrix(1.3333333,0,0,-1.3333333,0,79.711867)">
    <g
       id="g10">
      <g
         id="g12"
         clip-path="url(#clipPath16)">
        <g
           id="g18"
           transform="translate(2e-4,1.6866)">
          <path
             d="m 0,0 c 0.441,-0.609 0.971,-1.043 1.592,-1.3 0.62,-0.258 1.298,-0.387 2.033,-0.387 0.452,0 0.889,0.069 1.309,0.206 0.42,0.136 0.791,0.338 1.111,0.606 0.321,0.268 0.576,0.597 0.765,0.985 0.189,0.389 0.283,0.836 0.283,1.341 0,0.693 -0.141,1.237 -0.426,1.631 C 6.384,3.476 6.029,3.784 5.604,4.004 5.178,4.225 4.715,4.401 4.217,4.532 3.717,4.664 3.255,4.816 2.83,4.989 2.404,5.163 2.049,5.399 1.765,5.699 1.481,5.999 1.339,6.426 1.339,6.984 c 0,0.357 0.069,0.667 0.206,0.93 C 1.681,8.176 1.862,8.395 2.088,8.568 2.314,8.741 2.579,8.873 2.884,8.962 3.189,9.051 3.51,9.096 3.846,9.096 4.33,9.096 4.747,9.004 5.1,8.82 5.451,8.636 5.758,8.36 6.021,7.993 L 6.92,8.639 C 6.542,9.144 6.092,9.503 5.572,9.719 5.052,9.934 4.487,10.042 3.878,10.042 3.405,10.042 2.953,9.976 2.522,9.845 2.091,9.713 1.71,9.519 1.379,9.262 1.048,9.004 0.785,8.684 0.591,8.3 0.396,7.916 0.299,7.478 0.299,6.984 0.299,6.458 0.381,6.017 0.543,5.66 0.707,5.302 0.924,5.005 1.198,4.769 1.471,4.532 1.778,4.34 2.12,4.193 2.461,4.046 2.813,3.915 3.176,3.799 3.539,3.684 3.891,3.568 4.232,3.453 4.574,3.337 4.881,3.198 5.154,3.035 5.427,2.872 5.646,2.665 5.809,2.412 5.972,2.16 6.053,1.839 6.053,1.451 6.053,1.114 5.987,0.812 5.856,0.544 5.725,0.276 5.546,0.047 5.32,-0.142 5.094,-0.331 4.829,-0.478 4.524,-0.583 4.219,-0.688 3.894,-0.741 3.547,-0.741 c -0.558,0 -1.054,0.116 -1.49,0.347 -0.436,0.231 -0.791,0.583 -1.064,1.056 z"
             style="fill:#4a4c4d;fill-opacity:1;fill-rule:nonzero;stroke:none"
             id="path20" />
        </g>
        <g
           id="g22"
           transform="translate(17.088,1.9546)">
          <path
             d="m 0,0 c -0.242,-0.305 -0.528,-0.549 -0.859,-0.733 -0.331,-0.184 -0.696,-0.276 -1.096,-0.276 -0.441,0 -0.84,0.079 -1.198,0.237 -0.357,0.157 -0.662,0.37 -0.914,0.638 -0.252,0.268 -0.444,0.583 -0.576,0.946 -0.13,0.362 -0.196,0.749 -0.196,1.159 0,0.409 0.066,0.796 0.196,1.158 0.132,0.363 0.324,0.678 0.576,0.946 0.252,0.268 0.557,0.481 0.914,0.638 0.358,0.158 0.757,0.237 1.198,0.237 0.378,0 0.731,-0.087 1.057,-0.26 C -0.573,4.517 -0.273,4.277 0,3.973 L 0.757,4.54 C 0.399,4.939 -0.008,5.25 -0.465,5.47 -0.922,5.691 -1.418,5.801 -1.955,5.801 -2.512,5.801 -3.027,5.707 -3.5,5.518 -3.972,5.328 -4.377,5.063 -4.713,4.721 -5.05,4.38 -5.312,3.975 -5.501,3.508 -5.691,3.04 -5.786,2.527 -5.786,1.971 c 0,-0.557 0.095,-1.07 0.285,-1.537 0.189,-0.468 0.451,-0.873 0.788,-1.214 0.336,-0.342 0.741,-0.607 1.213,-0.796 0.473,-0.19 0.988,-0.284 1.545,-0.284 0.526,0 1.014,0.102 1.467,0.307 0.451,0.205 0.856,0.523 1.213,0.954 z"
             style="fill:#4a4c4d;fill-opacity:1;fill-rule:nonzero;stroke:none"
             id="path24" />
        </g>
        <path
           d="m 21.959,0.284 h 0.946 v 7.283 h -0.946 z m -0.031,9.663 c 0.136,-0.136 0.304,-0.205 0.504,-0.205 0.2,0 0.368,0.069 0.504,0.205 0.137,0.137 0.205,0.305 0.205,0.505 0,0.199 -0.068,0.367 -0.205,0.504 -0.136,0.136 -0.304,0.205 -0.504,0.205 -0.2,0 -0.368,-0.069 -0.504,-0.205 -0.137,-0.137 -0.206,-0.305 -0.206,-0.504 0,-0.2 0.069,-0.368 0.206,-0.505 m 6.305,-9.663 h 3.452 c 0.967,0 1.786,0.118 2.459,0.354 0.673,0.237 1.232,0.539 1.679,0.907 0.446,0.368 0.799,0.775 1.056,1.222 0.258,0.446 0.446,0.875 0.567,1.284 0.121,0.41 0.198,0.781 0.229,1.112 0.032,0.331 0.048,0.565 0.048,0.701 0,0.137 -0.016,0.371 -0.048,0.702 -0.031,0.331 -0.108,0.701 -0.229,1.111 -0.121,0.41 -0.309,0.838 -0.567,1.285 -0.257,0.446 -0.61,0.853 -1.056,1.222 -0.447,0.367 -1.006,0.67 -1.679,0.906 -0.673,0.236 -1.492,0.355 -2.459,0.355 h -3.452 z m 1.04,10.215 h 2.144 c 0.736,0 1.424,-0.092 2.065,-0.276 0.641,-0.184 1.198,-0.465 1.671,-0.844 0.473,-0.378 0.846,-0.858 1.12,-1.442 0.273,-0.583 0.409,-1.274 0.409,-2.073 0,-0.799 -0.136,-1.489 -0.409,-2.073 C 35.999,3.208 35.626,2.727 35.153,2.349 34.68,1.971 34.123,1.689 33.482,1.505 32.841,1.321 32.153,1.23 31.417,1.23 h -2.144 z"
           style="fill:#4a4c4d;fill-opacity:1;fill-rule:nonzero;stroke:none"
           id="path26" />
        <g
           id="g28"
           transform="translate(41.1276,0.2837)">
          <path
             d="M 0,0 H 1.088 L 2.349,2.964 H 8.26 L 9.475,0 h 1.166 L 5.943,11.161 H 4.872 Z M 7.882,3.91 H 2.759 l 2.6,6.116 z"
             style="fill:#4a4c4d;fill-opacity:1;fill-rule:nonzero;stroke:none"
             id="path30" />
        </g>
        <g
           id="g32"
           transform="translate(55.1896,1.6866)">
          <path
             d="m 0,0 c 0.441,-0.609 0.972,-1.043 1.592,-1.3 0.62,-0.258 1.298,-0.387 2.033,-0.387 0.453,0 0.889,0.069 1.309,0.206 0.42,0.136 0.791,0.338 1.111,0.606 C 6.366,-0.607 6.621,-0.278 6.81,0.11 7,0.499 7.094,0.946 7.094,1.451 7.094,2.144 6.952,2.688 6.668,3.082 6.384,3.476 6.029,3.784 5.604,4.004 5.178,4.225 4.716,4.401 4.216,4.532 3.717,4.664 3.255,4.816 2.83,4.989 2.403,5.163 2.049,5.399 1.766,5.699 1.482,5.999 1.34,6.426 1.34,6.984 1.34,7.341 1.408,7.651 1.544,7.914 1.681,8.176 1.863,8.395 2.088,8.568 2.314,8.741 2.58,8.873 2.885,8.962 3.189,9.051 3.51,9.096 3.846,9.096 4.33,9.096 4.748,9.004 5.1,8.82 5.452,8.636 5.759,8.36 6.022,7.993 L 6.92,8.639 C 6.542,9.144 6.093,9.503 5.573,9.719 5.052,9.934 4.487,10.042 3.878,10.042 3.405,10.042 2.954,9.976 2.522,9.845 2.091,9.713 1.71,9.519 1.379,9.262 1.048,9.004 0.785,8.684 0.591,8.3 0.396,7.916 0.299,7.478 0.299,6.984 0.299,6.458 0.381,6.017 0.544,5.66 0.707,5.302 0.925,5.005 1.197,4.769 1.472,4.532 1.778,4.34 2.12,4.193 2.461,4.046 2.814,3.915 3.177,3.799 3.539,3.684 3.891,3.568 4.232,3.453 4.574,3.337 4.882,3.198 5.155,3.035 5.428,2.872 5.646,2.665 5.809,2.412 5.971,2.16 6.053,1.839 6.053,1.451 6.053,1.114 5.987,0.812 5.856,0.544 5.725,0.276 5.546,0.047 5.32,-0.142 5.094,-0.331 4.829,-0.478 4.524,-0.583 4.22,-0.688 3.894,-0.741 3.547,-0.741 c -0.558,0 -1.054,0.116 -1.489,0.347 -0.437,0.231 -0.792,0.583 -1.065,1.056 z"
             style="fill:#4a4c4d;fill-opacity:1;fill-rule:nonzero;stroke:none"
             id="path34" />
        </g>
      </g>
    </g>
    <g
       id="g36">
      <g
         id="g38">
        <g
           id="g44">
          <g
             id="g46">
            <path
               d="m 14.354,58.389 c -0.956,-0.894 -0.223,-1.699 1.925,-1.67 v 0 c 0.492,0.004 1.009,0.058 1.527,0.141 v 0 l 1.753,-2.588 C 17.643,53.51 16.551,52.015 17.122,50.243 v 0 c 0.72,-2.239 4.128,-3.915 7.378,-3.384 v 0 c 1.625,0.258 2.84,0.984 3.519,1.913 v 0 c 1.001,-0.193 2.089,-0.434 3.236,-0.736 v 0 c 0.014,-0.466 0.114,-0.965 0.32,-1.491 v 0 c 0.208,-0.536 0.515,-1.047 0.89,-1.524 v 0 c -0.654,-0.628 -1.277,-1.258 -1.872,-1.878 v 0 c -1.47,1.053 -3.361,1.556 -5.233,1.251 v 0 c -2.089,-0.34 -3.69,-1.649 -4.34,-3.388 v 0 l -4.304,1.214 c 0.024,0.204 0.039,0.41 0.039,0.621 v 0 c 0.001,3.201 -3.015,5.746 -6.61,5.69 v 0 C 6.546,48.476 3.727,45.928 3.726,42.841 v 0 c 0.002,-3.088 2.82,-5.635 6.419,-5.691 v 0 c 2.681,-0.041 5.04,1.366 6.065,3.41 v 0 l 4.498,-1.268 c -0.004,-0.493 0.054,-1.001 0.198,-1.518 v 0 c 0.781,-2.84 3.747,-4.856 6.789,-4.792 v 0 l 1.297,-4.124 c -2.436,-0.985 -4.13,-3.413 -4.13,-6.23 v 0 c 0.001,-3.637 2.818,-6.638 6.417,-6.702 v 0 c 3.595,-0.066 6.612,2.931 6.611,6.702 v 0 c 10e-4,3.771 -3.015,6.769 -6.611,6.702 v 0 c -0.204,-0.003 -0.405,-0.02 -0.605,-0.042 v 0 l -1.247,3.963 c 3.047,0.909 4.547,3.853 3.572,6.714 v 0 c -0.252,0.74 -0.643,1.413 -1.133,2.001 v 0 c 0.138,0.144 0.276,0.288 0.417,0.433 v 0 c 0.451,0.464 0.922,0.929 1.404,1.392 v 0 c 1.207,-0.975 2.708,-1.636 4.138,-1.766 v 0 c 0.323,-1.023 0.607,-2.001 0.851,-2.897 v 0 c -2.124,-0.795 -3.305,-3.34 -2.448,-6.218 v 0 c 0.977,-3.326 4.313,-5.573 7.053,-5.001 v 0 c 1.198,0.249 2.08,0.936 2.615,1.879 v 0 l 3.593,-2.075 C 49.348,27.099 49.25,26.48 49.212,25.893 v 0 c -0.163,-2.359 0.677,-3.213 1.718,-2.218 v 0 c 1.058,0.998 1.788,3.585 1.86,5.884 v 0 c 0.065,2.073 -0.289,3.223 -1.083,2.711 v 0 c -0.168,1.47 -0.496,2.762 -0.87,3.852 v 0 c 0.749,0.593 0.648,2.117 -0.028,4.005 v 0 c -0.881,2.456 -2.617,4.871 -4.458,5.245 v 0 c -1.039,0.215 -1.815,-0.34 -2.092,-1.376 v 0 c -0.791,0.576 -1.603,1.107 -2.428,1.594 v 0 c -0.06,0.442 -0.194,0.905 -0.407,1.377 v 0 c -0.317,0.704 -0.785,1.351 -1.336,1.929 v 0 c 0.483,0.301 0.967,0.577 1.452,0.83 v 0 c 1.251,-1.104 2.73,-1.968 3.842,-2.2 v 0 c 1.211,-0.255 1.701,0.221 1.618,1.153 v 0 c 0.578,-0.499 1.138,-1.063 1.607,-1.663 v 0 c 0.097,-0.417 0.248,-0.87 0.479,-1.339 v 0 c 0.77,-1.609 1.967,-2.492 2.322,-2.135 v 0 c 0.366,0.364 -0.203,1.558 -0.832,2.858 v 0 c -0.631,1.298 -1.216,2.484 -1.729,2.421 v 0 c -0.148,-0.017 -0.251,-0.169 -0.309,-0.402 v 0 c -0.633,0.658 -1.327,1.237 -1.972,1.722 v 0 c -0.046,0.103 -0.082,0.201 -0.135,0.309 v 0 c -0.887,1.825 -2.649,3.603 -4.432,4.265 v 0 c -0.42,0.6 -0.858,1.115 -1.275,1.552 v 0 c 0.223,0.052 0.371,0.148 0.393,0.291 v 0 c 0.079,0.51 -1.087,1.136 -2.363,1.81 v 0 c -1.278,0.672 -2.452,1.281 -2.828,0.928 v 0 c -0.369,-0.343 0.474,-1.568 2.055,-2.394 v 0 c 0.495,-0.263 0.975,-0.436 1.411,-0.545 v 0 c 0.393,-0.355 0.848,-0.811 1.304,-1.362 v 0 c -1.54,0.059 -2.177,-1.073 -1.143,-2.913 v 0 c 0.195,-0.353 0.452,-0.703 0.731,-1.048 v 0 c -0.537,-0.297 -1.071,-0.618 -1.598,-0.959 v 0 c -0.832,0.541 -1.761,0.915 -2.705,1.087 v 0 c -0.381,0.726 -0.782,1.43 -1.209,2.112 v 0 c 1.887,0.356 2.447,1.646 1.433,2.995 v 0 c -1.184,1.589 -3.989,2.494 -6.455,2.379 v 0 c -0.925,-0.043 -1.696,-0.197 -2.247,-0.455 v 0 c -1.889,0.7 -3.773,0.965 -5.278,1.04 v 0 c -0.278,0.332 -1.161,0.517 -2.439,0.548 v 0 c -0.093,0.002 -0.186,0.003 -0.28,0.003 v 0 c -2.018,0 -4.236,-0.524 -5.152,-1.395 m 5.261,-1.109 c 0.992,0.308 1.829,0.706 2.296,1.1 v 0 c 1.357,-0.049 3.076,-0.261 4.81,-0.831 v 0 c -0.223,-0.384 -0.187,-0.861 0.175,-1.423 v 0 c 0.847,-1.325 3.429,-2.634 5.854,-2.903 v 0 c 0.438,-0.641 0.856,-1.32 1.253,-2.028 v 0 c -1.049,-0.189 -1.861,-0.716 -2.324,-1.478 v 0 C 30.602,50 29.577,50.232 28.624,50.42 v 0 c 0.027,0.489 -0.066,0.991 -0.304,1.478 v 0 c -1.036,2.13 -4.07,3.22 -6.975,2.829 v 0 z M 46.446,31.474 c 0.122,0.891 0.036,1.876 -0.282,2.876 v 0 c -0.88,2.756 -3.233,4.887 -5.759,5.024 v 0 c -0.233,0.864 -0.499,1.802 -0.806,2.793 v 0 c 0.956,0.262 1.623,0.813 1.975,1.545 v 0 c 0.956,-0.597 1.876,-1.264 2.765,-1.987 v 0 c 0.063,-0.245 0.138,-0.494 0.236,-0.753 v 0 c 1.042,-2.816 3.72,-5.099 5.374,-5.123 v 0 c 0.024,0 0.039,0.008 0.061,0.009 v 0 c 0.427,-1.238 0.791,-2.754 0.907,-4.498 v 0 c -0.326,-0.517 -0.646,-1.183 -0.92,-1.938 v 0 z"
               style="fill:url(#radialGradient54);stroke:none"
               id="path56" />
          </g>
        </g>
      </g>
    </g>
  </g>
</svg>
