<?xml version="1.0" encoding="utf-8"?>
<!-- Generator: Adobe Illustrator 27.1.1, SVG Export Plug-In . SVG Version: 6.00 Build 0)  -->
<svg version="1.1" id="Layer_2_00000152253411123514638480000011508826131935163296_"
	 xmlns="http://www.w3.org/2000/svg" xmlns:xlink="http://www.w3.org/1999/xlink" x="0px" y="0px" viewBox="0 0 176.5 169" width="169" height="176.5"
	 style="enable-background:new 0 0 176.5 169;" xml:space="preserve">
<style type="text/css">
	.st0{fill:#262A62;}
	.st1{fill:#0D62A8;}
</style>
<g id="page_4">
	<g>
		<path class="st0" d="M161.2,165.4c-1.6-1-3.9-0.9-5-2.8c-0.4-0.7-2.2-1-0.9-2.1c0.9-0.8,2.1-1.4,3.3,0c2.2,2.5,5,2.9,8.2,1.9
			c2.6-0.8,3.8-2.4,4-4.9c0.2-2.5-1-4.1-3.4-4.8c-2.5-0.8-5-1.7-7.4-2.9c-3.2-1.5-5.2-5.7-4.4-8.9c1.1-4.2,3.5-6,7.8-6.1
			c1.5,0,3.1-0.1,4.6-0.4c2.2-0.5,3.5,1.9,5,3.2c0.4,0.4-0.4,0.8-0.7,1.1c-0.8,0.9-1.6,0.8-2.4,0c-2.7-2.2-5.8-1.8-8.6-0.9
			c-2,0.7-2.8,2.8-2.7,5.2c0.2,2.4,1.7,3.5,3.4,4.5c1,0.6,2.2,1,3.4,1.3c3.8,0.6,6.7,2.5,8.6,5.8c0,1.9,0,3.8,0,5.8
			c-2.2,1.7-3.7,4.1-6.4,5.1C165.4,165.4,163.3,165.4,161.2,165.4z"/>
		<path class="st0" d="M13.5,165.4c-1.3-1.1-3.4-1.1-4.3-2.8c-0.4-0.7-2.1-1.1-1.1-2.1c0.9-0.9,2.3-1.4,3.5,0.1
			c2.4,2.9,5.4,2.7,8.6,1.5c2.5-0.9,3.5-2.9,3.5-5.4c0-2.3-1.8-3.5-3.6-4.3c-2.2-0.9-4.5-1.5-6.6-2.5c-4.3-1.9-6.1-5.5-5-9.7
			c0.9-3.6,3.8-5.7,8.3-5.6c2.8,0.1,5.8-0.8,8,1.9c0.5,0.6,1.6,1.2,0.5,2c-0.6,0.5-1.2,1.1-2.4,0.1c-3.8-3-9.4-2-11.1,1.5
			c-1.3,2.6-0.3,4.4,1.6,6.2c1.9,1.7,4.3,2.1,6.5,2.9c3.2,1.1,6.1,2.3,6.6,6.1c0.6,4.4-0.9,7.6-5.2,9.3c-0.2,0.1-0.4,0.4-0.6,0.6
			C18.2,165.4,15.8,165.4,13.5,165.4z"/>
		<path class="st0" d="M45.5,165.4c-5.1-2.2-8.2-5.6-7.7-11.6c0.3-3.3,2.5-7.1,5.5-8.1c4-1.4,7.8-1.1,11.2,1.5
			c0.4,0.3,1,0.9,0.4,1.3c-0.8,0.4-1.4,1.4-2.7,0.3c-2.5-2.1-5.5-2-8.2-0.5c-2.8,1.5-3.9,4.3-3.5,7.5c0.3,3,1.6,5.3,4.6,6.5
			c2.6,1,5,0.9,6.9-1.1c1-1,1.7-1,2.5,0c1.2,1.3-0.5,1.5-0.9,2.1c-0.8,1.3-2.6,1-3.6,2.1C48.4,165.4,47,165.4,45.5,165.4z"/>
		<path class="st1" d="M58.8,21.5c0.8-0.8-0.1-1.6,0-2.3c1.4-0.7,1.9-2.2,2.7-3.4c1.9,3,4.3,4.7,8.2,4c1.4-0.3,3.1,0.4,4.5,0.9
			c4.8,1.6,9.2,3.7,9.6,9.7c0,0.5,0.3,0.7,0.7,0.9c2.7,2,10.3,0.9,12-1.9c0.4-0.6,0.8-1.6,0.2-2.6c-0.8-1.5-1.8-2.8-3.5-3.1
			c-3.1-0.6-6-1.9-8.7-3.4c-2.9-1.6-5.7-3.3-5.8-7.2c0-1.1-0.8-0.9-1.5-1.1c-3.4-1.5-7.3-0.7-10.7-2c0-0.8,0-1.6,0-2.4
			c6.2,0.1,12,3,18.5,2c6.3-1,12.5,0.4,17.8,4.5c3.8,2.9,3.6,6.7-0.7,8.7c-1.6,0.8-1.2,1.3-0.7,2.7c1.5,4.5,5.7,4.8,9.2,6.2
			c1.7,0.7,2.7-1.8,4.4-2c-4.3-7.2-4.2-8.9,0.7-10.9c-2.9-5.1-10.8-4.6-12.6-11c2-0.8,3.7,0.1,5.3,0.9c2.1,1.1,4.4,2.1,6.4,3.4
			c1.1,0.7,2.4,1.4,2,3.7c-0.3,1.7,2.3,3.5,4.1,4.4c4.6,2.5,7.8,6.1,10.6,10.5c1.4,2.2,3,5.7,7.1,5.1c0.5-0.1,1.4,1,1.8,1.7
			c1.6,3.2,3.1,6.5,4.7,9.8c0.5,0.9,0.3,1.7-0.6,2.2c-0.9,0.6-1.5,0.1-2.2-0.5c-2.2-1.9-3.8-4.3-4.5-7c-0.4-1.5-1.1-2.4-2.1-3.4
			c-1.1-1.1-2-2.8-3.4-0.1c-0.5,1-2.1,1.3-3.7,0.6c-2.7-1.2-5.5-2.2-7.6-4.2c-2.4-2.3-4.1-1.3-6.4,0.3c2.1,2.5,3.6,5.2,4.7,8.3
			c0.8,2.2,3.8,3.1,6,4.3c0.4,0.2,0.6-0.2,1-0.5c3.1-3.2,6-3.4,9.4-0.4c5.1,4.5,7.7,10.5,9.1,17.1c0.6,2.9-2.1,5.7-0.4,8.7
			c0.4,0.7,0.4,1.4,0.2,2.1c-0.6,0-1.3,0-1.9,0c-1.2-1.3-0.1-3.8-2.4-4.5c-6.6-2.1-10.7-6.8-13.2-13c-1.1-2.8-3.3-4.2-5.4-6.1
			c-3.7-3.3-5.2,0.9-7.5,1.8c-2,0.8,0.1,2.4,0.2,3.6c0.3,2.2,0.5,4.4,3.4,4.7c6.7,0.9,12.7,8.9,13.5,14.5c0.5,3.3,0,7.1,4.4,8.4
			c0.1,1.7-2.5,2-2,4c-2.2-1.5-3.9-1.1-6.1,0.6c-5.1,4-9.7,3.6-16.1-0.6c-6.3-4.1-9.5-13.2-7.2-20.1c0.9-2.7,2.8-4.4,4.9-6
			c1.1-0.8,1.3-1.2,1-2.7c-0.6-3.4-1.5-6.1-5.7-6.6c-1.7-0.2-3.4-1.5-5-2.4c-0.9-0.5-1.8-1.7-2.7-1.1c-1.5,1.1-2.8,2.6-4,4
			c-0.5,0.7,0.6,1.2,1,1.8c3.3,5,3.1,13.4-0.3,16.6c-1.8,1.7-3.3,3.9-5.7,4.7c-1.5,0.5-1.6,1-1,2.2c0.2,0.4,0.2,0.8,0.3,1.2
			c0.9,4.6,2.2,8.3,8.1,8.3c3.1,0,6,1.5,7.9,4.3c-0.7,0.9-1.7,0.8-2.6,0.7c-5.3-0.9-10.7-1.6-15.4-4.5c-1-2.9-2.3-5.7-3-8.7
			c-0.4-1.7-0.9-1.8-2.4-2c-9.1-1.3-15.4-6.1-16.9-15.6c-0.4-2.6-2.7-1.1-3.4-2.4c0-1.5,0-3,0.1-4.5c2.9,1.3,4.6,0.4,6.1-2.4
			c2.6-5.1,10.7-6.6,15.6-5.5c1.5,0.3,3,0.4,4.5,1.2c3.4,1.8,6,0.8,7.9-2.5c0.1-0.1,0.2-0.2,0.2-0.2c-1.3-2.8-2.2-6.1-4.2-8.2
			c-1.4-1.5-4.4-1.4-6.7-1.9c-0.9-0.2-1.3,0.6-1.8,1.1c-7,6.6-20.6,5.4-26-2.4C56.3,30.2,58.2,26,58.8,21.5z"/>
		<path class="st0" d="M85,88.6c4.7,3,10.1,3.6,15.4,4.5c0.9,0.2,1.9,0.2,2.6-0.7c5.2,3.8,7.3,13.4,3.8,20.8
			c-3.1,6.4-10.9,11.2-17.9,9.9c-7.2-1.3-12.3-5.7-14.4-12.9C71.9,101.6,76.6,91.7,85,88.6z"/>
		<path class="st0" d="M59.5,55.4c0,1.5,0,3-0.1,4.5c-0.7,0.2-1.2-0.3-1.7-0.5c-4.9-2.3-7.9,0.3-11.7,3.3c-7.3,6-16.2,5.6-23.4-0.4
			c-3.9-3.2-5.9-7.7-5-12.8c1.2-6.7,5.6-10.8,12.1-12.4c7.4-1.9,14-0.2,19.3,5.6c1.9,2.1,3.1,4.5,2.9,7.3c-0.2,2.5,0.5,3.7,3.1,4
			C56.4,54.1,57.9,54.9,59.5,55.4z"/>
		<path class="st0" d="M83.1,149.4c0-4.1,0-8.3,0-12.4c0-1-0.3-2.2,1.4-2.2c4.6,0,9.2-0.2,13.8,1.1c8.4,2.4,10.8,9.6,9.7,17
			c-1,6.8-7.2,11.9-14.3,11.7c-3.5-0.1-8.1,1.5-10.1-0.6c-1.7-1.9-0.5-6.5-0.6-9.8C83,152.6,83.1,151,83.1,149.4z M91.4,137.9
			c-0.8,0-1.4,0.1-1.9,0c-2.8-0.4-3.9,0.5-3.7,3.5c0.3,4.7,0.1,9.4,0.1,14c0,7.4,0.4,7.8,7.7,6.7c1-0.1,2-0.4,3-0.7
			c8.6-2.7,11.1-11.7,6.7-18.5C100.5,138.7,96,137.7,91.4,137.9z"/>
		<path class="st0" d="M131.3,156.9c-0.2,0-0.4,0-0.6,0c-5.3-1-8.8,0.8-9.8,6.4c-0.2,1.4-1.3,1.7-2.4,1.4c-1.3-0.3-0.8-1.2-0.4-1.9
			c3.7-8.5,7.5-16.9,11.1-25.4c0.6-1.5,1.3-2.1,2.9-2c1.8,0,1.7,1.3,2.2,2.4c3.2,7.7,6.5,15.3,9.8,23c0.2,0.5,0.4,0.9,0.7,1.4
			c0.4,0.9,0.9,2-0.1,2.5c-1.1,0.5-2.3,0.2-2.7-1.4c-0.3-1.2-1.1-2.2-1.4-3.4c-0.6-2.5-2.1-3.3-4.6-3
			C134.5,157.1,132.9,156.9,131.3,156.9z M131.6,138.2c-2.3,5.5-4.3,10-6.2,14.6c-0.4,0.9,0.3,1.3,1.2,1.3c3.8,0,7.5,0,11.5,0
			C136,148.9,134,144.1,131.6,138.2z"/>
		<path class="st0" d="M133.6,88.1c-0.5-1.9,2.1-2.2,2-4c1.4,0.7,2.8,1.4,4.1,2.1c0.6,0.3,1.2,1.1,1.7-0.2c0.7-2.2,2.5-4.2,1.9-6.8
			c-0.3-1.5-0.5-3.1-0.8-4.6c0.6,0,1.3,0,1.9,0c0.5,0.7,0.8,1.5,0.7,2.3c0,1-0.4,2,1.4,2.2c1.3,0.1,1.7,1.6,1.7,2.7
			c0.4,6.1-0.2,12.1-2.9,17.7c-0.4,0.7-0.9,1.4-1.4,2c-0.9,1.1-2,2.2-3.5,1.5c-1.3-0.6-1.8-2-1.7-3.5c0.2-2.2-0.5-4.4,0.6-6.5
			c0.5-1.1-0.2-1.9-1.3-2.4C136.6,90,135.1,89.1,133.6,88.1z"/>
		<path class="st0" d="M61.5,15.8c-0.8,1.2-1.3,2.7-2.7,3.4c-0.3-0.3-0.8-0.5-0.9-0.8c-1.3-3.1-3.6-4.3-6.9-3.7
			c-0.9,0.1-2,0.3-2.8-0.1C47,14,45,14.4,44.8,12.3c-0.2-1.8,1.2-2.9,2.4-3.4c4.7-1.6,9.3-3.5,14.4-2.1c1.6,0.4,3.4-0.4,4.8,0.8
			c0,0.8,0,1.6,0,2.4c-1.4,0.7-2.7,1.6-4.1,2C59.7,12.8,60.1,14.1,61.5,15.8z"/>
		<path class="st0" d="M69,154.9c0,2.5,0,5.1,0,7.6c0,1,0.3,2.2-1.4,2.2c-1.5,0-1.2-1.1-1.3-2c0-5.2,0-10.4,0-15.6
			c0-0.9-0.4-2,1.2-2c1.7,0,1.5,1.1,1.5,2.2C69,149.8,69,152.4,69,154.9C69,154.9,69,154.9,69,154.9z"/>
		<path class="st0" d="M58.8,21.5c-0.6,4.5-2.5,8.7-3.8,13C50.9,30.1,52.5,24.1,58.8,21.5z"/>
		<path class="st0" d="M67.7,139.2c-1.5,0.1-2.4-0.3-2.4-1.7c0.1-1.4,1.1-1.5,2.3-1.5c1.3-0.1,1.6,0.5,1.6,1.7
			C69.1,139,68.7,139.5,67.7,139.2z"/>
	</g>
</g>
</svg>
